solid Default
  facet normal -8.164967e-01 -2.886749e-01 4.999998e-01
    outer loop
      vertex -1.425746e+01 -3.499021e+01 6.010410e+00
      vertex -1.425746e+01 -2.457988e+01 1.202082e+01
      vertex -1.671120e+01 -2.804999e+01 6.010410e+00
    endloop
  endfacet
  facet normal -8.164967e-01 -2.886749e-01 -4.999998e-01
    outer loop
      vertex -1.180373e+01 -3.152010e+01 0.000000e+00
      vertex -1.425746e+01 -3.499021e+01 6.010410e+00
      vertex -1.671120e+01 -2.804999e+01 6.010410e+00
    endloop
  endfacet
  facet normal -8.164967e-01 -2.886749e-01 -4.999998e-01
    outer loop
      vertex -1.425746e+01 -2.457988e+01 0.000000e+00
      vertex -1.180373e+01 -3.152010e+01 0.000000e+00
      vertex -1.671120e+01 -2.804999e+01 6.010410e+00
    endloop
  endfacet
  facet normal -8.164968e-01 5.773499e-01 0.000000e+00
    outer loop
      vertex -1.425746e+01 -2.457988e+01 1.202082e+01
      vertex -1.425746e+01 -2.457988e+01 0.000000e+00
      vertex -1.671120e+01 -2.804999e+01 6.010410e+00
    endloop
  endfacet
  facet normal 0.000000e+00 -8.660249e-01 5.000010e-01
    outer loop
      vertex -6.896255e+00 -3.499021e+01 6.010410e+00
      vertex -4.442524e+00 -3.152010e+01 1.202082e+01
      vertex -1.180373e+01 -3.152010e+01 1.202082e+01
    endloop
  endfacet
  facet normal 0.000000e+00 -8.660249e-01 5.000010e-01
    outer loop
      vertex -1.425746e+01 -3.499021e+01 6.010410e+00
      vertex -6.896255e+00 -3.499021e+01 6.010410e+00
      vertex -1.180373e+01 -3.152010e+01 1.202082e+01
    endloop
  endfacet
  facet normal -0.000000e+00 -8.660249e-01 -5.000010e-01
    outer loop
      vertex -1.180373e+01 -3.152010e+01 0.000000e+00
      vertex -4.442524e+00 -3.152010e+01 0.000000e+00
      vertex -6.896255e+00 -3.499021e+01 6.010410e+00
    endloop
  endfacet
  facet normal -0.000000e+00 -8.660249e-01 -5.000010e-01
    outer loop
      vertex -1.425746e+01 -3.499021e+01 6.010410e+00
      vertex -1.180373e+01 -3.152010e+01 0.000000e+00
      vertex -6.896255e+00 -3.499021e+01 6.010410e+00
    endloop
  endfacet
  facet normal -8.164967e-01 -2.886749e-01 4.999998e-01
    outer loop
      vertex -1.180373e+01 -3.152010e+01 1.202082e+01
      vertex -1.425746e+01 -2.457988e+01 1.202082e+01
      vertex -1.425746e+01 -3.499021e+01 6.010410e+00
    endloop
  endfacet
  facet normal 0.000000e+00 0.000000e+00 1.000000e+00
    outer loop
      vertex -1.180373e+01 -3.152010e+01 1.202082e+01
      vertex -4.442524e+00 -3.152010e+01 1.202082e+01
      vertex -6.896255e+00 -2.457988e+01 1.202082e+01
    endloop
  endfacet
  facet normal 0.000000e+00 0.000000e+00 1.000000e+00
    outer loop
      vertex -1.425746e+01 -2.457988e+01 1.202082e+01
      vertex -1.180373e+01 -3.152010e+01 1.202082e+01
      vertex -6.896255e+00 -2.457988e+01 1.202082e+01
    endloop
  endfacet
  facet normal -8.164973e-01 5.773492e-01 0.000000e+00
    outer loop
      vertex -1.425746e+01 -2.457988e+01 1.202082e+01
      vertex -1.180373e+01 -2.110977e+01 6.010410e+00
      vertex -1.425746e+01 -2.457988e+01 0.000000e+00
    endloop
  endfacet
  facet normal 0.000000e+00 8.660249e-01 5.000010e-01
    outer loop
      vertex -4.442524e+00 -2.110977e+01 6.010410e+00
      vertex -1.180373e+01 -2.110977e+01 6.010410e+00
      vertex -6.896255e+00 -2.457988e+01 1.202082e+01
    endloop
  endfacet
  facet normal 0.000000e+00 8.660249e-01 5.000010e-01
    outer loop
      vertex -6.896255e+00 -2.457988e+01 1.202082e+01
      vertex -1.180373e+01 -2.110977e+01 6.010410e+00
      vertex -1.425746e+01 -2.457988e+01 1.202082e+01
    endloop
  endfacet
  facet normal 0.000000e+00 0.000000e+00 -1.000000e+00
    outer loop
      vertex -4.442524e+00 -3.152010e+01 0.000000e+00
      vertex -1.180373e+01 -3.152010e+01 0.000000e+00
      vertex -6.896255e+00 -2.457988e+01 0.000000e+00
    endloop
  endfacet
  facet normal 0.000000e+00 0.000000e+00 -1.000000e+00
    outer loop
      vertex -6.896255e+00 -2.457988e+01 0.000000e+00
      vertex -1.180373e+01 -3.152010e+01 0.000000e+00
      vertex -1.425746e+01 -2.457988e+01 0.000000e+00
    endloop
  endfacet
  facet normal 0.000000e+00 8.660249e-01 -5.000010e-01
    outer loop
      vertex -4.442524e+00 -2.110977e+01 6.010410e+00
      vertex -6.896255e+00 -2.457988e+01 0.000000e+00
      vertex -1.180373e+01 -2.110977e+01 6.010410e+00
    endloop
  endfacet
  facet normal 0.000000e+00 8.660249e-01 -5.000010e-01
    outer loop
      vertex -1.180373e+01 -2.110977e+01 6.010410e+00
      vertex -6.896255e+00 -2.457988e+01 0.000000e+00
      vertex -1.425746e+01 -2.457988e+01 0.000000e+00
    endloop
  endfacet
  facet normal 8.164968e-01 -5.773499e-01 4.082479e-07
    outer loop
      vertex -1.988785e+00 -2.804999e+01 6.010410e+00
      vertex -4.442524e+00 -3.152010e+01 1.202082e+01
      vertex -6.896255e+00 -3.499021e+01 6.010410e+00
    endloop
  endfacet
  facet normal 8.164968e-01 -5.773499e-01 -4.082479e-07
    outer loop
      vertex -4.442524e+00 -3.152010e+01 0.000000e+00
      vertex -1.988785e+00 -2.804999e+01 6.010410e+00
      vertex -6.896255e+00 -3.499021e+01 6.010410e+00
    endloop
  endfacet
  facet normal 8.164967e-01 2.886749e-01 4.999998e-01
    outer loop
      vertex -4.442524e+00 -3.152010e+01 1.202082e+01
      vertex -4.442524e+00 -2.110977e+01 6.010410e+00
      vertex -6.896255e+00 -2.457988e+01 1.202082e+01
    endloop
  endfacet
  facet normal 8.164967e-01 2.886749e-01 4.999998e-01
    outer loop
      vertex -1.988785e+00 -2.804999e+01 6.010410e+00
      vertex -4.442524e+00 -2.110977e+01 6.010410e+00
      vertex -4.442524e+00 -3.152010e+01 1.202082e+01
    endloop
  endfacet
  facet normal 8.164967e-01 2.886749e-01 -4.999998e-01
    outer loop
      vertex -1.988785e+00 -2.804999e+01 6.010410e+00
      vertex -4.442524e+00 -3.152010e+01 0.000000e+00
      vertex -6.896255e+00 -2.457988e+01 0.000000e+00
    endloop
  endfacet
  facet normal 8.164967e-01 2.886749e-01 -4.999998e-01
    outer loop
      vertex -4.442524e+00 -2.110977e+01 6.010410e+00
      vertex -1.988785e+00 -2.804999e+01 6.010410e+00
      vertex -6.896255e+00 -2.457988e+01 0.000000e+00
    endloop
  endfacet
  facet normal -8.164967e-01 -2.886749e-01 4.999998e-01
    outer loop
      vertex -1.425746e+01 -1.629019e+01 6.010410e+00
      vertex -1.425746e+01 -5.879890e+00 1.202082e+01
      vertex -1.671120e+01 -9.349989e+00 6.010410e+00
    endloop
  endfacet
  facet normal -8.164967e-01 -2.886749e-01 -4.999998e-01
    outer loop
      vertex -1.180373e+01 -1.282009e+01 0.000000e+00
      vertex -1.425746e+01 -1.629019e+01 6.010410e+00
      vertex -1.671120e+01 -9.349989e+00 6.010410e+00
    endloop
  endfacet
  facet normal -8.164967e-01 -2.886749e-01 -4.999998e-01
    outer loop
      vertex -1.425746e+01 -5.879890e+00 0.000000e+00
      vertex -1.180373e+01 -1.282009e+01 0.000000e+00
      vertex -1.671120e+01 -9.349989e+00 6.010410e+00
    endloop
  endfacet
  facet normal -8.164968e-01 5.773499e-01 0.000000e+00
    outer loop
      vertex -1.425746e+01 -5.879890e+00 1.202082e+01
      vertex -1.425746e+01 -5.879890e+00 0.000000e+00
      vertex -1.671120e+01 -9.349989e+00 6.010410e+00
    endloop
  endfacet
  facet normal 0.000000e+00 -8.660249e-01 5.000010e-01
    outer loop
      vertex -6.896255e+00 -1.629019e+01 6.010410e+00
      vertex -4.442524e+00 -1.282009e+01 1.202082e+01
      vertex -1.180373e+01 -1.282009e+01 1.202082e+01
    endloop
  endfacet
  facet normal 0.000000e+00 -8.660249e-01 5.000010e-01
    outer loop
      vertex -1.425746e+01 -1.629019e+01 6.010410e+00
      vertex -6.896255e+00 -1.629019e+01 6.010410e+00
      vertex -1.180373e+01 -1.282009e+01 1.202082e+01
    endloop
  endfacet
  facet normal -0.000000e+00 -8.660249e-01 -5.000010e-01
    outer loop
      vertex -1.180373e+01 -1.282009e+01 0.000000e+00
      vertex -4.442524e+00 -1.282009e+01 0.000000e+00
      vertex -6.896255e+00 -1.629019e+01 6.010410e+00
    endloop
  endfacet
  facet normal -0.000000e+00 -8.660249e-01 -5.000010e-01
    outer loop
      vertex -1.425746e+01 -1.629019e+01 6.010410e+00
      vertex -1.180373e+01 -1.282009e+01 0.000000e+00
      vertex -6.896255e+00 -1.629019e+01 6.010410e+00
    endloop
  endfacet
  facet normal -8.164967e-01 -2.886749e-01 4.999998e-01
    outer loop
      vertex -1.180373e+01 -1.282009e+01 1.202082e+01
      vertex -1.425746e+01 -5.879890e+00 1.202082e+01
      vertex -1.425746e+01 -1.629019e+01 6.010410e+00
    endloop
  endfacet
  facet normal 0.000000e+00 0.000000e+00 1.000000e+00
    outer loop
      vertex -1.180373e+01 -1.282009e+01 1.202082e+01
      vertex -4.442524e+00 -1.282009e+01 1.202082e+01
      vertex -6.896255e+00 -5.879890e+00 1.202082e+01
    endloop
  endfacet
  facet normal 0.000000e+00 0.000000e+00 1.000000e+00
    outer loop
      vertex -1.425746e+01 -5.879890e+00 1.202082e+01
      vertex -1.180373e+01 -1.282009e+01 1.202082e+01
      vertex -6.896255e+00 -5.879890e+00 1.202082e+01
    endloop
  endfacet
  facet normal -8.164973e-01 5.773492e-01 0.000000e+00
    outer loop
      vertex -1.425746e+01 -5.879890e+00 1.202082e+01
      vertex -1.180373e+01 -2.409790e+00 6.010410e+00
      vertex -1.425746e+01 -5.879890e+00 0.000000e+00
    endloop
  endfacet
  facet normal 0.000000e+00 8.660249e-01 5.000010e-01
    outer loop
      vertex -4.442524e+00 -2.409790e+00 6.010410e+00
      vertex -1.180373e+01 -2.409790e+00 6.010410e+00
      vertex -6.896255e+00 -5.879890e+00 1.202082e+01
    endloop
  endfacet
  facet normal 0.000000e+00 8.660249e-01 5.000010e-01
    outer loop
      vertex -6.896255e+00 -5.879890e+00 1.202082e+01
      vertex -1.180373e+01 -2.409790e+00 6.010410e+00
      vertex -1.425746e+01 -5.879890e+00 1.202082e+01
    endloop
  endfacet
  facet normal 0.000000e+00 0.000000e+00 -1.000000e+00
    outer loop
      vertex -4.442524e+00 -1.282009e+01 0.000000e+00
      vertex -1.180373e+01 -1.282009e+01 0.000000e+00
      vertex -6.896255e+00 -5.879890e+00 0.000000e+00
    endloop
  endfacet
  facet normal 0.000000e+00 0.000000e+00 -1.000000e+00
    outer loop
      vertex -6.896255e+00 -5.879890e+00 0.000000e+00
      vertex -1.180373e+01 -1.282009e+01 0.000000e+00
      vertex -1.425746e+01 -5.879890e+00 0.000000e+00
    endloop
  endfacet
  facet normal 0.000000e+00 8.660249e-01 -5.000010e-01
    outer loop
      vertex -4.442524e+00 -2.409790e+00 6.010410e+00
      vertex -6.896255e+00 -5.879890e+00 0.000000e+00
      vertex -1.180373e+01 -2.409790e+00 6.010410e+00
    endloop
  endfacet
  facet normal 0.000000e+00 8.660249e-01 -5.000010e-01
    outer loop
      vertex -1.180373e+01 -2.409790e+00 6.010410e+00
      vertex -6.896255e+00 -5.879890e+00 0.000000e+00
      vertex -1.425746e+01 -5.879890e+00 0.000000e+00
    endloop
  endfacet
  facet normal 8.164968e-01 -5.773499e-01 4.082479e-07
    outer loop
      vertex -1.988785e+00 -9.349989e+00 6.010410e+00
      vertex -4.442524e+00 -1.282009e+01 1.202082e+01
      vertex -6.896255e+00 -1.629019e+01 6.010410e+00
    endloop
  endfacet
  facet normal 8.164968e-01 -5.773499e-01 -4.082479e-07
    outer loop
      vertex -4.442524e+00 -1.282009e+01 0.000000e+00
      vertex -1.988785e+00 -9.349989e+00 6.010410e+00
      vertex -6.896255e+00 -1.629019e+01 6.010410e+00
    endloop
  endfacet
  facet normal 8.164967e-01 2.886749e-01 4.999998e-01
    outer loop
      vertex -4.442524e+00 -1.282009e+01 1.202082e+01
      vertex -4.442524e+00 -2.409790e+00 6.010410e+00
      vertex -6.896255e+00 -5.879890e+00 1.202082e+01
    endloop
  endfacet
  facet normal 8.164967e-01 2.886749e-01 4.999998e-01
    outer loop
      vertex -1.988785e+00 -9.349989e+00 6.010410e+00
      vertex -4.442524e+00 -2.409790e+00 6.010410e+00
      vertex -4.442524e+00 -1.282009e+01 1.202082e+01
    endloop
  endfacet
  facet normal 8.164967e-01 2.886749e-01 -4.999998e-01
    outer loop
      vertex -1.988785e+00 -9.349989e+00 6.010410e+00
      vertex -4.442524e+00 -1.282009e+01 0.000000e+00
      vertex -6.896255e+00 -5.879890e+00 0.000000e+00
    endloop
  endfacet
  facet normal 8.164967e-01 2.886749e-01 -4.999998e-01
    outer loop
      vertex -4.442524e+00 -2.409790e+00 6.010410e+00
      vertex -1.988785e+00 -9.349989e+00 6.010410e+00
      vertex -6.896255e+00 -5.879890e+00 0.000000e+00
    endloop
  endfacet
  facet normal -8.164967e-01 -2.886749e-01 4.999998e-01
    outer loop
      vertex -1.425746e+01 2.409811e+00 6.010410e+00
      vertex -1.425746e+01 1.282011e+01 1.202082e+01
      vertex -1.671120e+01 9.350012e+00 6.010410e+00
    endloop
  endfacet
  facet normal -8.164967e-01 -2.886749e-01 -4.999998e-01
    outer loop
      vertex -1.180373e+01 5.879911e+00 0.000000e+00
      vertex -1.425746e+01 2.409811e+00 6.010410e+00
      vertex -1.671120e+01 9.350012e+00 6.010410e+00
    endloop
  endfacet
  facet normal -8.164967e-01 -2.886749e-01 -4.999998e-01
    outer loop
      vertex -1.425746e+01 1.282011e+01 0.000000e+00
      vertex -1.180373e+01 5.879911e+00 0.000000e+00
      vertex -1.671120e+01 9.350012e+00 6.010410e+00
    endloop
  endfacet
  facet normal -8.164968e-01 5.773499e-01 0.000000e+00
    outer loop
      vertex -1.425746e+01 1.282011e+01 1.202082e+01
      vertex -1.425746e+01 1.282011e+01 0.000000e+00
      vertex -1.671120e+01 9.350012e+00 6.010410e+00
    endloop
  endfacet
  facet normal 0.000000e+00 -8.660249e-01 5.000010e-01
    outer loop
      vertex -6.896255e+00 2.409811e+00 6.010410e+00
      vertex -4.442524e+00 5.879911e+00 1.202082e+01
      vertex -1.180373e+01 5.879911e+00 1.202082e+01
    endloop
  endfacet
  facet normal 0.000000e+00 -8.660249e-01 5.000010e-01
    outer loop
      vertex -1.425746e+01 2.409811e+00 6.010410e+00
      vertex -6.896255e+00 2.409811e+00 6.010410e+00
      vertex -1.180373e+01 5.879911e+00 1.202082e+01
    endloop
  endfacet
  facet normal -0.000000e+00 -8.660249e-01 -5.000010e-01
    outer loop
      vertex -1.180373e+01 5.879911e+00 0.000000e+00
      vertex -4.442524e+00 5.879911e+00 0.000000e+00
      vertex -6.896255e+00 2.409811e+00 6.010410e+00
    endloop
  endfacet
  facet normal -0.000000e+00 -8.660249e-01 -5.000010e-01
    outer loop
      vertex -1.425746e+01 2.409811e+00 6.010410e+00
      vertex -1.180373e+01 5.879911e+00 0.000000e+00
      vertex -6.896255e+00 2.409811e+00 6.010410e+00
    endloop
  endfacet
  facet normal -8.164967e-01 -2.886749e-01 4.999998e-01
    outer loop
      vertex -1.180373e+01 5.879911e+00 1.202082e+01
      vertex -1.425746e+01 1.282011e+01 1.202082e+01
      vertex -1.425746e+01 2.409811e+00 6.010410e+00
    endloop
  endfacet
  facet normal 0.000000e+00 0.000000e+00 1.000000e+00
    outer loop
      vertex -1.180373e+01 5.879911e+00 1.202082e+01
      vertex -4.442524e+00 5.879911e+00 1.202082e+01
      vertex -6.896255e+00 1.282011e+01 1.202082e+01
    endloop
  endfacet
  facet normal 0.000000e+00 0.000000e+00 1.000000e+00
    outer loop
      vertex -1.425746e+01 1.282011e+01 1.202082e+01
      vertex -1.180373e+01 5.879911e+00 1.202082e+01
      vertex -6.896255e+00 1.282011e+01 1.202082e+01
    endloop
  endfacet
  facet normal -8.164973e-01 5.773492e-01 0.000000e+00
    outer loop
      vertex -1.425746e+01 1.282011e+01 1.202082e+01
      vertex -1.180373e+01 1.629021e+01 6.010410e+00
      vertex -1.425746e+01 1.282011e+01 0.000000e+00
    endloop
  endfacet
  facet normal 0.000000e+00 8.660249e-01 5.000010e-01
    outer loop
      vertex -4.442524e+00 1.629021e+01 6.010410e+00
      vertex -1.180373e+01 1.629021e+01 6.010410e+00
      vertex -6.896255e+00 1.282011e+01 1.202082e+01
    endloop
  endfacet
  facet normal 0.000000e+00 8.660249e-01 5.000010e-01
    outer loop
      vertex -6.896255e+00 1.282011e+01 1.202082e+01
      vertex -1.180373e+01 1.629021e+01 6.010410e+00
      vertex -1.425746e+01 1.282011e+01 1.202082e+01
    endloop
  endfacet
  facet normal 0.000000e+00 0.000000e+00 -1.000000e+00
    outer loop
      vertex -4.442524e+00 5.879911e+00 0.000000e+00
      vertex -1.180373e+01 5.879911e+00 0.000000e+00
      vertex -6.896255e+00 1.282011e+01 0.000000e+00
    endloop
  endfacet
  facet normal 0.000000e+00 0.000000e+00 -1.000000e+00
    outer loop
      vertex -6.896255e+00 1.282011e+01 0.000000e+00
      vertex -1.180373e+01 5.879911e+00 0.000000e+00
      vertex -1.425746e+01 1.282011e+01 0.000000e+00
    endloop
  endfacet
  facet normal 0.000000e+00 8.660249e-01 -5.000010e-01
    outer loop
      vertex -4.442524e+00 1.629021e+01 6.010410e+00
      vertex -6.896255e+00 1.282011e+01 0.000000e+00
      vertex -1.180373e+01 1.629021e+01 6.010410e+00
    endloop
  endfacet
  facet normal 0.000000e+00 8.660249e-01 -5.000010e-01
    outer loop
      vertex -1.180373e+01 1.629021e+01 6.010410e+00
      vertex -6.896255e+00 1.282011e+01 0.000000e+00
      vertex -1.425746e+01 1.282011e+01 0.000000e+00
    endloop
  endfacet
  facet normal 8.164968e-01 -5.773499e-01 4.082479e-07
    outer loop
      vertex -1.988785e+00 9.350012e+00 6.010410e+00
      vertex -4.442524e+00 5.879911e+00 1.202082e+01
      vertex -6.896255e+00 2.409811e+00 6.010410e+00
    endloop
  endfacet
  facet normal 8.164968e-01 -5.773499e-01 -4.082479e-07
    outer loop
      vertex -4.442524e+00 5.879911e+00 0.000000e+00
      vertex -1.988785e+00 9.350012e+00 6.010410e+00
      vertex -6.896255e+00 2.409811e+00 6.010410e+00
    endloop
  endfacet
  facet normal 8.164967e-01 2.886749e-01 4.999998e-01
    outer loop
      vertex -4.442524e+00 5.879911e+00 1.202082e+01
      vertex -4.442524e+00 1.629021e+01 6.010410e+00
      vertex -6.896255e+00 1.282011e+01 1.202082e+01
    endloop
  endfacet
  facet normal 8.164967e-01 2.886749e-01 4.999998e-01
    outer loop
      vertex -1.988785e+00 9.350012e+00 6.010410e+00
      vertex -4.442524e+00 1.629021e+01 6.010410e+00
      vertex -4.442524e+00 5.879911e+00 1.202082e+01
    endloop
  endfacet
  facet normal 8.164967e-01 2.886749e-01 -4.999998e-01
    outer loop
      vertex -1.988785e+00 9.350012e+00 6.010410e+00
      vertex -4.442524e+00 5.879911e+00 0.000000e+00
      vertex -6.896255e+00 1.282011e+01 0.000000e+00
    endloop
  endfacet
  facet normal 8.164967e-01 2.886749e-01 -4.999998e-01
    outer loop
      vertex -4.442524e+00 1.629021e+01 6.010410e+00
      vertex -1.988785e+00 9.350012e+00 6.010410e+00
      vertex -6.896255e+00 1.282011e+01 0.000000e+00
    endloop
  endfacet
  facet normal -8.164967e-01 -2.886749e-01 4.999998e-01
    outer loop
      vertex -1.425746e+01 2.110981e+01 6.010410e+00
      vertex -1.425746e+01 3.152011e+01 1.202082e+01
      vertex -1.671120e+01 2.805001e+01 6.010410e+00
    endloop
  endfacet
  facet normal -8.164967e-01 -2.886749e-01 -4.999998e-01
    outer loop
      vertex -1.180373e+01 2.457991e+01 0.000000e+00
      vertex -1.425746e+01 2.110981e+01 6.010410e+00
      vertex -1.671120e+01 2.805001e+01 6.010410e+00
    endloop
  endfacet
  facet normal -8.164967e-01 -2.886749e-01 -4.999998e-01
    outer loop
      vertex -1.425746e+01 3.152011e+01 0.000000e+00
      vertex -1.180373e+01 2.457991e+01 0.000000e+00
      vertex -1.671120e+01 2.805001e+01 6.010410e+00
    endloop
  endfacet
  facet normal -8.164968e-01 5.773499e-01 0.000000e+00
    outer loop
      vertex -1.425746e+01 3.152011e+01 1.202082e+01
      vertex -1.425746e+01 3.152011e+01 0.000000e+00
      vertex -1.671120e+01 2.805001e+01 6.010410e+00
    endloop
  endfacet
  facet normal 0.000000e+00 -8.660249e-01 5.000010e-01
    outer loop
      vertex -6.896255e+00 2.110981e+01 6.010410e+00
      vertex -4.442524e+00 2.457991e+01 1.202082e+01
      vertex -1.180373e+01 2.457991e+01 1.202082e+01
    endloop
  endfacet
  facet normal 0.000000e+00 -8.660249e-01 5.000010e-01
    outer loop
      vertex -1.425746e+01 2.110981e+01 6.010410e+00
      vertex -6.896255e+00 2.110981e+01 6.010410e+00
      vertex -1.180373e+01 2.457991e+01 1.202082e+01
    endloop
  endfacet
  facet normal -0.000000e+00 -8.660249e-01 -5.000010e-01
    outer loop
      vertex -1.180373e+01 2.457991e+01 0.000000e+00
      vertex -4.442524e+00 2.457991e+01 0.000000e+00
      vertex -6.896255e+00 2.110981e+01 6.010410e+00
    endloop
  endfacet
  facet normal -0.000000e+00 -8.660249e-01 -5.000010e-01
    outer loop
      vertex -1.425746e+01 2.110981e+01 6.010410e+00
      vertex -1.180373e+01 2.457991e+01 0.000000e+00
      vertex -6.896255e+00 2.110981e+01 6.010410e+00
    endloop
  endfacet
  facet normal -8.164967e-01 -2.886749e-01 4.999998e-01
    outer loop
      vertex -1.180373e+01 2.457991e+01 1.202082e+01
      vertex -1.425746e+01 3.152011e+01 1.202082e+01
      vertex -1.425746e+01 2.110981e+01 6.010410e+00
    endloop
  endfacet
  facet normal 0.000000e+00 0.000000e+00 1.000000e+00
    outer loop
      vertex -1.180373e+01 2.457991e+01 1.202082e+01
      vertex -4.442524e+00 2.457991e+01 1.202082e+01
      vertex -6.896255e+00 3.152011e+01 1.202082e+01
    endloop
  endfacet
  facet normal 0.000000e+00 0.000000e+00 1.000000e+00
    outer loop
      vertex -1.425746e+01 3.152011e+01 1.202082e+01
      vertex -1.180373e+01 2.457991e+01 1.202082e+01
      vertex -6.896255e+00 3.152011e+01 1.202082e+01
    endloop
  endfacet
  facet normal -8.164973e-01 5.773492e-01 0.000000e+00
    outer loop
      vertex -1.425746e+01 3.152011e+01 1.202082e+01
      vertex -1.180373e+01 3.499021e+01 6.010410e+00
      vertex -1.425746e+01 3.152011e+01 0.000000e+00
    endloop
  endfacet
  facet normal 0.000000e+00 8.660249e-01 5.000010e-01
    outer loop
      vertex -4.442524e+00 3.499021e+01 6.010410e+00
      vertex -1.180373e+01 3.499021e+01 6.010410e+00
      vertex -6.896255e+00 3.152011e+01 1.202082e+01
    endloop
  endfacet
  facet normal 0.000000e+00 8.660249e-01 5.000010e-01
    outer loop
      vertex -6.896255e+00 3.152011e+01 1.202082e+01
      vertex -1.180373e+01 3.499021e+01 6.010410e+00
      vertex -1.425746e+01 3.152011e+01 1.202082e+01
    endloop
  endfacet
  facet normal 0.000000e+00 0.000000e+00 -1.000000e+00
    outer loop
      vertex -4.442524e+00 2.457991e+01 0.000000e+00
      vertex -1.180373e+01 2.457991e+01 0.000000e+00
      vertex -6.896255e+00 3.152011e+01 0.000000e+00
    endloop
  endfacet
  facet normal 0.000000e+00 0.000000e+00 -1.000000e+00
    outer loop
      vertex -6.896255e+00 3.152011e+01 0.000000e+00
      vertex -1.180373e+01 2.457991e+01 0.000000e+00
      vertex -1.425746e+01 3.152011e+01 0.000000e+00
    endloop
  endfacet
  facet normal 0.000000e+00 8.660249e-01 -5.000010e-01
    outer loop
      vertex -4.442524e+00 3.499021e+01 6.010410e+00
      vertex -6.896255e+00 3.152011e+01 0.000000e+00
      vertex -1.180373e+01 3.499021e+01 6.010410e+00
    endloop
  endfacet
  facet normal 0.000000e+00 8.660249e-01 -5.000010e-01
    outer loop
      vertex -1.180373e+01 3.499021e+01 6.010410e+00
      vertex -6.896255e+00 3.152011e+01 0.000000e+00
      vertex -1.425746e+01 3.152011e+01 0.000000e+00
    endloop
  endfacet
  facet normal 8.164968e-01 -5.773499e-01 4.082479e-07
    outer loop
      vertex -1.988785e+00 2.805001e+01 6.010410e+00
      vertex -4.442524e+00 2.457991e+01 1.202082e+01
      vertex -6.896255e+00 2.110981e+01 6.010410e+00
    endloop
  endfacet
  facet normal 8.164968e-01 -5.773499e-01 -4.082479e-07
    outer loop
      vertex -4.442524e+00 2.457991e+01 0.000000e+00
      vertex -1.988785e+00 2.805001e+01 6.010410e+00
      vertex -6.896255e+00 2.110981e+01 6.010410e+00
    endloop
  endfacet
  facet normal 8.164967e-01 2.886749e-01 4.999998e-01
    outer loop
      vertex -4.442524e+00 2.457991e+01 1.202082e+01
      vertex -4.442524e+00 3.499021e+01 6.010410e+00
      vertex -6.896255e+00 3.152011e+01 1.202082e+01
    endloop
  endfacet
  facet normal 8.164967e-01 2.886749e-01 4.999998e-01
    outer loop
      vertex -1.988785e+00 2.805001e+01 6.010410e+00
      vertex -4.442524e+00 3.499021e+01 6.010410e+00
      vertex -4.442524e+00 2.457991e+01 1.202082e+01
    endloop
  endfacet
  facet normal 8.164967e-01 2.886749e-01 -4.999998e-01
    outer loop
      vertex -1.988785e+00 2.805001e+01 6.010410e+00
      vertex -4.442524e+00 2.457991e+01 0.000000e+00
      vertex -6.896255e+00 3.152011e+01 0.000000e+00
    endloop
  endfacet
  facet normal 8.164967e-01 2.886749e-01 -4.999998e-01
    outer loop
      vertex -4.442524e+00 3.499021e+01 6.010410e+00
      vertex -1.988785e+00 2.805001e+01 6.010410e+00
      vertex -6.896255e+00 3.152011e+01 0.000000e+00
    endloop
  endfacet
  facet normal -8.164967e-01 -2.886749e-01 4.999998e-01
    outer loop
      vertex 4.442505e+00 -3.499021e+01 6.010410e+00
      vertex 4.442505e+00 -2.457988e+01 1.202082e+01
      vertex 1.988806e+00 -2.804999e+01 6.010410e+00
    endloop
  endfacet
  facet normal -8.164967e-01 -2.886749e-01 -4.999998e-01
    outer loop
      vertex 6.896305e+00 -3.152010e+01 0.000000e+00
      vertex 4.442505e+00 -3.499021e+01 6.010410e+00
      vertex 1.988806e+00 -2.804999e+01 6.010410e+00
    endloop
  endfacet
  facet normal -8.164967e-01 -2.886749e-01 -4.999998e-01
    outer loop
      vertex 4.442505e+00 -2.457988e+01 0.000000e+00
      vertex 6.896305e+00 -3.152010e+01 0.000000e+00
      vertex 1.988806e+00 -2.804999e+01 6.010410e+00
    endloop
  endfacet
  facet normal -8.164968e-01 5.773499e-01 0.000000e+00
    outer loop
      vertex 4.442505e+00 -2.457988e+01 1.202082e+01
      vertex 4.442505e+00 -2.457988e+01 0.000000e+00
      vertex 1.988806e+00 -2.804999e+01 6.010410e+00
    endloop
  endfacet
  facet normal 0.000000e+00 -8.660249e-01 5.000010e-01
    outer loop
      vertex 1.180371e+01 -3.499021e+01 6.010410e+00
      vertex 1.425751e+01 -3.152010e+01 1.202082e+01
      vertex 6.896305e+00 -3.152010e+01 1.202082e+01
    endloop
  endfacet
  facet normal 0.000000e+00 -8.660249e-01 5.000010e-01
    outer loop
      vertex 4.442505e+00 -3.499021e+01 6.010410e+00
      vertex 1.180371e+01 -3.499021e+01 6.010410e+00
      vertex 6.896305e+00 -3.152010e+01 1.202082e+01
    endloop
  endfacet
  facet normal -0.000000e+00 -8.660249e-01 -5.000010e-01
    outer loop
      vertex 6.896305e+00 -3.152010e+01 0.000000e+00
      vertex 1.425751e+01 -3.152010e+01 0.000000e+00
      vertex 1.180371e+01 -3.499021e+01 6.010410e+00
    endloop
  endfacet
  facet normal -0.000000e+00 -8.660249e-01 -5.000010e-01
    outer loop
      vertex 4.442505e+00 -3.499021e+01 6.010410e+00
      vertex 6.896305e+00 -3.152010e+01 0.000000e+00
      vertex 1.180371e+01 -3.499021e+01 6.010410e+00
    endloop
  endfacet
  facet normal -8.164967e-01 -2.886749e-01 4.999998e-01
    outer loop
      vertex 6.896305e+00 -3.152010e+01 1.202082e+01
      vertex 4.442505e+00 -2.457988e+01 1.202082e+01
      vertex 4.442505e+00 -3.499021e+01 6.010410e+00
    endloop
  endfacet
  facet normal 0.000000e+00 0.000000e+00 1.000000e+00
    outer loop
      vertex 6.896305e+00 -3.152010e+01 1.202082e+01
      vertex 1.425751e+01 -3.152010e+01 1.202082e+01
      vertex 1.180371e+01 -2.457988e+01 1.202082e+01
    endloop
  endfacet
  facet normal 0.000000e+00 0.000000e+00 1.000000e+00
    outer loop
      vertex 4.442505e+00 -2.457988e+01 1.202082e+01
      vertex 6.896305e+00 -3.152010e+01 1.202082e+01
      vertex 1.180371e+01 -2.457988e+01 1.202082e+01
    endloop
  endfacet
  facet normal -8.164973e-01 5.773492e-01 0.000000e+00
    outer loop
      vertex 4.442505e+00 -2.457988e+01 1.202082e+01
      vertex 6.896305e+00 -2.110977e+01 6.010410e+00
      vertex 4.442505e+00 -2.457988e+01 0.000000e+00
    endloop
  endfacet
  facet normal 0.000000e+00 8.660249e-01 5.000010e-01
    outer loop
      vertex 1.425751e+01 -2.110977e+01 6.010410e+00
      vertex 6.896305e+00 -2.110977e+01 6.010410e+00
      vertex 1.180371e+01 -2.457988e+01 1.202082e+01
    endloop
  endfacet
  facet normal 0.000000e+00 8.660249e-01 5.000010e-01
    outer loop
      vertex 1.180371e+01 -2.457988e+01 1.202082e+01
      vertex 6.896305e+00 -2.110977e+01 6.010410e+00
      vertex 4.442505e+00 -2.457988e+01 1.202082e+01
    endloop
  endfacet
  facet normal 0.000000e+00 0.000000e+00 -1.000000e+00
    outer loop
      vertex 1.425751e+01 -3.152010e+01 0.000000e+00
      vertex 6.896305e+00 -3.152010e+01 0.000000e+00
      vertex 1.180371e+01 -2.457988e+01 0.000000e+00
    endloop
  endfacet
  facet normal 0.000000e+00 0.000000e+00 -1.000000e+00
    outer loop
      vertex 1.180371e+01 -2.457988e+01 0.000000e+00
      vertex 6.896305e+00 -3.152010e+01 0.000000e+00
      vertex 4.442505e+00 -2.457988e+01 0.000000e+00
    endloop
  endfacet
  facet normal 0.000000e+00 8.660249e-01 -5.000010e-01
    outer loop
      vertex 1.425751e+01 -2.110977e+01 6.010410e+00
      vertex 1.180371e+01 -2.457988e+01 0.000000e+00
      vertex 6.896305e+00 -2.110977e+01 6.010410e+00
    endloop
  endfacet
  facet normal 0.000000e+00 8.660249e-01 -5.000010e-01
    outer loop
      vertex 6.896305e+00 -2.110977e+01 6.010410e+00
      vertex 1.180371e+01 -2.457988e+01 0.000000e+00
      vertex 4.442505e+00 -2.457988e+01 0.000000e+00
    endloop
  endfacet
  facet normal 8.164968e-01 -5.773499e-01 4.082479e-07
    outer loop
      vertex 1.671120e+01 -2.804999e+01 6.010410e+00
      vertex 1.425751e+01 -3.152010e+01 1.202082e+01
      vertex 1.180371e+01 -3.499021e+01 6.010410e+00
    endloop
  endfacet
  facet normal 8.164968e-01 -5.773499e-01 -4.082479e-07
    outer loop
      vertex 1.425751e+01 -3.152010e+01 0.000000e+00
      vertex 1.671120e+01 -2.804999e+01 6.010410e+00
      vertex 1.180371e+01 -3.499021e+01 6.010410e+00
    endloop
  endfacet
  facet normal 8.164967e-01 2.886749e-01 4.999998e-01
    outer loop
      vertex 1.425751e+01 -3.152010e+01 1.202082e+01
      vertex 1.425751e+01 -2.110977e+01 6.010410e+00
      vertex 1.180371e+01 -2.457988e+01 1.202082e+01
    endloop
  endfacet
  facet normal 8.164967e-01 2.886749e-01 4.999998e-01
    outer loop
      vertex 1.671120e+01 -2.804999e+01 6.010410e+00
      vertex 1.425751e+01 -2.110977e+01 6.010410e+00
      vertex 1.425751e+01 -3.152010e+01 1.202082e+01
    endloop
  endfacet
  facet normal 8.164967e-01 2.886749e-01 -4.999998e-01
    outer loop
      vertex 1.671120e+01 -2.804999e+01 6.010410e+00
      vertex 1.425751e+01 -3.152010e+01 0.000000e+00
      vertex 1.180371e+01 -2.457988e+01 0.000000e+00
    endloop
  endfacet
  facet normal 8.164967e-01 2.886749e-01 -4.999998e-01
    outer loop
      vertex 1.425751e+01 -2.110977e+01 6.010410e+00
      vertex 1.671120e+01 -2.804999e+01 6.010410e+00
      vertex 1.180371e+01 -2.457988e+01 0.000000e+00
    endloop
  endfacet
  facet normal -8.164967e-01 -2.886749e-01 4.999998e-01
    outer loop
      vertex 4.442505e+00 -1.629019e+01 6.010410e+00
      vertex 4.442505e+00 -5.879890e+00 1.202082e+01
      vertex 1.988806e+00 -9.349989e+00 6.010410e+00
    endloop
  endfacet
  facet normal -8.164967e-01 -2.886749e-01 -4.999998e-01
    outer loop
      vertex 6.896305e+00 -1.282009e+01 0.000000e+00
      vertex 4.442505e+00 -1.629019e+01 6.010410e+00
      vertex 1.988806e+00 -9.349989e+00 6.010410e+00
    endloop
  endfacet
  facet normal -8.164967e-01 -2.886749e-01 -4.999998e-01
    outer loop
      vertex 4.442505e+00 -5.879890e+00 0.000000e+00
      vertex 6.896305e+00 -1.282009e+01 0.000000e+00
      vertex 1.988806e+00 -9.349989e+00 6.010410e+00
    endloop
  endfacet
  facet normal -8.164968e-01 5.773499e-01 0.000000e+00
    outer loop
      vertex 4.442505e+00 -5.879890e+00 1.202082e+01
      vertex 4.442505e+00 -5.879890e+00 0.000000e+00
      vertex 1.988806e+00 -9.349989e+00 6.010410e+00
    endloop
  endfacet
  facet normal 0.000000e+00 -8.660249e-01 5.000010e-01
    outer loop
      vertex 1.180371e+01 -1.629019e+01 6.010410e+00
      vertex 1.425751e+01 -1.282009e+01 1.202082e+01
      vertex 6.896305e+00 -1.282009e+01 1.202082e+01
    endloop
  endfacet
  facet normal 0.000000e+00 -8.660249e-01 5.000010e-01
    outer loop
      vertex 4.442505e+00 -1.629019e+01 6.010410e+00
      vertex 1.180371e+01 -1.629019e+01 6.010410e+00
      vertex 6.896305e+00 -1.282009e+01 1.202082e+01
    endloop
  endfacet
  facet normal -0.000000e+00 -8.660249e-01 -5.000010e-01
    outer loop
      vertex 6.896305e+00 -1.282009e+01 0.000000e+00
      vertex 1.425751e+01 -1.282009e+01 0.000000e+00
      vertex 1.180371e+01 -1.629019e+01 6.010410e+00
    endloop
  endfacet
  facet normal -0.000000e+00 -8.660249e-01 -5.000010e-01
    outer loop
      vertex 4.442505e+00 -1.629019e+01 6.010410e+00
      vertex 6.896305e+00 -1.282009e+01 0.000000e+00
      vertex 1.180371e+01 -1.629019e+01 6.010410e+00
    endloop
  endfacet
  facet normal -8.164967e-01 -2.886749e-01 4.999998e-01
    outer loop
      vertex 6.896305e+00 -1.282009e+01 1.202082e+01
      vertex 4.442505e+00 -5.879890e+00 1.202082e+01
      vertex 4.442505e+00 -1.629019e+01 6.010410e+00
    endloop
  endfacet
  facet normal 0.000000e+00 0.000000e+00 1.000000e+00
    outer loop
      vertex 6.896305e+00 -1.282009e+01 1.202082e+01
      vertex 1.425751e+01 -1.282009e+01 1.202082e+01
      vertex 1.180371e+01 -5.879890e+00 1.202082e+01
    endloop
  endfacet
  facet normal 0.000000e+00 0.000000e+00 1.000000e+00
    outer loop
      vertex 4.442505e+00 -5.879890e+00 1.202082e+01
      vertex 6.896305e+00 -1.282009e+01 1.202082e+01
      vertex 1.180371e+01 -5.879890e+00 1.202082e+01
    endloop
  endfacet
  facet normal -8.164973e-01 5.773492e-01 0.000000e+00
    outer loop
      vertex 4.442505e+00 -5.879890e+00 1.202082e+01
      vertex 6.896305e+00 -2.409790e+00 6.010410e+00
      vertex 4.442505e+00 -5.879890e+00 0.000000e+00
    endloop
  endfacet
  facet normal 0.000000e+00 8.660249e-01 5.000010e-01
    outer loop
      vertex 1.425751e+01 -2.409790e+00 6.010410e+00
      vertex 6.896305e+00 -2.409790e+00 6.010410e+00
      vertex 1.180371e+01 -5.879890e+00 1.202082e+01
    endloop
  endfacet
  facet normal 0.000000e+00 8.660249e-01 5.000010e-01
    outer loop
      vertex 1.180371e+01 -5.879890e+00 1.202082e+01
      vertex 6.896305e+00 -2.409790e+00 6.010410e+00
      vertex 4.442505e+00 -5.879890e+00 1.202082e+01
    endloop
  endfacet
  facet normal 0.000000e+00 0.000000e+00 -1.000000e+00
    outer loop
      vertex 1.425751e+01 -1.282009e+01 0.000000e+00
      vertex 6.896305e+00 -1.282009e+01 0.000000e+00
      vertex 1.180371e+01 -5.879890e+00 0.000000e+00
    endloop
  endfacet
  facet normal 0.000000e+00 0.000000e+00 -1.000000e+00
    outer loop
      vertex 1.180371e+01 -5.879890e+00 0.000000e+00
      vertex 6.896305e+00 -1.282009e+01 0.000000e+00
      vertex 4.442505e+00 -5.879890e+00 0.000000e+00
    endloop
  endfacet
  facet normal 0.000000e+00 8.660249e-01 -5.000010e-01
    outer loop
      vertex 1.425751e+01 -2.409790e+00 6.010410e+00
      vertex 1.180371e+01 -5.879890e+00 0.000000e+00
      vertex 6.896305e+00 -2.409790e+00 6.010410e+00
    endloop
  endfacet
  facet normal 0.000000e+00 8.660249e-01 -5.000010e-01
    outer loop
      vertex 6.896305e+00 -2.409790e+00 6.010410e+00
      vertex 1.180371e+01 -5.879890e+00 0.000000e+00
      vertex 4.442505e+00 -5.879890e+00 0.000000e+00
    endloop
  endfacet
  facet normal 8.164968e-01 -5.773499e-01 4.082479e-07
    outer loop
      vertex 1.671120e+01 -9.349989e+00 6.010410e+00
      vertex 1.425751e+01 -1.282009e+01 1.202082e+01
      vertex 1.180371e+01 -1.629019e+01 6.010410e+00
    endloop
  endfacet
  facet normal 8.164968e-01 -5.773499e-01 -4.082479e-07
    outer loop
      vertex 1.425751e+01 -1.282009e+01 0.000000e+00
      vertex 1.671120e+01 -9.349989e+00 6.010410e+00
      vertex 1.180371e+01 -1.629019e+01 6.010410e+00
    endloop
  endfacet
  facet normal 8.164967e-01 2.886749e-01 4.999998e-01
    outer loop
      vertex 1.425751e+01 -1.282009e+01 1.202082e+01
      vertex 1.425751e+01 -2.409790e+00 6.010410e+00
      vertex 1.180371e+01 -5.879890e+00 1.202082e+01
    endloop
  endfacet
  facet normal 8.164967e-01 2.886749e-01 4.999998e-01
    outer loop
      vertex 1.671120e+01 -9.349989e+00 6.010410e+00
      vertex 1.425751e+01 -2.409790e+00 6.010410e+00
      vertex 1.425751e+01 -1.282009e+01 1.202082e+01
    endloop
  endfacet
  facet normal 8.164967e-01 2.886749e-01 -4.999998e-01
    outer loop
      vertex 1.671120e+01 -9.349989e+00 6.010410e+00
      vertex 1.425751e+01 -1.282009e+01 0.000000e+00
      vertex 1.180371e+01 -5.879890e+00 0.000000e+00
    endloop
  endfacet
  facet normal 8.164967e-01 2.886749e-01 -4.999998e-01
    outer loop
      vertex 1.425751e+01 -2.409790e+00 6.010410e+00
      vertex 1.671120e+01 -9.349989e+00 6.010410e+00
      vertex 1.180371e+01 -5.879890e+00 0.000000e+00
    endloop
  endfacet
  facet normal -8.164967e-01 -2.886749e-01 4.999998e-01
    outer loop
      vertex 4.442505e+00 2.409811e+00 6.010410e+00
      vertex 4.442505e+00 1.282011e+01 1.202082e+01
      vertex 1.988806e+00 9.350012e+00 6.010410e+00
    endloop
  endfacet
  facet normal -8.164967e-01 -2.886749e-01 -4.999998e-01
    outer loop
      vertex 6.896305e+00 5.879911e+00 0.000000e+00
      vertex 4.442505e+00 2.409811e+00 6.010410e+00
      vertex 1.988806e+00 9.350012e+00 6.010410e+00
    endloop
  endfacet
  facet normal -8.164967e-01 -2.886749e-01 -4.999998e-01
    outer loop
      vertex 4.442505e+00 1.282011e+01 0.000000e+00
      vertex 6.896305e+00 5.879911e+00 0.000000e+00
      vertex 1.988806e+00 9.350012e+00 6.010410e+00
    endloop
  endfacet
  facet normal -8.164968e-01 5.773499e-01 0.000000e+00
    outer loop
      vertex 4.442505e+00 1.282011e+01 1.202082e+01
      vertex 4.442505e+00 1.282011e+01 0.000000e+00
      vertex 1.988806e+00 9.350012e+00 6.010410e+00
    endloop
  endfacet
  facet normal 0.000000e+00 -8.660249e-01 5.000010e-01
    outer loop
      vertex 1.180371e+01 2.409811e+00 6.010410e+00
      vertex 1.425751e+01 5.879911e+00 1.202082e+01
      vertex 6.896305e+00 5.879911e+00 1.202082e+01
    endloop
  endfacet
  facet normal 0.000000e+00 -8.660249e-01 5.000010e-01
    outer loop
      vertex 4.442505e+00 2.409811e+00 6.010410e+00
      vertex 1.180371e+01 2.409811e+00 6.010410e+00
      vertex 6.896305e+00 5.879911e+00 1.202082e+01
    endloop
  endfacet
  facet normal -0.000000e+00 -8.660249e-01 -5.000010e-01
    outer loop
      vertex 6.896305e+00 5.879911e+00 0.000000e+00
      vertex 1.425751e+01 5.879911e+00 0.000000e+00
      vertex 1.180371e+01 2.409811e+00 6.010410e+00
    endloop
  endfacet
  facet normal -0.000000e+00 -8.660249e-01 -5.000010e-01
    outer loop
      vertex 4.442505e+00 2.409811e+00 6.010410e+00
      vertex 6.896305e+00 5.879911e+00 0.000000e+00
      vertex 1.180371e+01 2.409811e+00 6.010410e+00
    endloop
  endfacet
  facet normal -8.164967e-01 -2.886749e-01 4.999998e-01
    outer loop
      vertex 6.896305e+00 5.879911e+00 1.202082e+01
      vertex 4.442505e+00 1.282011e+01 1.202082e+01
      vertex 4.442505e+00 2.409811e+00 6.010410e+00
    endloop
  endfacet
  facet normal 0.000000e+00 0.000000e+00 1.000000e+00
    outer loop
      vertex 6.896305e+00 5.879911e+00 1.202082e+01
      vertex 1.425751e+01 5.879911e+00 1.202082e+01
      vertex 1.180371e+01 1.282011e+01 1.202082e+01
    endloop
  endfacet
  facet normal 0.000000e+00 0.000000e+00 1.000000e+00
    outer loop
      vertex 4.442505e+00 1.282011e+01 1.202082e+01
      vertex 6.896305e+00 5.879911e+00 1.202082e+01
      vertex 1.180371e+01 1.282011e+01 1.202082e+01
    endloop
  endfacet
  facet normal -8.164973e-01 5.773492e-01 0.000000e+00
    outer loop
      vertex 4.442505e+00 1.282011e+01 1.202082e+01
      vertex 6.896305e+00 1.629021e+01 6.010410e+00
      vertex 4.442505e+00 1.282011e+01 0.000000e+00
    endloop
  endfacet
  facet normal 0.000000e+00 8.660249e-01 5.000010e-01
    outer loop
      vertex 1.425751e+01 1.629021e+01 6.010410e+00
      vertex 6.896305e+00 1.629021e+01 6.010410e+00
      vertex 1.180371e+01 1.282011e+01 1.202082e+01
    endloop
  endfacet
  facet normal 0.000000e+00 8.660249e-01 5.000010e-01
    outer loop
      vertex 1.180371e+01 1.282011e+01 1.202082e+01
      vertex 6.896305e+00 1.629021e+01 6.010410e+00
      vertex 4.442505e+00 1.282011e+01 1.202082e+01
    endloop
  endfacet
  facet normal 0.000000e+00 0.000000e+00 -1.000000e+00
    outer loop
      vertex 1.425751e+01 5.879911e+00 0.000000e+00
      vertex 6.896305e+00 5.879911e+00 0.000000e+00
      vertex 1.180371e+01 1.282011e+01 0.000000e+00
    endloop
  endfacet
  facet normal 0.000000e+00 0.000000e+00 -1.000000e+00
    outer loop
      vertex 1.180371e+01 1.282011e+01 0.000000e+00
      vertex 6.896305e+00 5.879911e+00 0.000000e+00
      vertex 4.442505e+00 1.282011e+01 0.000000e+00
    endloop
  endfacet
  facet normal 0.000000e+00 8.660249e-01 -5.000010e-01
    outer loop
      vertex 1.425751e+01 1.629021e+01 6.010410e+00
      vertex 1.180371e+01 1.282011e+01 0.000000e+00
      vertex 6.896305e+00 1.629021e+01 6.010410e+00
    endloop
  endfacet
  facet normal 0.000000e+00 8.660249e-01 -5.000010e-01
    outer loop
      vertex 6.896305e+00 1.629021e+01 6.010410e+00
      vertex 1.180371e+01 1.282011e+01 0.000000e+00
      vertex 4.442505e+00 1.282011e+01 0.000000e+00
    endloop
  endfacet
  facet normal 8.164968e-01 -5.773499e-01 4.082479e-07
    outer loop
      vertex 1.671120e+01 9.350012e+00 6.010410e+00
      vertex 1.425751e+01 5.879911e+00 1.202082e+01
      vertex 1.180371e+01 2.409811e+00 6.010410e+00
    endloop
  endfacet
  facet normal 8.164968e-01 -5.773499e-01 -4.082479e-07
    outer loop
      vertex 1.425751e+01 5.879911e+00 0.000000e+00
      vertex 1.671120e+01 9.350012e+00 6.010410e+00
      vertex 1.180371e+01 2.409811e+00 6.010410e+00
    endloop
  endfacet
  facet normal 8.164967e-01 2.886749e-01 4.999998e-01
    outer loop
      vertex 1.425751e+01 5.879911e+00 1.202082e+01
      vertex 1.425751e+01 1.629021e+01 6.010410e+00
      vertex 1.180371e+01 1.282011e+01 1.202082e+01
    endloop
  endfacet
  facet normal 8.164967e-01 2.886749e-01 4.999998e-01
    outer loop
      vertex 1.671120e+01 9.350012e+00 6.010410e+00
      vertex 1.425751e+01 1.629021e+01 6.010410e+00
      vertex 1.425751e+01 5.879911e+00 1.202082e+01
    endloop
  endfacet
  facet normal 8.164967e-01 2.886749e-01 -4.999998e-01
    outer loop
      vertex 1.671120e+01 9.350012e+00 6.010410e+00
      vertex 1.425751e+01 5.879911e+00 0.000000e+00
      vertex 1.180371e+01 1.282011e+01 0.000000e+00
    endloop
  endfacet
  facet normal 8.164967e-01 2.886749e-01 -4.999998e-01
    outer loop
      vertex 1.425751e+01 1.629021e+01 6.010410e+00
      vertex 1.671120e+01 9.350012e+00 6.010410e+00
      vertex 1.180371e+01 1.282011e+01 0.000000e+00
    endloop
  endfacet
  facet normal -8.164967e-01 -2.886749e-01 4.999998e-01
    outer loop
      vertex 4.442505e+00 2.110981e+01 6.010410e+00
      vertex 4.442505e+00 3.152011e+01 1.202082e+01
      vertex 1.988806e+00 2.805001e+01 6.010410e+00
    endloop
  endfacet
  facet normal -8.164967e-01 -2.886749e-01 -4.999998e-01
    outer loop
      vertex 6.896305e+00 2.457991e+01 0.000000e+00
      vertex 4.442505e+00 2.110981e+01 6.010410e+00
      vertex 1.988806e+00 2.805001e+01 6.010410e+00
    endloop
  endfacet
  facet normal -8.164967e-01 -2.886749e-01 -4.999998e-01
    outer loop
      vertex 4.442505e+00 3.152011e+01 0.000000e+00
      vertex 6.896305e+00 2.457991e+01 0.000000e+00
      vertex 1.988806e+00 2.805001e+01 6.010410e+00
    endloop
  endfacet
  facet normal -8.164968e-01 5.773499e-01 0.000000e+00
    outer loop
      vertex 4.442505e+00 3.152011e+01 1.202082e+01
      vertex 4.442505e+00 3.152011e+01 0.000000e+00
      vertex 1.988806e+00 2.805001e+01 6.010410e+00
    endloop
  endfacet
  facet normal 0.000000e+00 -8.660249e-01 5.000010e-01
    outer loop
      vertex 1.180371e+01 2.110981e+01 6.010410e+00
      vertex 1.425751e+01 2.457991e+01 1.202082e+01
      vertex 6.896305e+00 2.457991e+01 1.202082e+01
    endloop
  endfacet
  facet normal 0.000000e+00 -8.660249e-01 5.000010e-01
    outer loop
      vertex 4.442505e+00 2.110981e+01 6.010410e+00
      vertex 1.180371e+01 2.110981e+01 6.010410e+00
      vertex 6.896305e+00 2.457991e+01 1.202082e+01
    endloop
  endfacet
  facet normal -0.000000e+00 -8.660249e-01 -5.000010e-01
    outer loop
      vertex 6.896305e+00 2.457991e+01 0.000000e+00
      vertex 1.425751e+01 2.457991e+01 0.000000e+00
      vertex 1.180371e+01 2.110981e+01 6.010410e+00
    endloop
  endfacet
  facet normal -0.000000e+00 -8.660249e-01 -5.000010e-01
    outer loop
      vertex 4.442505e+00 2.110981e+01 6.010410e+00
      vertex 6.896305e+00 2.457991e+01 0.000000e+00
      vertex 1.180371e+01 2.110981e+01 6.010410e+00
    endloop
  endfacet
  facet normal -8.164967e-01 -2.886749e-01 4.999998e-01
    outer loop
      vertex 6.896305e+00 2.457991e+01 1.202082e+01
      vertex 4.442505e+00 3.152011e+01 1.202082e+01
      vertex 4.442505e+00 2.110981e+01 6.010410e+00
    endloop
  endfacet
  facet normal 0.000000e+00 0.000000e+00 1.000000e+00
    outer loop
      vertex 6.896305e+00 2.457991e+01 1.202082e+01
      vertex 1.425751e+01 2.457991e+01 1.202082e+01
      vertex 1.180371e+01 3.152011e+01 1.202082e+01
    endloop
  endfacet
  facet normal 0.000000e+00 0.000000e+00 1.000000e+00
    outer loop
      vertex 4.442505e+00 3.152011e+01 1.202082e+01
      vertex 6.896305e+00 2.457991e+01 1.202082e+01
      vertex 1.180371e+01 3.152011e+01 1.202082e+01
    endloop
  endfacet
  facet normal -8.164973e-01 5.773492e-01 0.000000e+00
    outer loop
      vertex 4.442505e+00 3.152011e+01 1.202082e+01
      vertex 6.896305e+00 3.499021e+01 6.010410e+00
      vertex 4.442505e+00 3.152011e+01 0.000000e+00
    endloop
  endfacet
  facet normal 0.000000e+00 8.660249e-01 5.000010e-01
    outer loop
      vertex 1.425751e+01 3.499021e+01 6.010410e+00
      vertex 6.896305e+00 3.499021e+01 6.010410e+00
      vertex 1.180371e+01 3.152011e+01 1.202082e+01
    endloop
  endfacet
  facet normal 0.000000e+00 8.660249e-01 5.000010e-01
    outer loop
      vertex 1.180371e+01 3.152011e+01 1.202082e+01
      vertex 6.896305e+00 3.499021e+01 6.010410e+00
      vertex 4.442505e+00 3.152011e+01 1.202082e+01
    endloop
  endfacet
  facet normal 0.000000e+00 0.000000e+00 -1.000000e+00
    outer loop
      vertex 1.425751e+01 2.457991e+01 0.000000e+00
      vertex 6.896305e+00 2.457991e+01 0.000000e+00
      vertex 1.180371e+01 3.152011e+01 0.000000e+00
    endloop
  endfacet
  facet normal 0.000000e+00 0.000000e+00 -1.000000e+00
    outer loop
      vertex 1.180371e+01 3.152011e+01 0.000000e+00
      vertex 6.896305e+00 2.457991e+01 0.000000e+00
      vertex 4.442505e+00 3.152011e+01 0.000000e+00
    endloop
  endfacet
  facet normal 0.000000e+00 8.660249e-01 -5.000010e-01
    outer loop
      vertex 1.425751e+01 3.499021e+01 6.010410e+00
      vertex 1.180371e+01 3.152011e+01 0.000000e+00
      vertex 6.896305e+00 3.499021e+01 6.010410e+00
    endloop
  endfacet
  facet normal 0.000000e+00 8.660249e-01 -5.000010e-01
    outer loop
      vertex 6.896305e+00 3.499021e+01 6.010410e+00
      vertex 1.180371e+01 3.152011e+01 0.000000e+00
      vertex 4.442505e+00 3.152011e+01 0.000000e+00
    endloop
  endfacet
  facet normal 8.164968e-01 -5.773499e-01 4.082479e-07
    outer loop
      vertex 1.671120e+01 2.805001e+01 6.010410e+00
      vertex 1.425751e+01 2.457991e+01 1.202082e+01
      vertex 1.180371e+01 2.110981e+01 6.010410e+00
    endloop
  endfacet
  facet normal 8.164968e-01 -5.773499e-01 -4.082479e-07
    outer loop
      vertex 1.425751e+01 2.457991e+01 0.000000e+00
      vertex 1.671120e+01 2.805001e+01 6.010410e+00
      vertex 1.180371e+01 2.110981e+01 6.010410e+00
    endloop
  endfacet
  facet normal 8.164967e-01 2.886749e-01 4.999998e-01
    outer loop
      vertex 1.425751e+01 2.457991e+01 1.202082e+01
      vertex 1.425751e+01 3.499021e+01 6.010410e+00
      vertex 1.180371e+01 3.152011e+01 1.202082e+01
    endloop
  endfacet
  facet normal 8.164967e-01 2.886749e-01 4.999998e-01
    outer loop
      vertex 1.671120e+01 2.805001e+01 6.010410e+00
      vertex 1.425751e+01 3.499021e+01 6.010410e+00
      vertex 1.425751e+01 2.457991e+01 1.202082e+01
    endloop
  endfacet
  facet normal 8.164967e-01 2.886749e-01 -4.999998e-01
    outer loop
      vertex 1.671120e+01 2.805001e+01 6.010410e+00
      vertex 1.425751e+01 2.457991e+01 0.000000e+00
      vertex 1.180371e+01 3.152011e+01 0.000000e+00
    endloop
  endfacet
  facet normal 8.164967e-01 2.886749e-01 -4.999998e-01
    outer loop
      vertex 1.425751e+01 3.499021e+01 6.010410e+00
      vertex 1.671120e+01 2.805001e+01 6.010410e+00
      vertex 1.180371e+01 3.152011e+01 0.000000e+00
    endloop
  endfacet
endsolid Default
