<?xml version="1.0" encoding="UTF-8" standalone="no"?>
<!-- Created with Inkscape (http://www.inkscape.org/) -->

<svg
   xmlns:dc="http://purl.org/dc/elements/1.1/"
   xmlns:cc="http://creativecommons.org/ns#"
   xmlns:rdf="http://www.w3.org/1999/02/22-rdf-syntax-ns#"
   xmlns:svg="http://www.w3.org/2000/svg"
   xmlns="http://www.w3.org/2000/svg"
   xmlns:sodipodi="http://sodipodi.sourceforge.net/DTD/sodipodi-0.dtd"
   xmlns:inkscape="http://www.inkscape.org/namespaces/inkscape"
   width="744.09448819"
   height="1052.3622047"
   id="svg4818"
   version="1.1"
   inkscape:version="0.48.0 r9654"
   sodipodi:docname="bracket.pdf">
  <defs
     id="defs4820" />
  <sodipodi:namedview
     id="base"
     pagecolor="#ffffff"
     bordercolor="#666666"
     borderopacity="1.0"
     inkscape:pageopacity="0.0"
     inkscape:pageshadow="2"
     inkscape:zoom="0.68987656"
     inkscape:cx="370.59771"
     inkscape:cy="526.18109"
     inkscape:document-units="px"
     inkscape:current-layer="layer1"
     showgrid="false"
     inkscape:snap-object-midpoints="true"
     showguides="true"
     inkscape:guide-bbox="true"
     inkscape:object-nodes="true"
     inkscape:snap-global="false"
     inkscape:window-width="1680"
     inkscape:window-height="944"
     inkscape:window-x="0"
     inkscape:window-y="0"
     inkscape:window-maximized="0" />
  <metadata
     id="metadata4823">
    <rdf:RDF>
      <cc:Work
         rdf:about="">
        <dc:format>image/svg+xml</dc:format>
        <dc:type
           rdf:resource="http://purl.org/dc/dcmitype/StillImage" />
        <dc:title></dc:title>
      </cc:Work>
    </rdf:RDF>
  </metadata>
  <g
     inkscape:label="Layer 1"
     inkscape:groupmode="layer"
     id="layer1">
    <g
       id="g5733"
       transform="translate(-204.38439,-450.80529)">
      <path
         sodipodi:type="arc"
         style="fill:#ff0000;fill-opacity:0.00392157;stroke:#0000aa;stroke-width:0.06765359;stroke-miterlimit:4;stroke-opacity:1;stroke-dasharray:none"
         id="path5461"
         sodipodi:cx="287.47128"
         sodipodi:cy="531.56287"
         sodipodi:rx="45.921696"
         sodipodi:ry="41.003357"
         d="m 333.39298,531.56287 c 0,22.64552 -20.55984,41.00335 -45.9217,41.00335 -25.36185,0 -45.92169,-18.35783 -45.92169,-41.00335 0,-22.64553 20.55984,-41.00336 45.92169,-41.00336 25.36186,0 45.9217,18.35783 45.9217,41.00336 z"
         transform="matrix(1,0,0,1.4334691,70.564489,-244.03579)" />
      <path
         transform="matrix(0.81159748,0,0,1.4334691,221.71839,-246.03198)"
         d="m 333.39298,531.56287 c 0,22.64552 -20.55984,41.00335 -45.9217,41.00335 -25.36185,0 -45.92169,-18.35783 -45.92169,-41.00335 0,-22.64553 20.55984,-41.00336 45.92169,-41.00336 25.36186,0 45.9217,18.35783 45.9217,41.00336 z"
         sodipodi:ry="41.003357"
         sodipodi:rx="45.921696"
         sodipodi:cy="531.56287"
         sodipodi:cx="287.47128"
         id="path5532"
         style="fill:#ff0000;fill-opacity:0.00392157;stroke:#0000aa;stroke-width:0.07509664;stroke-miterlimit:4;stroke-opacity:1;stroke-dasharray:none"
         sodipodi:type="arc" />
      <path
         sodipodi:type="arc"
         style="fill:#ff0000;fill-opacity:0.00392157;stroke:#0000aa;stroke-width:0.07509664;stroke-miterlimit:4;stroke-opacity:1;stroke-dasharray:none"
         id="path5588"
         sodipodi:cx="287.47128"
         sodipodi:cy="531.56287"
         sodipodi:rx="45.921696"
         sodipodi:ry="41.003357"
         d="m 333.39298,531.56287 c 0,22.64552 -20.55984,41.00335 -45.9217,41.00335 -25.36185,0 -45.92169,-18.35783 -45.92169,-41.00335 0,-22.64553 20.55984,-41.00336 45.92169,-41.00336 25.36186,0 45.9217,18.35783 45.9217,41.00336 z"
         transform="matrix(0.81159748,0,0,1.4334691,314.92153,-247.815)" />
      <rect
         y="585.62946"
         x="434.40134"
         height="13.767253"
         width="25.952007"
         id="rect5633"
         style="fill:#ff0000;fill-opacity:0.00392157;stroke:#0000aa;stroke-width:0.081;stroke-miterlimit:4;stroke-opacity:1;stroke-dasharray:none" />
      <path
         transform="matrix(1,0,0,1.4334691,72.136238,-96.605724)"
         d="m 333.39298,531.56287 c 0,22.64552 -20.55984,41.00335 -45.9217,41.00335 -25.36185,0 -45.92169,-18.35783 -45.92169,-41.00335 0,-22.64553 20.55984,-41.00336 45.92169,-41.00336 25.36186,0 45.9217,18.35783 45.9217,41.00336 z"
         sodipodi:ry="41.003357"
         sodipodi:rx="45.921696"
         sodipodi:cy="531.56287"
         sodipodi:cx="287.47128"
         id="path5635"
         style="fill:#ff0000;fill-opacity:0.00392157;stroke:#0000aa;stroke-width:0.06765359;stroke-miterlimit:4;stroke-opacity:1;stroke-dasharray:none"
         sodipodi:type="arc" />
      <path
         transform="translate(139.57132,65.699114)"
         d="m 220.35923,598.28387 c 0,0.78125 -0.63333,1.41458 -1.41457,1.41458 -0.78125,0 -1.41458,-0.63333 -1.41458,-1.41458 0,-0.78124 0.63333,-1.41457 1.41458,-1.41457 0.78124,0 1.41457,0.63333 1.41457,1.41457 z"
         sodipodi:ry="1.4145743"
         sodipodi:rx="1.4145743"
         sodipodi:cy="598.28387"
         sodipodi:cx="218.94466"
         id="path5692"
         style="fill:#ff0000;fill-opacity:0.00392157;stroke:#0000aa;stroke-width:0.081;stroke-miterlimit:4;stroke-opacity:1;stroke-dasharray:none"
         sodipodi:type="arc" />
      <path
         transform="translate(12.573993,-80.473556)"
         sodipodi:type="arc"
         style="fill:#ff0000;fill-opacity:0.00392157;stroke:#0000aa;stroke-width:0.081;stroke-miterlimit:4;stroke-opacity:1;stroke-dasharray:none"
         id="path5696"
         sodipodi:cx="218.94466"
         sodipodi:cy="598.28387"
         sodipodi:rx="1.4145743"
         sodipodi:ry="1.4145743"
         d="m 220.35923,598.28387 c 0,0.78125 -0.63333,1.41458 -1.41457,1.41458 -0.78125,0 -1.41458,-0.63333 -1.41458,-1.41458 0,-0.78124 0.63333,-1.41457 1.41458,-1.41457 0.78124,0 1.41457,0.63333 1.41457,1.41457 z" />
      <path
         transform="translate(110.65114,-60.355167)"
         sodipodi:type="arc"
         style="fill:#ff0000;fill-opacity:0.00392157;stroke:#0000aa;stroke-width:0.081;stroke-miterlimit:4;stroke-opacity:1;stroke-dasharray:none"
         id="path5698"
         sodipodi:cx="218.94466"
         sodipodi:cy="598.28387"
         sodipodi:rx="1.4145743"
         sodipodi:ry="1.4145743"
         d="m 220.35923,598.28387 c 0,0.78125 -0.63333,1.41458 -1.41457,1.41458 -0.78125,0 -1.41458,-0.63333 -1.41458,-1.41458 0,-0.78124 0.63333,-1.41457 1.41458,-1.41457 0.78124,0 1.41457,0.63333 1.41457,1.41457 z" />
      <path
         transform="translate(216.27268,-44.637675)"
         sodipodi:type="arc"
         style="fill:#ff0000;fill-opacity:0.00392157;stroke:#0000aa;stroke-width:0.081;stroke-miterlimit:4;stroke-opacity:1;stroke-dasharray:none"
         id="path5700"
         sodipodi:cx="218.94466"
         sodipodi:cy="598.28387"
         sodipodi:rx="1.4145743"
         sodipodi:ry="1.4145743"
         d="m 220.35923,598.28387 c 0,0.78125 -0.63333,1.41458 -1.41457,1.41458 -0.78125,0 -1.41458,-0.63333 -1.41458,-1.41458 0,-0.78124 0.63333,-1.41457 1.41458,-1.41457 0.78124,0 1.41457,0.63333 1.41457,1.41457 z" />
      <path
         transform="translate(326.92382,-31.434983)"
         sodipodi:type="arc"
         style="fill:#ff0000;fill-opacity:0.00392157;stroke:#0000aa;stroke-width:0.081;stroke-miterlimit:4;stroke-opacity:1;stroke-dasharray:none"
         id="path5702"
         sodipodi:cx="218.94466"
         sodipodi:cy="598.28387"
         sodipodi:rx="1.4145743"
         sodipodi:ry="1.4145743"
         d="m 220.35923,598.28387 c 0,0.78125 -0.63333,1.41458 -1.41457,1.41458 -0.78125,0 -1.41458,-0.63333 -1.41458,-1.41458 0,-0.78124 0.63333,-1.41457 1.41458,-1.41457 0.78124,0 1.41457,0.63333 1.41457,1.41457 z" />
      <path
         transform="matrix(0.42026009,0,0,0.42027938,141.8579,293.52243)"
         d="m 322.85715,466.64789 c 0,22.09139 -17.90861,40 -40,40 -22.09139,0 -40,-17.90861 -40,-40 0,-22.09139 17.90861,-40 40,-40 22.09139,0 40,17.90861 40,40 z"
         sodipodi:ry="40"
         sodipodi:rx="40"
         sodipodi:cy="466.64789"
         sodipodi:cx="282.85715"
         id="path4826"
         style="fill:#ff0000;fill-opacity:0.00392157;stroke:#0000aa;stroke-width:0.19273336;stroke-miterlimit:4;stroke-opacity:1;stroke-dasharray:none"
         sodipodi:type="arc" />
      <g
         id="g5563">
        <path
           sodipodi:type="arc"
           style="fill:#ff0000;fill-opacity:0.00392157;stroke:#0000aa;stroke-width:0.05558248;stroke-miterlimit:4;stroke-opacity:1;stroke-dasharray:none"
           id="path4830"
           sodipodi:cx="233.32129"
           sodipodi:cy="490.53625"
           sodipodi:rx="1.1157025"
           sodipodi:ry="1.0924587"
           d="m 234.43699,490.53625 c 0,0.60335 -0.49952,1.09246 -1.1157,1.09246 -0.61619,0 -1.1157,-0.48911 -1.1157,-1.09246 0,-0.60334 0.49951,-1.09245 1.1157,-1.09245 0.61618,0 1.1157,0.48911 1.1157,1.09245 z"
           transform="matrix(1.5288648,0,0,1.3890729,-112.74581,-187.21933)" />
        <path
           style="fill:none;stroke:#000000;stroke-width:0.081;stroke-linecap:butt;stroke-linejoin:miter;stroke-miterlimit:4;stroke-opacity:1;stroke-dasharray:none"
           d="m 244.92966,490.52528 c -10.18079,3.57955 -19.57127,7.34504 -19.57127,7.34504"
           id="path5342"
           inkscape:connector-curvature="0"
           sodipodi:nodetypes="cc" />
        <path
           style="fill:none;stroke:#000000;stroke-width:0.081;stroke-linecap:butt;stroke-linejoin:miter;stroke-miterlimit:4;stroke-opacity:1;stroke-dasharray:none"
           d="m 242.26754,493.96456 c -16.73554,6.64773 -17.18808,6.83449 -17.18808,6.83449"
           id="path5344"
           inkscape:connector-curvature="0"
           sodipodi:nodetypes="cc" />
        <path
           style="fill:none;stroke:#000000;stroke-width:0.081;stroke-linecap:butt;stroke-linejoin:miter;stroke-miterlimit:4;stroke-opacity:1;stroke-dasharray:none"
           d="m 225.35839,497.87032 -10.12785,0.31138"
           id="path5378"
           inkscape:connector-curvature="0" />
      </g>
      <g
         transform="translate(-0.81046205,-0.16209241)"
         id="g5557">
        <path
           transform="matrix(-1.5288648,0,0,1.3890729,635.08061,-187.05724)"
           d="m 234.43699,490.53625 c 0,0.60335 -0.49952,1.09246 -1.1157,1.09246 -0.61619,0 -1.1157,-0.48911 -1.1157,-1.09246 0,-0.60334 0.49951,-1.09245 1.1157,-1.09245 0.61618,0 1.1157,0.48911 1.1157,1.09245 z"
           sodipodi:ry="1.0924587"
           sodipodi:rx="1.1157025"
           sodipodi:cy="490.53625"
           sodipodi:cx="233.32129"
           id="path5356"
           style="fill:#ff0000;fill-opacity:0.00392157;stroke:#0000aa;stroke-width:0.05558248;stroke-miterlimit:4;stroke-opacity:1;stroke-dasharray:none"
           sodipodi:type="arc" />
        <path
           sodipodi:nodetypes="cc"
           inkscape:connector-curvature="0"
           id="path5358"
           d="m 277.40514,490.68737 c 10.18079,3.57955 19.57127,7.34504 19.57127,7.34504"
           style="fill:none;stroke:#000000;stroke-width:0.081;stroke-linecap:butt;stroke-linejoin:miter;stroke-miterlimit:4;stroke-opacity:1;stroke-dasharray:none" />
        <path
           sodipodi:nodetypes="cc"
           inkscape:connector-curvature="0"
           id="path5360"
           d="m 280.06726,494.12665 c 16.73554,6.64773 17.18808,6.83449 17.18808,6.83449"
           style="fill:none;stroke:#000000;stroke-width:0.081;stroke-linecap:butt;stroke-linejoin:miter;stroke-miterlimit:4;stroke-opacity:1;stroke-dasharray:none" />
        <path
           style="fill:none;stroke:#000000;stroke-width:0.081;stroke-linecap:butt;stroke-linejoin:miter;stroke-miterlimit:4;stroke-opacity:1;stroke-dasharray:none"
           d="m 296.97641,498.03241 7.94694,0.42451"
           id="path5380"
           inkscape:connector-curvature="0" />
      </g>
      <path
         transform="matrix(4.7085838,0,0,4.8019666,-633.27033,-1914.4259)"
         d="m 190.84876,513.18896 c 0,0.6248 -0.5065,1.1313 -1.13129,1.1313 -0.6248,0 -1.13129,-0.5065 -1.13129,-1.1313 0,-0.62479 0.50649,-1.13129 1.13129,-1.13129 0.62479,0 1.13129,0.5065 1.13129,1.13129 z"
         sodipodi:ry="1.1312908"
         sodipodi:rx="1.1312908"
         sodipodi:cy="513.18896"
         sodipodi:cx="189.71747"
         id="path5382"
         style="fill:#ff0000;fill-opacity:0.00392157;stroke:#0000aa;stroke-width:0.01703454;stroke-miterlimit:4;stroke-opacity:1;stroke-dasharray:none"
         sodipodi:type="arc" />
      <path
         transform="matrix(1,0,0,1.4334691,-27.825606,-245.81881)"
         d="m 333.39298,531.56287 c 0,22.64552 -20.55984,41.00335 -45.9217,41.00335 -25.36185,0 -45.92169,-18.35783 -45.92169,-41.00335 0,-22.64553 20.55984,-41.00336 45.92169,-41.00336 25.36186,0 45.9217,18.35783 45.9217,41.00336 z"
         sodipodi:ry="41.003357"
         sodipodi:rx="45.921696"
         sodipodi:cy="531.56287"
         sodipodi:cx="287.47128"
         id="path5364"
         style="fill:#ff0000;fill-opacity:0.00392157;stroke:#0000aa;stroke-width:0.06765359;stroke-miterlimit:4;stroke-opacity:1;stroke-dasharray:none"
         sodipodi:type="arc" />
      <path
         sodipodi:type="arc"
         style="fill:#ff0000;fill-opacity:0.00392157;stroke:#0000aa;stroke-width:0.19273336;stroke-miterlimit:4;stroke-opacity:1;stroke-dasharray:none"
         id="path5441"
         sodipodi:cx="282.85715"
         sodipodi:cy="466.64789"
         sodipodi:rx="40"
         sodipodi:ry="40"
         d="m 322.85715,466.64789 c 0,22.09139 -17.90861,40 -40,40 -22.09139,0 -40,-17.90861 -40,-40 0,-22.09139 17.90861,-40 40,-40 22.09139,0 40,17.90861 40,40 z"
         transform="matrix(0.42026009,0,0,0.42027938,240.57218,297.89893)" />
      <g
         transform="translate(0.16209241,0)"
         id="g5540">
        <path
           transform="matrix(1.7535435,0,0,1.3865158,-67.007583,-181.42641)"
           d="m 234.43699,490.53625 c 0,0.60335 -0.49952,1.09246 -1.1157,1.09246 -0.61619,0 -1.1157,-0.48911 -1.1157,-1.09246 0,-0.60334 0.49951,-1.09245 1.1157,-1.09245 0.61618,0 1.1157,0.48911 1.1157,1.09245 z"
           sodipodi:ry="1.0924587"
           sodipodi:rx="1.1157025"
           sodipodi:cy="490.53625"
           sodipodi:cx="233.32129"
           id="path5443"
           style="fill:#ff0000;fill-opacity:0.00392157;stroke:#0000aa;stroke-width:0.05558248;stroke-miterlimit:4;stroke-opacity:1;stroke-dasharray:none"
           sodipodi:type="arc" />
        <path
           sodipodi:nodetypes="cc"
           inkscape:connector-curvature="0"
           id="path5445"
           d="m 342.83348,495.06387 c -10.18079,3.57955 -19.57127,7.34504 -19.57127,7.34504"
           style="fill:none;stroke:#000000;stroke-width:0.081;stroke-linecap:butt;stroke-linejoin:miter;stroke-miterlimit:4;stroke-opacity:1;stroke-dasharray:none" />
        <path
           sodipodi:nodetypes="cc"
           inkscape:connector-curvature="0"
           id="path5447"
           d="m 340.17136,498.50315 c -16.73554,6.64773 -17.18808,6.83449 -17.18808,6.83449"
           style="fill:none;stroke:#000000;stroke-width:0.081;stroke-linecap:butt;stroke-linejoin:miter;stroke-miterlimit:4;stroke-opacity:1;stroke-dasharray:none" />
        <path
           inkscape:connector-curvature="0"
           id="path5455"
           d="m 323.26221,502.40891 -10.12785,0.31138"
           style="fill:none;stroke:#000000;stroke-width:0.081;stroke-linecap:butt;stroke-linejoin:miter;stroke-miterlimit:4;stroke-opacity:1;stroke-dasharray:none" />
      </g>
      <g
         transform="translate(-0.97255447,0)"
         id="g5534">
        <path
           sodipodi:type="arc"
           style="fill:#ff0000;fill-opacity:0.00392157;stroke:#0000aa;stroke-width:0.05558248;stroke-miterlimit:4;stroke-opacity:1;stroke-dasharray:none"
           id="path5449"
           sodipodi:cx="233.32129"
           sodipodi:cy="490.53625"
           sodipodi:rx="1.1157025"
           sodipodi:ry="1.0924587"
           d="m 234.43699,490.53625 c 0,0.60335 -0.49952,1.09246 -1.1157,1.09246 -0.61619,0 -1.1157,-0.48911 -1.1157,-1.09246 0,-0.60334 0.49951,-1.09245 1.1157,-1.09245 0.61618,0 1.1157,0.48911 1.1157,1.09245 z"
           transform="matrix(-1.7535435,0,0,1.3865158,786.47397,-181.42641)" />
        <path
           style="fill:none;stroke:#000000;stroke-width:0.081;stroke-linecap:butt;stroke-linejoin:miter;stroke-miterlimit:4;stroke-opacity:1;stroke-dasharray:none"
           d="m 376.11942,495.06387 c 10.18079,3.57955 19.57127,7.34504 19.57127,7.34504"
           id="path5451"
           inkscape:connector-curvature="0"
           sodipodi:nodetypes="cc" />
        <path
           style="fill:none;stroke:#000000;stroke-width:0.081;stroke-linecap:butt;stroke-linejoin:miter;stroke-miterlimit:4;stroke-opacity:1;stroke-dasharray:none"
           d="m 378.78154,498.50315 c 16.73554,6.64773 17.18808,6.83449 17.18808,6.83449"
           id="path5453"
           inkscape:connector-curvature="0"
           sodipodi:nodetypes="cc" />
        <path
           inkscape:connector-curvature="0"
           id="path5457"
           d="m 395.69069,502.40891 7.94694,0.42451"
           style="fill:none;stroke:#000000;stroke-width:0.081;stroke-linecap:butt;stroke-linejoin:miter;stroke-miterlimit:4;stroke-opacity:1;stroke-dasharray:none" />
      </g>
      <path
         sodipodi:type="arc"
         style="fill:#ff0000;fill-opacity:0.00392157;stroke:#0000aa;stroke-width:0.01703454;stroke-miterlimit:4;stroke-opacity:1;stroke-dasharray:none"
         id="path5459"
         sodipodi:cx="189.71747"
         sodipodi:cy="513.18896"
         sodipodi:rx="1.1312908"
         sodipodi:ry="1.1312908"
         d="m 190.84876,513.18896 c 0,0.6248 -0.5065,1.1313 -1.13129,1.1313 -0.6248,0 -1.13129,-0.5065 -1.13129,-1.1313 0,-0.62479 0.50649,-1.13129 1.13129,-1.13129 0.62479,0 1.13129,0.5065 1.13129,1.13129 z"
         transform="matrix(4.7085838,0,0,4.8019666,-534.55605,-1910.0494)" />
      <path
         transform="matrix(0.42026009,0,0,0.42027938,336.53089,298.06102)"
         d="m 322.85715,466.64789 c 0,22.09139 -17.90861,40 -40,40 -22.09139,0 -40,-17.90861 -40,-40 0,-22.09139 17.90861,-40 40,-40 22.09139,0 40,17.90861 40,40 z"
         sodipodi:ry="40"
         sodipodi:rx="40"
         sodipodi:cy="466.64789"
         sodipodi:cx="282.85715"
         id="path5494"
         style="fill:#ff0000;fill-opacity:0.00392157;stroke:#0000aa;stroke-width:0.19273336;stroke-miterlimit:4;stroke-opacity:1;stroke-dasharray:none"
         sodipodi:type="arc" />
      <g
         transform="matrix(0.96469026,-0.26338699,0.26338699,0.96469026,-112.42111,139.21939)"
         id="g5514">
        <path
           sodipodi:type="arc"
           style="fill:#ff0000;fill-opacity:0.00392157;stroke:#0000aa;stroke-width:0.05558248;stroke-miterlimit:4;stroke-opacity:1;stroke-dasharray:none"
           id="path5496"
           sodipodi:cx="233.32129"
           sodipodi:cy="490.53625"
           sodipodi:rx="1.1157025"
           sodipodi:ry="1.0924587"
           d="m 234.43699,490.53625 c 0,0.60335 -0.49952,1.09246 -1.1157,1.09246 -0.61619,0 -1.1157,-0.48911 -1.1157,-1.09246 0,-0.60334 0.49951,-1.09245 1.1157,-1.09245 0.61618,0 1.1157,0.48911 1.1157,1.09245 z"
           transform="matrix(1.7535435,0,0,1.3865158,28.951124,-181.26432)" />
        <path
           style="fill:none;stroke:#000000;stroke-width:0.081;stroke-linecap:butt;stroke-linejoin:miter;stroke-miterlimit:4;stroke-opacity:1;stroke-dasharray:none"
           d="m 438.79219,495.22596 c -10.18079,3.57955 -19.57127,7.34504 -19.57127,7.34504"
           id="path5498"
           inkscape:connector-curvature="0"
           sodipodi:nodetypes="cc" />
        <path
           style="fill:none;stroke:#000000;stroke-width:0.081;stroke-linecap:butt;stroke-linejoin:miter;stroke-miterlimit:4;stroke-opacity:1;stroke-dasharray:none"
           d="m 436.13007,498.66524 c -16.73554,6.64773 -17.18808,6.83449 -17.18808,6.83449"
           id="path5500"
           inkscape:connector-curvature="0"
           sodipodi:nodetypes="cc" />
        <path
           style="fill:none;stroke:#000000;stroke-width:0.081;stroke-linecap:butt;stroke-linejoin:miter;stroke-miterlimit:4;stroke-opacity:1;stroke-dasharray:none"
           d="m 419.22092,502.571 -10.12785,0.31138"
           id="path5508"
           inkscape:connector-curvature="0" />
      </g>
      <path
         transform="matrix(4.7085838,0,0,4.8019666,-438.59734,-1909.8873)"
         d="m 190.84876,513.18896 c 0,0.6248 -0.5065,1.1313 -1.13129,1.1313 -0.6248,0 -1.13129,-0.5065 -1.13129,-1.1313 0,-0.62479 0.50649,-1.13129 1.13129,-1.13129 0.62479,0 1.13129,0.5065 1.13129,1.13129 z"
         sodipodi:ry="1.1312908"
         sodipodi:rx="1.1312908"
         sodipodi:cy="513.18896"
         sodipodi:cx="189.71747"
         id="path5512"
         style="fill:#ff0000;fill-opacity:0.00392157;stroke:#0000aa;stroke-width:0.01703454;stroke-miterlimit:4;stroke-opacity:1;stroke-dasharray:none"
         sodipodi:type="arc" />
      <g
         id="g5522"
         transform="matrix(-0.96469026,-0.26338699,-0.26338699,0.96469026,1023.1447,139.25575)">
        <path
           transform="matrix(1.7535435,0,0,1.3865158,28.951124,-181.26432)"
           d="m 234.43699,490.53625 c 0,0.60335 -0.49952,1.09246 -1.1157,1.09246 -0.61619,0 -1.1157,-0.48911 -1.1157,-1.09246 0,-0.60334 0.49951,-1.09245 1.1157,-1.09245 0.61618,0 1.1157,0.48911 1.1157,1.09245 z"
           sodipodi:ry="1.0924587"
           sodipodi:rx="1.1157025"
           sodipodi:cy="490.53625"
           sodipodi:cx="233.32129"
           id="path5524"
           style="fill:#ff0000;fill-opacity:0.00392157;stroke:#0000aa;stroke-width:0.05558248;stroke-miterlimit:4;stroke-opacity:1;stroke-dasharray:none"
           sodipodi:type="arc" />
        <path
           sodipodi:nodetypes="cc"
           inkscape:connector-curvature="0"
           id="path5526"
           d="m 438.79219,495.22596 c -10.18079,3.57955 -19.57127,7.34504 -19.57127,7.34504"
           style="fill:none;stroke:#000000;stroke-width:0.081;stroke-linecap:butt;stroke-linejoin:miter;stroke-miterlimit:4;stroke-opacity:1;stroke-dasharray:none" />
        <path
           sodipodi:nodetypes="cc"
           inkscape:connector-curvature="0"
           id="path5528"
           d="m 436.13007,498.66524 c -16.73554,6.64773 -17.18808,6.83449 -17.18808,6.83449"
           style="fill:none;stroke:#000000;stroke-width:0.081;stroke-linecap:butt;stroke-linejoin:miter;stroke-miterlimit:4;stroke-opacity:1;stroke-dasharray:none" />
        <path
           inkscape:connector-curvature="0"
           id="path5530"
           d="m 419.22092,502.571 -10.12785,0.31138"
           style="fill:none;stroke:#000000;stroke-width:0.081;stroke-linecap:butt;stroke-linejoin:miter;stroke-miterlimit:4;stroke-opacity:1;stroke-dasharray:none" />
      </g>
      <path
         sodipodi:type="arc"
         style="fill:#ff0000;fill-opacity:0.00392157;stroke:#0000aa;stroke-width:0.19273336;stroke-miterlimit:4;stroke-opacity:1;stroke-dasharray:none"
         id="path5590"
         sodipodi:cx="282.85715"
         sodipodi:cy="466.64789"
         sodipodi:rx="40"
         sodipodi:ry="40"
         d="m 322.85715,466.64789 c 0,22.09139 -17.90861,40 -40,40 -22.09139,0 -40,-17.90861 -40,-40 0,-22.09139 17.90861,-40 40,-40 22.09139,0 40,17.90861 40,40 z"
         transform="matrix(0.40349986,0,0,0.40348036,434.45025,304.62963)" />
      <g
         id="g5592"
         transform="matrix(0.96469026,-0.26338699,0.26338699,0.96469026,-19.217974,137.43637)">
        <path
           transform="matrix(1.7535435,0,0,1.3865158,28.951124,-181.26432)"
           d="m 234.43699,490.53625 c 0,0.60335 -0.49952,1.09246 -1.1157,1.09246 -0.61619,0 -1.1157,-0.48911 -1.1157,-1.09246 0,-0.60334 0.49951,-1.09245 1.1157,-1.09245 0.61618,0 1.1157,0.48911 1.1157,1.09245 z"
           sodipodi:ry="1.0924587"
           sodipodi:rx="1.1157025"
           sodipodi:cy="490.53625"
           sodipodi:cx="233.32129"
           id="path5594"
           style="fill:#ff0000;fill-opacity:0.00392157;stroke:#0000aa;stroke-width:0.05558248;stroke-miterlimit:4;stroke-opacity:1;stroke-dasharray:none"
           sodipodi:type="arc" />
        <path
           sodipodi:nodetypes="cc"
           inkscape:connector-curvature="0"
           id="path5596"
           d="m 438.79219,495.22596 c -10.18079,3.57955 -19.57127,7.34504 -19.57127,7.34504"
           style="fill:none;stroke:#000000;stroke-width:0.081;stroke-linecap:butt;stroke-linejoin:miter;stroke-miterlimit:4;stroke-opacity:1;stroke-dasharray:none" />
        <path
           sodipodi:nodetypes="cc"
           inkscape:connector-curvature="0"
           id="path5598"
           d="m 436.13007,498.66524 c -16.73554,6.64773 -17.18808,6.83449 -17.18808,6.83449"
           style="fill:none;stroke:#000000;stroke-width:0.081;stroke-linecap:butt;stroke-linejoin:miter;stroke-miterlimit:4;stroke-opacity:1;stroke-dasharray:none" />
        <path
           inkscape:connector-curvature="0"
           id="path5600"
           d="m 419.22092,502.571 -10.12785,0.31138"
           style="fill:none;stroke:#000000;stroke-width:0.081;stroke-linecap:butt;stroke-linejoin:miter;stroke-miterlimit:4;stroke-opacity:1;stroke-dasharray:none" />
      </g>
      <path
         sodipodi:type="arc"
         style="fill:#ff0000;fill-opacity:0.00392157;stroke:#0000aa;stroke-width:0.01703454;stroke-miterlimit:4;stroke-opacity:1;stroke-dasharray:none"
         id="path5602"
         sodipodi:cx="189.71747"
         sodipodi:cy="513.18896"
         sodipodi:rx="1.1312908"
         sodipodi:ry="1.1312908"
         d="m 190.84876,513.18896 c 0,0.6248 -0.5065,1.1313 -1.13129,1.1313 -0.6248,0 -1.13129,-0.5065 -1.13129,-1.1313 0,-0.62479 0.50649,-1.13129 1.13129,-1.13129 0.62479,0 1.13129,0.5065 1.13129,1.13129 z"
         transform="matrix(4.7085838,0,0,4.8019666,-345.3942,-1911.6703)" />
      <g
         transform="matrix(-0.96469026,-0.26338699,-0.26338699,0.96469026,1116.3478,137.47273)"
         id="g5604">
        <path
           sodipodi:type="arc"
           style="fill:#ff0000;fill-opacity:0.00392157;stroke:#0000aa;stroke-width:0.05558248;stroke-miterlimit:4;stroke-opacity:1;stroke-dasharray:none"
           id="path5606"
           sodipodi:cx="233.32129"
           sodipodi:cy="490.53625"
           sodipodi:rx="1.1157025"
           sodipodi:ry="1.0924587"
           d="m 234.43699,490.53625 c 0,0.60335 -0.49952,1.09246 -1.1157,1.09246 -0.61619,0 -1.1157,-0.48911 -1.1157,-1.09246 0,-0.60334 0.49951,-1.09245 1.1157,-1.09245 0.61618,0 1.1157,0.48911 1.1157,1.09245 z"
           transform="matrix(1.7535435,0,0,1.3865158,28.951124,-181.26432)" />
        <path
           style="fill:none;stroke:#000000;stroke-width:0.081;stroke-linecap:butt;stroke-linejoin:miter;stroke-miterlimit:4;stroke-opacity:1;stroke-dasharray:none"
           d="m 438.79219,495.22596 c -10.18079,3.57955 -19.57127,7.34504 -19.57127,7.34504"
           id="path5608"
           inkscape:connector-curvature="0"
           sodipodi:nodetypes="cc" />
        <path
           style="fill:none;stroke:#000000;stroke-width:0.081;stroke-linecap:butt;stroke-linejoin:miter;stroke-miterlimit:4;stroke-opacity:1;stroke-dasharray:none"
           d="m 436.13007,498.66524 c -16.73554,6.64773 -17.18808,6.83449 -17.18808,6.83449"
           id="path5610"
           inkscape:connector-curvature="0"
           sodipodi:nodetypes="cc" />
        <path
           style="fill:none;stroke:#000000;stroke-width:0.081;stroke-linecap:butt;stroke-linejoin:miter;stroke-miterlimit:4;stroke-opacity:1;stroke-dasharray:none"
           d="m 419.22092,502.571 -10.12785,0.31138"
           id="path5612"
           inkscape:connector-curvature="0" />
      </g>
      <path
         transform="matrix(0.42026009,0,0,0.42027938,240.57218,420.80971)"
         d="m 322.85715,466.64789 c 0,22.09139 -17.90861,40 -40,40 -22.09139,0 -40,-17.90861 -40,-40 0,-22.09139 17.90861,-40 40,-40 22.09139,0 40,17.90861 40,40 z"
         sodipodi:ry="40"
         sodipodi:rx="40"
         sodipodi:cy="466.64789"
         sodipodi:cx="282.85715"
         id="path5637"
         style="fill:#ff0000;fill-opacity:0.00392157;stroke:#0000aa;stroke-width:0.19273336;stroke-miterlimit:4;stroke-opacity:1;stroke-dasharray:none"
         sodipodi:type="arc" />
      <g
         id="g5649"
         transform="matrix(0.97726249,0.21203305,-0.21203305,0.97726249,111.42818,58.296858)">
        <path
           transform="matrix(-1.7535435,0,0,1.3865158,786.47397,-181.42641)"
           d="m 234.43699,490.53625 c 0,0.60335 -0.49952,1.09246 -1.1157,1.09246 -0.61619,0 -1.1157,-0.48911 -1.1157,-1.09246 0,-0.60334 0.49951,-1.09245 1.1157,-1.09245 0.61618,0 1.1157,0.48911 1.1157,1.09245 z"
           sodipodi:ry="1.0924587"
           sodipodi:rx="1.1157025"
           sodipodi:cy="490.53625"
           sodipodi:cx="233.32129"
           id="path5651"
           style="fill:#ff0000;fill-opacity:0.00392157;stroke:#0000aa;stroke-width:0.05558248;stroke-miterlimit:4;stroke-opacity:1;stroke-dasharray:none"
           sodipodi:type="arc" />
        <path
           sodipodi:nodetypes="cc"
           inkscape:connector-curvature="0"
           id="path5653"
           d="m 376.11942,495.06387 c 10.18079,3.57955 19.57127,7.34504 19.57127,7.34504"
           style="fill:none;stroke:#000000;stroke-width:0.081;stroke-linecap:butt;stroke-linejoin:miter;stroke-miterlimit:4;stroke-opacity:1;stroke-dasharray:none" />
        <path
           sodipodi:nodetypes="cc"
           inkscape:connector-curvature="0"
           id="path5655"
           d="m 378.78154,498.50315 c 16.73554,6.64773 17.18808,6.83449 17.18808,6.83449"
           style="fill:none;stroke:#000000;stroke-width:0.081;stroke-linecap:butt;stroke-linejoin:miter;stroke-miterlimit:4;stroke-opacity:1;stroke-dasharray:none" />
        <path
           style="fill:none;stroke:#000000;stroke-width:0.081;stroke-linecap:butt;stroke-linejoin:miter;stroke-miterlimit:4;stroke-opacity:1;stroke-dasharray:none"
           d="m 395.69069,502.40891 7.94694,0.42451"
           id="path5657"
           inkscape:connector-curvature="0" />
      </g>
      <path
         transform="matrix(4.7085838,0,0,4.8019666,-534.55605,-1787.1386)"
         d="m 190.84876,513.18896 c 0,0.6248 -0.5065,1.1313 -1.13129,1.1313 -0.6248,0 -1.13129,-0.5065 -1.13129,-1.1313 0,-0.62479 0.50649,-1.13129 1.13129,-1.13129 0.62479,0 1.13129,0.5065 1.13129,1.13129 z"
         sodipodi:ry="1.1312908"
         sodipodi:rx="1.1312908"
         sodipodi:cy="513.18896"
         sodipodi:cx="189.71747"
         id="path5659"
         style="fill:#ff0000;fill-opacity:0.00392157;stroke:#0000aa;stroke-width:0.01703454;stroke-miterlimit:4;stroke-opacity:1;stroke-dasharray:none"
         sodipodi:type="arc" />
      <g
         transform="matrix(-0.97726249,0.21203305,0.21203305,0.97726249,607.53329,58.296858)"
         id="g5661">
        <path
           sodipodi:type="arc"
           style="fill:#ff0000;fill-opacity:0.00392157;stroke:#0000aa;stroke-width:0.05558248;stroke-miterlimit:4;stroke-opacity:1;stroke-dasharray:none"
           id="path5663"
           sodipodi:cx="233.32129"
           sodipodi:cy="490.53625"
           sodipodi:rx="1.1157025"
           sodipodi:ry="1.0924587"
           d="m 234.43699,490.53625 c 0,0.60335 -0.49952,1.09246 -1.1157,1.09246 -0.61619,0 -1.1157,-0.48911 -1.1157,-1.09246 0,-0.60334 0.49951,-1.09245 1.1157,-1.09245 0.61618,0 1.1157,0.48911 1.1157,1.09245 z"
           transform="matrix(-1.7535435,0,0,1.3865158,786.47397,-181.42641)" />
        <path
           style="fill:none;stroke:#000000;stroke-width:0.081;stroke-linecap:butt;stroke-linejoin:miter;stroke-miterlimit:4;stroke-opacity:1;stroke-dasharray:none"
           d="m 376.11942,495.06387 c 10.18079,3.57955 19.57127,7.34504 19.57127,7.34504"
           id="path5665"
           inkscape:connector-curvature="0"
           sodipodi:nodetypes="cc" />
        <path
           style="fill:none;stroke:#000000;stroke-width:0.081;stroke-linecap:butt;stroke-linejoin:miter;stroke-miterlimit:4;stroke-opacity:1;stroke-dasharray:none"
           d="m 378.78154,498.50315 c 16.73554,6.64773 17.18808,6.83449 17.18808,6.83449"
           id="path5667"
           inkscape:connector-curvature="0"
           sodipodi:nodetypes="cc" />
        <path
           inkscape:connector-curvature="0"
           id="path5669"
           d="m 395.69069,502.40891 7.94694,0.42451"
           style="fill:none;stroke:#000000;stroke-width:0.081;stroke-linecap:butt;stroke-linejoin:miter;stroke-miterlimit:4;stroke-opacity:1;stroke-dasharray:none" />
      </g>
    </g>
  </g>
</svg>
