solid OpenSCAD_Model
  facet normal 0 0 -1
    outer loop
      vertex 11.99 1.199 3.599
      vertex 11.99 0.01 3.599
      vertex 8.399 1.199 3.599
    endloop
  endfacet
  facet normal 0 0 -1
    outer loop
      vertex 8.399 1.199 3.599
      vertex 11.99 0.01 3.599
      vertex 8.399 0.01 3.599
    endloop
  endfacet
  facet normal -1 0 0
    outer loop
      vertex 8.399 1.199 8.399
      vertex 8.399 1.199 3.599
      vertex 8.399 0.01 8.399
    endloop
  endfacet
  facet normal -1 0 0
    outer loop
      vertex 8.399 0.01 8.399
      vertex 8.399 1.199 3.599
      vertex 8.399 0.01 3.599
    endloop
  endfacet
  facet normal 0 -1 0
    outer loop
      vertex 8.399 0.01 8.399
      vertex 8.399 0.01 3.599
      vertex 11.99 0.01 3.599
    endloop
  endfacet
  facet normal 0 -1 0
    outer loop
      vertex 11.99 0.01 8.399
      vertex 8.399 0.01 8.399
      vertex 11.99 0.01 3.599
    endloop
  endfacet
  facet normal 0 1 0
    outer loop
      vertex 11.99 1.199 8.399
      vertex 11.99 1.199 3.599
      vertex 8.399 1.199 8.399
    endloop
  endfacet
  facet normal 0 1 -0
    outer loop
      vertex 8.399 1.199 8.399
      vertex 11.99 1.199 3.599
      vertex 8.399 1.199 3.599
    endloop
  endfacet
  facet normal 1 0 -0
    outer loop
      vertex 11.99 0.01 8.399
      vertex 11.99 0.01 3.599
      vertex 11.99 1.199 3.599
    endloop
  endfacet
  facet normal 1 0 0
    outer loop
      vertex 11.99 1.199 8.399
      vertex 11.99 0.01 8.399
      vertex 11.99 1.199 3.599
    endloop
  endfacet
  facet normal 0 0 1
    outer loop
      vertex 11.99 0.01 8.399
      vertex 11.99 1.199 8.399
      vertex 8.399 1.199 8.399
    endloop
  endfacet
  facet normal 0 0 1
    outer loop
      vertex 8.399 0.01 8.399
      vertex 11.99 0.01 8.399
      vertex 8.399 1.199 8.399
    endloop
  endfacet
  facet normal -1 -0 -0
    outer loop
      vertex 0.01 0.01 3.599
      vertex 0.01 0.01 8.399
      vertex 0.01 4.78 3.599
    endloop
  endfacet
  facet normal -1 0 0
    outer loop
      vertex 0.01 4.78 3.599
      vertex 0.01 0.01 8.399
      vertex 0.01 4.78 8.399
    endloop
  endfacet
  facet normal 0 -1 0
    outer loop
      vertex 0.01 0.01 8.399
      vertex 0.01 0.01 3.599
      vertex 3.599 0.01 3.599
    endloop
  endfacet
  facet normal 0 -1 0
    outer loop
      vertex 3.599 0.01 8.399
      vertex 0.01 0.01 8.399
      vertex 3.599 0.01 3.599
    endloop
  endfacet
  facet normal 0 0 -1
    outer loop
      vertex 3.599 4.78 3.599
      vertex 3.599 0.01 3.599
      vertex 0.01 4.78 3.599
    endloop
  endfacet
  facet normal 0 0 -1
    outer loop
      vertex 0.01 4.78 3.599
      vertex 3.599 0.01 3.599
      vertex 0.01 0.01 3.599
    endloop
  endfacet
  facet normal 0 1 0
    outer loop
      vertex 3.599 4.78 8.399
      vertex 3.599 4.78 3.599
      vertex 0.01 4.78 8.399
    endloop
  endfacet
  facet normal 0 1 -0
    outer loop
      vertex 0.01 4.78 8.399
      vertex 3.599 4.78 3.599
      vertex 0.01 4.78 3.599
    endloop
  endfacet
  facet normal 0 0 1
    outer loop
      vertex 3.599 0.01 8.399
      vertex 3.599 4.78 8.399
      vertex 0.01 4.78 8.399
    endloop
  endfacet
  facet normal 0 0 1
    outer loop
      vertex 0.01 0.01 8.399
      vertex 3.599 0.01 8.399
      vertex 0.01 4.78 8.399
    endloop
  endfacet
  facet normal 1 0 0
    outer loop
      vertex 3.599 4.78 3.599
      vertex 3.599 4.78 8.399
      vertex 3.599 0.01 8.399
    endloop
  endfacet
  facet normal 1 0 0
    outer loop
      vertex 3.599 0.01 3.599
      vertex 3.599 4.78 3.599
      vertex 3.599 0.01 8.399
    endloop
  endfacet
  facet normal 0 -1 0
    outer loop
      vertex 11.99 4.799 2.399
      vertex 11.99 4.799 9.599
      vertex 8.4 4.799 9.599
    endloop
  endfacet
  facet normal -0 -1 -0
    outer loop
      vertex 8.4 4.799 2.399
      vertex 11.99 4.799 2.399
      vertex 8.4 4.799 9.599
    endloop
  endfacet
  facet normal 0 0 -1
    outer loop
      vertex 11.99 7.199 2.399
      vertex 11.99 4.799 2.399
      vertex 8.4 7.199 2.399
    endloop
  endfacet
  facet normal 0 0 -1
    outer loop
      vertex 8.4 7.199 2.399
      vertex 11.99 4.799 2.399
      vertex 8.4 4.799 2.399
    endloop
  endfacet
  facet normal -1 0 0
    outer loop
      vertex 8.4 7.199 9.599
      vertex 8.4 7.199 8.399
      vertex 8.4 4.799 9.599
    endloop
  endfacet
  facet normal -1 0 0
    outer loop
      vertex 8.4 11.99 7.199
      vertex 8.4 7.199 8.399
      vertex 8.4 11.99 8.399
    endloop
  endfacet
  facet normal -1 -0 0
    outer loop
      vertex 8.4 5.999 7.199
      vertex 8.4 7.199 8.399
      vertex 8.4 11.99 7.199
    endloop
  endfacet
  facet normal -1 0 0
    outer loop
      vertex 8.4 4.799 9.599
      vertex 8.4 7.199 8.399
      vertex 8.4 5.999 7.199
    endloop
  endfacet
  facet normal -1 0 0
    outer loop
      vertex 8.4 4.799 9.599
      vertex 8.4 5.999 7.199
      vertex 8.4 5.999 4.799
    endloop
  endfacet
  facet normal -1 0 0
    outer loop
      vertex 8.4 5.999 4.799
      vertex 8.4 7.199 4.799
      vertex 8.4 7.199 2.399
    endloop
  endfacet
  facet normal -1 0 0
    outer loop
      vertex 8.4 5.999 4.799
      vertex 8.4 7.199 2.399
      vertex 8.4 4.799 2.399
    endloop
  endfacet
  facet normal -1 0 0
    outer loop
      vertex 8.4 5.999 4.799
      vertex 8.4 4.799 2.399
      vertex 8.4 4.799 9.599
    endloop
  endfacet
  facet normal 1 0 -0
    outer loop
      vertex 11.99 5.999 4.799
      vertex 11.99 4.799 2.399
      vertex 11.99 7.199 2.399
    endloop
  endfacet
  facet normal 1 0 0
    outer loop
      vertex 11.99 11.99 8.399
      vertex 11.99 7.199 8.399
      vertex 11.99 11.99 7.199
    endloop
  endfacet
  facet normal 1 0 0
    outer loop
      vertex 11.99 5.999 7.199
      vertex 11.99 7.199 8.399
      vertex 11.99 4.799 9.599
    endloop
  endfacet
  facet normal 1 0 -0
    outer loop
      vertex 11.99 4.799 9.599
      vertex 11.99 4.799 2.399
      vertex 11.99 5.999 4.799
    endloop
  endfacet
  facet normal 1 0 0
    outer loop
      vertex 11.99 5.999 7.199
      vertex 11.99 11.99 7.199
      vertex 11.99 7.199 8.399
    endloop
  endfacet
  facet normal 1 0 0
    outer loop
      vertex 11.99 7.199 8.399
      vertex 11.99 7.199 9.599
      vertex 11.99 4.799 9.599
    endloop
  endfacet
  facet normal 1 0 0
    outer loop
      vertex 11.99 5.999 4.799
      vertex 11.99 5.999 7.199
      vertex 11.99 4.799 9.599
    endloop
  endfacet
  facet normal 1 0 0
    outer loop
      vertex 11.99 7.199 4.799
      vertex 11.99 5.999 4.799
      vertex 11.99 7.199 2.399
    endloop
  endfacet
  facet normal 0 0 1
    outer loop
      vertex 11.99 4.799 9.599
      vertex 11.99 7.199 9.599
      vertex 8.4 7.199 9.599
    endloop
  endfacet
  facet normal 0 0 1
    outer loop
      vertex 8.4 4.799 9.599
      vertex 11.99 4.799 9.599
      vertex 8.4 7.199 9.599
    endloop
  endfacet
  facet normal 0 1 0
    outer loop
      vertex 11.99 7.199 4.799
      vertex 11.99 7.199 2.399
      vertex 8.4 7.199 4.799
    endloop
  endfacet
  facet normal 0 1 -0
    outer loop
      vertex 8.4 7.199 4.799
      vertex 11.99 7.199 2.399
      vertex 8.4 7.199 2.399
    endloop
  endfacet
  facet normal 0 0 1
    outer loop
      vertex 11.99 5.999 4.799
      vertex 11.99 7.199 4.799
      vertex 8.4 7.199 4.799
    endloop
  endfacet
  facet normal 0 0 1
    outer loop
      vertex 8.4 5.999 4.799
      vertex 11.99 5.999 4.799
      vertex 8.4 7.199 4.799
    endloop
  endfacet
  facet normal 0 1 0
    outer loop
      vertex 11.99 5.999 7.199
      vertex 11.99 5.999 4.799
      vertex 8.4 5.999 7.199
    endloop
  endfacet
  facet normal 0 1 -0
    outer loop
      vertex 8.4 5.999 7.199
      vertex 11.99 5.999 4.799
      vertex 8.4 5.999 4.799
    endloop
  endfacet
  facet normal 0 0 -1
    outer loop
      vertex 11.99 11.99 7.199
      vertex 11.99 5.999 7.199
      vertex 8.4 11.99 7.199
    endloop
  endfacet
  facet normal 0 0 -1
    outer loop
      vertex 8.4 11.99 7.199
      vertex 11.99 5.999 7.199
      vertex 8.4 5.999 7.199
    endloop
  endfacet
  facet normal 0 1 0
    outer loop
      vertex 8.4 11.99 7.199
      vertex 8.4 11.99 8.399
      vertex 11.99 11.99 7.199
    endloop
  endfacet
  facet normal 0 1 0
    outer loop
      vertex 11.99 11.99 7.199
      vertex 8.4 11.99 8.399
      vertex 11.99 11.99 8.399
    endloop
  endfacet
  facet normal 0 0 1
    outer loop
      vertex 11.99 7.199 8.399
      vertex 11.99 11.99 8.399
      vertex 8.4 11.99 8.399
    endloop
  endfacet
  facet normal 0 0 1
    outer loop
      vertex 8.4 7.199 8.399
      vertex 11.99 7.199 8.399
      vertex 8.4 11.99 8.399
    endloop
  endfacet
  facet normal 0 1 0
    outer loop
      vertex 11.99 7.199 9.599
      vertex 11.99 7.199 8.399
      vertex 8.4 7.199 9.599
    endloop
  endfacet
  facet normal 0 1 -0
    outer loop
      vertex 8.4 7.199 9.599
      vertex 11.99 7.199 8.399
      vertex 8.4 7.199 8.399
    endloop
  endfacet
endsolid OpenSCAD_Model
