<?xml version="1.0" encoding="UTF-8" standalone="no"?>
<!-- Created with Inkscape (http://www.inkscape.org/) -->

<svg
   xmlns:dc="http://purl.org/dc/elements/1.1/"
   xmlns:cc="http://creativecommons.org/ns#"
   xmlns:rdf="http://www.w3.org/1999/02/22-rdf-syntax-ns#"
   xmlns:svg="http://www.w3.org/2000/svg"
   xmlns="http://www.w3.org/2000/svg"
   xmlns:sodipodi="http://sodipodi.sourceforge.net/DTD/sodipodi-0.dtd"
   xmlns:inkscape="http://www.inkscape.org/namespaces/inkscape"
   width="333"
   height="198"
   id="svg2"
   sodipodi:version="0.32"
   inkscape:version="0.46+devel"
   version="1.0"
   sodipodi:docname="netmath_buscard_preview.svg"
   inkscape:output_extension="org.inkscape.output.svg.inkscape">
  <sodipodi:namedview
     id="base"
     pagecolor="#ffffff"
     bordercolor="#666666"
     borderopacity="1.0"
     inkscape:pageopacity="0.0"
     inkscape:pageshadow="2"
     inkscape:zoom="4.4338624"
     inkscape:cx="166.5"
     inkscape:cy="92.329004"
     inkscape:document-units="in"
     inkscape:current-layer="layer1"
     showgrid="false"
     units="in"
     showguides="false"
     inkscape:guide-bbox="true"
     inkscape:object-nodes="true"
     inkscape:window-width="1920"
     inkscape:window-height="1086"
     inkscape:window-x="1680"
     inkscape:window-y="12">
    <sodipodi:guide
       id="guide12"
       position="14.686903,188.56089"
       orientation="0,1" />
    <sodipodi:guide
       id="guide14"
       position="9.0016504,188.56089"
       orientation="1,0" />
    <sodipodi:guide
       id="guide16"
       position="323.58564,209.40681"
       orientation="1,0" />
    <sodipodi:guide
       id="guide18"
       position="-138.81492,368.59389"
       orientation="0,1" />
    <sodipodi:guide
       id="guide20"
       position="-33.163975,9.0016504"
       orientation="0,1" />
    <sodipodi:guide
       id="guide822"
       position="100.01173,157.55059"
       orientation="0,1" />
    <sodipodi:guide
       id="guide824"
       position="89.667559,180.34935"
       orientation="1,0" />
    <sodipodi:guide
       id="guide870"
       position="21.649811,289.94304"
       orientation="0,1" />
    <sodipodi:guide
       id="guide1013"
       position="101.1415,254.97858"
       orientation="0,1" />
    <sodipodi:guide
       id="guide1015"
       position="101.4932,246.71376"
       orientation="0,1" />
    <sodipodi:guide
       orientation="1,0"
       position="192.25616,191.1016"
       id="guide9627" />
  </sodipodi:namedview>
  <defs
     id="defs4">
    <inkscape:perspective
       id="perspective10"
       inkscape:persp3d-origin="372.04724 : 350.78739 : 1"
       inkscape:vp_z="744.09448 : 526.18109 : 1"
       inkscape:vp_y="0 : 1000 : 0"
       inkscape:vp_x="0 : 526.18109 : 1"
       sodipodi:type="inkscape:persp3d" />
  </defs>
  <metadata
     id="metadata7">
    <rdf:RDF>
      <cc:Work
         rdf:about="">
        <dc:format>image/svg+xml</dc:format>
        <dc:type
           rdf:resource="http://purl.org/dc/dcmitype/StillImage" />
        <dc:title />
      </cc:Work>
    </rdf:RDF>
  </metadata>
  <g
     id="layer1"
     inkscape:groupmode="layer"
     inkscape:label="Layer 1">
    <rect
       y="9.1305857"
       x="8.9884863"
       height="179.91882"
       width="314.63132"
       id="rect22"
       style="fill:none;stroke:#000000;stroke-width:1;stroke-miterlimit:4;stroke-opacity:1;stroke-dasharray:none;stroke-dashoffset:0" />
    <path
       id="path1011"
       d="m 162.39409,123.06145 4.6955,0 0,66.04688"
       style="font-size:96px;font-style:normal;font-variant:normal;font-weight:bold;font-stretch:normal;text-align:start;line-height:120.00000477000000387%;writing-mode:lr-tb;text-anchor:start;fill:none;stroke:#000000;stroke-width:1;stroke-miterlimit:4;stroke-opacity:1;stroke-dasharray:none;font-family:Liberation Sans;-inkscape-font-specification:Liberation Sans Bold" />
    <path
       id="path968"
       d="m 116.71177,123.06145 1.76844,0 11.8125,36.9375 c 0.31247,0.96878 0.64059,2.15628 0.98438,3.5625 0.37496,1.40628 0.73433,2.76565 1.07812,4.07813 0.37496,1.53127 0.78121,3.12501 1.21875,4.78125 0.43746,-1.62499 0.85934,-3.18748 1.26563,-4.6875 0.18746,-0.65623 0.37496,-1.32811 0.5625,-2.01563 0.18746,-0.68747 0.37496,-1.35935 0.5625,-2.01562 0.18745,-0.65623 0.37495,-1.28123 0.5625,-1.875 0.18745,-0.59373 0.35933,-1.12498 0.51562,-1.59375 l 11.625,-37.17188 2.38275,0"
       style="font-size:96px;font-style:normal;font-variant:normal;font-weight:bold;font-stretch:normal;text-align:start;line-height:120.00000477000000387%;writing-mode:lr-tb;text-anchor:start;fill:none;stroke:#000000;stroke-width:1;stroke-miterlimit:4;stroke-opacity:1;stroke-dasharray:none;font-family:Liberation Sans;-inkscape-font-specification:Liberation Sans Bold" />
    <path
       id="path889"
       d="m 99.964587,189.10833 0,-66.04688 3.366453,0"
       style="font-size:96px;font-style:normal;font-variant:normal;font-weight:bold;font-stretch:normal;text-align:start;line-height:120.00000477000000387%;writing-mode:lr-tb;text-anchor:start;fill:none;stroke:#000000;stroke-width:1;stroke-miterlimit:4;stroke-opacity:1;stroke-dasharray:none;font-family:Liberation Sans;-inkscape-font-specification:Liberation Sans Bold" />
    <path
       id="path895"
       d="m 128.60526,189.10833 -11.90625,-36.84375 c -0.18752,-0.59372 -0.40627,-1.29684 -0.65625,-2.10938 -0.21877,-0.81246 -0.46877,-1.68746 -0.75,-2.625 -0.25002,-0.93746 -0.51564,-1.9062 -0.79687,-2.90625 -0.28127,-0.99995 -0.56252,-1.9687 -0.84375,-2.90625 -0.62502,-2.2187 -1.28127,-4.56245 -1.96875,-7.03125 0.0937,1.81255 0.18748,3.5938 0.28125,5.34375 0.0625,1.50005 0.12498,3.07817 0.1875,4.73438 0.0625,1.65629 0.0937,3.09379 0.0937,4.3125 l 0,40.03125"
       style="font-size:96px;font-style:normal;font-variant:normal;font-weight:bold;font-stretch:normal;text-align:start;line-height:120.00000477000000387%;writing-mode:lr-tb;text-anchor:start;fill:none;stroke:#000000;stroke-width:1;stroke-miterlimit:4;stroke-opacity:1;stroke-dasharray:none;font-family:Liberation Sans;-inkscape-font-specification:Liberation Sans Bold" />
    <path
       sodipodi:nodetypes="cccccsscscc"
       id="path807"
       d="m 154.80836,189.10833 0,-40.03125 c -6e-5,-1.59371 0.0156,-3.23434 0.0469,-4.92188 0.0624,-1.68745 0.12494,-3.23433 0.1875,-4.64062 0.0937,-1.6562 0.17182,-3.26558 0.23438,-4.82813 -0.65631,2.4688 -1.28131,4.81255 -1.875,7.03125 -0.25006,0.93755 -0.51569,1.9063 -0.79688,2.90625 -0.28131,1.00005 -0.56256,1.96879 -0.84375,2.90625 -0.25006,0.93754 -0.50006,1.81254 -0.75,2.625 -0.25005,0.81254 -0.4688,1.51566 -0.65625,2.10938 l -11.90625,36.84375"
       style="font-size:96px;font-style:normal;font-variant:normal;font-weight:bold;font-stretch:normal;text-align:start;line-height:120.00000477000000387%;writing-mode:lr-tb;text-anchor:start;fill:none;stroke:#000000;stroke-width:1;stroke-miterlimit:4;stroke-opacity:1;stroke-dasharray:none;font-family:Liberation Sans;-inkscape-font-specification:Liberation Sans Bold" />
    <path
       id="path919"
       d="m 214.82411,189.1154 c -1.30252,-0.40542 -2.37027,-1.03279 -3.20325,-1.88212 -1.56254,-1.625 -2.50004,-4.01562 -2.8125,-7.17188 l -0.28125,0 c -1.75004,3.15626 -4.00003,5.60938 -6.75,7.35938 -1.11224,0.71592 -2.32385,1.2854 -3.63482,1.70843"
       style="font-size:96px;font-style:normal;font-variant:normal;font-weight:bold;font-stretch:normal;text-align:start;line-height:120.00000477000000387%;writing-mode:lr-tb;text-anchor:start;fill:none;stroke:#000000;stroke-width:1;stroke-miterlimit:4;stroke-opacity:1;stroke-dasharray:none;font-family:Liberation Sans;-inkscape-font-specification:Liberation Sans Bold" />
    <path
       id="path81"
       d="m 204.1411,137.66137 c 1.65473,0.19063 3.19487,0.51146 4.62038,0.96258 2.46872,0.78126 4.56246,1.95318 6.28125,3.51563 1.71871,1.53129 3.03121,3.42192 3.9375,5.67187 0.90621,2.25004 1.35933,4.85941 1.35938,7.82813 l 0,18.46875 c -5e-5,1.18751 0.0468,2.25001 0.14062,3.1875 0.12496,0.93751 0.32808,1.73438 0.60938,2.39062 0.31245,0.62501 0.73432,1.10938 1.26562,1.45313 0.56245,0.3125 1.2812,0.46875 2.15625,0.46875 0.99995,0 1.9687,-0.0937 2.90625,-0.28125 l 0,7.125 c -0.7813,0.1875 -1.48443,0.35938 -2.10937,0.51562 -0.20823,0.0521 -0.41646,0.10064 -0.62468,0.14576"
       style="font-size:96px;font-style:normal;font-variant:normal;font-weight:bold;font-stretch:normal;text-align:start;line-height:120.00000477000000387%;writing-mode:lr-tb;text-anchor:start;fill:none;stroke:#000000;stroke-width:1;stroke-miterlimit:4;stroke-opacity:1;stroke-dasharray:none;font-family:Liberation Sans;-inkscape-font-specification:Liberation Sans Bold" />
    <path
       id="path911"
       d="m 185.49952,189.13499 c -0.0745,-0.024 -0.14864,-0.0486 -0.22241,-0.0735 -1.90626,-0.6875 -3.53126,-1.67187 -4.875,-2.95312 -1.34376,-1.3125 -2.37501,-2.92187 -3.09375,-4.82813 -0.71876,-1.90624 -1.07813,-4.07811 -1.07813,-6.51562 0,-2.99999 0.51562,-5.51561 1.54688,-7.54688 1.06249,-2.06247 2.49999,-3.71872 4.3125,-4.96875 1.81249,-1.28122 3.93748,-2.20309 6.375,-2.76562 2.43748,-0.59372 5.03123,-0.90622 7.78125,-0.9375 l 10.92187,-0.1875 0,-2.57813 c -3e-5,-1.84371 -0.17191,-3.37496 -0.51562,-4.59375 -0.31254,-1.24996 -0.78129,-2.26558 -1.40625,-3.04687 -0.62503,-0.78121 -1.40628,-1.32809 -2.34375,-1.64063 -0.90628,-0.34371 -1.95316,-0.51558 -3.14063,-0.51562 -1.09377,4e-5 -2.07815,0.10941 -2.95312,0.32812 -0.84378,0.21879 -1.57815,0.60942 -2.20313,1.17188 -0.62502,0.53129 -1.14064,1.26566 -1.54687,2.20312 -0.37502,0.90629 -0.64065,2.06254 -0.79688,3.46875 l -13.73437,-0.65625 c 0.37499,-2.21871 1.06249,-4.23433 2.0625,-6.04687 0.99999,-1.84371 2.37499,-3.43746 4.125,-4.78125 1.78123,-1.3437 3.95311,-2.37495 6.51562,-3.09375 1.4425,-0.41708 3.02032,-0.71819 4.73347,-0.90333"
       style="font-size:96px;font-style:normal;font-variant:normal;font-weight:bold;font-stretch:normal;text-align:start;line-height:120.00000477000000387%;writing-mode:lr-tb;text-anchor:start;fill:none;stroke:#000000;stroke-width:1;stroke-miterlimit:4;stroke-opacity:1;stroke-dasharray:none;font-family:Liberation Sans;-inkscape-font-specification:Liberation Sans Bold" />
    <path
       id="path809"
       d="m 207.16773,165.6239 -6.75,0.0937 c -1.40627,0.0625 -2.75002,0.18752 -4.03125,0.375 -1.25002,0.15627 -2.35939,0.51565 -3.32812,1.07813 -0.93752,0.53127 -1.68752,1.31252 -2.25,2.34375 -0.56252,1.03127 -0.84377,2.43751 -0.84375,4.21875 -2e-5,2.40626 0.54686,4.20313 1.64062,5.39062 1.12498,1.15626 2.60936,1.73438 4.45313,1.73438 1.68747,0 3.21872,-0.35937 4.59375,-1.07813 1.37497,-0.71874 2.53122,-1.65624 3.46875,-2.8125 0.96872,-1.18749 1.71871,-2.54686 2.25,-4.07812 0.53121,-1.53124 0.79684,-3.09373 0.79687,-4.6875 l 0,-2.57813"
       style="font-size:96px;font-style:normal;font-variant:normal;font-weight:bold;font-stretch:normal;text-align:start;line-height:120.00000477000000387%;writing-mode:lr-tb;text-anchor:start;fill:none;stroke:#000000;stroke-width:1;stroke-miterlimit:4;stroke-opacity:1;stroke-dasharray:none;font-family:Liberation Sans;-inkscape-font-specification:Liberation Sans Bold" />
    <path
       id="path861"
       d="m 247.48023,126.48333 0,11.90625 9.60938,0 0,8.90625 -9.60938,0 0,26.34375 c -2e-5,2.46876 0.46873,4.29688 1.40625,5.48437 0.93748,1.15626 2.3906,1.73438 4.35938,1.73438 0.81247,0 1.54684,-0.0625 2.20312,-0.1875 0.65622,-0.12499 1.3906,-0.28124 2.20313,-0.46875 l 0,8.15625 c -0.89855,0.29375 -1.82575,0.5445 -2.7816,0.75226"
       style="font-size:96px;font-style:normal;font-variant:normal;font-weight:bold;font-stretch:normal;text-align:start;line-height:120.00000477000000387%;writing-mode:lr-tb;text-anchor:start;fill:none;stroke:#000000;stroke-width:1;stroke-miterlimit:4;stroke-opacity:1;stroke-dasharray:none;font-family:Liberation Sans;-inkscape-font-specification:Liberation Sans Bold" />
    <path
       id="path925"
       d="m 241.26359,189.11877 c -1.43408,-0.52296 -2.65874,-1.29207 -3.67398,-2.30732 -2.09376,-2.12499 -3.14064,-5.32812 -3.14063,-9.60937 l 0,-29.90625 -6.42187,0 0,-8.90625 7.07812,0 4.125,-11.90625"
       style="font-size:96px;font-style:normal;font-variant:normal;font-weight:bold;font-stretch:normal;text-align:start;line-height:120.00000477000000387%;writing-mode:lr-tb;text-anchor:start;fill:none;stroke:#000000;stroke-width:1;stroke-miterlimit:4;stroke-opacity:1;stroke-dasharray:none;font-family:Liberation Sans;-inkscape-font-specification:Liberation Sans Bold" />
    <path
       id="path867"
       d="m 278.60523,119.54583 0,18.98437 c -2e-5,1.00005 -0.0156,2.01568 -0.0469,3.04688 -0.0313,1.00004 -0.0781,1.95317 -0.14063,2.85937 -0.0313,0.87505 -0.0625,1.67192 -0.0937,2.39063 -0.0313,0.71879 -0.0625,1.28129 -0.0937,1.6875 l 0.1875,0"
       style="font-size:96px;font-style:normal;font-variant:normal;font-weight:bold;font-stretch:normal;text-align:start;line-height:120.00000477000000387%;writing-mode:lr-tb;text-anchor:start;fill:none;stroke:#000000;stroke-width:1;stroke-miterlimit:4;stroke-opacity:1;stroke-dasharray:none;font-family:Liberation Sans;-inkscape-font-specification:Liberation Sans Bold" />
    <path
       id="path935"
       d="m 265.43336,189.10833 0,-69.5625"
       style="font-size:96px;font-style:normal;font-variant:normal;font-weight:bold;font-stretch:normal;text-align:start;line-height:120.00000477000000387%;writing-mode:lr-tb;text-anchor:start;fill:none;stroke:#000000;stroke-width:1;stroke-miterlimit:4;stroke-opacity:1;stroke-dasharray:none;font-family:Liberation Sans;-inkscape-font-specification:Liberation Sans Bold" />
    <path
       id="path941"
       d="m 298.29273,189.10833 0,-28.40625 c -4e-5,-1.96872 -0.15629,-3.7656 -0.46875,-5.39063 -0.31254,-1.65621 -0.82816,-3.06246 -1.54687,-4.21875 -0.71879,-1.18746 -1.65629,-2.10933 -2.8125,-2.76562 -1.15629,-0.65621 -2.56253,-0.98434 -4.21875,-0.98438 -1.59378,4e-5 -3.04691,0.35942 -4.35938,1.07813 -1.28127,0.68754 -2.39065,1.68754 -3.32812,3 -0.93752,1.28128 -1.6719,2.82816 -2.20313,4.64062 -0.50002,1.78128 -0.75002,3.75003 -0.75,5.90625 l 0,27.14063"
       style="font-size:96px;font-style:normal;font-variant:normal;font-weight:bold;font-stretch:normal;text-align:start;line-height:120.00000477000000387%;writing-mode:lr-tb;text-anchor:start;fill:none;stroke:#000000;stroke-width:1;stroke-miterlimit:4;stroke-opacity:1;stroke-dasharray:none;font-family:Liberation Sans;-inkscape-font-specification:Liberation Sans Bold" />
    <path
       id="path813"
       d="m 278.41773,148.51458 c 1.78123,-3.87496 4.0156,-6.68746 6.70313,-8.4375 2.68747,-1.74995 5.89059,-2.62495 9.60937,-2.625 3.06246,5e-5 5.64059,0.50005 7.73438,1.5 2.12495,1.00005 3.8437,2.37504 5.15625,4.125 1.3437,1.75004 2.31245,3.81254 2.90625,6.1875 0.59369,2.37503 0.89057,4.93753 0.89062,7.6875 l 0,32.15625"
       style="font-size:96px;font-style:normal;font-variant:normal;font-weight:bold;font-stretch:normal;text-align:start;line-height:120.00000477000000387%;writing-mode:lr-tb;text-anchor:start;fill:none;stroke:#000000;stroke-width:1;stroke-miterlimit:4;stroke-opacity:1;stroke-dasharray:none;font-family:Liberation Sans;-inkscape-font-specification:Liberation Sans Bold" />
    <path
       id="path1023"
       d="m 75.861026,99.934779 0,22.845571 -16.21875,0"
       style="font-size:96px;font-style:normal;font-variant:normal;font-weight:bold;font-stretch:normal;text-align:start;line-height:125%;writing-mode:lr-tb;text-anchor:start;fill:none;stroke:#000000;stroke-width:1;stroke-miterlimit:4;stroke-opacity:1;stroke-dasharray:none;font-family:Liberation Sans;-inkscape-font-specification:Liberation Sans Bold" />
    <path
       id="path948"
       d="m 75.861026,56.733478 0,34.947581"
       style="font-size:96px;font-style:normal;font-variant:normal;font-weight:bold;font-stretch:normal;text-align:start;line-height:125%;writing-mode:lr-tb;text-anchor:start;fill:none;stroke:#000000;stroke-width:1;stroke-miterlimit:4;stroke-opacity:1;stroke-dasharray:none;font-family:Liberation Sans;-inkscape-font-specification:Liberation Sans Bold" />
    <path
       style="font-size:96px;font-style:normal;font-variant:normal;font-weight:bold;font-stretch:normal;text-align:start;line-height:125%;writing-mode:lr-tb;text-anchor:start;fill:none;stroke:#000000;stroke-width:1;stroke-miterlimit:4;stroke-opacity:1;stroke-dasharray:none;font-family:Liberation Sans;-inkscape-font-specification:Liberation Sans Bold"
       d="m 35.220401,56.733478 29.203125,51.281252 c -0.156301,-1.31248 -0.296926,-2.68748 -0.421875,-4.125 -0.125051,-1.21873 -0.234426,-2.59373 -0.328125,-4.125001 -0.06255,-1.53123 -0.0938,-3.0781 -0.09375,-4.64063 l 0,-38.390621"
       id="path942" />
    <path
       style="font-size:96px;font-style:normal;font-variant:normal;font-weight:bold;font-stretch:normal;text-align:start;line-height:125%;writing-mode:lr-tb;text-anchor:start;fill:none;stroke:#000000;stroke-width:1;stroke-miterlimit:4;stroke-opacity:1;stroke-dasharray:none;font-family:Liberation Sans;-inkscape-font-specification:Liberation Sans Bold"
       d="M 59.642276,122.78035 30.861026,71.920979 c 0.156232,1.37505 0.296857,2.75005 0.421875,4.125 0.124981,1.18754 0.218731,2.46879 0.28125,3.84375 0.09373,1.37504 0.140606,2.68754 0.140625,3.9375 l 0,38.953121 -12.28125,0 0,-66.046872"
       id="path816" />
    <path
       style="font-size:96px;font-style:normal;font-variant:normal;font-weight:bold;font-stretch:normal;text-align:start;line-height:125%;writing-mode:lr-tb;text-anchor:start;fill:none;stroke:#000000;stroke-width:1;stroke-miterlimit:4;stroke-opacity:1;stroke-dasharray:none;font-family:Liberation Sans;-inkscape-font-specification:Liberation Sans Bold"
       d="m 114.07809,71.391309 c 2.30416,0.32238 4.36202,0.93644 6.17356,1.84217 2.84371,1.37505 5.17183,3.31255 6.98438,5.8125 1.81245,2.50004 3.14057,5.50004 3.98437,9 0.8437,3.46878 1.26558,7.31253 1.26563,11.53125 l 0,0.375 -32.531254,0 c -1.8e-5,2.125021 0.187484,4.109391 0.562504,5.953121 0.37498,1.81252 0.98435,3.39064 1.82812,4.73438 0.84373,1.31251 1.93748,2.35938 3.28125,3.14062 1.34373,0.75001 2.96872,1.12501 4.875,1.125 2.31247,1e-5 4.20309,-0.48436 5.67188,-1.45312 1.46871,-0.99999 2.51558,-2.53124 3.14062,-4.59375 l 12.42188,1.07812 c -0.56255,1.43752 -1.35943,2.96876 -2.39063,4.59375 -1.00005,1.62501 -2.34379,3.12501 -4.03125,4.5 -1.68754,1.34376 -3.79691,2.46876 -6.32812,3.375 -0.70111,0.24538 -1.44522,0.45636 -2.23235,0.63293"
       id="path956" />
    <path
       id="path1031"
       d="m 86.436811,91.719689 c 0.307938,-2.52985 0.845176,-4.78567 1.611715,-6.76746 1.312493,-3.31246 3.062491,-5.98433 5.25,-8.01563 2.218737,-2.06245 4.7656,-3.54685 7.640624,-4.45312 1.60563,-0.50613 3.26001,-0.87088 4.96313,-1.09435"
       style="font-size:96px;font-style:normal;font-variant:normal;font-weight:bold;font-stretch:normal;text-align:start;line-height:125%;writing-mode:lr-tb;text-anchor:start;fill:none;stroke:#000000;stroke-width:1;stroke-miterlimit:4;stroke-opacity:1;stroke-dasharray:none;font-family:Liberation Sans;-inkscape-font-specification:Liberation Sans Bold" />
    <path
       id="path974"
       d="m 103.30496,123.0731 c -1.16434,-0.24596 -2.28106,-0.56229 -3.35018,-0.949 -2.906265,-1.09374 -5.390637,-2.73437 -7.453125,-4.92187 -2.062508,-2.21874 -3.640632,-4.98437 -4.734375,-8.29688 -0.859768,-2.62841 -1.381614,-5.60439 -1.565541,-8.927971"
       style="font-size:96px;font-style:normal;font-variant:normal;font-weight:bold;font-stretch:normal;text-align:start;line-height:125%;writing-mode:lr-tb;text-anchor:start;fill:none;stroke:#000000;stroke-width:1;stroke-miterlimit:4;stroke-opacity:1;stroke-dasharray:none;font-family:Liberation Sans;-inkscape-font-specification:Liberation Sans Bold" />
    <path
       style="font-size:96px;font-style:normal;font-variant:normal;font-weight:bold;font-stretch:normal;text-align:start;line-height:125%;writing-mode:lr-tb;text-anchor:start;fill:none;stroke:#000000;stroke-width:1;stroke-miterlimit:4;stroke-opacity:1;stroke-dasharray:none;font-family:Liberation Sans;-inkscape-font-specification:Liberation Sans Bold"
       d="m 109.8454,79.420979 c -1.34378,4e-5 -2.6094,0.23442 -3.79687,0.70312 -1.15628,0.43755 -2.1719,1.1563 -3.04688,2.15625 -0.84377,0.96879 -1.53127,2.23442 -2.0625,3.79688 -0.53127,1.56253 -0.82814,3.43753 -0.89062,5.625 l 19.6875,0 c -0.25004,-4.09372 -1.23442,-7.15621 -2.95313,-9.1875 -1.71878,-2.06246 -4.03128,-3.09371 -6.9375,-3.09375"
       id="path818" />
    <path
       id="path964"
       d="m 156.43915,60.155353 0,11.906246 9.60938,0 0,8.90625 -9.60938,0 0,26.343751 c -2e-5,2.46877 0.46873,4.29689 1.40625,5.48438 0.93748,1.15626 2.3906,1.73438 4.35938,1.73437 0.81247,1e-5 1.54684,-0.0625 2.20312,-0.1875 0.65622,-0.12499 1.3906,-0.28124 2.20313,-0.46875 l 0,8.15625 c -1.34494,0.43968 -2.75408,0.78305 -4.22741,1.03008"
       style="font-size:96px;font-style:normal;font-variant:normal;font-weight:bold;font-stretch:normal;text-align:start;line-height:125%;writing-mode:lr-tb;text-anchor:start;fill:none;stroke:#000000;stroke-width:1;stroke-miterlimit:4;stroke-opacity:1;stroke-dasharray:none;font-family:Liberation Sans;-inkscape-font-specification:Liberation Sans Bold" />
    <path
       id="path999"
       d="m 151.04888,123.05833 c -1.79516,-0.51148 -3.29528,-1.36977 -4.50035,-2.57485 -2.09376,-2.125 -3.14064,-5.32812 -3.14063,-9.60938 l 0,-29.906251 -6.42187,0 0,-8.90625 7.07812,0 4.125,-11.906246"
       style="font-size:96px;font-style:normal;font-variant:normal;font-weight:bold;font-stretch:normal;text-align:start;line-height:125%;writing-mode:lr-tb;text-anchor:start;fill:none;stroke:#000000;stroke-width:1;stroke-miterlimit:4;stroke-opacity:1;stroke-dasharray:none;font-family:Liberation Sans;-inkscape-font-specification:Liberation Sans Bold" />
    <path
       id="path1017"
       d="m 75.819492,91.685669 10.638762,0"
       style="stroke:#000000;stroke-width:1;stroke-miterlimit:4;stroke-opacity:1;stroke-dasharray:none" />
    <path
       id="path1019"
       d="m 75.8488,99.950489 10.345683,0"
       style="stroke:#000000;stroke-width:1;stroke-miterlimit:4;stroke-opacity:1;stroke-dasharray:none" />
    <path
       id="path5771"
       d="m 265.43336,119.54583 c 0,0 0.35738,0 0.35738,0"
       style="stroke:#000000;stroke-width:1;stroke-miterlimit:4;stroke-opacity:1;stroke-dasharray:none" />
    <path
       id="path5769"
       d="m 267.39074,119.54583 c 0,0 0.35738,0 0.35738,0"
       style="stroke:#000000;stroke-width:1;stroke-miterlimit:4;stroke-opacity:1;stroke-dasharray:none" />
    <path
       id="path5767"
       d="m 269.34812,119.54583 c 0,0 0.35738,0 0.35738,0"
       style="stroke:#000000;stroke-width:1;stroke-miterlimit:4;stroke-opacity:1;stroke-dasharray:none" />
    <path
       id="path5765"
       d="m 271.3055,119.54583 c 0,0 0.35738,0 0.35738,0"
       style="stroke:#000000;stroke-width:1;stroke-miterlimit:4;stroke-opacity:1;stroke-dasharray:none" />
    <path
       id="path5763"
       d="m 273.26288,119.54583 c 0,0 0.35738,0 0.35738,0"
       style="stroke:#000000;stroke-width:1;stroke-miterlimit:4;stroke-opacity:1;stroke-dasharray:none" />
    <path
       id="path5761"
       d="m 275.22026,119.54583 c 0,0 0.35738,0 0.35738,0"
       style="stroke:#000000;stroke-width:1;stroke-miterlimit:4;stroke-opacity:1;stroke-dasharray:none" />
    <path
       id="path5759"
       d="m 277.17764,119.54583 c 0,0 0.35738,0 0.35738,0"
       style="stroke:#000000;stroke-width:1;stroke-miterlimit:4;stroke-opacity:1;stroke-dasharray:none" />
    <path
       id="path2527"
       d="m 239.23023,126.48333 c 0,0 0.35738,0 0.35738,0 m 1.6,0 c 0,0 0.35738,0 0.35738,0 m 1.6,0 c 0,0 0.35738,0 0.35738,0 m 1.6,0 c 0,0 0.35738,0 0.35738,0 m 1.6,0 c 0,0 0.35738,0 0.35738,0"
       style="stroke:#000000;stroke-width:1;stroke-miterlimit:4;stroke-opacity:1;stroke-dasharray:none" />
    <path
       id="path9376"
       d="m 195.97643,137.66115 c 0,0 0.35738,0 0.35738,0 m 1.6,0 c 0,0 0.35738,0 0.35738,0 m 1.6,0 c 0,0 0.35738,0 0.35738,0 m 1.6,0 c 0,0 0.35738,0 0.35738,0 m 1.6,0 c 0,0 0.35738,0 0.35738,0"
       style="stroke:#000000;stroke-width:1;stroke-miterlimit:4;stroke-opacity:1;stroke-dasharray:none" />
    <path
       id="path7604"
       d="m 148.18915,60.155353 c 0,0 0.35738,0 0.35738,0 m 1.6,0 c 0,0 0.35738,0 0.35738,0 m 1.6,0 c 0,0 0.35738,0 0.35738,0 m 1.6,0 c 0,0 0.35738,0 0.35738,0 m 1.6,0 c 0,0 0.35738,0 0.35738,0"
       style="stroke:#000000;stroke-width:1;stroke-miterlimit:4;stroke-opacity:1;stroke-dasharray:none" />
    <path
       id="path4854"
       d="m 105.91064,71.338599 c 0,0 0.35738,0 0.35738,0 m 1.6,0 c 0,0 0.35738,0 0.35738,0 m 1.6,0 c 0,0 0.35738,0 0.35738,0 m 1.6,0 c 0,0 0.35738,0 0.35738,0 m 1.6,0 c 0,0 0.35738,0 0.35738,0"
       style="stroke:#000000;stroke-width:1;stroke-miterlimit:4;stroke-opacity:1;stroke-dasharray:none" />
    <path
       style="stroke:#000000;stroke-width:1;stroke-miterlimit:4;stroke-opacity:1;stroke-dasharray:none"
       d="m 19.423526,56.733478 c 0,0 0.35738,0 0.35738,0"
       id="path9625" />
    <path
       style="stroke:#000000;stroke-width:1;stroke-miterlimit:4;stroke-opacity:1;stroke-dasharray:none"
       d="m 21.380906,56.733478 c 0,0 0.35738,0 0.35738,0"
       id="path9623" />
    <path
       style="stroke:#000000;stroke-width:1;stroke-miterlimit:4;stroke-opacity:1;stroke-dasharray:none"
       d="m 23.338286,56.733478 c 0,0 0.35738,0 0.35738,0"
       id="path9621" />
    <path
       style="stroke:#000000;stroke-width:1;stroke-miterlimit:4;stroke-opacity:1;stroke-dasharray:none"
       d="m 25.295666,56.733478 c 0,0 0.35738,0 0.35738,0"
       id="path9619" />
    <path
       style="stroke:#000000;stroke-width:1;stroke-miterlimit:4;stroke-opacity:1;stroke-dasharray:none"
       d="m 27.253046,56.733478 c 0,0 0.35738,0 0.35738,0"
       id="path9617" />
    <path
       style="stroke:#000000;stroke-width:1;stroke-miterlimit:4;stroke-opacity:1;stroke-dasharray:none"
       d="m 29.210426,56.733478 c 0,0 0.35738,0 0.35738,0"
       id="path9615" />
    <path
       style="stroke:#000000;stroke-width:1;stroke-miterlimit:4;stroke-opacity:1;stroke-dasharray:none"
       d="m 31.167806,56.733478 c 0,0 0.35738,0 0.35738,0"
       id="path9613" />
    <path
       style="stroke:#000000;stroke-width:1;stroke-miterlimit:4;stroke-opacity:1;stroke-dasharray:none"
       d="m 33.125186,56.733478 c 0,0 0.35738,0 0.35738,0"
       id="path9611" />
    <path
       id="path0485"
       d="m 63.579776,56.733478 c 0,0 0.35738,0 0.35738,0 m 1.6,0 c 0,0 0.35738,0 0.35738,0 m 1.6,0 c 0,0 0.35738,0 0.35738,0 m 1.6,0 c 0,0 0.35738,0 0.35738,0 m 1.6,0 c 0,0 0.35738,0 0.35738,0 m 1.6,0 c 0,0 0.35738,0 0.35738,0 m 1.6,0 c 0,0 0.35738,0 0.35738,0"
       style="stroke:#000000;stroke-width:1;stroke-miterlimit:4;stroke-opacity:1;stroke-dasharray:none" />
  </g>
</svg>
