999
DXF created by Inkscape
  0
SECTION
  2
HEADER
  9
$ACADVER
  1
AC1014
  9
$HANDSEED
  5
FFFF
  9
$MEASUREMENT
 70
     1
  0
ENDSEC
  0
SECTION
  2
TABLES
  0
TABLE
  2
VPORT
  5
8
330
0
100
AcDbSymbolTable
 70
     4
  0
VPORT
  5
2E
330
8
100
AcDbSymbolTableRecord
100
AcDbViewportTableRecord
  2
*ACTIVE
 70
     0
 10
0.0
 20
0.0
 11
1.0
 21
1.0
 12
210.0
 22
148.5
 13
0.0
 23
0.0
 14
10.0
 24
10.0
 15
10.0
 25
10.0
 16
0.0
 26
0.0
 36
1.0
 17
0.0
 27
0.0
 37
0.0
 40
341.0
 41
1.24
 42
50.0
 43
0.0
 44
0.0
 50
0.0
 51
0.0
 71
     0
 72
   100
 73
     1
 74
     3
 75
     0
 76
     0
 77
     0
 78
     0
  0
ENDTAB
  0
TABLE
  2
LTYPE
  5
5
330
0
100
AcDbSymbolTable
 70
     1
  0
LTYPE
  5
14
330
5
100
AcDbSymbolTableRecord
100
AcDbLinetypeTableRecord
  2
BYBLOCK
 70
     0
  3

 72
    65
 73
     0
 40
0.0
  0
LTYPE
  5
15
330
5
100
AcDbSymbolTableRecord
100
AcDbLinetypeTableRecord
  2
BYLAYER
 70
     0
  3

 72
    65
 73
     0
 40
0.0
  0
LTYPE
  5
16
330
5
100
AcDbSymbolTableRecord
100
AcDbLinetypeTableRecord
  2
CONTINUOUS
 70
     0
  3
Solid line
 72
    65
 73
     0
 40
0.0
  0
ENDTAB
  0
TABLE
  2
LAYER
  5
2
330
0
100
AcDbSymbolTable
 70
1
  0
LAYER
  5
10
330
2
100
AcDbSymbolTableRecord
100
AcDbLayerTableRecord
  2
0
 70
     0
 62
     7
  6
CONTINUOUS
  0
ENDTAB
  0
TABLE
  2
STYLE
  5
3
330
0
100
AcDbSymbolTable
 70
     1
  0
STYLE
  5
11
330
3
100
AcDbSymbolTableRecord
100
AcDbTextStyleTableRecord
  2
STANDARD
 70
     0
 40
0.0
 41
1.0
 50
0.0
 71
     0
 42
2.5
  3
txt
  4

  0
ENDTAB
  0
TABLE
  2
VIEW
  5
6
330
0
100
AcDbSymbolTable
 70
     0
  0
ENDTAB
  0
TABLE
  2
UCS
  5
7
330
0
100
AcDbSymbolTable
 70
     0
  0
ENDTAB
  0
TABLE
  2
APPID
  5
9
330
0
100
AcDbSymbolTable
 70
     2
  0
APPID
  5
12
330
9
100
AcDbSymbolTableRecord
100
AcDbRegAppTableRecord
  2
ACAD
 70
     0
  0
ENDTAB
  0
TABLE
  2
DIMSTYLE
  5
A
330
0
100
AcDbSymbolTable
 70
     1
  0
DIMSTYLE
105
27
330
A
100
AcDbSymbolTableRecord
100
AcDbDimStyleTableRecord
  2
ISO-25
 70
     0
  3

  4

  5

  6

  7

 40
1.0
 41
2.5
 42
0.625
 43
3.75
 44
1.25
 45
0.0
 46
0.0
 47
0.0
 48
0.0
140
2.5
141
2.5
142
0.0
143
0.03937007874016
144
1.0
145
0.0
146
1.0
147
0.625
 71
     0
 72
     0
 73
     0
 74
     0
 75
     0
 76
     0
 77
     1
 78
     8
170
     0
171
     3
172
     1
173
     0
174
     0
175
     0
176
     0
177
     0
178
     0
270
     2
271
     2
272
     2
273
     2
274
     3
340
11
275
     0
280
     0
281
     0
282
     0
283
     0
284
     8
285
     0
286
     0
287
     3
288
     0
  0
ENDTAB
  0
TABLE
  2
BLOCK_RECORD
  5
1
330
0
100
AcDbSymbolTable
 70
     1
  0
BLOCK_RECORD
  5
1F
330
1
100
AcDbSymbolTableRecord
100
AcDbBlockTableRecord
  2
*MODEL_SPACE
  0
BLOCK_RECORD
  5
1B
330
1
100
AcDbSymbolTableRecord
100
AcDbBlockTableRecord
  2
*PAPER_SPACE
  0
ENDTAB
  0
ENDSEC
  0
SECTION
  2
BLOCKS
  0
BLOCK
  5
20
330
1F
100
AcDbEntity
  8
0
100
AcDbBlockBegin
  2
*MODEL_SPACE
 70
     0
 10
0.0
 20
0.0
 30
0.0
  3
*MODEL_SPACE
  1

  0
ENDBLK
  5
21
330
1F
100
AcDbEntity
  8
0
100
AcDbBlockEnd
  0
BLOCK
  5
1C
330
1B
100
AcDbEntity
 67
     1
  8
0
100
AcDbBlockBegin
  2
*PAPER_SPACE
  1

  0
ENDBLK
  5
1D
330
1B
100
AcDbEntity
 67
     1
  8
0
100
AcDbBlockEnd
  0
ENDSEC
  0
SECTION
  2
ENTITIES
  0
LINE
  5
100
100
AcDbEntity
  8
0
 62
7
100
AcDbLine
 10
12.816185
 20
137.928533
 30
0.0
 11
107.425343
 21
159.279706
 31
0.0
  0
LINE
  5
101
100
AcDbEntity
  8
0
 62
7
100
AcDbLine
 10
12.816185
 20
137.928533
 30
0.0
 11
70.090594
 21
180.646522
 31
0.0
  0
LINE
  5
102
100
AcDbEntity
  8
0
 62
7
100
AcDbLine
 10
107.425343
 20
159.279706
 30
0.0
 11
70.090594
 21
180.646522
 31
0.0
  0
LINE
  5
103
100
AcDbEntity
  8
0
 62
7
100
AcDbLine
 10
12.816184
 20
137.928531
 30
0.0
 11
60.255057
 21
222.523561
 31
0.0
  0
LINE
  5
104
100
AcDbEntity
  8
0
 62
7
100
AcDbLine
 10
77.909688
 20
251.667970
 30
0.0
 11
107.425343
 21
159.279703
 31
0.0
  0
LINE
  5
105
100
AcDbEntity
  8
0
 62
7
100
AcDbLine
 10
77.909688
 20
251.667970
 30
0.0
 11
125.456919
 21
198.334627
 31
0.0
  0
LINE
  5
106
100
AcDbEntity
  8
0
 62
7
100
AcDbLine
 10
107.425343
 20
159.279703
 30
0.0
 11
125.456919
 21
198.334627
 31
0.0
  0
LINE
  5
107
100
AcDbEntity
  8
0
 62
7
100
AcDbLine
 10
77.909685
 20
251.667969
 30
0.0
 11
166.317377
 21
211.782558
 31
0.0
  0
LINE
  5
108
100
AcDbEntity
  8
0
 62
7
100
AcDbLine
 10
196.889593
 20
196.735200
 30
0.0
 11
107.425349
 21
159.279694
 31
0.0
  0
LINE
  5
109
100
AcDbEntity
  8
0
 62
7
100
AcDbLine
 10
196.889593
 20
196.735200
 30
0.0
 11
147.903209
 21
144.720595
 31
0.0
  0
LINE
  5
10a
100
AcDbEntity
  8
0
 62
7
100
AcDbLine
 10
196.889590
 20
196.735203
 30
0.0
 11
164.861192
 21
105.187688
 31
0.0
  0
LINE
  5
10b
100
AcDbEntity
  8
0
 62
5
100
AcDbLine
 10
107.425349
 20
159.279694
 30
0.0
 11
109.233902
 21
147.527326
 31
0.0
  0
LINE
  5
10c
100
AcDbEntity
  8
0
 62
5
100
AcDbLine
 10
109.233902
 20
147.527326
 30
0.0
 11
94.480374
 21
126.286071
 31
0.0
  0
LINE
  5
10d
100
AcDbEntity
  8
0
 62
5
100
AcDbLine
 10
94.480374
 20
126.286071
 30
0.0
 11
82.836134
 21
123.877603
 31
0.0
  0
LINE
  5
10e
100
AcDbEntity
  8
0
 62
5
100
AcDbLine
 10
99.478307
 20
150.104785
 30
0.0
 11
100.264841
 21
147.459240
 31
0.0
  0
LINE
  5
10f
100
AcDbEntity
  8
0
 62
5
100
AcDbLine
 10
100.264841
 20
147.459240
 30
0.0
 11
91.412723
 21
134.714488
 31
0.0
  0
LINE
  5
110
100
AcDbEntity
  8
0
 62
5
100
AcDbLine
 10
91.412723
 20
134.714488
 30
0.0
 11
88.659050
 21
134.527866
 31
0.0
  0
LINE
  5
111
100
AcDbEntity
  8
0
 62
1
100
AcDbLine
 10
107.425349
 20
159.279694
 30
0.0
 11
100.540368
 21
149.367110
 31
0.0
  0
LINE
  5
112
100
AcDbEntity
  8
0
 62
1
100
AcDbLine
 10
82.836134
 20
123.877603
 30
0.0
 11
89.721114
 21
133.790188
 31
0.0
  0
LINE
  5
113
100
AcDbEntity
  8
0
 62
5
100
AcDbLine
 10
12.816186
 20
137.928531
 30
0.0
 11
36.716945
 21
133.160208
 31
0.0
  0
LINE
  5
114
100
AcDbEntity
  8
0
 62
5
100
AcDbLine
 10
36.716945
 20
133.160208
 30
0.0
 11
36.548280
 21
132.314789
 31
0.0
  0
LINE
  5
115
100
AcDbEntity
  8
0
 62
5
100
AcDbLine
 10
36.548280
 20
132.314789
 30
0.0
 11
34.012031
 21
132.820785
 31
0.0
  0
SPLINE
  5
116
100
AcDbEntity
  8
0
 62
5
100
AcDbSpline
 70
0
 71
3
 72
10
 73
6
 74
4
 40
0.000000
 40
0.000000
 40
0.000000
 40
0.000000
 40
0.976832
 40
3.219130
 40
5.882263
 40
5.882263
 40
5.882263
 40
5.882263
 10
34.012031
 20
132.820785
 30
0.0
 10
34.007693
 20
132.495697
 30
0.0
 10
33.993399
 20
131.424373
 30
0.0
 10
34.234747
 20
129.435704
 30
0.0
 10
35.078321
 20
128.014087
 30
0.0
 10
35.536293
 20
127.242299
 30
0.0
 11
34.012031
 21
132.820785
 31
0.0
 11
34.012497
 21
131.843954
 31
0.0
 11
34.351687
 21
129.627459
 31
0.0
 11
35.536293
 21
127.242299
 31
0.0
  0
SPLINE
  5
117
100
AcDbEntity
  8
0
 62
5
100
AcDbSpline
 70
0
 71
3
 72
10
 73
6
 74
4
 40
0.000000
 40
0.000000
 40
0.000000
 40
0.000000
 40
4.465117
 40
9.158641
 40
13.623761
 40
13.623761
 40
13.623761
 40
13.623761
 10
35.536293
 20
127.242299
 30
0.0
 10
36.711331
 20
126.308112
 30
0.0
 10
39.121513
 20
124.391949
 30
0.0
 10
43.812995
 20
123.455974
 30
0.0
 10
46.773963
 20
124.300565
 30
0.0
 10
48.217526
 20
124.712329
 30
0.0
 11
35.536293
 21
127.242299
 31
0.0
 11
39.238170
 21
124.745626
 31
0.0
 11
43.840987
 21
123.827340
 31
0.0
 11
48.217526
 21
124.712329
 31
0.0
  0
LINE
  5
118
100
AcDbEntity
  8
0
 62
5
100
AcDbLine
 10
51.765759
 20
129.278826
 30
0.0
 11
49.229510
 21
129.784822
 31
0.0
  0
LINE
  5
119
100
AcDbEntity
  8
0
 62
5
100
AcDbLine
 10
49.229510
 20
129.784822
 30
0.0
 11
49.398177
 21
130.630236
 31
0.0
  0
LINE
  5
11a
100
AcDbEntity
  8
0
 62
5
100
AcDbLine
 10
49.398177
 20
130.630236
 30
0.0
 11
82.885895
 21
123.949265
 31
0.0
  0
LINE
  5
11b
100
AcDbEntity
  8
0
 62
1
100
AcDbLine
 10
39.675901
 20
132.569881
 30
0.0
 11
46.439221
 21
131.220563
 31
0.0
  0
LINE
  5
11c
100
AcDbEntity
  8
0
 62
5
100
AcDbLine
 10
60.255057
 20
222.523561
 30
0.0
 11
45.924891
 21
217.807238
 31
0.0
  0
LINE
  5
11d
100
AcDbEntity
  8
0
 62
5
100
AcDbLine
 10
45.924891
 20
217.807238
 30
0.0
 11
45.655388
 21
218.626103
 31
0.0
  0
LINE
  5
11e
100
AcDbEntity
  8
0
 62
5
100
AcDbLine
 10
45.655388
 20
218.626103
 30
0.0
 11
48.111986
 21
219.434616
 31
0.0
  0
SPLINE
  5
11f
100
AcDbEntity
  8
0
 62
5
100
AcDbSpline
 70
0
 71
3
 72
10
 73
6
 74
4
 40
0.000000
 40
0.000000
 40
0.000000
 40
0.000000
 40
2.663131
 40
4.905428
 40
5.882260
 40
5.882260
 40
5.882260
 40
5.882260
 10
48.217526
 20
124.712329
 30
0.0
 10
48.936599
 20
125.249291
 30
0.0
 10
50.261116
 20
126.238362
 30
0.0
 10
51.247110
 20
127.982169
 30
0.0
 10
51.645016
 20
128.976961
 30
0.0
 10
51.765759
 20
129.278826
 30
0.0
 11
48.217526
 21
124.712329
 31
0.0
 11
50.226712
 21
126.460310
 31
0.0
 11
51.390483
 21
128.376957
 31
0.0
 11
51.765759
 21
129.278826
 31
0.0
  0
SPLINE
  5
120
100
AcDbEntity
  8
0
 62
5
100
AcDbSpline
 70
0
 71
3
 72
10
 73
6
 74
4
 40
0.000000
 40
0.000000
 40
0.000000
 40
0.000000
 40
0.976832
 40
3.219130
 40
5.882262
 40
5.882262
 40
5.882262
 40
5.882262
 10
48.111986
 20
219.434616
 30
0.0
 10
47.955680
 20
219.719695
 30
0.0
 10
47.440576
 20
220.659167
 30
0.0
 10
46.251253
 20
222.271172
 30
0.0
 10
44.817007
 20
223.093089
 30
0.0
 10
44.038362
 20
223.539304
 30
0.0
 11
48.111986
 21
219.434616
 31
0.0
 11
47.630566
 21
220.284578
 31
0.0
 11
46.243897
 21
222.046693
 31
0.0
 11
44.038362
 21
223.539304
 31
0.0
  0
SPLINE
  5
121
100
AcDbEntity
  8
0
 62
5
100
AcDbSpline
 70
0
 71
3
 72
10
 73
6
 74
4
 40
0.000000
 40
0.000000
 40
0.000000
 40
0.000000
 40
4.465117
 40
9.158642
 40
13.623760
 40
13.623760
 40
13.623760
 40
13.623760
 10
44.038362
 20
223.539304
 30
0.0
 10
42.555645
 20
223.773763
 30
0.0
 10
39.514366
 20
224.254675
 30
0.0
 10
34.970212
 20
222.759110
 30
0.0
 10
32.809013
 20
220.565966
 30
0.0
 10
31.755362
 20
219.496742
 30
0.0
 11
44.038362
 21
223.539304
 31
0.0
 11
39.586991
 21
223.889406
 31
0.0
 11
35.128717
 21
222.422105
 31
0.0
 11
31.755362
 21
219.496742
 31
0.0
  0
LINE
  5
122
100
AcDbEntity
  8
0
 62
5
100
AcDbLine
 10
30.915788
 20
213.775028
 30
0.0
 11
33.372388
 21
214.583541
 31
0.0
  0
LINE
  5
123
100
AcDbEntity
  8
0
 62
5
100
AcDbLine
 10
33.372388
 20
214.583541
 30
0.0
 11
33.641894
 21
213.764676
 31
0.0
  0
LINE
  5
124
100
AcDbEntity
  8
0
 62
5
100
AcDbLine
 10
33.641894
 20
213.764676
 30
0.0
 11
19.311727
 21
209.048353
 31
0.0
  0
LINE
  5
125
100
AcDbEntity
  8
0
 62
1
100
AcDbLine
 10
43.058859
 20
216.863972
 30
0.0
 11
36.507925
 21
214.707938
 31
0.0
  0
LINE
  5
126
100
AcDbEntity
  8
0
 62
5
100
AcDbLine
 10
19.311728
 20
209.048353
 30
0.0
 11
10.402766
 21
201.647439
 31
0.0
  0
LINE
  5
127
100
AcDbEntity
  8
0
 62
5
100
AcDbLine
 10
10.402766
 20
201.647439
 30
0.0
 11
6.271943
 21
156.971568
 31
0.0
  0
LINE
  5
128
100
AcDbEntity
  8
0
 62
5
100
AcDbLine
 10
6.271943
 20
156.971568
 30
0.0
 11
12.733317
 21
137.901265
 31
0.0
  0
LINE
  5
129
100
AcDbEntity
  8
0
 62
5
100
AcDbLine
 10
17.733191
 20
177.931123
 30
0.0
 11
15.428416
 21
176.412723
 31
0.0
  0
LINE
  5
12a
100
AcDbEntity
  8
0
 62
5
100
AcDbLine
 10
15.428416
 20
176.412723
 30
0.0
 11
13.999741
 21
160.961262
 31
0.0
  0
LINE
  5
12b
100
AcDbEntity
  8
0
 62
5
100
AcDbLine
 10
13.999741
 20
160.961262
 30
0.0
 11
15.987034
 21
159.046006
 31
0.0
  0
LINE
  5
12c
100
AcDbEntity
  8
0
 62
1
100
AcDbLine
 10
19.311728
 20
209.048353
 30
0.0
 11
16.445571
 21
178.050182
 31
0.0
  0
LINE
  5
12d
100
AcDbEntity
  8
0
 62
1
100
AcDbLine
 10
12.733318
 20
137.901259
 30
0.0
 11
14.699413
 21
159.165061
 31
0.0
  0
LINE
  5
12e
100
AcDbEntity
  8
0
 62
5
100
AcDbLine
 10
60.235112
 20
222.608490
 30
0.0
 11
68.107774
 21
218.885341
 31
0.0
  0
LINE
  5
12f
100
AcDbEntity
  8
0
 62
5
100
AcDbLine
 10
68.107774
 20
218.885341
 30
0.0
 11
72.583105
 21
203.286239
 31
0.0
  0
LINE
  5
130
100
AcDbEntity
  8
0
 62
5
100
AcDbLine
 10
61.735789
 20
210.563474
 30
0.0
 11
64.228105
 21
209.377771
 31
0.0
  0
LINE
  5
131
100
AcDbEntity
  8
0
 62
5
100
AcDbLine
 10
64.228105
 20
209.377771
 30
0.0
 11
67.776082
 21
194.271460
 31
0.0
  0
LINE
  5
132
100
AcDbEntity
  8
0
 62
5
100
AcDbLine
 10
67.776082
 20
194.271460
 30
0.0
 11
66.072202
 21
192.100208
 31
0.0
  0
LINE
  5
133
100
AcDbEntity
  8
0
 62
1
100
AcDbLine
 10
60.235112
 20
222.608490
 30
0.0
 11
62.994647
 21
210.859139
 31
0.0
  0
LINE
  5
134
100
AcDbEntity
  8
0
 62
1
100
AcDbLine
 10
70.090594
 20
180.646522
 30
0.0
 11
67.331059
 21
192.395873
 31
0.0
  0
LINE
  5
135
100
AcDbEntity
  8
0
 62
5
100
AcDbLine
 10
77.909682
 20
251.667970
 30
0.0
 11
75.242592
 21
227.442573
 31
0.0
  0
LINE
  5
136
100
AcDbEntity
  8
0
 62
5
100
AcDbLine
 10
75.242592
 20
227.442573
 30
0.0
 11
74.385692
 21
227.536914
 31
0.0
  0
LINE
  5
137
100
AcDbEntity
  8
0
 62
5
100
AcDbLine
 10
74.385692
 20
227.536914
 30
0.0
 11
74.668716
 21
230.107611
 31
0.0
  0
SPLINE
  5
138
100
AcDbEntity
  8
0
 62
5
100
AcDbSpline
 70
0
 71
3
 72
10
 73
6
 74
4
 40
0.000000
 40
0.000000
 40
0.000000
 40
0.000000
 40
2.663132
 40
4.905431
 40
5.882264
 40
5.882264
 40
5.882264
 40
5.882264
 10
31.755362
 20
219.496742
 30
0.0
 10
31.393925
 20
218.675305
 30
0.0
 10
30.728167
 20
217.162236
 30
0.0
 10
30.728693
 20
215.158976
 30
0.0
 10
30.872232
 20
214.097215
 30
0.0
 10
30.915788
 20
213.775028
 30
0.0
 11
31.755362
 21
219.496742
 31
0.0
 11
30.867403
 21
216.986004
 31
0.0
 11
30.798309
 21
214.744770
 31
0.0
 11
30.915788
 21
213.775028
 31
0.0
  0
SPLINE
  5
139
100
AcDbEntity
  8
0
 62
5
100
AcDbSpline
 70
0
 71
3
 72
10
 73
6
 74
4
 40
0.000000
 40
0.000000
 40
0.000000
 40
0.000000
 40
0.976833
 40
3.219132
 40
5.882265
 40
5.882265
 40
5.882265
 40
5.882265
 10
74.668716
 20
230.107611
 30
0.0
 10
74.344486
 20
230.083599
 30
0.0
 10
73.275992
 20
230.004467
 30
0.0
 10
71.315924
 20
229.590714
 30
0.0
 10
69.973240
 20
228.626448
 30
0.0
 10
69.244303
 20
228.102953
 30
0.0
 11
74.668716
 21
230.107611
 31
0.0
 11
73.695641
 21
230.022011
 31
0.0
 11
71.517141
 21
229.490932
 31
0.0
 11
69.244303
 21
228.102953
 31
0.0
  0
SPLINE
  5
13a
100
AcDbEntity
  8
0
 62
5
100
AcDbSpline
 70
0
 71
3
 72
10
 73
6
 74
4
 40
0.000000
 40
0.000000
 40
0.000000
 40
0.000000
 40
3.627078
 40
6.566414
 40
10.163547
 40
10.163547
 40
10.163547
 40
10.163547
 10
69.244303
 20
228.102953
 30
0.0
 10
68.428989
 20
227.181810
 30
0.0
 10
66.952954
 20
225.514185
 30
0.0
 10
66.462300
 20
221.921839
 30
0.0
 10
67.523679
 20
219.963211
 30
0.0
 10
68.107774
 20
218.885344
 30
0.0
 11
69.244303
 21
228.102953
 31
0.0
 11
67.151994
 21
225.140195
 31
0.0
 11
66.772491
 21
222.225461
 31
0.0
 11
68.107774
 21
218.885344
 31
0.0
  0
LINE
  5
13b
100
AcDbEntity
  8
0
 62
5
100
AcDbLine
 10
72.687572
 20
212.112741
 30
0.0
 11
72.970593
 21
214.683439
 31
0.0
  0
LINE
  5
13c
100
AcDbEntity
  8
0
 62
5
100
AcDbLine
 10
72.970593
 20
214.683439
 30
0.0
 11
73.827490
 21
214.589098
 31
0.0
  0
LINE
  5
13d
100
AcDbEntity
  8
0
 62
5
100
AcDbLine
 10
73.827490
 20
214.589098
 30
0.0
 11
70.090589
 21
180.646522
 31
0.0
  0
LINE
  5
13e
100
AcDbEntity
  8
0
 62
1
100
AcDbLine
 10
74.912403
 20
224.443428
 30
0.0
 11
74.157682
 21
217.588242
 31
0.0
  0
LINE
  5
13f
100
AcDbEntity
  8
0
 62
5
100
AcDbLine
 10
166.351768
 20
211.702385
 30
0.0
 11
160.404437
 21
225.566966
 31
0.0
  0
LINE
  5
140
100
AcDbEntity
  8
0
 62
5
100
AcDbLine
 10
160.404437
 20
225.566966
 30
0.0
 11
161.196697
 21
225.906813
 31
0.0
  0
LINE
  5
141
100
AcDbEntity
  8
0
 62
5
100
AcDbLine
 10
161.196697
 20
225.906813
 30
0.0
 11
162.216239
 21
223.530027
 31
0.0
  0
SPLINE
  5
142
100
AcDbEntity
  8
0
 62
5
100
AcDbSpline
 70
0
 71
3
 72
10
 73
6
 74
4
 40
0.000000
 40
0.000000
 40
0.000000
 40
0.000000
 40
3.345959
 40
6.669411
 40
8.176091
 40
8.176091
 40
8.176091
 40
8.176091
 10
68.107774
 20
218.885344
 30
0.0
 10
68.718955
 20
217.952351
 30
0.0
 10
69.937205
 20
216.092643
 30
0.0
 10
71.482681
 20
213.847639
 30
0.0
 10
72.401090
 20
212.525242
 30
0.0
 10
72.687572
 20
212.112741
 30
0.0
 11
68.107774
 21
218.885344
 31
0.0
 11
69.951995
 21
216.093518
 31
0.0
 11
71.828650
 21
213.350618
 31
0.0
 11
72.687572
 21
212.112741
 31
0.0
  0
SPLINE
  5
143
100
AcDbEntity
  8
0
 62
5
100
AcDbSpline
 70
0
 71
3
 72
10
 73
6
 74
4
 40
0.000000
 40
0.000000
 40
0.000000
 40
0.000000
 40
0.976832
 40
3.219131
 40
5.882264
 40
5.882264
 40
5.882264
 40
5.882264
 10
162.216239
 20
223.530027
 30
0.0
 10
162.486611
 20
223.710585
 30
0.0
 10
163.377614
 20
224.305609
 30
0.0
 10
164.879828
 20
225.630903
 30
0.0
 10
165.573615
 20
227.131327
 30
0.0
 10
165.950268
 20
227.945899
 30
0.0
 11
162.216239
 21
223.530027
 31
0.0
 11
163.021009
 21
224.083694
 31
0.0
 11
164.655562
 21
225.618665
 31
0.0
 11
165.950268
 21
227.945899
 31
0.0
  0
SPLINE
  5
144
100
AcDbEntity
  8
0
 62
5
100
AcDbSpline
 70
0
 71
3
 72
10
 73
6
 74
4
 40
0.000000
 40
0.000000
 40
0.000000
 40
0.000000
 40
4.465116
 40
9.158640
 40
13.623757
 40
13.623757
 40
13.623757
 40
13.623757
 10
165.950268
 20
227.945899
 30
0.0
 10
166.054607
 20
229.443408
 30
0.0
 10
166.268624
 20
232.515028
 30
0.0
 10
164.382701
 20
236.911542
 30
0.0
 10
162.009543
 20
238.873371
 30
0.0
 10
160.852556
 20
239.829823
 30
0.0
 11
165.950268
 21
227.945899
 31
0.0
 11
165.911075
 21
232.410843
 31
0.0
 11
164.060794
 21
236.724268
 31
0.0
 11
160.852556
 21
239.829823
 31
0.0
  0
LINE
  5
145
100
AcDbEntity
  8
0
 62
5
100
AcDbLine
 10
155.079443
 20
240.167524
 30
0.0
 11
156.098985
 21
237.790739
 31
0.0
  0
LINE
  5
146
100
AcDbEntity
  8
0
 62
5
100
AcDbLine
 10
156.098985
 20
237.790739
 30
0.0
 11
155.306722
 21
237.450890
 31
0.0
  0
LINE
  5
147
100
AcDbEntity
  8
0
 62
5
100
AcDbLine
 10
155.306722
 20
237.450890
 30
0.0
 11
149.359391
 21
251.315471
 31
0.0
  0
LINE
  5
148
100
AcDbEntity
  8
0
 62
1
100
AcDbLine
 10
159.214970
 20
228.339881
 30
0.0
 11
156.496190
 21
234.677974
 31
0.0
  0
LINE
  5
149
100
AcDbEntity
  8
0
 62
5
100
AcDbLine
 10
149.359391
 20
251.315472
 30
0.0
 11
141.210174
 21
259.545500
 31
0.0
  0
LINE
  5
14a
100
AcDbEntity
  8
0
 62
5
100
AcDbLine
 10
141.210174
 20
259.545500
 30
0.0
 11
96.344283
 21
259.766845
 31
0.0
  0
LINE
  5
14b
100
AcDbEntity
  8
0
 62
5
100
AcDbLine
 10
96.344283
 20
259.766845
 30
0.0
 11
77.909694
 21
251.667973
 31
0.0
  0
LINE
  5
14c
100
AcDbEntity
  8
0
 62
5
100
AcDbLine
 10
118.222996
 20
250.175957
 30
0.0
 11
116.509498
 21
252.339625
 31
0.0
  0
LINE
  5
14d
100
AcDbEntity
  8
0
 62
5
100
AcDbLine
 10
116.509498
 20
252.339625
 30
0.0
 11
100.992319
 21
252.416179
 31
0.0
  0
LINE
  5
14e
100
AcDbEntity
  8
0
 62
5
100
AcDbLine
 10
100.992319
 20
252.416179
 30
0.0
 11
99.257556
 21
250.269522
 31
0.0
  0
LINE
  5
14f
100
AcDbEntity
  8
0
 62
1
100
AcDbLine
 10
149.359391
 20
251.315472
 30
0.0
 11
118.229377
 21
251.469053
 31
0.0
  0
LINE
  5
150
100
AcDbEntity
  8
0
 62
1
100
AcDbLine
 10
77.909688
 20
251.667971
 30
0.0
 11
99.263934
 21
251.562621
 31
0.0
  0
LINE
  5
151
100
AcDbEntity
  8
0
 62
5
100
AcDbLine
 10
107.425349
 20
159.279694
 30
0.0
 11
121.621333
 21
154.173676
 31
0.0
  0
LINE
  5
152
100
AcDbEntity
  8
0
 62
5
100
AcDbLine
 10
121.621333
 20
154.173676
 30
0.0
 11
121.329560
 21
153.362477
 31
0.0
  0
LINE
  5
153
100
AcDbEntity
  8
0
 62
5
100
AcDbLine
 10
121.329560
 20
153.362477
 30
0.0
 11
118.895963
 21
154.237794
 31
0.0
  0
SPLINE
  5
154
100
AcDbEntity
  8
0
 62
5
100
AcDbSpline
 70
0
 71
3
 72
10
 73
6
 74
4
 40
0.000000
 40
0.000000
 40
0.000000
 40
0.000000
 40
2.663133
 40
4.905431
 40
5.882262
 40
5.882262
 40
5.882262
 40
5.882262
 10
160.852556
 20
239.829823
 30
0.0
 10
160.002743
 20
240.118292
 30
0.0
 10
158.437408
 20
240.649645
 30
0.0
 10
156.441817
 20
240.474526
 30
0.0
 10
155.396608
 20
240.238995
 30
0.0
 10
155.079443
 20
240.167524
 30
0.0
 11
160.852556
 21
239.829823
 31
0.0
 11
158.273981
 21
240.495579
 31
0.0
 11
156.035255
 21
240.369074
 31
0.0
 11
155.079443
 21
240.167524
 31
0.0
  0
SPLINE
  5
155
100
AcDbEntity
  8
0
 62
5
100
AcDbSpline
 70
0
 71
3
 72
10
 73
6
 74
4
 40
0.000000
 40
0.000000
 40
0.000000
 40
0.000000
 40
0.976832
 40
3.219130
 40
5.882262
 40
5.882262
 40
5.882262
 40
5.882262
 10
118.895963
 20
154.237794
 30
0.0
 10
118.843622
 20
153.916918
 30
0.0
 10
118.671132
 20
152.859474
 30
0.0
 10
118.615882
 20
150.856976
 30
0.0
 10
119.240061
 20
149.326287
 30
0.0
 10
119.578924
 20
148.495283
 30
0.0
 11
118.895963
 21
154.237794
 31
0.0
 11
118.752038
 21
153.271624
 31
0.0
 11
118.759881
 21
151.029340
 31
0.0
 11
119.578924
 21
148.495283
 31
0.0
  0
SPLINE
  5
156
100
AcDbEntity
  8
0
 62
5
100
AcDbSpline
 70
0
 71
3
 72
10
 73
6
 74
4
 40
0.000000
 40
0.000000
 40
0.000000
 40
0.000000
 40
4.465119
 40
9.158644
 40
13.623762
 40
13.623762
 40
13.623762
 40
13.623762
 10
119.578924
 20
148.495283
 30
0.0
 10
120.602974
 20
147.397675
 30
0.0
 10
122.703457
 20
145.146313
 30
0.0
 10
127.205062
 20
143.527174
 30
0.0
 10
130.258345
 20
143.924828
 30
0.0
 10
131.746913
 20
144.118697
 30
0.0
 11
119.578924
 21
148.495283
 31
0.0
 11
122.871110
 21
145.478862
 31
0.0
 11
127.287639
 21
143.890323
 31
0.0
 11
131.746913
 21
144.118697
 31
0.0
  0
LINE
  5
157
100
AcDbEntity
  8
0
 62
5
100
AcDbLine
 10
135.931142
 20
148.110575
 30
0.0
 11
133.497546
 21
148.985893
 31
0.0
  0
LINE
  5
158
100
AcDbEntity
  8
0
 62
5
100
AcDbLine
 10
133.497546
 20
148.985893
 30
0.0
 11
133.789318
 21
149.797090
 31
0.0
  0
LINE
  5
159
100
AcDbEntity
  8
0
 62
5
100
AcDbLine
 10
133.789318
 20
149.797090
 30
0.0
 11
147.985302
 21
144.691075
 31
0.0
  0
LINE
  5
15a
100
AcDbEntity
  8
0
 62
1
100
AcDbLine
 10
124.460531
 20
153.152472
 30
0.0
 11
130.950121
 21
150.818294
 31
0.0
  0
LINE
  5
15b
100
AcDbEntity
  8
0
 62
5
100
AcDbLine
 10
164.895586
 20
105.107509
 30
0.0
 11
178.189063
 21
112.240588
 31
0.0
  0
LINE
  5
15c
100
AcDbEntity
  8
0
 62
5
100
AcDbLine
 10
178.189063
 20
112.240588
 30
0.0
 11
178.596668
 21
111.480961
 31
0.0
  0
LINE
  5
15d
100
AcDbEntity
  8
0
 62
5
100
AcDbLine
 10
178.596668
 20
111.480961
 30
0.0
 11
176.317786
 21
110.258146
 31
0.0
  0
SPLINE
  5
15e
100
AcDbEntity
  8
0
 62
5
100
AcDbSpline
 70
0
 71
3
 72
10
 73
6
 74
4
 40
0.000000
 40
0.000000
 40
0.000000
 40
0.000000
 40
2.663132
 40
4.905430
 40
5.882261
 40
5.882261
 40
5.882261
 40
5.882261
 10
131.746913
 20
144.118697
 30
0.0
 10
132.537456
 20
144.543475
 30
0.0
 10
133.993618
 20
145.325907
 30
0.0
 10
135.226533
 20
146.904822
 30
0.0
 10
135.767107
 20
147.829872
 30
0.0
 10
135.931142
 20
148.110575
 30
0.0
 11
131.746913
 21
144.118697
 31
0.0
 11
133.992398
 21
145.550503
 31
0.0
 11
135.426684
 21
147.274081
 31
0.0
 11
135.931142
 21
148.110575
 31
0.0
  0
SPLINE
  5
15f
100
AcDbEntity
  8
0
 62
5
100
AcDbSpline
 70
0
 71
3
 72
10
 73
6
 74
4
 40
0.000000
 40
0.000000
 40
0.000000
 40
0.000000
 40
0.976832
 40
3.219130
 40
5.882263
 40
5.882263
 40
5.882263
 40
5.882263
 10
176.317786
 20
110.258146
 30
0.0
 10
176.521221
 20
110.004540
 30
0.0
 10
177.191636
 20
109.168787
 30
0.0
 10
178.642814
 20
107.787797
 30
0.0
 10
180.197996
 20
107.227421
 30
0.0
 10
181.042296
 20
106.923197
 30
0.0
 11
176.317786
 21
110.258146
 31
0.0
 11
176.939486
 21
109.504694
 31
0.0
 11
178.611077
 21
108.010143
 31
0.0
 11
181.042296
 21
106.923197
 31
0.0
  0
SPLINE
  5
160
100
AcDbEntity
  8
0
 62
5
100
AcDbSpline
 70
0
 71
3
 72
10
 73
6
 74
4
 40
0.000000
 40
0.000000
 40
0.000000
 40
0.000000
 40
4.465117
 40
9.158642
 40
13.623760
 40
13.623760
 40
13.623760
 40
13.623760
 10
181.042296
 20
106.923197
 30
0.0
 10
182.543200
 20
106.949770
 30
0.0
 10
185.621785
 20
107.004276
 30
0.0
 10
189.837201
 20
109.266206
 30
0.0
 10
191.584731
 20
111.801319
 30
0.0
 10
192.436705
 20
113.037264
 30
0.0
 11
181.042296
 21
106.923197
 31
0.0
 11
185.486834
 21
107.351385
 31
0.0
 11
189.622583
 21
109.570566
 31
0.0
 11
192.436705
 21
113.037264
 31
0.0
  0
LINE
  5
161
100
AcDbEntity
  8
0
 62
5
100
AcDbLine
 10
192.269959
 20
118.817842
 30
0.0
 11
189.991077
 21
117.595026
 31
0.0
  0
LINE
  5
162
100
AcDbEntity
  8
0
 62
5
100
AcDbLine
 10
189.991077
 20
117.595026
 30
0.0
 11
189.583475
 21
118.354656
 31
0.0
  0
LINE
  5
163
100
AcDbEntity
  8
0
 62
5
100
AcDbLine
 10
189.583475
 20
118.354656
 30
0.0
 11
202.876952
 21
125.487735
 31
0.0
  0
LINE
  5
164
100
AcDbEntity
  8
0
 62
1
100
AcDbLine
 10
180.847760
 20
113.667204
 30
0.0
 11
186.924778
 21
116.928039
 31
0.0
  0
LINE
  5
165
100
AcDbEntity
  8
0
 62
5
100
AcDbLine
 10
164.895586
 20
105.107509
 30
0.0
 11
153.970626
 21
109.801575
 31
0.0
  0
LINE
  5
166
100
AcDbEntity
  8
0
 62
5
100
AcDbLine
 10
153.970626
 20
109.801575
 30
0.0
 11
143.775199
 21
133.569425
 31
0.0
  0
LINE
  5
167
100
AcDbEntity
  8
0
 62
5
100
AcDbLine
 10
143.775199
 20
133.569425
 30
0.0
 11
147.903209
 21
144.720595
 31
0.0
  0
LINE
  5
168
100
AcDbEntity
  8
0
 62
5
100
AcDbLine
 10
161.326113
 20
116.708944
 30
0.0
 11
158.665765
 21
117.443848
 31
0.0
  0
LINE
  5
169
100
AcDbEntity
  8
0
 62
5
100
AcDbLine
 10
158.665765
 20
117.443848
 30
0.0
 11
152.548508
 21
131.704560
 31
0.0
  0
LINE
  5
16a
100
AcDbEntity
  8
0
 62
5
100
AcDbLine
 10
152.548508
 20
131.704560
 30
0.0
 11
153.849468
 21
134.138701
 31
0.0
  0
LINE
  5
16b
100
AcDbEntity
  8
0
 62
1
100
AcDbLine
 10
164.895586
 20
105.107509
 30
0.0
 11
160.137721
 21
116.199172
 31
0.0
  0
LINE
  5
16c
100
AcDbEntity
  8
0
 62
1
100
AcDbLine
 10
147.903209
 20
144.720595
 30
0.0
 11
152.661075
 21
133.628932
 31
0.0
  0
LINE
  5
16d
100
AcDbEntity
  8
0
 62
5
100
AcDbLine
 10
202.876952
 20
125.487732
 30
0.0
 11
210.365411
 21
134.323235
 31
0.0
  0
LINE
  5
16e
100
AcDbEntity
  8
0
 62
5
100
AcDbLine
 10
210.365411
 20
134.323235
 30
0.0
 11
206.675595
 21
179.037688
 31
0.0
  0
LINE
  5
16f
100
AcDbEntity
  8
0
 62
5
100
AcDbLine
 10
206.675595
 20
179.037688
 30
0.0
 11
197.000859
 21
196.696268
 31
0.0
  0
LINE
  5
170
100
AcDbEntity
  8
0
 62
5
100
AcDbLine
 10
199.028056
 20
156.406331
 30
0.0
 11
201.034150
 21
158.301885
 31
0.0
  0
LINE
  5
171
100
AcDbEntity
  8
0
 62
5
100
AcDbLine
 10
201.034150
 20
158.301885
 30
0.0
 11
199.758001
 21
173.766689
 31
0.0
  0
LINE
  5
172
100
AcDbEntity
  8
0
 62
5
100
AcDbLine
 10
199.758001
 20
173.766689
 30
0.0
 11
197.468321
 21
175.307758
 31
0.0
  0
LINE
  5
173
100
AcDbEntity
  8
0
 62
1
100
AcDbLine
 10
202.876952
 20
125.487732
 30
0.0
 11
200.316790
 21
156.512675
 31
0.0
  0
LINE
  5
174
100
AcDbEntity
  8
0
 62
1
100
AcDbLine
 10
197.000856
 20
196.696271
 30
0.0
 11
198.757052
 21
175.414105
 31
0.0
  0
LINE
  5
175
100
AcDbEntity
  8
0
 62
5
100
AcDbLine
 10
166.400251
 20
211.809818
 30
0.0
 11
163.377417
 21
203.642620
 31
0.0
  0
LINE
  5
176
100
AcDbEntity
  8
0
 62
5
100
AcDbLine
 10
163.377417
 20
203.642620
 30
0.0
 11
148.227725
 21
197.824767
 31
0.0
  0
LINE
  5
177
100
AcDbEntity
  8
0
 62
5
100
AcDbLine
 10
154.531862
 20
209.265060
 30
0.0
 11
153.567889
 21
206.678886
 31
0.0
  0
LINE
  5
178
100
AcDbEntity
  8
0
 62
5
100
AcDbLine
 10
153.567889
 20
206.678886
 30
0.0
 11
138.828292
 21
201.827810
 31
0.0
  0
LINE
  5
179
100
AcDbEntity
  8
0
 62
5
100
AcDbLine
 10
138.828292
 20
201.827810
 30
0.0
 11
136.516799
 21
203.335969
 31
0.0
  0
LINE
  5
17a
100
AcDbEntity
  8
0
 62
1
100
AcDbLine
 10
166.400251
 20
211.809818
 30
0.0
 11
154.936119
 21
208.036761
 31
0.0
  0
LINE
  5
17b
100
AcDbEntity
  8
0
 62
1
100
AcDbLine
 10
125.456922
 20
198.334610
 30
0.0
 11
136.921054
 21
202.107670
 31
0.0
  0
LINE
  5
17c
100
AcDbEntity
  8
0
 62
5
100
AcDbLine
 10
196.889590
 20
196.735203
 30
0.0
 11
172.523926
 21
197.280761
 31
0.0
  0
LINE
  5
17d
100
AcDbEntity
  8
0
 62
5
100
AcDbLine
 10
172.523926
 20
197.280761
 30
0.0
 11
172.543230
 21
198.142623
 31
0.0
  0
LINE
  5
17e
100
AcDbEntity
  8
0
 62
5
100
AcDbLine
 10
172.543230
 20
198.142623
 30
0.0
 11
175.128812
 21
198.084731
 31
0.0
  0
SPLINE
  5
17f
100
AcDbEntity
  8
0
 62
5
100
AcDbSpline
 70
0
 71
3
 72
10
 73
6
 74
4
 40
0.000000
 40
0.000000
 40
0.000000
 40
0.000000
 40
2.663132
 40
4.905430
 40
5.882262
 40
5.882262
 40
5.882262
 40
5.882262
 10
192.436705
 20
113.037264
 30
0.0
 10
192.650010
 20
113.908984
 30
0.0
 10
193.042914
 20
115.514673
 30
0.0
 10
192.694533
 20
117.487408
 30
0.0
 10
192.368801
 20
118.508113
 30
0.0
 10
192.269959
 20
118.817842
 30
0.0
 11
192.436705
 21
113.037264
 31
0.0
 11
192.875190
 21
115.664050
 31
0.0
 11
192.554048
 21
117.883232
 31
0.0
 11
192.269959
 21
118.817842
 31
0.0
  0
SPLINE
  5
180
100
AcDbEntity
  8
0
 62
5
100
AcDbSpline
 70
0
 71
3
 72
10
 73
6
 74
4
 40
0.000000
 40
0.000000
 40
0.000000
 40
0.000000
 40
0.976832
 40
3.219130
 40
5.882261
 40
5.882261
 40
5.882261
 40
5.882261
 10
175.128812
 20
198.084731
 30
0.0
 10
175.076632
 20
198.405634
 30
0.0
 10
174.904676
 20
199.463164
 30
0.0
 10
174.321667
 20
201.379711
 30
0.0
 10
173.244048
 20
202.633244
 30
0.0
 10
172.659015
 20
203.313781
 30
0.0
 11
175.128812
 21
198.084731
 31
0.0
 11
174.958728
 21
199.046641
 31
0.0
 11
174.239801
 21
201.170563
 31
0.0
 11
172.659015
 21
203.313781
 31
0.0
  0
SPLINE
  5
181
100
AcDbEntity
  8
0
 62
5
100
AcDbSpline
 70
0
 71
3
 72
10
 73
6
 74
4
 40
0.000000
 40
0.000000
 40
0.000000
 40
0.000000
 40
3.627080
 40
6.566416
 40
10.163551
 40
10.163551
 40
10.163551
 40
10.163551
 10
172.659015
 20
203.313781
 30
0.0
 10
171.670317
 20
204.045711
 30
0.0
 10
169.880393
 20
205.370787
 30
0.0
 10
166.258952
 20
205.546480
 30
0.0
 10
164.400282
 20
204.318433
 30
0.0
 10
163.377423
 20
203.642618
 30
0.0
 11
172.659015
 21
203.313781
 31
0.0
 11
169.525173
 21
205.139909
 31
0.0
 11
166.588454
 21
205.263931
 31
0.0
 11
163.377423
 21
203.642618
 31
0.0
  0
LINE
  5
182
100
AcDbEntity
  8
0
 62
5
100
AcDbLine
 10
157.029748
 20
198.489979
 30
0.0
 11
159.615330
 21
198.432084
 31
0.0
  0
LINE
  5
183
100
AcDbEntity
  8
0
 62
5
100
AcDbLine
 10
159.615330
 20
198.432084
 30
0.0
 11
159.596026
 21
197.570225
 31
0.0
  0
LINE
  5
184
100
AcDbEntity
  8
0
 62
5
100
AcDbLine
 10
159.596026
 20
197.570225
 30
0.0
 11
125.456922
 21
198.334616
 31
0.0
  0
LINE
  5
185
100
AcDbEntity
  8
0
 62
1
100
AcDbLine
 10
169.507416
 20
197.348303
 30
0.0
 11
162.612538
 21
197.502684
 31
0.0
  0
LINE
  5
186
100
AcDbEntity
  8
0
 62
7
100
AcDbLine
 10
12.227567
 20
72.999182
 30
0.0
 11
90.392786
 21
15.579985
 31
0.0
  0
LINE
  5
187
100
AcDbEntity
  8
0
 62
7
100
AcDbLine
 10
12.227567
 20
72.999182
 30
0.0
 11
82.037891
 21
57.777377
 31
0.0
  0
LINE
  5
188
100
AcDbEntity
  8
0
 62
7
100
AcDbLine
 10
90.392786
 20
15.579985
 30
0.0
 11
82.037891
 21
57.777377
 31
0.0
  0
LINE
  5
189
100
AcDbEntity
  8
0
 62
7
100
AcDbLine
 10
12.227568
 20
72.999179
 30
0.0
 11
107.201087
 21
92.666318
 31
0.0
  0
LINE
  5
18a
100
AcDbEntity
  8
0
 62
7
100
AcDbLine
 10
140.780942
 20
98.452181
 30
0.0
 11
90.392786
 21
15.579990
 31
0.0
  0
LINE
  5
18b
100
AcDbEntity
  8
0
 62
7
100
AcDbLine
 10
140.780942
 20
98.452181
 30
0.0
 11
131.701433
 21
27.580836
 31
0.0
  0
LINE
  5
18c
100
AcDbEntity
  8
0
 62
7
100
AcDbLine
 10
140.780937
 20
98.452184
 30
0.0
 11
168.650720
 21
5.554167
 31
0.0
  0
LINE
  5
18d
100
AcDbEntity
  8
0
 62
5
100
AcDbLine
 10
12.227563
 20
72.999185
 30
0.0
 11
24.302567
 21
51.828982
 31
0.0
  0
LINE
  5
18e
100
AcDbEntity
  8
0
 62
5
100
AcDbLine
 10
24.302567
 20
51.828982
 30
0.0
 11
23.553736
 21
51.401867
 31
0.0
  0
LINE
  5
18f
100
AcDbEntity
  8
0
 62
5
100
AcDbLine
 10
23.553736
 20
51.401867
 30
0.0
 11
22.272388
 21
53.648359
 31
0.0
  0
SPLINE
  5
190
100
AcDbEntity
  8
0
 62
5
100
AcDbSpline
 70
0
 71
3
 72
10
 73
6
 74
4
 40
0.000000
 40
0.000000
 40
0.000000
 40
0.000000
 40
3.345958
 40
6.669409
 40
8.176089
 40
8.176089
 40
8.176089
 40
8.176089
 10
163.377423
 20
203.642618
 30
0.0
 10
162.501249
 20
202.952448
 30
0.0
 10
160.754794
 20
201.576750
 30
0.0
 10
158.653031
 20
199.841491
 30
0.0
 10
157.415710
 20
198.811323
 30
0.0
 10
157.029748
 20
198.489979
 30
0.0
 11
163.377423
 21
203.642618
 31
0.0
 11
160.756955
 21
201.562093
 31
0.0
 11
158.188055
 21
199.453521
 31
0.0
 11
157.029748
 21
198.489979
 31
0.0
  0
SPLINE
  5
191
100
AcDbEntity
  8
0
 62
5
100
AcDbSpline
 70
0
 71
3
 72
10
 73
6
 74
4
 40
0.000000
 40
0.000000
 40
0.000000
 40
0.000000
 40
0.976832
 40
3.219130
 40
5.882262
 40
5.882262
 40
5.882262
 40
5.882262
 10
22.272388
 20
53.648359
 30
0.0
 10
22.024129
 20
53.438433
 30
0.0
 10
21.205997
 20
52.746624
 30
0.0
 10
19.863003
 20
51.260213
 30
0.0
 10
19.343041
 20
49.691057
 30
0.0
 10
19.060756
 20
48.839171
 30
0.0
 11
22.272388
 21
53.648359
 31
0.0
 11
21.535269
 21
53.007379
 31
0.0
 11
20.084454
 21
51.297690
 31
0.0
 11
19.060756
 21
48.839171
 31
0.0
  0
SPLINE
  5
192
100
AcDbEntity
  8
0
 62
5
100
AcDbSpline
 70
0
 71
3
 72
10
 73
6
 74
4
 40
0.000000
 40
0.000000
 40
0.000000
 40
0.000000
 40
4.465117
 40
9.158642
 40
13.623760
 40
13.623760
 40
13.623760
 40
13.623760
 10
19.060756
 20
48.839171
 30
0.0
 10
19.126141
 20
47.339456
 30
0.0
 10
19.260257
 20
44.263310
 30
0.0
 10
21.630460
 20
40.107809
 30
0.0
 10
24.209926
 20
38.426436
 30
0.0
 10
25.467494
 20
37.606715
 30
0.0
 11
19.060756
 21
48.839171
 31
0.0
 11
19.603759
 21
44.407194
 31
0.0
 11
21.929168
 21
40.330228
 31
0.0
 11
25.467494
 21
37.606715
 31
0.0
  0
LINE
  5
193
100
AcDbEntity
  8
0
 62
5
100
AcDbLine
 10
31.241822
 20
37.922920
 30
0.0
 11
29.960477
 21
40.169411
 31
0.0
  0
LINE
  5
194
100
AcDbEntity
  8
0
 62
5
100
AcDbLine
 10
29.960477
 20
40.169411
 30
0.0
 11
30.709306
 21
40.596526
 31
0.0
  0
LINE
  5
195
100
AcDbEntity
  8
0
 62
5
100
AcDbLine
 10
30.709306
 20
40.596526
 30
0.0
 11
47.627783
 21
10.934632
 31
0.0
  0
LINE
  5
196
100
AcDbEntity
  8
0
 62
1
100
AcDbLine
 10
25.797474
 20
49.208078
 30
0.0
 11
29.214400
 21
43.217434
 31
0.0
  0
LINE
  5
197
100
AcDbEntity
  8
0
 62
5
100
AcDbLine
 10
90.479510
 20
15.589408
 30
0.0
 11
82.793572
 21
6.516624
 31
0.0
  0
LINE
  5
198
100
AcDbEntity
  8
0
 62
5
100
AcDbLine
 10
82.793572
 20
6.516624
 30
0.0
 11
57.082535
 21
3.723759
 31
0.0
  0
LINE
  5
199
100
AcDbEntity
  8
0
 62
5
100
AcDbLine
 10
57.082535
 20
3.723759
 30
0.0
 11
47.627783
 21
10.934632
 31
0.0
  0
LINE
  5
19a
100
AcDbEntity
  8
0
 62
5
100
AcDbLine
 10
78.341384
 20
15.571622
 30
0.0
 11
76.860053
 21
13.242846
 31
0.0
  0
LINE
  5
19b
100
AcDbEntity
  8
0
 62
5
100
AcDbLine
 10
76.860053
 20
13.242846
 30
0.0
 11
61.433431
 21
11.567126
 31
0.0
  0
LINE
  5
19c
100
AcDbEntity
  8
0
 62
5
100
AcDbLine
 10
61.433431
 20
11.567126
 30
0.0
 11
59.486622
 21
13.523522
 31
0.0
  0
LINE
  5
19d
100
AcDbEntity
  8
0
 62
1
100
AcDbLine
 10
90.479510
 20
15.589408
 30
0.0
 11
78.481027
 21
14.286072
 31
0.0
  0
LINE
  5
19e
100
AcDbEntity
  8
0
 62
1
100
AcDbLine
 10
47.627783
 20
10.934632
 30
0.0
 11
59.626266
 21
12.237968
 31
0.0
  0
LINE
  5
19f
100
AcDbEntity
  8
0
 62
5
100
AcDbLine
 10
107.252115
 20
92.737076
 30
0.0
 11
94.293636
 21
100.462046
 31
0.0
  0
LINE
  5
1a0
100
AcDbEntity
  8
0
 62
5
100
AcDbLine
 10
94.293636
 20
100.462046
 30
0.0
 11
94.735063
 21
101.202530
 31
0.0
  0
LINE
  5
1a1
100
AcDbEntity
  8
0
 62
5
100
AcDbLine
 10
94.735063
 20
101.202530
 30
0.0
 11
96.956516
 21
99.878250
 31
0.0
  0
SPLINE
  5
1a2
100
AcDbEntity
  8
0
 62
5
100
AcDbSpline
 70
0
 71
3
 72
10
 73
6
 74
4
 40
0.000000
 40
0.000000
 40
0.000000
 40
0.000000
 40
2.663132
 40
4.905429
 40
5.882260
 40
5.882260
 40
5.882260
 40
5.882260
 10
25.467494
 20
37.606715
 30
0.0
 10
26.344440
 20
37.416029
 30
0.0
 10
27.959753
 20
37.064788
 30
0.0
 10
29.922816
 20
37.464077
 30
0.0
 10
30.934754
 20
37.816100
 30
0.0
 10
31.241822
 20
37.922920
 30
0.0
 11
25.467494
 21
37.606715
 31
0.0
 11
28.104742
 21
37.236319
 31
0.0
 11
30.314874
 21
37.614753
 31
0.0
 11
31.241822
 21
37.922920
 31
0.0
  0
SPLINE
  5
1a3
100
AcDbEntity
  8
0
 62
5
100
AcDbSpline
 70
0
 71
3
 72
10
 73
6
 74
4
 40
0.000000
 40
0.000000
 40
0.000000
 40
0.000000
 40
0.976831
 40
3.219129
 40
5.882263
 40
5.882263
 40
5.882263
 40
5.882263
 10
96.956516
 20
99.878250
 30
0.0
 10
97.069217
 20
100.183209
 30
0.0
 10
97.440621
 20
101.188196
 30
0.0
 10
97.877558
 20
103.143224
 30
0.0
 10
97.557423
 20
104.764990
 30
0.0
 10
97.383623
 20
105.645438
 30
0.0
 11
96.956516
 21
99.878250
 31
0.0
 11
97.282438
 21
100.799105
 31
0.0
 11
97.703273
 21
103.001558
 31
0.0
 11
97.383623
 21
105.645438
 31
0.0
  0
SPLINE
  5
1a4
100
AcDbEntity
  8
0
 62
5
100
AcDbSpline
 70
0
 71
3
 72
10
 73
6
 74
4
 40
0.000000
 40
0.000000
 40
0.000000
 40
0.000000
 40
4.465118
 40
9.158642
 40
13.623760
 40
13.623760
 40
13.623760
 40
13.623760
 10
97.383623
 20
105.645438
 30
0.0
 10
96.588219
 20
106.918526
 30
0.0
 10
94.956724
 20
109.529826
 30
0.0
 10
90.847537
 20
111.979444
 30
0.0
 10
87.774537
 20
112.172648
 30
0.0
 10
86.276355
 20
112.266840
 30
0.0
 11
97.383623
 21
105.645438
 31
0.0
 11
94.728606
 21
109.235447
 31
0.0
 11
90.697079
 21
111.638770
 31
0.0
 11
86.276355
 21
112.266840
 31
0.0
  0
LINE
  5
1a5
100
AcDbEntity
  8
0
 62
5
100
AcDbLine
 10
81.406340
 20
109.148214
 30
0.0
 11
83.627793
 21
107.823934
 31
0.0
  0
LINE
  5
1a6
100
AcDbEntity
  8
0
 62
5
100
AcDbLine
 10
83.627793
 20
107.823934
 30
0.0
 11
83.186366
 21
107.083448
 31
0.0
  0
LINE
  5
1a7
100
AcDbEntity
  8
0
 62
5
100
AcDbLine
 10
83.186366
 20
107.083448
 30
0.0
 11
70.227887
 21
114.808418
 31
0.0
  0
LINE
  5
1a8
100
AcDbEntity
  8
0
 62
1
100
AcDbLine
 10
91.701939
 20
102.007041
 30
0.0
 11
85.778063
 21
105.538453
 31
0.0
  0
LINE
  5
1a9
100
AcDbEntity
  8
0
 62
5
100
AcDbLine
 10
70.251791
 20
114.692994
 30
0.0
 11
58.822028
 21
116.564802
 31
0.0
  0
LINE
  5
1aa
100
AcDbEntity
  8
0
 62
5
100
AcDbLine
 10
58.822028
 20
116.564802
 30
0.0
 11
22.386488
 21
90.383733
 31
0.0
  0
LINE
  5
1ab
100
AcDbEntity
  8
0
 62
5
100
AcDbLine
 10
22.386488
 20
90.383733
 30
0.0
 11
12.227565
 21
72.999194
 31
0.0
  0
LINE
  5
1ac
100
AcDbEntity
  8
0
 62
5
100
AcDbLine
 10
45.725709
 20
95.477243
 30
0.0
 11
43.067921
 21
96.221347
 31
0.0
  0
LINE
  5
1ad
100
AcDbEntity
  8
0
 62
5
100
AcDbLine
 10
43.067921
 20
96.221347
 30
0.0
 11
30.466436
 21
87.166444
 31
0.0
  0
LINE
  5
1ae
100
AcDbEntity
  8
0
 62
5
100
AcDbLine
 10
30.466436
 20
87.166444
 30
0.0
 11
30.323897
 21
84.410138
 31
0.0
  0
LINE
  5
1af
100
AcDbEntity
  8
0
 62
1
100
AcDbLine
 10
70.251791
 20
114.692994
 30
0.0
 11
44.971137
 21
96.527366
 31
0.0
  0
LINE
  5
1b0
100
AcDbEntity
  8
0
 62
1
100
AcDbLine
 10
12.227563
 20
72.999191
 30
0.0
 11
29.569320
 21
85.460261
 31
0.0
  0
LINE
  5
1b1
100
AcDbEntity
  8
0
 62
5
100
AcDbLine
 10
90.234073
 20
15.600327
 30
0.0
 11
104.721420
 21
19.809141
 31
0.0
  0
LINE
  5
1b2
100
AcDbEntity
  8
0
 62
5
100
AcDbLine
 10
104.721420
 20
19.809141
 30
0.0
 11
104.961924
 21
18.981293
 31
0.0
  0
LINE
  5
1b3
100
AcDbEntity
  8
0
 62
5
100
AcDbLine
 10
104.961924
 20
18.981293
 30
0.0
 11
102.478377
 21
18.259783
 31
0.0
  0
SPLINE
  5
1b4
100
AcDbEntity
  8
0
 62
5
100
AcDbSpline
 70
0
 71
3
 72
10
 73
6
 74
4
 40
0.000000
 40
0.000000
 40
0.000000
 40
0.000000
 40
2.663132
 40
4.905431
 40
5.882262
 40
5.882262
 40
5.882262
 40
5.882262
 10
86.276355
 20
112.266840
 30
0.0
 10
85.419202
 20
112.000977
 30
0.0
 10
83.840345
 20
111.511262
 30
0.0
 10
82.328400
 20
110.197080
 30
0.0
 10
81.620998
 20
109.392393
 30
0.0
 10
81.406340
 20
109.148214
 30
0.0
 11
86.276355
 21
112.266840
 31
0.0
 11
83.798619
 21
111.290573
 31
0.0
 11
82.061366
 21
109.872880
 31
0.0
 11
81.406340
 21
109.148214
 31
0.0
  0
SPLINE
  5
1b5
100
AcDbEntity
  8
0
 62
5
100
AcDbSpline
 70
0
 71
3
 72
10
 73
6
 74
4
 40
0.000000
 40
0.000000
 40
0.000000
 40
0.000000
 40
0.976832
 40
3.219131
 40
5.882263
 40
5.882263
 40
5.882263
 40
5.882263
 10
102.478377
 20
18.259783
 30
0.0
 10
102.624548
 20
17.969377
 30
0.0
 10
103.106253
 20
17.012350
 30
0.0
 10
104.238079
 20
15.359468
 30
0.0
 10
105.642496
 20
14.487559
 30
0.0
 10
106.404946
 20
14.014204
 30
0.0
 11
102.478377
 21
18.259783
 31
0.0
 11
102.929570
 21
17.393397
 31
0.0
 11
104.253334
 21
15.583548
 31
0.0
 11
106.404946
 21
14.014204
 31
0.0
  0
SPLINE
  5
1b6
100
AcDbEntity
  8
0
 62
5
100
AcDbSpline
 70
0
 71
3
 72
10
 73
6
 74
4
 40
0.000000
 40
0.000000
 40
0.000000
 40
0.000000
 40
4.465117
 40
9.158641
 40
13.623759
 40
13.623759
 40
13.623759
 40
13.623759
 10
106.404946
 20
14.014204
 30
0.0
 10
107.878488
 20
13.727682
 30
0.0
 10
110.900948
 20
13.139981
 30
0.0
 10
115.494944
 20
14.474614
 30
0.0
 10
117.732025
 20
16.590299
 30
0.0
 10
118.822670
 20
17.621761
 30
0.0
 11
106.404946
 21
14.014204
 31
0.0
 11
110.841229
 21
13.507581
 31
0.0
 11
115.348402
 21
14.816990
 31
0.0
 11
118.822670
 21
17.621761
 31
0.0
  0
LINE
  5
1b7
100
AcDbEntity
  8
0
 62
5
100
AcDbLine
 10
119.863193
 20
23.310362
 30
0.0
 11
117.379648
 21
22.588849
 31
0.0
  0
LINE
  5
1b8
100
AcDbEntity
  8
0
 62
5
100
AcDbLine
 10
117.379648
 20
22.588849
 30
0.0
 11
117.139144
 21
23.416697
 31
0.0
  0
LINE
  5
1b9
100
AcDbEntity
  8
0
 62
5
100
AcDbLine
 10
117.139144
 20
23.416697
 30
0.0
 11
131.626491
 21
27.625514
 31
0.0
  0
LINE
  5
1ba
100
AcDbEntity
  8
0
 62
1
100
AcDbLine
 10
107.618888
 20
20.650906
 30
0.0
 11
114.241676
 21
22.574936
 31
0.0
  0
LINE
  5
1bb
100
AcDbEntity
  8
0
 62
5
100
AcDbLine
 10
168.612752
 20
5.475622
 30
0.0
 11
175.178920
 21
19.058066
 31
0.0
  0
LINE
  5
1bc
100
AcDbEntity
  8
0
 62
5
100
AcDbLine
 10
175.178920
 20
19.058066
 30
0.0
 11
175.955060
 21
18.682857
 31
0.0
  0
LINE
  5
1bd
100
AcDbEntity
  8
0
 62
5
100
AcDbLine
 10
175.955060
 20
18.682857
 30
0.0
 11
174.829430
 21
16.354436
 31
0.0
  0
SPLINE
  5
1be
100
AcDbEntity
  8
0
 62
5
100
AcDbSpline
 70
0
 71
3
 72
10
 73
6
 74
4
 40
0.000000
 40
0.000000
 40
0.000000
 40
0.000000
 40
2.663132
 40
4.905430
 40
5.882262
 40
5.882262
 40
5.882262
 40
5.882262
 10
118.822670
 20
17.621761
 30
0.0
 10
119.212808
 20
18.429961
 30
0.0
 10
119.931432
 20
19.918648
 30
0.0
 10
120.001442
 20
21.920684
 30
0.0
 10
119.895378
 20
22.986841
 30
0.0
 10
119.863193
 20
23.310362
 30
0.0
 11
118.822670
 21
17.621761
 31
0.0
 11
119.798486
 21
20.099674
 31
0.0
 11
119.946453
 21
22.337085
 31
0.0
 11
119.863193
 21
23.310362
 31
0.0
  0
SPLINE
  5
1bf
100
AcDbEntity
  8
0
 62
5
100
AcDbSpline
 70
0
 71
3
 72
10
 73
6
 74
4
 40
0.000000
 40
0.000000
 40
0.000000
 40
0.000000
 40
0.976832
 40
3.219130
 40
5.882263
 40
5.882263
 40
5.882263
 40
5.882263
 10
174.829430
 20
16.354436
 30
0.0
 10
175.143052
 20
16.268743
 30
0.0
 10
176.176585
 20
15.986343
 30
0.0
 10
178.162256
 20
15.721460
 30
0.0
 10
179.749948
 20
16.181724
 30
0.0
 10
180.611899
 20
16.431599
 30
0.0
 11
174.829430
 21
16.354436
 31
0.0
 11
175.775188
 21
16.110012
 31
0.0
 11
178.005939
 21
15.882736
 31
0.0
 11
180.611899
 21
16.431599
 31
0.0
  0
SPLINE
  5
1c0
100
AcDbEntity
  8
0
 62
5
100
AcDbSpline
 70
0
 71
3
 72
10
 73
6
 74
4
 40
0.000000
 40
0.000000
 40
0.000000
 40
0.000000
 40
4.465118
 40
9.158643
 40
13.623760
 40
13.623760
 40
13.623760
 40
13.623760
 10
180.611899
 20
16.431599
 30
0.0
 10
181.810818
 20
17.334933
 30
0.0
 10
184.269985
 20
19.187811
 30
0.0
 10
186.352143
 20
23.494859
 30
0.0
 10
186.276782
 20
26.573005
 30
0.0
 10
186.240042
 20
28.073694
 30
0.0
 11
180.611899
 21
16.431599
 31
0.0
 11
183.956845
 21
19.389403
 31
0.0
 11
185.999653
 21
23.615053
 31
0.0
 11
186.240042
 21
28.073694
 31
0.0
  0
LINE
  5
1c1
100
AcDbEntity
  8
0
 62
5
100
AcDbLine
 10
182.708832
 20
32.653371
 30
0.0
 11
181.583203
 21
30.324953
 31
0.0
  0
LINE
  5
1c2
100
AcDbEntity
  8
0
 62
5
100
AcDbLine
 10
181.583203
 20
30.324953
 30
0.0
 11
180.807064
 21
30.700162
 31
0.0
  0
LINE
  5
1c3
100
AcDbEntity
  8
0
 62
5
100
AcDbLine
 10
180.807064
 20
30.700162
 30
0.0
 11
187.373232
 21
44.282606
 31
0.0
  0
LINE
  5
1c4
100
AcDbEntity
  8
0
 62
1
100
AcDbLine
 10
176.492154
 20
21.774556
 30
0.0
 11
179.493830
 21
27.983671
 31
0.0
  0
LINE
  5
1c5
100
AcDbEntity
  8
0
 62
5
100
AcDbLine
 10
168.650717
 20
5.554170
 30
0.0
 11
157.052318
 21
2.933835
 31
0.0
  0
LINE
  5
1c6
100
AcDbEntity
  8
0
 62
5
100
AcDbLine
 10
157.052318
 20
2.933835
 30
0.0
 11
134.837782
 21
16.176642
 31
0.0
  0
LINE
  5
1c7
100
AcDbEntity
  8
0
 62
5
100
AcDbLine
 10
134.837782
 20
16.176642
 30
0.0
 11
131.626491
 21
27.625514
 31
0.0
  0
LINE
  5
1c8
100
AcDbEntity
  8
0
 62
5
100
AcDbLine
 10
158.946074
 20
12.844873
 30
0.0
 11
156.361539
 21
11.876515
 31
0.0
  0
LINE
  5
1c9
100
AcDbEntity
  8
0
 62
5
100
AcDbLine
 10
156.361539
 20
11.876515
 30
0.0
 11
143.032816
 21
19.822200
 31
0.0
  0
LINE
  5
1ca
100
AcDbEntity
  8
0
 62
5
100
AcDbLine
 10
143.032816
 20
19.822200
 30
0.0
 11
142.655414
 21
22.556264
 31
0.0
  0
LINE
  5
1cb
100
AcDbEntity
  8
0
 62
1
100
AcDbLine
 10
168.650717
 20
5.554170
 30
0.0
 11
158.283933
 21
11.734145
 31
0.0
  0
LINE
  5
1cc
100
AcDbEntity
  8
0
 62
1
100
AcDbLine
 10
131.626491
 20
27.625514
 30
0.0
 11
141.993276
 21
21.445536
 31
0.0
  0
LINE
  5
1cd
100
AcDbEntity
  8
0
 62
5
100
AcDbLine
 10
187.373232
 20
44.282608
 30
0.0
 11
188.241748
 21
55.832014
 31
0.0
  0
LINE
  5
1ce
100
AcDbEntity
  8
0
 62
5
100
AcDbLine
 10
188.241748
 20
55.832014
 30
0.0
 11
158.984738
 21
89.847076
 31
0.0
  0
LINE
  5
1cf
100
AcDbEntity
  8
0
 62
5
100
AcDbLine
 10
158.984738
 20
89.847076
 30
0.0
 11
140.780945
 21
98.452178
 31
0.0
  0
LINE
  5
1d0
100
AcDbEntity
  8
0
 62
5
100
AcDbLine
 10
166.093013
 20
67.040593
 30
0.0
 11
166.602644
 21
69.753122
 31
0.0
  0
LINE
  5
1d1
100
AcDbEntity
  8
0
 62
5
100
AcDbLine
 10
166.602644
 20
69.753122
 30
0.0
 11
156.483905
 21
81.517467
 31
0.0
  0
LINE
  5
1d2
100
AcDbEntity
  8
0
 62
5
100
AcDbLine
 10
156.483905
 20
81.517467
 30
0.0
 11
153.725666
 21
81.419237
 31
0.0
  0
LINE
  5
1d3
100
AcDbEntity
  8
0
 62
1
100
AcDbLine
 10
187.373232
 20
44.282608
 30
0.0
 11
167.073377
 21
67.883820
 31
0.0
  0
LINE
  5
1d4
100
AcDbEntity
  8
0
 62
1
100
AcDbLine
 10
140.780942
 20
98.452181
 30
0.0
 11
154.706026
 21
82.262466
 31
0.0
  0
LINE
  5
1d5
100
AcDbEntity
  8
0
 62
5
100
AcDbLine
 10
107.252129
 20
92.737079
 30
0.0
 11
109.604548
 21
84.352167
 31
0.0
  0
LINE
  5
1d6
100
AcDbEntity
  8
0
 62
5
100
AcDbLine
 10
109.604548
 20
84.352167
 30
0.0
 11
100.763592
 21
70.743417
 31
0.0
  0
LINE
  5
1d7
100
AcDbEntity
  8
0
 62
5
100
AcDbLine
 10
99.143354
 20
83.704791
 30
0.0
 11
99.882771
 21
81.045693
 31
0.0
  0
LINE
  5
1d8
100
AcDbEntity
  8
0
 62
5
100
AcDbLine
 10
99.882771
 20
81.045693
 30
0.0
 11
90.805646
 21
68.460202
 31
0.0
  0
LINE
  5
1d9
100
AcDbEntity
  8
0
 62
5
100
AcDbLine
 10
90.805646
 20
68.460202
 30
0.0
 11
88.049094
 21
68.322526
 31
0.0
  0
LINE
  5
1da
100
AcDbEntity
  8
0
 62
1
100
AcDbLine
 10
107.252129
 20
92.737079
 30
0.0
 11
100.192146
 21
82.948365
 31
0.0
  0
LINE
  5
1db
100
AcDbEntity
  8
0
 62
1
100
AcDbLine
 10
82.037899
 20
57.777386
 30
0.0
 11
89.097883
 21
67.566100
 31
0.0
  0
LINE
  5
1dc
100
AcDbEntity
  8
0
 62
5
100
AcDbLine
 10
140.780942
 20
98.452186
 30
0.0
 11
120.743703
 21
84.578026
 31
0.0
  0
LINE
  5
1dd
100
AcDbEntity
  8
0
 62
5
100
AcDbLine
 10
120.743703
 20
84.578026
 30
0.0
 11
120.252947
 21
85.286782
 31
0.0
  0
LINE
  5
1de
100
AcDbEntity
  8
0
 62
5
100
AcDbLine
 10
120.252947
 20
85.286782
 30
0.0
 11
122.379215
 21
86.759048
 31
0.0
  0
SPLINE
  5
1df
100
AcDbEntity
  8
0
 62
5
100
AcDbSpline
 70
0
 71
3
 72
10
 73
6
 74
4
 40
0.000000
 40
0.000000
 40
0.000000
 40
0.000000
 40
2.663132
 40
4.905431
 40
5.882263
 40
5.882263
 40
5.882263
 40
5.882263
 10
186.240042
 20
28.073694
 30
0.0
 10
185.900485
 20
28.904414
 30
0.0
 10
185.275028
 20
30.434582
 30
0.0
 10
183.834071
 20
31.826235
 30
0.0
 10
182.970791
 20
32.460811
 30
0.0
 10
182.708832
 20
32.653371
 30
0.0
 11
186.240042
 21
28.073694
 31
0.0
 11
185.051541
 21
30.456915
 31
0.0
 11
183.487830
 21
32.063996
 31
0.0
 11
182.708832
 21
32.653371
 31
0.0
  0
SPLINE
  5
1e0
100
AcDbEntity
  8
0
 62
5
100
AcDbSpline
 70
0
 71
3
 72
10
 73
6
 74
4
 40
0.000000
 40
0.000000
 40
0.000000
 40
0.000000
 40
0.976832
 40
3.219130
 40
5.882263
 40
5.882263
 40
5.882263
 40
5.882263
 10
122.379215
 20
86.759048
 30
0.0
 10
122.148450
 20
86.988066
 30
0.0
 10
121.387970
 20
87.742791
 30
0.0
 10
119.790165
 20
88.951125
 30
0.0
 10
118.181663
 20
89.332348
 30
0.0
 10
117.308416
 20
89.539312
 30
0.0
 11
122.379215
 21
86.759048
 31
0.0
 11
121.676430
 21
87.437498
 31
0.0
 11
119.846800
 21
88.733784
 31
0.0
 11
117.308416
 21
89.539312
 31
0.0
  0
SPLINE
  5
1e1
100
AcDbEntity
  8
0
 62
5
100
AcDbSpline
 70
0
 71
3
 72
10
 73
6
 74
4
 40
0.000000
 40
0.000000
 40
0.000000
 40
0.000000
 40
3.627078
 40
6.566414
 40
10.163547
 40
10.163547
 40
10.163547
 40
10.163547
 10
117.308416
 20
89.539312
 30
0.0
 10
116.078329
 20
89.550698
 30
0.0
 10
113.851397
 20
89.571309
 30
0.0
 10
110.817701
 20
87.585766
 30
0.0
 10
110.035182
 20
85.500002
 30
0.0
 10
109.604548
 20
84.352170
 30
0.0
 11
117.308416
 21
89.539312
 31
0.0
 11
113.699601
 21
89.175780
 31
0.0
 11
111.250341
 21
87.550721
 31
0.0
 11
109.604548
 21
84.352170
 31
0.0
  0
LINE
  5
1e2
100
AcDbEntity
  8
0
 62
5
100
AcDbLine
 10
107.495351
 20
76.453182
 30
0.0
 11
109.621619
 21
77.925450
 31
0.0
  0
LINE
  5
1e3
100
AcDbEntity
  8
0
 62
5
100
AcDbLine
 10
109.621619
 20
77.925450
 30
0.0
 11
110.112375
 21
77.216694
 31
0.0
  0
LINE
  5
1e4
100
AcDbEntity
  8
0
 62
5
100
AcDbLine
 10
110.112375
 20
77.216694
 30
0.0
 11
82.037894
 21
57.777394
 31
0.0
  0
LINE
  5
1e5
100
AcDbEntity
  8
0
 62
1
100
AcDbLine
 10
118.263060
 20
82.860380
 30
0.0
 11
112.593021
 21
78.934338
 31
0.0
  0
SPLINE
  5
1e6
100
AcDbEntity
  8
0
 62
5
100
AcDbSpline
 70
0
 71
3
 72
10
 73
6
 74
4
 40
0.000000
 40
0.000000
 40
0.000000
 40
0.000000
 40
3.345960
 40
6.669412
 40
8.176093
 40
8.176093
 40
8.176093
 40
8.176093
 10
109.604548
 20
84.352170
 30
0.0
 10
109.301045
 20
83.278902
 30
0.0
 10
108.696081
 20
81.139586
 30
0.0
 10
108.014855
 20
78.500558
 30
0.0
 10
107.618872
 20
76.939979
 30
0.0
 10
107.495351
 20
76.453182
 30
0.0
 11
109.604548
 21
84.352170
 31
0.0
 11
108.706441
 21
81.128995
 31
0.0
 11
107.866541
 21
77.913423
 31
0.0
 11
107.495351
 21
76.453182
 31
0.0
  0
ENDSEC
  0
SECTION
  2
OBJECTS
  0
DICTIONARY
  5
C
330
0
100
AcDbDictionary
  3
ACAD_GROUP
350
D
  3
ACAD_MLINESTYLE
350
17
  0
DICTIONARY
  5
D
330
C
100
AcDbDictionary
  0
DICTIONARY
  5
1A
330
C
100
AcDbDictionary
  0
DICTIONARY
  5
17
330
C
100
AcDbDictionary
  3
STANDARD
350
18
  0
DICTIONARY
  5
19
330
C
100
AcDbDictionary
  0
ENDSEC
  0
EOF
