<?xml version="1.0" encoding="UTF-8" standalone="no"?>
<!-- Created with Inkscape (http://www.inkscape.org/) -->

<svg
   xmlns:dc="http://purl.org/dc/elements/1.1/"
   xmlns:cc="http://creativecommons.org/ns#"
   xmlns:rdf="http://www.w3.org/1999/02/22-rdf-syntax-ns#"
   xmlns:svg="http://www.w3.org/2000/svg"
   xmlns="http://www.w3.org/2000/svg"
   xmlns:sodipodi="http://sodipodi.sourceforge.net/DTD/sodipodi-0.dtd"
   xmlns:inkscape="http://www.inkscape.org/namespaces/inkscape"
   width="765"
   height="990"
   id="svg2"
   version="1.1"
   inkscape:version="0.48.0 r9654"
   sodipodi:docname="star.svg">
  <sodipodi:namedview
     id="base"
     pagecolor="#ffffff"
     bordercolor="#666666"
     borderopacity="1.0"
     inkscape:pageopacity="0.0"
     inkscape:pageshadow="2"
     inkscape:zoom="0.65628709"
     inkscape:cx="103.18969"
     inkscape:cy="486.09265"
     inkscape:document-units="px"
     inkscape:current-layer="layer1"
     showgrid="false"
     inkscape:object-nodes="true"
     showguides="true"
     inkscape:guide-bbox="true"
     inkscape:window-width="1680"
     inkscape:window-height="944"
     inkscape:window-x="4"
     inkscape:window-y="11"
     inkscape:window-maximized="1"
     inkscape:object-paths="false" />
  <defs
     id="defs4">
    <clipPath
       id="clipPath4484"
       clipPathUnits="userSpaceOnUse" />
  </defs>
  <metadata
     id="metadata7">
    <rdf:RDF>
      <cc:Work
         rdf:about="">
        <dc:format>image/svg+xml</dc:format>
        <dc:type
           rdf:resource="http://purl.org/dc/dcmitype/StillImage" />
        <dc:title />
      </cc:Work>
    </rdf:RDF>
  </metadata>
  <g
     transform="translate(0,-62.362183)"
     id="layer1"
     inkscape:groupmode="layer"
     inkscape:label="Layer 1">
    <g
       transform="matrix(0.30119434,-0.06797283,0.06797283,0.30119434,101.09273,348.16277)"
       id="g3017"
       style="stroke:#ff0000;stroke-opacity:1;stroke-width:0.29147998;stroke-miterlimit:4;stroke-dasharray:none">
      <path
         style="fill:none;stroke:#ff0000;stroke-width:0.29147998;stroke-linecap:butt;stroke-linejoin:miter;stroke-opacity:1;stroke-miterlimit:4;stroke-dasharray:none"
         d="m -285.07331,444.02176 1113,0"
         id="path2989"
         inkscape:connector-curvature="0" />
      <path
         style="fill:none;stroke:#ff0000;stroke-width:0.29147998;stroke-linecap:butt;stroke-linejoin:miter;stroke-opacity:1;stroke-miterlimit:4;stroke-dasharray:none"
         d="M -285.07331,444.02176 463.97683,110.52316"
         id="path3013"
         inkscape:connector-curvature="0" />
      <path
         style="fill:none;stroke:#ff0000;stroke-width:0.29147998;stroke-linecap:butt;stroke-linejoin:miter;stroke-opacity:1;stroke-miterlimit:4;stroke-dasharray:none"
         d="M 827.92669,444.02176 463.97683,110.52316"
         id="path3015"
         inkscape:connector-curvature="0" />
    </g>
    <path
       style="fill:none;stroke:#ff0000;stroke-width:0.09;stroke-linecap:butt;stroke-linejoin:miter;stroke-opacity:1;stroke-miterlimit:4;stroke-dasharray:none"
       d="M 45.411677,501.27686 213.50217,201.53069"
       id="path3053"
       inkscape:connector-curvature="0" />
    <path
       style="fill:none;stroke:#ff0000;stroke-width:0.09;stroke-linecap:butt;stroke-linejoin:miter;stroke-opacity:1;stroke-miterlimit:4;stroke-dasharray:none"
       d="M 276.05795,98.263099 380.64098,425.6231"
       id="path3097"
       inkscape:connector-curvature="0" />
    <path
       style="fill:none;stroke:#ff0000;stroke-width:0.09;stroke-linecap:butt;stroke-linejoin:miter;stroke-opacity:1;stroke-miterlimit:4;stroke-dasharray:none"
       d="M 276.05795,98.263099 444.53239,287.23951"
       id="path3099"
       inkscape:connector-curvature="0" />
    <path
       style="fill:none;stroke:#ff0000;stroke-width:0.09;stroke-linecap:butt;stroke-linejoin:miter;stroke-opacity:1;stroke-miterlimit:4;stroke-dasharray:none"
       d="M 380.64098,425.6231 444.53239,287.23951"
       id="path3101"
       inkscape:connector-curvature="0" />
    <path
       inkscape:connector-curvature="0"
       id="path3111"
       d="M 276.05794,98.263102 589.31354,239.58936"
       style="fill:none;stroke:#ff0000;stroke-width:0.09;stroke-linecap:butt;stroke-linejoin:miter;stroke-opacity:1;stroke-miterlimit:4;stroke-dasharray:none" />
    <path
       inkscape:connector-curvature="0"
       id="path3161"
       d="M 697.64029,292.90677 380.641,425.62313"
       style="fill:none;stroke:#ff0000;stroke-width:0.09;stroke-linecap:butt;stroke-linejoin:miter;stroke-opacity:1;stroke-miterlimit:4;stroke-dasharray:none" />
    <path
       inkscape:connector-curvature="0"
       id="path3163"
       d="M 697.64029,292.90677 524.06649,477.21049"
       style="fill:none;stroke:#ff0000;stroke-width:0.09;stroke-linecap:butt;stroke-linejoin:miter;stroke-opacity:1;stroke-miterlimit:4;stroke-dasharray:none" />
    <path
       style="fill:none;stroke:#ff0000;stroke-width:0.09;stroke-linecap:butt;stroke-linejoin:miter;stroke-opacity:1;stroke-miterlimit:4;stroke-dasharray:none"
       d="M 697.64028,292.90676 584.15383,617.28772"
       id="path3169"
       inkscape:connector-curvature="0" />
    <g
       id="g3660"
       transform="matrix(-0.87127142,1.2544048,1.2544048,0.87127142,380.641,425.62313)"
       inkscape:label="tab"
       style="stroke-width:0.05892752;stroke-miterlimit:4;stroke-dasharray:none">
      <path
         id="path3662"
         d="M 0,0 20,19 80,19 100,0"
         style="fill:none;stroke:#0000ff;stroke-width:0.05892752;stroke-miterlimit:4;stroke-dasharray:none"
         inkscape:connector-curvature="0" />
      <path
         id="path3664"
         d="m 28,-3 4,5 36,0 4,-5"
         style="fill:none;stroke:#0000ff;stroke-width:0.05892752;stroke-miterlimit:4;stroke-dasharray:none"
         inkscape:connector-curvature="0" />
      <path
         id="path3666"
         d="M 0,0 28,0"
         style="fill:none;stroke:#ff0000;stroke-width:0.05892752;stroke-miterlimit:4;stroke-dasharray:none"
         inkscape:connector-curvature="0" />
      <path
         id="path3668"
         d="M 100,0 72,0"
         style="fill:none;stroke:#ff0000;stroke-width:0.05892752;stroke-miterlimit:4;stroke-dasharray:none"
         inkscape:connector-curvature="0" />
    </g>
    <g
       id="g4067"
       transform="matrix(0.97546799,-0.22014131,0.22014131,0.97546799,557.23633,248.30695)"
       style="stroke-width:0.09;stroke-miterlimit:4;stroke-dasharray:none">
      <path
         sodipodi:nodetypes="cccccccccc"
         id="path3640"
         d="m -554.95769,134.0903 78.89074,35.12442 -1.24242,2.79052 -8.37155,-3.72726 c 0,0 -3.57441,11.78328 0.91705,20.47035 7.43481,13.34122 26.96842,22.03815 41.85774,18.63627 9.46112,-2.47499 15.82605,-13.01584 15.82605,-13.01584 l -8.37155,-3.72726 1.24242,-2.79051 110.53503,49.21336"
         style="fill:none;stroke:#0000ff;stroke-width:0.09;stroke-miterlimit:4;stroke-dasharray:none"
         inkscape:connector-curvature="0" />
      <path
         sodipodi:nodetypes="cc"
         id="path3642"
         d="m -466.30014,173.56318 22.32412,9.93934"
         style="fill:none;stroke:#ff0000;stroke-width:0.09;stroke-miterlimit:4;stroke-dasharray:none"
         inkscape:connector-curvature="0" />
    </g>
    <g
       inkscape:label="tab"
       transform="matrix(-1.4507479,0.47746804,-0.47746804,-1.4507479,213.50217,201.53069)"
       id="g4163"
       style="stroke-width:0.05892752;stroke-miterlimit:4;stroke-dasharray:none">
      <path
         inkscape:connector-curvature="0"
         style="fill:none;stroke:#0000ff;stroke-width:0.05892752;stroke-miterlimit:4;stroke-dasharray:none"
         d="m 0,0 35,0 0,2 -6,0 c 0,0 1,8 6,12 8,6 22,6 30,0 5,-4 6,-12 6,-12 l -6,0 0,-2 35,0"
         id="path4165" />
      <path
         inkscape:connector-curvature="0"
         style="fill:none;stroke:#ff0000;stroke-width:0.05892752;stroke-miterlimit:4;stroke-dasharray:none"
         d="M 42,0 58,0"
         id="path4167" />
    </g>
    <g
       id="g4205"
       transform="matrix(0.48911862,-0.87221727,-0.87221727,-0.48911862,433.51407,82.915869)"
       style="stroke-width:0.09;stroke-miterlimit:4;stroke-dasharray:none">
      <path
         id="path4207"
         d="m -323.67418,237.06435 -38.31287,14.70694 -145.2314,-64.66119 -47.73923,-53.01979"
         style="fill:none;stroke:#0000ff;stroke-width:0.09;stroke-miterlimit:4;stroke-dasharray:none"
         inkscape:connector-curvature="0"
         sodipodi:nodetypes="cccc" />
      <path
         sodipodi:nodetypes="cccc"
         id="path4209"
         d="m -422.57878,188.01368 -8.68707,4.49145 -50.22929,-22.36352 -2.47499,-9.46112"
         style="fill:none;stroke:#0000ff;stroke-width:0.09;stroke-miterlimit:4;stroke-dasharray:none"
         inkscape:connector-curvature="0" />
      <path
         sodipodi:nodetypes="cc"
         id="path4211"
         d="M -323.67418,237.06435 -424.4424,192.19945"
         style="fill:none;stroke:#ff0000;stroke-width:0.09;stroke-miterlimit:4;stroke-dasharray:none"
         inkscape:connector-curvature="0" />
      <path
         sodipodi:nodetypes="cc"
         id="path4213"
         d="m -554.95769,134.0903 69.12393,30.77596"
         style="fill:none;stroke:#ff0000;stroke-width:0.09;stroke-miterlimit:4;stroke-dasharray:none"
         inkscape:connector-curvature="0" />
    </g>
    <g
       id="g5377"
       transform="matrix(0.97546799,-0.22014131,0.22014131,0.97546799,-61.09706,146.12408)"
       style="stroke-width:0.09;stroke-miterlimit:4;stroke-dasharray:none">
      <g
         inkscape:label="tab"
         transform="matrix(0.01332799,1.5272418,1.5272418,-0.01332799,255.66279,114.1889)"
         id="g4189"
         style="stroke-width:0.05892752;stroke-miterlimit:4;stroke-dasharray:none">
        <path
           sodipodi:nodetypes="ccc"
           inkscape:connector-curvature="0"
           style="fill:none;stroke:#0000ff;stroke-width:0.05892752;stroke-miterlimit:4;stroke-dasharray:none"
           d="m 0,0 12.584901,15.805642 37.604904,1.833055"
           id="path4191" />
        <path
           inkscape:connector-curvature="0"
           style="fill:none;stroke:#0000ff;stroke-width:0.05892752;stroke-miterlimit:4;stroke-dasharray:none"
           d="m 28,-3 4,5 36,0 4,-5"
           id="path4193" />
        <path
           inkscape:connector-curvature="0"
           style="fill:none;stroke:#ff0000;stroke-width:0.05892752;stroke-miterlimit:4;stroke-dasharray:none"
           d="M 0,0 28,0"
           id="path4195" />
        <path
           inkscape:connector-curvature="0"
           style="fill:none;stroke:#ff0000;stroke-width:0.05892752;stroke-miterlimit:4;stroke-dasharray:none"
           d="M 100,0 72,0"
           id="path4197" />
      </g>
      <g
         id="g4309"
         transform="matrix(0.08715574,0.9961947,-0.9961947,0.08715574,521.36788,568.69406)"
         style="stroke-width:0.09;stroke-miterlimit:4;stroke-dasharray:none">
        <path
           sodipodi:nodetypes="cccccccccc"
           id="path4311"
           d="m -554.95769,134.0903 78.89074,35.12442 -1.24242,2.79052 -8.37155,-3.72726 c 0,0 -3.57441,11.78328 0.91705,20.47035 7.43481,13.34122 14.99686,17.17733 29.88618,13.77545 9.46112,-2.47499 27.79761,-8.15502 27.79761,-8.15502 l -8.37155,-3.72726 1.24242,-2.79051 110.53503,49.21336"
           style="fill:none;stroke:#0000ff;stroke-width:0.09;stroke-miterlimit:4;stroke-dasharray:none"
           inkscape:connector-curvature="0" />
        <path
           sodipodi:nodetypes="cc"
           id="path4313"
           d="m -466.30014,173.56318 22.32412,9.93934"
           style="fill:none;stroke:#ff0000;stroke-width:0.09;stroke-miterlimit:4;stroke-dasharray:none"
           inkscape:connector-curvature="0" />
      </g>
    </g>
    <g
       id="g4391"
       transform="matrix(-0.60209213,-1.4036133,1.4036133,-0.60209213,589.4354,239.87344)"
       inkscape:label="tab"
       style="stroke-width:0.05892752;stroke-miterlimit:4;stroke-dasharray:none">
      <path
         id="path4393"
         d="m 0,0 35,0 0,2 -6,0 c 0,0 1,8 6,12 8,6 22,6 30,0 5,-4 6,-12 6,-12 l -6,0 0,-2 35,0"
         style="fill:none;stroke:#0000ff;stroke-width:0.05892752;stroke-miterlimit:4;stroke-dasharray:none"
         inkscape:connector-curvature="0" />
      <path
         id="path4395"
         d="M 42,0 58,0"
         style="fill:none;stroke:#ff0000;stroke-width:0.05892752;stroke-miterlimit:4;stroke-dasharray:none"
         inkscape:connector-curvature="0" />
    </g>
    <g
       transform="matrix(0.91152772,0.41123863,0.41123863,-0.91152772,726.77416,448.71016)"
       id="g4433"
       style="stroke-width:0.09;stroke-miterlimit:4;stroke-dasharray:none">
      <path
         sodipodi:nodetypes="cccc"
         inkscape:connector-curvature="0"
         style="fill:none;stroke:#0000ff;stroke-width:0.09;stroke-miterlimit:4;stroke-dasharray:none"
         d="m -323.67418,237.06435 -38.31287,14.70694 -145.2314,-64.66119 -47.73923,-53.01979"
         id="path4435" />
      <path
         inkscape:connector-curvature="0"
         style="fill:none;stroke:#0000ff;stroke-width:0.09;stroke-miterlimit:4;stroke-dasharray:none"
         d="m -422.57878,188.01368 -8.68707,4.49145 -50.22929,-22.36352 -2.47499,-9.46112"
         id="path4437"
         sodipodi:nodetypes="cccc" />
      <path
         inkscape:connector-curvature="0"
         style="fill:none;stroke:#ff0000;stroke-width:0.09;stroke-miterlimit:4;stroke-dasharray:none"
         d="M -323.67418,237.06435 -424.4424,192.19945"
         id="path4439"
         sodipodi:nodetypes="cc" />
      <path
         inkscape:connector-curvature="0"
         style="fill:none;stroke:#ff0000;stroke-width:0.09;stroke-miterlimit:4;stroke-dasharray:none"
         d="m -554.95769,134.0903 69.12393,30.77596"
         id="path4441"
         sodipodi:nodetypes="cc" />
    </g>
    <g
       id="g4467"
       transform="matrix(1.4371637,0.51691965,-0.51691965,1.4371637,380.641,425.62313)"
       inkscape:label="tab"
       style="stroke-width:0.05892752;stroke-miterlimit:4;stroke-dasharray:none">
      <path
         id="path4469"
         d="m 0,0 35,0 0,2 -6,0 c 0,0 1,8 6,12 8,6 22,6 30,0 5,-4 6,-12 6,-12 l -6,0 0,-2 35,0"
         style="fill:none;stroke:#0000ff;stroke-width:0.05892752;stroke-miterlimit:4;stroke-dasharray:none"
         inkscape:connector-curvature="0" />
      <path
         id="path4471"
         d="M 42,0 58,0"
         style="fill:none;stroke:#ff0000;stroke-width:0.05892752;stroke-miterlimit:4;stroke-dasharray:none"
         inkscape:connector-curvature="0" />
    </g>
    <g
       inkscape:label="tab"
       transform="matrix(1.3457964,-0.72213396,0.72213396,1.3457964,584.2757,617.57182)"
       id="g4543"
       style="stroke-width:0.05892752;stroke-miterlimit:4;stroke-dasharray:none">
      <path
         inkscape:connector-curvature="0"
         style="fill:none;stroke:#0000ff;stroke-width:0.05892752;stroke-miterlimit:4;stroke-dasharray:none"
         d="m 0,0 35,0 0,2 -6,0 c 0,0 1,8 6,12 8,6 22,6 30,0 5,-4 6,-12 6,-12 l -6,0 0,-2 35,0"
         id="path4545" />
      <path
         inkscape:connector-curvature="0"
         style="fill:none;stroke:#ff0000;stroke-width:0.05892752;stroke-miterlimit:4;stroke-dasharray:none"
         d="M 42,0 58,0"
         id="path4547" />
    </g>
    <g
       id="g4569"
       transform="matrix(-0.60209207,-1.4036133,-1.4036133,0.60209207,584.2757,617.57182)"
       inkscape:label="tab"
       style="stroke-width:0.05892752;stroke-miterlimit:4;stroke-dasharray:none">
      <path
         id="path4571"
         d="M 0,0 20,19 80,19 100,0"
         style="fill:none;stroke:#0000ff;stroke-width:0.05892752;stroke-miterlimit:4;stroke-dasharray:none"
         inkscape:connector-curvature="0" />
      <path
         id="path4573"
         d="m 28,-3 4,5 36,0 4,-5"
         style="fill:none;stroke:#0000ff;stroke-width:0.05892752;stroke-miterlimit:4;stroke-dasharray:none"
         inkscape:connector-curvature="0" />
      <path
         id="path4575"
         d="M 0,0 28,0"
         style="fill:none;stroke:#ff0000;stroke-width:0.05892752;stroke-miterlimit:4;stroke-dasharray:none"
         inkscape:connector-curvature="0" />
      <path
         id="path4577"
         d="M 100,0 72,0"
         style="fill:none;stroke:#ff0000;stroke-width:0.05892752;stroke-miterlimit:4;stroke-dasharray:none"
         inkscape:connector-curvature="0" />
    </g>
    <g
       id="g4585"
       transform="matrix(-0.33022887,0.94390089,0.94390089,0.33022887,388.20353,772.58928)"
       style="stroke-width:0.09;stroke-miterlimit:4;stroke-dasharray:none">
      <path
         id="path4587"
         d="m -323.67418,237.06435 -38.31287,14.70694 -145.2314,-64.66119 -47.73923,-53.01979"
         style="fill:none;stroke:#0000ff;stroke-width:0.09;stroke-miterlimit:4;stroke-dasharray:none"
         inkscape:connector-curvature="0"
         sodipodi:nodetypes="cccc" />
      <path
         sodipodi:nodetypes="cccc"
         id="path4589"
         d="m -422.57878,188.01368 -8.68707,4.49145 -50.22929,-22.36352 -2.47499,-9.46112"
         style="fill:none;stroke:#0000ff;stroke-width:0.09;stroke-miterlimit:4;stroke-dasharray:none"
         inkscape:connector-curvature="0" />
      <path
         sodipodi:nodetypes="cc"
         id="path4591"
         d="M -323.67418,237.06435 -424.4424,192.19945"
         style="fill:none;stroke:#ff0000;stroke-width:0.09;stroke-miterlimit:4;stroke-dasharray:none"
         inkscape:connector-curvature="0" />
      <path
         sodipodi:nodetypes="cc"
         id="path4593"
         d="m -554.95769,134.0903 69.12393,30.77596"
         style="fill:none;stroke:#ff0000;stroke-width:0.09;stroke-miterlimit:4;stroke-dasharray:none"
         inkscape:connector-curvature="0" />
    </g>
    <g
       id="g5387"
       transform="matrix(0.30432124,0.95256946,-0.95256946,0.30432124,620.57643,-38.793899)"
       style="stroke-width:0.09;stroke-miterlimit:4;stroke-dasharray:none">
      <g
         id="g5389"
         transform="matrix(0.01332799,1.5272418,1.5272418,-0.01332799,255.66279,114.1889)"
         inkscape:label="tab"
         style="stroke-width:0.05892752;stroke-miterlimit:4;stroke-dasharray:none">
        <path
           id="path5391"
           d="m 0,0 12.584901,15.805642 37.604904,1.833055"
           style="fill:none;stroke:#0000ff;stroke-width:0.05892752;stroke-miterlimit:4;stroke-dasharray:none"
           inkscape:connector-curvature="0"
           sodipodi:nodetypes="ccc" />
        <path
           id="path5393"
           d="m 28,-3 4,5 36,0 4,-5"
           style="fill:none;stroke:#0000ff;stroke-width:0.05892752;stroke-miterlimit:4;stroke-dasharray:none"
           inkscape:connector-curvature="0" />
        <path
           id="path5395"
           d="M 0,0 28,0"
           style="fill:none;stroke:#ff0000;stroke-width:0.05892752;stroke-miterlimit:4;stroke-dasharray:none"
           inkscape:connector-curvature="0" />
        <path
           id="path5397"
           d="M 100,0 72,0"
           style="fill:none;stroke:#ff0000;stroke-width:0.05892752;stroke-miterlimit:4;stroke-dasharray:none"
           inkscape:connector-curvature="0" />
      </g>
      <g
         transform="matrix(0.08715574,0.9961947,-0.9961947,0.08715574,521.36788,568.69406)"
         id="g5399"
         style="stroke-width:0.09;stroke-miterlimit:4;stroke-dasharray:none">
        <path
           inkscape:connector-curvature="0"
           style="fill:none;stroke:#0000ff;stroke-width:0.09;stroke-miterlimit:4;stroke-dasharray:none"
           d="m -554.95769,134.0903 78.89074,35.12442 -1.24242,2.79052 -8.37155,-3.72726 c 0,0 -3.57441,11.78328 0.91705,20.47035 7.43481,13.34122 14.99686,17.17733 29.88618,13.77545 9.46112,-2.47499 27.79761,-8.15502 27.79761,-8.15502 l -8.37155,-3.72726 1.24242,-2.79051 110.53503,49.21336"
           id="path5401"
           sodipodi:nodetypes="cccccccccc" />
        <path
           inkscape:connector-curvature="0"
           style="fill:none;stroke:#ff0000;stroke-width:0.09;stroke-miterlimit:4;stroke-dasharray:none"
           d="m -466.30014,173.56318 22.32412,9.93934"
           id="path5403"
           sodipodi:nodetypes="cc" />
      </g>
    </g>
    <g
       id="g3199"
       transform="matrix(0.248844,0.18279771,-0.18279771,0.248844,195.43097,672.96008)"
       style="stroke:#ff0000;stroke-opacity:1;stroke-width:0.29147997;stroke-miterlimit:4;stroke-dasharray:none">
      <path
         inkscape:connector-curvature="0"
         id="path3201"
         d="m -285.07331,444.02176 1113,0"
         style="fill:none;stroke:#ff0000;stroke-width:0.29147997;stroke-linecap:butt;stroke-linejoin:miter;stroke-opacity:1;stroke-miterlimit:4;stroke-dasharray:none" />
      <path
         inkscape:connector-curvature="0"
         id="path3203"
         d="M -285.07331,444.02176 463.97683,110.52316"
         style="fill:none;stroke:#ff0000;stroke-width:0.29147997;stroke-linecap:butt;stroke-linejoin:miter;stroke-opacity:1;stroke-miterlimit:4;stroke-dasharray:none" />
      <path
         inkscape:connector-curvature="0"
         id="path3205"
         d="M 827.92669,444.02176 463.97683,110.52316"
         style="fill:none;stroke:#ff0000;stroke-width:0.29147997;stroke-linecap:butt;stroke-linejoin:miter;stroke-opacity:1;stroke-miterlimit:4;stroke-dasharray:none" />
    </g>
    <path
       inkscape:connector-curvature="0"
       id="path3215"
       d="M 43.326029,731.34149 379.84637,661.65478"
       style="fill:none;stroke:#ff0000;stroke-width:0.09;stroke-linecap:butt;stroke-linejoin:miter;stroke-opacity:1;stroke-miterlimit:4;stroke-dasharray:none" />
    <path
       inkscape:connector-curvature="0"
       id="path3225"
       d="M 498.83011,641.15369 320.2894,934.79531"
       style="fill:none;stroke:#ff0000;stroke-width:0.09;stroke-linecap:butt;stroke-linejoin:miter;stroke-opacity:1;stroke-miterlimit:4;stroke-dasharray:none" />
    <path
       inkscape:connector-curvature="0"
       id="path3227"
       d="M 498.83011,641.15369 466.65862,892.27263"
       style="fill:none;stroke:#ff0000;stroke-width:0.09;stroke-linecap:butt;stroke-linejoin:miter;stroke-opacity:1;stroke-miterlimit:4;stroke-dasharray:none" />
    <path
       style="fill:none;stroke:#ff0000;stroke-width:0.09;stroke-linecap:butt;stroke-linejoin:miter;stroke-opacity:1;stroke-miterlimit:4;stroke-dasharray:none"
       d="m 498.83009,641.15368 98.7512,329.1662"
       id="path3233"
       inkscape:connector-curvature="0" />
    <g
       id="g4638"
       transform="matrix(0.80592269,0.5920208,-0.5920208,0.80592269,569.96325,951.82155)"
       style="stroke-width:0.09;stroke-miterlimit:4;stroke-dasharray:none">
      <path
         sodipodi:nodetypes="cccccccccc"
         id="path4640"
         d="m -554.95769,134.0903 78.89074,35.12442 -1.24242,2.79052 -8.37155,-3.72726 c 0,0 -3.57441,11.78328 0.91705,20.47035 7.43481,13.34122 26.96842,22.03815 41.85774,18.63627 9.46112,-2.47499 15.82605,-13.01584 15.82605,-13.01584 l -8.37155,-3.72726 1.24242,-2.79051 110.53503,49.21336"
         style="fill:none;stroke:#0000ff;stroke-width:0.09;stroke-miterlimit:4;stroke-dasharray:none"
         inkscape:connector-curvature="0" />
      <path
         sodipodi:nodetypes="cc"
         id="path4642"
         d="m -466.30014,173.56318 22.32412,9.93934"
         style="fill:none;stroke:#ff0000;stroke-width:0.09;stroke-miterlimit:4;stroke-dasharray:none"
         inkscape:connector-curvature="0" />
    </g>
    <g
       inkscape:label="tab"
       transform="matrix(-1.5183683,0.16493301,0.16493301,1.5183683,320.59669,934.76194)"
       id="g4670"
       style="stroke-width:0.05892752;stroke-miterlimit:4;stroke-dasharray:none">
      <path
         inkscape:connector-curvature="0"
         style="fill:none;stroke:#0000ff;stroke-width:0.05892752;stroke-miterlimit:4;stroke-dasharray:none"
         d="M 0,0 20,19 80,19 100,0"
         id="path4672" />
      <path
         inkscape:connector-curvature="0"
         style="fill:none;stroke:#0000ff;stroke-width:0.05892752;stroke-miterlimit:4;stroke-dasharray:none"
         d="m 28,-3 4,5 36,0 4,-5"
         id="path4674" />
      <path
         inkscape:connector-curvature="0"
         style="fill:none;stroke:#ff0000;stroke-width:0.05892752;stroke-miterlimit:4;stroke-dasharray:none"
         d="M 0,0 28,0"
         id="path4676" />
      <path
         inkscape:connector-curvature="0"
         style="fill:none;stroke:#ff0000;stroke-width:0.05892752;stroke-miterlimit:4;stroke-dasharray:none"
         d="M 100,0 72,0"
         id="path4678" />
    </g>
    <g
       inkscape:label="tab"
       transform="matrix(-1.3118821,-0.78205543,0.78205543,-1.3118821,380.02718,661.40406)"
       id="g4720"
       style="stroke-width:0.05892752;stroke-miterlimit:4;stroke-dasharray:none">
      <path
         inkscape:connector-curvature="0"
         style="fill:none;stroke:#0000ff;stroke-width:0.05892752;stroke-miterlimit:4;stroke-dasharray:none"
         d="m 0,0 35,0 0,2 -6,0 c 0,0 1,8 6,12 8,6 22,6 30,0 5,-4 6,-12 6,-12 l -6,0 0,-2 35,0"
         id="path4722" />
      <path
         inkscape:connector-curvature="0"
         style="fill:none;stroke:#ff0000;stroke-width:0.05892752;stroke-miterlimit:4;stroke-dasharray:none"
         d="M 42,0 58,0"
         id="path4724" />
    </g>
    <g
       id="g4762"
       transform="matrix(0.97922473,-0.20277803,-0.20277803,-0.97922473,613.94487,750.11276)"
       style="stroke-width:0.09;stroke-miterlimit:4;stroke-dasharray:none">
      <path
         id="path4764"
         d="m -323.67418,237.06435 -38.31287,14.70694 -145.2314,-64.66119 -47.73923,-53.01979"
         style="fill:none;stroke:#0000ff;stroke-width:0.09;stroke-miterlimit:4;stroke-dasharray:none"
         inkscape:connector-curvature="0"
         sodipodi:nodetypes="cccc" />
      <path
         sodipodi:nodetypes="cccc"
         id="path4766"
         d="m -422.57878,188.01368 -8.68707,4.49145 -50.22929,-22.36352 -2.47499,-9.46112"
         style="fill:none;stroke:#0000ff;stroke-width:0.09;stroke-miterlimit:4;stroke-dasharray:none"
         inkscape:connector-curvature="0" />
      <path
         sodipodi:nodetypes="cc"
         id="path4768"
         d="M -323.67418,237.06435 -424.4424,192.19945"
         style="fill:none;stroke:#ff0000;stroke-width:0.09;stroke-miterlimit:4;stroke-dasharray:none"
         inkscape:connector-curvature="0" />
      <path
         sodipodi:nodetypes="cc"
         id="path4770"
         d="m -554.95769,134.0903 69.12393,30.77596"
         style="fill:none;stroke:#ff0000;stroke-width:0.09;stroke-miterlimit:4;stroke-dasharray:none"
         inkscape:connector-curvature="0" />
    </g>
    <g
       inkscape:label="tab"
       transform="matrix(1.4666605,-0.42608927,0.42608927,1.4666605,319.72703,934.72325)"
       id="g4796"
       style="stroke-width:0.05892752;stroke-miterlimit:4;stroke-dasharray:none">
      <path
         inkscape:connector-curvature="0"
         style="fill:none;stroke:#0000ff;stroke-width:0.05892752;stroke-miterlimit:4;stroke-dasharray:none"
         d="m 0,0 35,0 0,2 -6,0 c 0,0 1,8 6,12 8,6 22,6 30,0 5,-4 6,-12 6,-12 l -6,0 0,-2 35,0"
         id="path4798" />
      <path
         inkscape:connector-curvature="0"
         style="fill:none;stroke:#ff0000;stroke-width:0.05892752;stroke-miterlimit:4;stroke-dasharray:none"
         d="M 42,0 58,0"
         id="path4800" />
    </g>
    <g
       id="g4872"
       transform="matrix(0.66474144,-1.3750506,1.3750506,0.66474144,597.44676,970.59819)"
       inkscape:label="tab"
       style="stroke-width:0.05892752;stroke-miterlimit:4;stroke-dasharray:none">
      <path
         id="path4874"
         d="m 0,0 35,0 0,2 -6,0 c 0,0 1,8 6,12 8,6 22,6 30,0 5,-4 6,-12 6,-12 l -6,0 0,-2 35,0"
         style="fill:none;stroke:#0000ff;stroke-width:0.05892752;stroke-miterlimit:4;stroke-dasharray:none"
         inkscape:connector-curvature="0" />
      <path
         id="path4876"
         d="M 42,0 58,0"
         style="fill:none;stroke:#ff0000;stroke-width:0.05892752;stroke-miterlimit:4;stroke-dasharray:none"
         inkscape:connector-curvature="0" />
    </g>
    <g
       inkscape:label="tab"
       transform="matrix(-1.311882,-0.78205547,-0.78205547,1.311882,597.58128,970.31987)"
       id="g4898"
       style="stroke-width:0.05892752;stroke-miterlimit:4;stroke-dasharray:none">
      <path
         inkscape:connector-curvature="0"
         style="fill:none;stroke:#0000ff;stroke-width:0.05892752;stroke-miterlimit:4;stroke-dasharray:none"
         d="M 0,0 20,19 80,19 100,0"
         id="path4900" />
      <path
         inkscape:connector-curvature="0"
         style="fill:none;stroke:#0000ff;stroke-width:0.05892752;stroke-miterlimit:4;stroke-dasharray:none"
         d="m 28,-3 4,5 36,0 4,-5"
         id="path4902" />
      <path
         inkscape:connector-curvature="0"
         style="fill:none;stroke:#ff0000;stroke-width:0.05892752;stroke-miterlimit:4;stroke-dasharray:none"
         d="M 0,0 28,0"
         id="path4904" />
      <path
         inkscape:connector-curvature="0"
         style="fill:none;stroke:#ff0000;stroke-width:0.05892752;stroke-miterlimit:4;stroke-dasharray:none"
         d="M 100,0 72,0"
         id="path4906" />
    </g>
    <g
       transform="matrix(0.28735146,0.95782521,0.95782521,-0.28735146,529.86294,1211.2372)"
       id="g4914"
       style="stroke-width:0.09;stroke-miterlimit:4;stroke-dasharray:none">
      <path
         sodipodi:nodetypes="cccc"
         inkscape:connector-curvature="0"
         style="fill:none;stroke:#0000ff;stroke-width:0.09;stroke-miterlimit:4;stroke-dasharray:none"
         d="m -323.67418,237.06435 -38.31287,14.70694 -145.2314,-64.66119 -47.73923,-53.01979"
         id="path4916" />
      <path
         inkscape:connector-curvature="0"
         style="fill:none;stroke:#0000ff;stroke-width:0.09;stroke-miterlimit:4;stroke-dasharray:none"
         d="m -422.57878,188.01368 -8.68707,4.49145 -50.22929,-22.36352 -2.47499,-9.46112"
         id="path4918"
         sodipodi:nodetypes="cccc" />
      <path
         inkscape:connector-curvature="0"
         style="fill:none;stroke:#ff0000;stroke-width:0.09;stroke-miterlimit:4;stroke-dasharray:none"
         d="M -323.67418,237.06435 -424.4424,192.19945"
         id="path4920"
         sodipodi:nodetypes="cc" />
      <path
         inkscape:connector-curvature="0"
         style="fill:none;stroke:#ff0000;stroke-width:0.09;stroke-miterlimit:4;stroke-dasharray:none"
         d="m -554.95769,134.0903 69.12393,30.77596"
         id="path4922"
         sodipodi:nodetypes="cc" />
    </g>
    <g
       transform="matrix(0.80592269,0.5920208,-0.5920208,0.80592269,241.58499,418.01894)"
       id="g5405"
       style="stroke-width:0.09;stroke-miterlimit:4;stroke-dasharray:none">
      <g
         inkscape:label="tab"
         transform="matrix(0.01332799,1.5272418,1.5272418,-0.01332799,255.66279,114.1889)"
         id="g5407"
         style="stroke-width:0.05892752;stroke-miterlimit:4;stroke-dasharray:none">
        <path
           sodipodi:nodetypes="ccc"
           inkscape:connector-curvature="0"
           style="fill:none;stroke:#0000ff;stroke-width:0.05892752;stroke-miterlimit:4;stroke-dasharray:none"
           d="m 0,0 12.584901,15.805642 37.604904,1.833055"
           id="path5409" />
        <path
           inkscape:connector-curvature="0"
           style="fill:none;stroke:#0000ff;stroke-width:0.05892752;stroke-miterlimit:4;stroke-dasharray:none"
           d="m 28,-3 4,5 36,0 4,-5"
           id="path5411" />
        <path
           inkscape:connector-curvature="0"
           style="fill:none;stroke:#ff0000;stroke-width:0.05892752;stroke-miterlimit:4;stroke-dasharray:none"
           d="M 0,0 28,0"
           id="path5413" />
        <path
           inkscape:connector-curvature="0"
           style="fill:none;stroke:#ff0000;stroke-width:0.05892752;stroke-miterlimit:4;stroke-dasharray:none"
           d="M 100,0 72,0"
           id="path5415" />
      </g>
      <g
         id="g5417"
         transform="matrix(0.08715574,0.9961947,-0.9961947,0.08715574,521.36788,568.69406)"
         style="stroke-width:0.09;stroke-miterlimit:4;stroke-dasharray:none">
        <path
           sodipodi:nodetypes="cccccccccc"
           id="path5419"
           d="m -554.95769,134.0903 78.89074,35.12442 -1.24242,2.79052 -8.37155,-3.72726 c 0,0 -3.57441,11.78328 0.91705,20.47035 7.43481,13.34122 14.99686,17.17733 29.88618,13.77545 9.46112,-2.47499 27.79761,-8.15502 27.79761,-8.15502 l -8.37155,-3.72726 1.24242,-2.79051 110.53503,49.21336"
           style="fill:none;stroke:#0000ff;stroke-width:0.09;stroke-miterlimit:4;stroke-dasharray:none"
           inkscape:connector-curvature="0" />
        <path
           sodipodi:nodetypes="cc"
           id="path5421"
           d="m -466.30014,173.56318 22.32412,9.93934"
           style="fill:none;stroke:#ff0000;stroke-width:0.09;stroke-miterlimit:4;stroke-dasharray:none"
           inkscape:connector-curvature="0" />
      </g>
    </g>
  </g>
</svg>
