<?xml version="1.0" encoding="UTF-8" standalone="no"?>
<!-- Created with Inkscape (http://www.inkscape.org/) -->

<svg
   xmlns:dc="http://purl.org/dc/elements/1.1/"
   xmlns:cc="http://creativecommons.org/ns#"
   xmlns:rdf="http://www.w3.org/1999/02/22-rdf-syntax-ns#"
   xmlns:svg="http://www.w3.org/2000/svg"
   xmlns="http://www.w3.org/2000/svg"
   xmlns:sodipodi="http://sodipodi.sourceforge.net/DTD/sodipodi-0.dtd"
   xmlns:inkscape="http://www.inkscape.org/namespaces/inkscape"
   width="360"
   height="540"
   id="svg2"
   sodipodi:version="0.32"
   inkscape:version="0.48.0 r9654"
   version="1.0"
   sodipodi:docname="fridge_gears-v2.svg"
   inkscape:output_extension="org.inkscape.output.svg.inkscape">
  <sodipodi:namedview
     id="base"
     pagecolor="#ffffff"
     bordercolor="#666666"
     borderopacity="1.0"
     inkscape:pageopacity="0.0"
     inkscape:pageshadow="2"
     inkscape:zoom="1.3651143"
     inkscape:cx="178.58794"
     inkscape:cy="270.50255"
     inkscape:document-units="px"
     inkscape:current-layer="layer1"
     showgrid="false"
     units="in"
     inkscape:window-width="1680"
     inkscape:window-height="944"
     inkscape:window-x="0"
     inkscape:window-y="0"
     showguides="true"
     inkscape:guide-bbox="true"
     inkscape:window-maximized="0" />
  <defs
     id="defs4">
    <inkscape:perspective
       sodipodi:type="inkscape:persp3d"
       inkscape:vp_x="0 : 526.18109 : 1"
       inkscape:vp_y="0 : 1000 : 0"
       inkscape:vp_z="744.09448 : 526.18109 : 1"
       inkscape:persp3d-origin="372.04724 : 350.78739 : 1"
       id="perspective10" />
  </defs>
  <metadata
     id="metadata7">
    <rdf:RDF>
      <cc:Work
         rdf:about="">
        <dc:format>image/svg+xml</dc:format>
        <dc:type
           rdf:resource="http://purl.org/dc/dcmitype/StillImage" />
        <dc:title></dc:title>
      </cc:Work>
    </rdf:RDF>
  </metadata>
  <g
     inkscape:label="Layer 1"
     inkscape:groupmode="layer"
     id="layer1"
     transform="translate(0,-540)">
    <g
       style="stroke-width:0.09;stroke-miterlimit:4;stroke-dasharray:none"
       id="g1443"
       transform="translate(-1304.9251,322.1617)">
      <g
         style="stroke-width:0.09;stroke-miterlimit:4;stroke-dasharray:none"
         transform="translate(460.5668,-183.64372)"
         id="g1389">
        <g
           id="g1152"
           transform="translate(1080,540)"
           inkscape:label="Gear36"
           style="fill:none;stroke:#000000;stroke-width:0.09;stroke-miterlimit:4;stroke-opacity:1;stroke-dasharray:none">
          <path
             inkscape:connector-curvature="0"
             id="path1154"
             d="m 108.042,-6.295 6.44,1.297 6.452,2.602 0,4.792 -6.452,2.602 -6.44,1.297 -0.548,6.267 6.117,2.395 5.902,3.683 -0.832,4.719 -6.806,1.443 -6.567,0.159 -1.629,6.076 5.609,3.421 5.172,4.652 -1.639,4.503 -6.952,0.239 -6.496,-0.984 -2.658,5.701 4.929,4.343 4.286,5.48 -2.396,4.15 -6.888,-0.972 -6.226,-2.097 -3.609,5.153 4.101,5.133 3.269,6.141 -3.08,3.67 -6.615,-2.153 -5.767,-3.147 -4.449,4.449 3.147,5.767 2.153,6.615 -3.67,3.08 -6.141,-3.269 -5.133,-4.101 -5.153,3.609 2.097,6.226 0.972,6.888 -4.15,2.396 -5.48,-4.286 -4.343,-4.929 -5.701,2.658 0.984,6.496 -0.239,6.952 -4.503,1.639 -4.652,-5.172 -3.421,-5.609 -6.076,1.629 -0.159,6.567 -1.443,6.806 -4.719,0.832 -3.683,-5.902 -2.395,-6.117 -6.267,0.548 -1.297,6.44 -2.602,6.452 -4.792,0 -2.602,-6.452 -1.297,-6.44 -6.267,-0.548 -2.395,6.117 -3.683,5.902 -4.719,-0.832 -1.443,-6.806 -0.159,-6.567 -6.076,-1.629 -3.421,5.609 -4.652,5.172 -4.503,-1.639 -0.239,-6.952 0.984,-6.496 -5.701,-2.658 -4.343,4.929 -5.48,4.286 -4.15,-2.396 0.972,-6.888 2.097,-6.226 -5.153,-3.609 -5.133,4.101 -6.141,3.269 -3.67,-3.08 2.153,-6.615 3.147,-5.767 -4.449,-4.449 -5.767,3.147 -6.615,2.153 -3.08,-3.67 3.269,-6.141 4.101,-5.133 -3.609,-5.153 -6.226,2.097 -6.888,0.972 -2.396,-4.15 4.286,-5.48 4.929,-4.343 -2.658,-5.701 -6.496,0.984 -6.952,-0.239 -1.639,-4.503 5.172,-4.652 5.609,-3.421 -1.629,-6.076 -6.567,-0.159 -6.806,-1.443 -0.832,-4.719 5.902,-3.683 6.117,-2.395 -0.548,-6.267 -6.44,-1.297 -6.452,-2.602 0,-4.792 6.452,-2.602 6.44,-1.297 0.548,-6.267 -6.117,-2.395 -5.902,-3.683 0.832,-4.719 6.806,-1.443 6.567,-0.159 1.629,-6.076 -5.609,-3.421 -5.172,-4.652 1.639,-4.503 6.952,-0.239 6.496,0.984 2.658,-5.701 -4.929,-4.343 -4.286,-5.48 2.396,-4.15 6.888,0.972 6.226,2.097 3.609,-5.153 -4.101,-5.133 -3.269,-6.141 3.08,-3.67 6.615,2.153 5.767,3.147 4.449,-4.449 -3.147,-5.767 -2.153,-6.615 3.67,-3.08 6.141,3.269 5.133,4.101 5.153,-3.609 -2.097,-6.226 -0.972,-6.888 4.15,-2.396 5.48,4.286 4.343,4.929 5.701,-2.658 -0.984,-6.496 0.239,-6.952 4.503,-1.639 4.652,5.172 3.421,5.609 6.076,-1.629 0.159,-6.567 1.443,-6.806 4.719,-0.832 3.683,5.902 2.395,6.117 6.267,-0.548 1.297,-6.44 2.602,-6.452 4.792,0 2.602,6.452 1.297,6.44 6.267,0.548 2.395,-6.117 3.683,-5.902 4.719,0.832 1.443,6.806 0.159,6.567 6.076,1.629 3.421,-5.609 4.652,-5.172 4.503,1.639 0.239,6.952 -0.984,6.496 5.701,2.658 4.343,-4.929 5.48,-4.286 4.15,2.396 -0.972,6.888 -2.097,6.226 5.153,3.609 5.133,-4.101 6.141,-3.269 3.67,3.08 -2.153,6.615 -3.147,5.767 4.449,4.449 5.767,-3.147 6.615,-2.153 3.08,3.67 -3.269,6.141 -4.101,5.133 3.609,5.153 6.226,-2.097 6.888,-0.972 2.396,4.15 -4.286,5.48 -4.929,4.343 2.658,5.701 6.496,-0.984 6.952,0.239 1.639,4.503 -5.172,4.652 -5.609,3.421 1.629,6.076 6.567,0.159 6.806,1.443 0.832,4.719 -5.902,3.683 -6.117,2.395 z"
             style="fill:none;stroke:#000000;stroke-width:0.09;stroke-miterlimit:4;stroke-opacity:1;stroke-dasharray:none" />
        </g>
        <text
           xml:space="preserve"
           style="font-size:6px;font-style:normal;font-variant:normal;font-weight:bold;font-stretch:normal;text-align:start;line-height:125%;writing-mode:lr-tb;text-anchor:start;fill:#000000;fill-opacity:1;stroke:none;font-family:Sans;-inkscape-font-specification:Sans Bold"
           x="1075.8259"
           y="432.23483"
           id="text1353"
           sodipodi:linespacing="125%"><tspan
             sodipodi:role="line"
             id="tspan1363"
             x="1075.8259"
             y="432.23483">36</tspan></text>
      </g>
      <g
         style="stroke-width:0.09;stroke-miterlimit:4;stroke-dasharray:none"
         transform="translate(1420.8179,304.30961)"
         id="g1413">
        <path
           transform="matrix(2.3220127,0,0,1.976181,-103.4582,-179.31111)"
           d="m 100.55636,117.07317 c 0,2.87465 -1.983287,5.20501 -4.429796,5.20501 -2.446509,0 -4.429796,-2.33036 -4.429796,-5.20501 0,-2.87464 1.983287,-5.20501 4.429796,-5.20501 2.446509,0 4.429796,2.33037 4.429796,5.20501 z"
           sodipodi:ry="5.2050099"
           sodipodi:rx="4.4297957"
           sodipodi:cy="117.07317"
           sodipodi:cx="96.126564"
           id="path1415"
           style="fill:none;stroke:#000000;stroke-width:0.04201427;stroke-miterlimit:4;stroke-opacity:1;stroke-dasharray:none;stroke-dashoffset:0"
           sodipodi:type="arc" />
        <path
           sodipodi:type="arc"
           style="fill:none;stroke:#000000;stroke-width:0.04051805;stroke-miterlimit:4;stroke-opacity:1;stroke-dasharray:none;stroke-dashoffset:0"
           id="path1417"
           sodipodi:cx="100.01034"
           sodipodi:cy="61.166786"
           sodipodi:rx="9.1882286"
           sodipodi:ry="7.0678682"
           d="m 109.19857,61.166786 c 0,3.903476 -4.11371,7.067868 -9.18823,7.067868 -5.074521,0 -9.188231,-3.164392 -9.188231,-7.067868 0,-3.903476 4.11371,-7.067868 9.188231,-7.067868 5.07452,0 9.18823,3.164392 9.18823,7.067868 z"
           transform="matrix(1.9481497,0,0,2.5325945,-75.086209,-102.864)" />
      </g>
    </g>
    <g
       style="stroke-width:0.09;stroke-miterlimit:4;stroke-dasharray:none"
       transform="translate(-285.14096,484.84479)"
       id="g1656">
      <g
         style="stroke-width:0.09;stroke-miterlimit:4;stroke-dasharray:none"
         transform="translate(-316.84529,99.93766)"
         id="g1395">
        <g
           id="g1300"
           transform="translate(871.19275,405.7303)"
           inkscape:label="Gear25"
           style="fill:none;stroke:#000000;stroke-width:0.09;stroke-miterlimit:4;stroke-opacity:1;stroke-dasharray:none">
          <path
             inkscape:connector-curvature="0"
             id="path1302"
             d="m 72.99,-5.685 1.563,-0.122 4.867,0.81 6.493,2.706 0,4.582 -6.493,2.706 -4.867,0.81 -1.563,-0.122 -0.879,6.96 1.544,0.271 4.513,1.995 5.616,4.236 -1.14,4.438 -6.961,1.006 -4.917,-0.426 -1.483,-0.506 -2.582,6.522 1.427,0.646 3.876,3.055 4.386,5.499 -2.207,4.016 -6.994,-0.757 -4.656,-1.635 -1.31,-0.86 -4.123,5.676 1.222,0.981 2.993,3.923 2.881,6.417 -3.136,3.34 -6.585,-2.473 -4.104,-2.741 -1.055,-1.158 -5.406,4.471 0.94,1.254 1.924,4.545 1.195,6.931 -3.869,2.455 -5.763,-4.032 -3.293,-3.676 -0.734,-1.384 -6.348,2.987 0.599,1.448 0.733,4.88 -0.567,7.011 -4.357,1.416 -4.58,-5.339 -2.275,-4.379 -0.367,-1.523 -6.891,1.314 0.22,1.552 L 9.974,78.95 7.681,85.6 3.108,85.887 0,79.577 -1.114,74.77 l 0.023,-1.567 -7.001,-0.44 -0.173,1.557 -1.709,4.63 -3.874,5.871 -4.501,-0.859 -1.441,-6.885 0.116,-4.933 0.412,-1.512 -6.671,-2.168 -0.555,1.466 -2.806,4.059 -5.213,4.723 -4.146,-1.951 0.316,-7.027 1.34,-4.749 0.775,-1.362 -5.923,-3.759 -0.902,1.281 -3.727,3.235 -6.224,3.278 -3.53,-2.921 2.053,-6.728 2.479,-4.267 1.09,-1.126 -4.802,-5.114 -1.193,1.017 -4.414,2.206 -6.844,1.627 -2.693,-3.707 3.663,-6.005 3.461,-3.517 1.336,-0.82 -3.38,-6.147 -1.407,0.688 -4.825,1.038 -7.033,-0.125 -1.686,-4.26 5.04,-4.906 4.228,-2.546 1.497,-0.462 -1.744,-6.794 -1.535,0.316 -4.931,-0.194 -6.781,-1.87 -0.574,-4.546 6.103,-3.498 4.728,-1.414 1.565,-0.076 0,-7.014 -1.565,-0.076 -4.728,-1.414 -6.103,-3.498 0.574,-4.546 6.781,-1.87 4.931,-0.194 1.535,0.316 1.744,-6.794 -1.497,-0.462 -4.228,-2.546 -5.04,-4.906 1.686,-4.26 7.033,-0.125 4.825,1.038 1.407,0.688 3.38,-6.147 -1.336,-0.82 -3.461,-3.517 -3.663,-6.005 2.693,-3.707 6.844,1.627 4.414,2.206 1.193,1.017 4.802,-5.114 -1.09,-1.126 -2.479,-4.267 -2.053,-6.728 3.53,-2.921 6.224,3.278 3.727,3.235 0.902,1.281 5.923,-3.759 -0.775,-1.362 -1.34,-4.749 -0.316,-7.027 4.146,-1.951 5.213,4.723 2.806,4.059 0.555,1.466 6.671,-2.168 -0.412,-1.512 -0.116,-4.933 1.441,-6.885 4.501,-0.859 3.874,5.871 1.709,4.63 0.173,1.557 7.001,-0.44 -0.023,-1.567 1.114,-4.807 3.108,-6.31 4.573,0.287 2.293,6.65 0.503,4.909 -0.22,1.552 6.891,1.314 0.367,-1.523 2.275,-4.379 4.58,-5.339 4.357,1.416 0.567,7.011 -0.733,4.88 -0.599,1.448 6.348,2.987 0.734,-1.384 3.293,-3.676 5.763,-4.032 3.869,2.455 -1.195,6.931 -1.924,4.545 -0.94,1.254 5.406,4.471 1.055,-1.158 4.104,-2.741 6.585,-2.473 3.136,3.34 -2.881,6.417 -2.993,3.923 -1.222,0.981 4.123,5.676 1.31,-0.86 4.656,-1.635 6.994,-0.757 2.207,4.016 -4.386,5.499 -3.876,3.055 -1.427,0.646 2.582,6.522 1.483,-0.506 4.917,-0.426 6.961,1.006 1.14,4.438 -5.616,4.236 -4.513,1.995 -1.544,0.271 z"
             style="fill:none;stroke:#000000;stroke-width:0.09;stroke-miterlimit:4;stroke-opacity:1;stroke-dasharray:none" />
        </g>
        <text
           sodipodi:linespacing="125%"
           id="text1349"
           y="296.47632"
           x="884.78137"
           style="font-size:6px;font-style:normal;font-variant:normal;font-weight:bold;font-stretch:normal;text-align:start;line-height:125%;writing-mode:lr-tb;text-anchor:start;fill:#000000;fill-opacity:1;stroke:none;font-family:Sans;-inkscape-font-specification:Sans Bold"
           xml:space="preserve"
           transform="matrix(0.9991446,0.04135299,-0.04135299,0.9991446,0,0)"><tspan
             sodipodi:role="line"
             id="tspan1367"
             x="884.78137"
             y="296.47632">25</tspan></text>
      </g>
      <path
         sodipodi:type="arc"
         style="fill:none;stroke:#000000;stroke-width:0.04051805;stroke-miterlimit:4;stroke-opacity:1;stroke-dasharray:none;stroke-dashoffset:0"
         id="path1433"
         sodipodi:cx="100.01034"
         sodipodi:cy="61.166786"
         sodipodi:rx="9.1882286"
         sodipodi:ry="7.0678682"
         d="m 109.19857,61.166786 c 0,3.903476 -4.11371,7.067868 -9.18823,7.067868 -5.074521,0 -9.188231,-3.164392 -9.188231,-7.067868 0,-3.903476 4.11371,-7.067868 9.188231,-7.067868 5.07452,0 9.18823,3.164392 9.18823,7.067868 z"
         transform="matrix(1.9481497,0,0,2.5325945,359.70733,350.75729)" />
    </g>
    <g
       style="stroke-width:0.09;stroke-miterlimit:4;stroke-dasharray:none"
       transform="translate(160.88458,463.36006)"
       id="g1736">
      <text
         xml:space="preserve"
         style="font-size:6px;font-style:normal;font-variant:normal;font-weight:bold;font-stretch:normal;text-align:start;line-height:125%;writing-mode:lr-tb;text-anchor:start;fill:#000000;fill-opacity:1;stroke:none;font-family:Sans;-inkscape-font-specification:Sans Bold"
         x="395.59338"
         y="-125.7822"
         id="text1644"
         sodipodi:linespacing="125%"
         transform="matrix(0,1,-1,0,0,0)"><tspan
           sodipodi:role="line"
           id="tspan1646"
           x="395.59338"
           y="-125.7822">10</tspan></text>
      <g
         id="g1576"
         transform="translate(100.42287,399.82925)"
         inkscape:label="Gear10"
         style="fill:none;stroke:#000000;stroke-width:0.09;stroke-miterlimit:4;stroke-opacity:1;stroke-dasharray:none">
        <path
           inkscape:connector-curvature="0"
           id="path1578"
           d="m 25.089,-4.358 4.381,-0.761 1.969,0.14 6.712,3.109 0,3.74 -6.712,3.109 -1.969,0.14 -4.381,-0.761 -2.23,6.863 3.992,1.96 1.511,1.27 3.602,6.461 -2.198,3.026 -7.258,-1.43 -1.675,-1.045 -3.097,-3.19 -5.838,4.241 2.077,3.932 0.476,1.916 -0.883,7.344 -3.557,1.156 -5.032,-5.423 -0.741,-1.829 -0.63,-4.402 -7.216,0 -0.63,4.402 -0.741,1.829 -5.032,5.423 -3.557,-1.156 -0.883,-7.344 0.476,-1.916 2.077,-3.932 -5.838,-4.241 -3.097,3.19 -1.675,1.045 -7.258,1.43 -2.198,-3.026 3.602,-6.461 1.511,-1.27 3.992,-1.96 -2.23,-6.863 -4.381,0.761 -1.969,-0.14 -6.712,-3.109 0,-3.74 6.712,-3.109 1.969,-0.14 4.381,0.761 2.23,-6.863 -3.992,-1.96 -1.511,-1.27 -3.602,-6.461 2.198,-3.026 7.258,1.43 1.675,1.045 3.097,3.19 5.838,-4.241 -2.077,-3.932 -0.476,-1.916 0.883,-7.344 3.557,-1.156 5.032,5.423 0.741,1.829 0.63,4.402 7.216,0 0.63,-4.402 0.741,-1.829 5.032,-5.423 3.557,1.156 0.883,7.344 -0.476,1.916 -2.077,3.932 5.838,4.241 3.097,-3.19 1.675,-1.045 7.258,-1.43 2.198,3.026 -3.602,6.461 -1.511,1.27 -3.992,1.96 z"
           style="fill:none;stroke:#000000;stroke-width:0.09;stroke-miterlimit:4;stroke-opacity:1;stroke-dasharray:none" />
      </g>
      <path
         transform="matrix(1.9481497,0,0,2.5325945,-94.41224,244.91858)"
         d="m 109.19857,61.166786 c 0,3.903476 -4.11371,7.067868 -9.18823,7.067868 -5.074521,0 -9.188231,-3.164392 -9.188231,-7.067868 0,-3.903476 4.11371,-7.067868 9.188231,-7.067868 5.07452,0 9.18823,3.164392 9.18823,7.067868 z"
         sodipodi:ry="7.0678682"
         sodipodi:rx="9.1882286"
         sodipodi:cy="61.166786"
         sodipodi:cx="100.01034"
         id="path1654"
         style="fill:none;stroke:#000000;stroke-width:0.04051805;stroke-miterlimit:4;stroke-opacity:1;stroke-dasharray:none;stroke-dashoffset:0"
         sodipodi:type="arc" />
    </g>
    <g
       style="stroke-width:0.09;stroke-miterlimit:4;stroke-dasharray:none"
       id="g1461"
       transform="translate(-1603.5251,327.87789)">
      <g
         style="stroke-width:0.09;stroke-miterlimit:4;stroke-dasharray:none"
         transform="translate(1598.6441,485.22504)"
         id="g929">
        <path
           transform="matrix(2.3220127,0,0,1.976181,-103.4582,-179.31111)"
           d="m 100.55636,117.07317 c 0,2.87465 -1.983287,5.20501 -4.429796,5.20501 -2.446509,0 -4.429796,-2.33036 -4.429796,-5.20501 0,-2.87464 1.983287,-5.20501 4.429796,-5.20501 2.446509,0 4.429796,2.33037 4.429796,5.20501 z"
           sodipodi:ry="5.2050099"
           sodipodi:rx="4.4297957"
           sodipodi:cy="117.07317"
           sodipodi:cx="96.126564"
           id="path835"
           style="fill:none;stroke:#000000;stroke-width:0.04201427;stroke-miterlimit:4;stroke-opacity:1;stroke-dasharray:none;stroke-dashoffset:0"
           sodipodi:type="arc" />
        <path
           sodipodi:type="arc"
           style="fill:none;stroke:#000000;stroke-width:0.04051805;stroke-miterlimit:4;stroke-opacity:1;stroke-dasharray:none;stroke-dashoffset:0"
           id="path925"
           sodipodi:cx="100.01034"
           sodipodi:cy="61.166786"
           sodipodi:rx="9.1882286"
           sodipodi:ry="7.0678682"
           d="m 109.19857,61.166786 c 0,3.903476 -4.11371,7.067868 -9.18823,7.067868 -5.074521,0 -9.188231,-3.164392 -9.188231,-7.067868 0,-3.903476 4.11371,-7.067868 9.188231,-7.067868 5.07452,0 9.18823,3.164392 9.18823,7.067868 z"
           transform="matrix(1.9481497,0,0,2.5325945,-75.086209,-102.864)" />
      </g>
      <g
         style="stroke-width:0.09;stroke-miterlimit:4;stroke-dasharray:none"
         transform="translate(450.51747,133.073)"
         id="g1377">
        <g
           inkscape:label="Gear30"
           transform="translate(1267.8755,404.19871)"
           id="g1084"
           style="fill:none;stroke:#000000;stroke-width:0.09;stroke-miterlimit:4;stroke-opacity:1;stroke-dasharray:none">
          <path
             style="fill:none;stroke:#000000;stroke-width:0.09;stroke-miterlimit:4;stroke-opacity:1;stroke-dasharray:none"
             d="m 88.925,-5.991 0.606,-0.04 5.831,1.033 6.47,2.651 0,4.694 -6.47,2.651 -5.831,1.033 -0.606,-0.04 -0.698,6.638 0.602,0.086 5.488,2.223 5.778,3.938 -0.976,4.592 -6.88,1.247 -5.918,-0.201 -0.585,-0.166 -2.062,6.349 0.57,0.209 4.906,3.316 4.833,5.053 -1.909,4.288 -6.989,-0.21 -5.747,-1.428 -0.537,-0.283 -3.338,5.78 0.514,0.324 4.11,4.263 3.676,5.948 -2.759,3.797 -6.792,-1.658 -5.325,-2.591 -0.466,-0.39 -4.467,4.961 0.436,0.423 3.134,5.025 2.359,6.582 -3.488,3.14 -6.299,-3.034 -4.67,-3.642 -0.375,-0.477 -5.4,3.923 0.338,0.505 2.02,5.566 0.94,6.929 -4.066,2.347 -5.53,-4.278 -3.811,-4.533 -0.267,-0.545 -6.098,2.715 0.226,0.563 0.819,5.865 -0.522,6.973 -4.464,1.45 -4.521,-5.334 -2.785,-5.226 -0.148,-0.589 -6.529,1.388 0.104,0.598 -0.419,5.907 -1.959,6.712 L 8.31,101.52 4.998,95.362 3.36,89.671 3.338,89.064 l -6.676,0 -0.022,0.607 -1.638,5.691 -3.312,6.158 -4.669,-0.491 -1.959,-6.712 -0.419,-5.907 0.104,-0.598 -6.529,-1.388 -0.148,0.589 -2.785,5.226 -4.521,5.334 -4.464,-1.45 -0.522,-6.973 0.819,-5.865 0.226,-0.563 -6.098,-2.715 -0.267,0.545 -3.811,4.533 -5.53,4.278 -4.066,-2.347 0.94,-6.929 2.02,-5.566 0.338,-0.505 -5.4,-3.923 -0.375,0.477 -4.67,3.642 -6.299,3.034 -3.488,-3.14 2.359,-6.582 3.134,-5.025 0.436,-0.423 -4.467,-4.961 -0.466,0.39 -5.325,2.591 -6.792,1.658 -2.759,-3.797 3.676,-5.948 4.11,-4.263 0.514,-0.324 -3.338,-5.78 -0.537,0.283 -5.747,1.428 -6.989,0.21 -1.909,-4.288 4.833,-5.053 4.906,-3.316 0.57,-0.209 -2.062,-6.349 -0.585,0.166 -5.918,0.201 -6.88,-1.247 -0.976,-4.592 5.778,-3.938 5.488,-2.223 0.602,-0.086 -0.698,-6.638 -0.606,0.04 -5.831,-1.033 -6.47,-2.651 0,-4.694 6.47,-2.651 5.831,-1.033 0.606,0.04 0.698,-6.638 -0.602,-0.086 -5.488,-2.223 -5.778,-3.938 0.976,-4.592 6.88,-1.247 5.918,0.201 0.585,0.166 2.062,-6.349 -0.57,-0.209 -4.906,-3.316 -4.833,-5.053 1.909,-4.288 6.989,0.21 5.747,1.428 0.537,0.283 3.338,-5.78 -0.514,-0.324 -4.11,-4.263 -3.676,-5.948 2.759,-3.797 6.792,1.658 5.325,2.591 0.466,0.39 4.467,-4.961 -0.436,-0.423 -3.134,-5.025 -2.359,-6.582 3.488,-3.14 6.299,3.034 4.67,3.642 0.375,0.477 5.4,-3.923 -0.338,-0.505 -2.02,-5.566 -0.94,-6.929 4.066,-2.347 5.53,4.278 3.811,4.533 0.267,0.545 6.098,-2.715 -0.226,-0.563 -0.819,-5.865 0.522,-6.973 4.464,-1.45 4.521,5.334 2.785,5.226 0.148,0.589 6.529,-1.388 -0.104,-0.598 0.419,-5.907 1.959,-6.712 4.669,-0.491 3.312,6.158 1.638,5.691 0.022,0.607 6.676,0 0.022,-0.607 1.638,-5.691 3.312,-6.158 4.669,0.491 1.959,6.712 0.419,5.907 -0.104,0.598 6.529,1.388 0.148,-0.589 2.785,-5.226 4.521,-5.334 4.464,1.45 0.522,6.973 -0.819,5.865 -0.226,0.563 6.098,2.715 0.267,-0.545 3.811,-4.533 5.53,-4.278 4.066,2.347 -0.94,6.929 -2.02,5.566 -0.338,0.505 5.4,3.923 0.375,-0.477 4.67,-3.642 6.299,-3.034 3.488,3.14 -2.359,6.582 -3.134,5.025 -0.436,0.423 4.467,4.961 0.466,-0.39 5.325,-2.591 6.792,-1.658 2.759,3.797 -3.676,5.948 -4.11,4.263 -0.514,0.324 3.338,5.78 0.537,-0.283 5.747,-1.428 6.989,-0.21 1.909,4.288 -4.833,5.053 -4.906,3.316 -0.57,0.209 2.062,6.349 0.585,-0.166 5.918,-0.201 6.88,1.247 0.976,4.592 -5.778,3.938 -5.488,2.223 -0.602,0.086 z"
             id="path1086"
             inkscape:connector-curvature="0" />
        </g>
        <text
           xml:space="preserve"
           style="font-size:6px;font-style:normal;font-variant:normal;font-weight:bold;font-stretch:normal;text-align:start;line-height:125%;writing-mode:lr-tb;text-anchor:start;fill:#000000;fill-opacity:1;stroke:none;font-family:Sans;-inkscape-font-specification:Sans Bold"
           x="1218.5999"
           y="434.36038"
           id="text1345"
           sodipodi:linespacing="125%"
           transform="matrix(0.99545674,-0.09521496,0.09521496,0.99545674,0,0)"><tspan
             sodipodi:role="line"
             id="tspan1365"
             x="1218.5999"
             y="434.36038">30</tspan></text>
      </g>
    </g>
    <g
       style="stroke-width:0.09;stroke-miterlimit:4;stroke-dasharray:none"
       id="g1453"
       transform="translate(-1631.7223,838.43019)">
      <g
         style="stroke-width:0.09;stroke-miterlimit:4;stroke-dasharray:none"
         transform="translate(673.36032,-358.54251)"
         id="g1383">
        <g
           inkscape:label="Gear15"
           transform="translate(1080,540)"
           id="g1224"
           style="fill:none;stroke:#000000;stroke-width:0.09;stroke-miterlimit:4;stroke-opacity:1;stroke-dasharray:none">
          <path
             inkscape:connector-curvature="0"
             style="fill:none;stroke:#000000;stroke-width:0.09;stroke-miterlimit:4;stroke-opacity:1;stroke-dasharray:none"
             d="m 41.085,-4.938 3.461,-0.416 2.939,0.363 6.587,2.902 0,4.178 -6.587,2.902 -2.939,0.363 -3.461,-0.416 -1.544,7.261 3.332,1.028 2.537,1.527 4.837,5.331 -1.699,3.816 -7.198,-0.028 -2.833,-0.863 -2.993,-1.788 -4.363,6.005 2.625,2.295 1.697,2.427 2.251,6.837 -3.105,2.795 -6.564,-2.953 -2.237,-1.941 -2.007,-2.851 -6.429,3.712 1.466,3.164 0.562,2.907 -0.724,7.161 -3.973,1.291 L 9.927,46.703 8.673,44.021 7.999,40.6 0.617,41.376 0.669,44.862 0,47.746 l -3.575,6.248 -4.154,-0.436 -2.198,-6.855 -0.054,-2.96 0.775,-3.4 -7.06,-2.294 -1.37,3.206 -1.784,2.364 -5.807,4.253 -3.618,-2.088 0.78,-7.156 1.155,-2.727 2.091,-2.79 -5.516,-4.967 -2.557,2.371 -2.591,1.434 -7.035,1.524 -2.455,-3.38 3.623,-6.22 2.164,-2.021 3.045,-1.698 -3.019,-6.782 -3.3,1.127 -2.95,0.255 -7.046,-1.469 -0.869,-4.086 5.84,-4.208 2.799,-0.967 3.473,-0.312 0,-7.424 -3.473,-0.312 -2.799,-0.967 -5.84,-4.208 0.869,-4.086 7.046,-1.469 2.95,0.255 3.3,1.127 3.019,-6.782 -3.045,-1.698 -2.164,-2.021 -3.623,-6.22 2.455,-3.38 7.035,1.524 2.591,1.434 2.557,2.371 5.516,-4.967 -2.091,-2.79 -1.155,-2.727 -0.78,-7.156 3.618,-2.088 5.807,4.253 1.784,2.364 1.37,3.206 7.06,-2.294 -0.775,-3.4 0.054,-2.96 2.198,-6.855 4.154,-0.436 3.575,6.248 0.669,2.884 -0.052,3.486 7.382,0.776 0.674,-3.421 1.254,-2.682 4.796,-5.368 3.973,1.291 0.724,7.161 -0.562,2.907 -1.466,3.164 6.429,3.712 2.007,-2.851 2.237,-1.941 6.564,-2.953 3.105,2.795 -2.251,6.837 -1.697,2.427 -2.625,2.295 4.363,6.005 2.993,-1.788 2.833,-0.863 7.198,-0.028 1.699,3.816 -4.837,5.331 -2.537,1.527 -3.332,1.028 z"
             id="path1226" />
        </g>
        <text
           sodipodi:linespacing="125%"
           id="text1341"
           y="586.82367"
           x="1026.427"
           style="font-size:6px;font-style:normal;font-variant:normal;font-weight:bold;font-stretch:normal;text-align:start;line-height:125%;writing-mode:lr-tb;text-anchor:start;fill:#000000;fill-opacity:1;stroke:none;font-family:Sans;-inkscape-font-specification:Sans Bold"
           xml:space="preserve"
           transform="matrix(0.99655258,-0.08296361,0.08296361,0.99655258,0,0)"><tspan
             sodipodi:role="line"
             id="tspan1369"
             x="1026.427"
             y="586.82367">15</tspan></text>
      </g>
      <path
         transform="matrix(1.9481497,0,0,2.5325945,1558.8987,26.546824)"
         d="m 109.19857,61.166786 c 0,3.903476 -4.11371,7.067868 -9.18823,7.067868 -5.074521,0 -9.188231,-3.164392 -9.188231,-7.067868 0,-3.903476 4.11371,-7.067868 9.188231,-7.067868 5.07452,0 9.18823,3.164392 9.18823,7.067868 z"
         sodipodi:ry="7.0678682"
         sodipodi:rx="9.1882286"
         sodipodi:cy="61.166786"
         sodipodi:cx="100.01034"
         id="path1429"
         style="fill:none;stroke:#000000;stroke-width:0.04051805;stroke-miterlimit:4;stroke-opacity:1;stroke-dasharray:none;stroke-dashoffset:0"
         sodipodi:type="arc" />
    </g>
    <path
       sodipodi:type="arc"
       style="fill:none;stroke:#000000;stroke-width:0.04201427;stroke-miterlimit:4;stroke-opacity:1;stroke-dasharray:none;stroke-dashoffset:0"
       id="path1769"
       sodipodi:cx="96.126564"
       sodipodi:cy="117.07317"
       sodipodi:rx="4.4297957"
       sodipodi:ry="5.2050099"
       d="m 100.55636,117.07317 a 4.4297957,5.2050099 0 1 1 -8.859592,0 4.4297957,5.2050099 0 1 1 8.859592,0 z"
       transform="matrix(2.3220127,0,0,1.976181,-156.27943,375.32536)" />
    <g
       id="g4381"
       style="stroke-width:0.09;stroke-miterlimit:4;stroke-dasharray:none">
      <g
         inkscape:label="Gear18"
         transform="translate(66.927673,606.68314)"
         id="g4221"
         style="stroke-width:0.09;stroke-miterlimit:4;stroke-dasharray:none">
        <path
           inkscape:connector-curvature="0"
           style="fill:none;stroke:#000000;stroke-width:0.09;stroke-miterlimit:4;stroke-dasharray:none"
           d="m 50.664,-5.194 2.896,-0.297 3.518,0.497 6.547,2.825 0,4.338 -6.547,2.825 -3.518,0.497 -2.896,-0.297 -1.279,7.253 2.823,0.711 3.135,1.671 5.187,4.893 -1.484,4.078 -7.118,0.414 -3.477,-0.735 -2.619,-1.27 -3.682,6.378 2.409,1.634 2.375,2.643 3.2,6.372 -2.789,3.323 -6.831,-2.045 -3.015,-1.88 -2.027,-2.089 -5.641,4.734 1.704,2.359 1.329,3.296 0.827,7.082 -3.757,2.17 -5.72,-4.258 -2.19,-2.798 -1.191,-2.656 -6.92,2.518 0.795,2.8 0.121,3.551 -1.644,6.939 L 8.912,63.035 4.994,57.078 3.893,53.7 3.682,50.796 l -7.364,0 -0.211,2.904 -1.101,3.378 -3.918,5.957 -4.273,-0.753 -1.644,-6.939 0.121,-3.551 0.795,-2.8 -6.92,-2.518 -1.191,2.656 -2.19,2.798 -5.72,4.258 -3.757,-2.17 0.827,-7.082 1.329,-3.296 1.704,-2.359 -5.641,-4.734 -2.027,2.089 -3.015,1.88 -6.831,2.045 -2.789,-3.323 3.2,-6.372 2.375,-2.643 2.409,-1.634 -3.682,-6.378 -2.619,1.27 -3.477,0.735 -7.118,-0.414 -1.484,-4.078 5.187,-4.893 3.135,-1.671 2.823,-0.711 -1.279,-7.253 -2.896,0.297 -3.518,-0.497 -6.547,-2.825 0,-4.338 6.547,-2.825 3.518,-0.497 2.896,0.297 1.279,-7.253 -2.823,-0.711 -3.135,-1.671 -5.187,-4.893 1.484,-4.078 7.118,-0.414 3.477,0.735 2.619,1.27 3.682,-6.378 -2.409,-1.634 -2.375,-2.643 -3.2,-6.372 2.789,-3.323 6.831,2.045 3.015,1.88 2.027,2.089 5.641,-4.734 -1.704,-2.359 -1.329,-3.296 -0.827,-7.082 3.757,-2.17 5.72,4.258 2.19,2.798 1.191,2.656 6.92,-2.518 -0.795,-2.8 -0.121,-3.551 1.644,-6.939 4.273,-0.753 3.918,5.957 1.101,3.378 0.211,2.904 7.364,0 0.211,-2.904 1.101,-3.378 3.918,-5.957 4.273,0.753 1.644,6.939 -0.121,3.551 -0.795,2.8 6.92,2.518 1.191,-2.656 2.19,-2.798 5.72,-4.258 3.757,2.17 -0.827,7.082 -1.329,3.296 -1.704,2.359 5.641,4.734 2.027,-2.089 3.015,-1.88 6.831,-2.045 2.789,3.323 -3.2,6.372 -2.375,2.643 -2.409,1.634 3.682,6.378 2.619,-1.27 3.477,-0.735 7.118,0.414 1.484,4.078 -5.187,4.893 -3.135,1.671 -2.823,0.711 z"
           id="path4223" />
        <path
           style="fill:none;stroke:#000000;stroke-width:0.09;stroke-miterlimit:4;stroke-dasharray:none"
           sodipodi:type="arc"
           sodipodi:rx="17.9625"
           sodipodi:ry="17.9625"
           sodipodi:cy="0"
           sodipodi:cx="0"
           id="path4225"
           d="M 17.9625,0 C 17.9625,9.9204146 9.9204146,17.9625 0,17.9625 -9.9204146,17.9625 -17.9625,9.9204146 -17.9625,0 c 0,-9.9204146 8.0420854,-17.9625 17.9625,-17.9625 9.9204146,0 17.9625,8.0420854 17.9625,17.9625 z" />
      </g>
      <text
         transform="matrix(0,1,-1,0,0,0)"
         sodipodi:linespacing="125%"
         id="text4362"
         y="-118.93021"
         x="602.31641"
         style="font-size:6px;font-style:normal;font-variant:normal;font-weight:bold;font-stretch:normal;text-align:start;line-height:125%;writing-mode:lr-tb;text-anchor:start;fill:#000000;fill-opacity:1;stroke:none;font-family:Sans;-inkscape-font-specification:Sans Bold;stroke-width:0.09;stroke-miterlimit:4;stroke-dasharray:none"
         xml:space="preserve"><tspan
           id="tspan4377"
           y="-118.93021"
           x="602.31641"
           sodipodi:role="line">18</tspan></text>
    </g>
    <path
       sodipodi:type="arc"
       style="fill:none;stroke:#0000ff;stroke-width:0.09;stroke-miterlimit:4;stroke-opacity:1;stroke-dasharray:none"
       id="path4392"
       sodipodi:cx="-76.262741"
       sodipodi:cy="152.11821"
       sodipodi:rx="33.935093"
       sodipodi:ry="33.935093"
       d="m -42.327648,152.11821 a 33.935093,33.935093 0 1 1 -67.870182,0 33.935093,33.935093 0 1 1 67.870182,0 z"
       transform="translate(149.6853,553.26434)" />
    <path
       transform="translate(116.30625,833.17652)"
       d="m -42.327648,152.11821 a 33.935093,33.935093 0 1 1 -67.870182,0 33.935093,33.935093 0 1 1 67.870182,0 z"
       sodipodi:ry="33.935093"
       sodipodi:rx="33.935093"
       sodipodi:cy="152.11821"
       sodipodi:cx="-76.262741"
       id="path4394"
       style="fill:none;stroke:#0000ff;stroke-width:0.09;stroke-miterlimit:4;stroke-opacity:1;stroke-dasharray:none"
       sodipodi:type="arc" />
    <path
       sodipodi:type="arc"
       style="fill:none;stroke:#0000ff;stroke-width:0.09;stroke-miterlimit:4;stroke-opacity:1;stroke-dasharray:none"
       id="path4396"
       sodipodi:cx="-76.262741"
       sodipodi:cy="152.11821"
       sodipodi:rx="33.935093"
       sodipodi:ry="33.935093"
       d="m -42.327648,152.11821 a 33.935093,33.935093 0 1 1 -67.870182,0 33.935093,33.935093 0 1 1 67.870182,0 z"
       transform="translate(397.79035,662.68543)" />
  </g>
</svg>
