solid Default
  facet normal -1.000000e+00 -0.000000e+00 -0.000000e+00
    outer loop
      vertex -6.500000e+01 -5.150000e+01 0.000000e+00
      vertex -6.500000e+01 -5.150000e+01 1.200000e+01
      vertex -6.500000e+01 5.150000e+01 0.000000e+00
    endloop
  endfacet
  facet normal -1.000000e+00 0.000000e+00 0.000000e+00
    outer loop
      vertex -6.500000e+01 5.150000e+01 0.000000e+00
      vertex -6.500000e+01 -5.150000e+01 1.200000e+01
      vertex -6.500000e+01 5.150000e+01 1.200000e+01
    endloop
  endfacet
  facet normal -9.945220e-01 -1.045280e-01 -0.000000e+00
    outer loop
      vertex -6.500000e+01 -5.150000e+01 0.000000e+00
      vertex -6.470499e+01 -5.430680e+01 0.000000e+00
      vertex -6.500000e+01 -5.150000e+01 1.200000e+01
    endloop
  endfacet
  facet normal -9.945220e-01 -1.045280e-01 0.000000e+00
    outer loop
      vertex -6.500000e+01 -5.150000e+01 1.200000e+01
      vertex -6.470499e+01 -5.430680e+01 0.000000e+00
      vertex -6.470499e+01 -5.430680e+01 1.200000e+01
    endloop
  endfacet
  facet normal -0.000000e+00 -0.000000e+00 -1.000000e+00
    outer loop
      vertex -6.500000e+01 -5.150000e+01 0.000000e+00
      vertex -6.500000e+01 5.150000e+01 0.000000e+00
      vertex -6.470499e+01 -5.430680e+01 0.000000e+00
    endloop
  endfacet
  facet normal 0.000000e+00 0.000000e+00 -1.000000e+00
    outer loop
      vertex -6.470499e+01 -5.430680e+01 0.000000e+00
      vertex -6.500000e+01 5.150000e+01 0.000000e+00
      vertex -6.470499e+01 5.430700e+01 0.000000e+00
    endloop
  endfacet
  facet normal 0.000000e+00 0.000000e+00 -1.000000e+00
    outer loop
      vertex -6.470499e+01 -5.430680e+01 0.000000e+00
      vertex -6.470499e+01 5.430700e+01 0.000000e+00
      vertex -6.383286e+01 5.699100e+01 0.000000e+00
    endloop
  endfacet
  facet normal 0.000000e+00 0.000000e+00 -1.000000e+00
    outer loop
      vertex -6.470499e+01 -5.430680e+01 0.000000e+00
      vertex -6.383286e+01 5.699100e+01 0.000000e+00
      vertex -6.242173e+01 5.943500e+01 0.000000e+00
    endloop
  endfacet
  facet normal 0.000000e+00 0.000000e+00 -1.000000e+00
    outer loop
      vertex -6.470499e+01 -5.430680e+01 0.000000e+00
      vertex -6.242173e+01 5.943500e+01 0.000000e+00
      vertex -6.053326e+01 6.153200e+01 0.000000e+00
    endloop
  endfacet
  facet normal 0.000000e+00 0.000000e+00 -1.000000e+00
    outer loop
      vertex -6.470499e+01 -5.430680e+01 0.000000e+00
      vertex -6.053326e+01 6.153200e+01 0.000000e+00
      vertex -5.825000e+01 6.319099e+01 0.000000e+00
    endloop
  endfacet
  facet normal 0.000000e+00 0.000000e+00 -1.000000e+00
    outer loop
      vertex -6.470499e+01 -5.430680e+01 0.000000e+00
      vertex -5.825000e+01 6.319099e+01 0.000000e+00
      vertex -5.567173e+01 6.433900e+01 0.000000e+00
    endloop
  endfacet
  facet normal 0.000000e+00 0.000000e+00 -1.000000e+00
    outer loop
      vertex -6.470499e+01 -5.430680e+01 0.000000e+00
      vertex -5.567173e+01 6.433900e+01 0.000000e+00
      vertex -5.291110e+01 6.492599e+01 0.000000e+00
    endloop
  endfacet
  facet normal 0.000000e+00 0.000000e+00 -1.000000e+00
    outer loop
      vertex -6.470499e+01 -5.430680e+01 0.000000e+00
      vertex -5.291110e+01 6.492599e+01 0.000000e+00
      vertex -5.150000e+01 6.492599e+01 0.000000e+00
    endloop
  endfacet
  facet normal 0.000000e+00 0.000000e+00 -1.000000e+00
    outer loop
      vertex -5.150000e+01 6.492599e+01 0.000000e+00
      vertex -5.150000e+01 6.500000e+01 0.000000e+00
      vertex 5.150000e+01 6.500000e+01 0.000000e+00
    endloop
  endfacet
  facet normal 0.000000e+00 0.000000e+00 -1.000000e+00
    outer loop
      vertex -5.150000e+01 6.492599e+01 0.000000e+00
      vertex 5.150000e+01 6.500000e+01 0.000000e+00
      vertex -6.470499e+01 -5.430680e+01 0.000000e+00
    endloop
  endfacet
  facet normal 0.000000e+00 0.000000e+00 -1.000000e+00
    outer loop
      vertex -6.470499e+01 -5.430680e+01 0.000000e+00
      vertex 5.150000e+01 6.500000e+01 0.000000e+00
      vertex 5.150000e+01 6.492599e+01 0.000000e+00
    endloop
  endfacet
  facet normal 0.000000e+00 0.000000e+00 -1.000000e+00
    outer loop
      vertex -6.470499e+01 -5.430680e+01 0.000000e+00
      vertex 5.150000e+01 6.492599e+01 0.000000e+00
      vertex 5.291100e+01 6.492599e+01 0.000000e+00
    endloop
  endfacet
  facet normal 0.000000e+00 0.000000e+00 -1.000000e+00
    outer loop
      vertex -6.470499e+01 -5.430680e+01 0.000000e+00
      vertex 5.291100e+01 6.492599e+01 0.000000e+00
      vertex 5.567200e+01 6.433900e+01 0.000000e+00
    endloop
  endfacet
  facet normal 0.000000e+00 0.000000e+00 -1.000000e+00
    outer loop
      vertex -6.470499e+01 -5.430680e+01 0.000000e+00
      vertex 5.567200e+01 6.433900e+01 0.000000e+00
      vertex 5.825000e+01 6.319099e+01 0.000000e+00
    endloop
  endfacet
  facet normal 0.000000e+00 0.000000e+00 -1.000000e+00
    outer loop
      vertex -6.470499e+01 -5.430680e+01 0.000000e+00
      vertex 5.825000e+01 6.319099e+01 0.000000e+00
      vertex 6.053300e+01 6.153200e+01 0.000000e+00
    endloop
  endfacet
  facet normal 0.000000e+00 0.000000e+00 -1.000000e+00
    outer loop
      vertex -6.470499e+01 -5.430680e+01 0.000000e+00
      vertex 6.053300e+01 6.153200e+01 0.000000e+00
      vertex 6.242200e+01 5.943500e+01 0.000000e+00
    endloop
  endfacet
  facet normal 0.000000e+00 0.000000e+00 -1.000000e+00
    outer loop
      vertex -6.470499e+01 -5.430680e+01 0.000000e+00
      vertex 6.242200e+01 5.943500e+01 0.000000e+00
      vertex 6.383299e+01 5.699100e+01 0.000000e+00
    endloop
  endfacet
  facet normal 0.000000e+00 0.000000e+00 -1.000000e+00
    outer loop
      vertex -6.470499e+01 -5.430680e+01 0.000000e+00
      vertex 6.383299e+01 5.699100e+01 0.000000e+00
      vertex 6.470500e+01 5.430700e+01 0.000000e+00
    endloop
  endfacet
  facet normal 0.000000e+00 0.000000e+00 -1.000000e+00
    outer loop
      vertex -6.470499e+01 -5.430680e+01 0.000000e+00
      vertex 6.470500e+01 5.430700e+01 0.000000e+00
      vertex 6.500000e+01 5.150000e+01 0.000000e+00
    endloop
  endfacet
  facet normal 0.000000e+00 0.000000e+00 -1.000000e+00
    outer loop
      vertex -6.470499e+01 -5.430680e+01 0.000000e+00
      vertex 6.500000e+01 5.150000e+01 0.000000e+00
      vertex 6.500000e+01 -5.150000e+01 0.000000e+00
    endloop
  endfacet
  facet normal 0.000000e+00 0.000000e+00 -1.000000e+00
    outer loop
      vertex -6.470499e+01 -5.430680e+01 0.000000e+00
      vertex 6.500000e+01 -5.150000e+01 0.000000e+00
      vertex 6.470500e+01 -5.430680e+01 0.000000e+00
    endloop
  endfacet
  facet normal 0.000000e+00 0.000000e+00 -1.000000e+00
    outer loop
      vertex -6.470499e+01 -5.430680e+01 0.000000e+00
      vertex 6.470500e+01 -5.430680e+01 0.000000e+00
      vertex 6.383299e+01 -5.699094e+01 0.000000e+00
    endloop
  endfacet
  facet normal 0.000000e+00 0.000000e+00 -1.000000e+00
    outer loop
      vertex -6.470499e+01 -5.430680e+01 0.000000e+00
      vertex 6.383299e+01 -5.699094e+01 0.000000e+00
      vertex 6.242200e+01 -5.943510e+01 0.000000e+00
    endloop
  endfacet
  facet normal 0.000000e+00 0.000000e+00 -1.000000e+00
    outer loop
      vertex -6.470499e+01 -5.430680e+01 0.000000e+00
      vertex 6.242200e+01 -5.943510e+01 0.000000e+00
      vertex 6.053300e+01 -6.153245e+01 0.000000e+00
    endloop
  endfacet
  facet normal 0.000000e+00 0.000000e+00 -1.000000e+00
    outer loop
      vertex -6.470499e+01 -5.430680e+01 0.000000e+00
      vertex 6.053300e+01 -6.153245e+01 0.000000e+00
      vertex 5.825000e+01 -6.319134e+01 0.000000e+00
    endloop
  endfacet
  facet normal 0.000000e+00 0.000000e+00 -1.000000e+00
    outer loop
      vertex -6.470499e+01 -5.430680e+01 0.000000e+00
      vertex 5.825000e+01 -6.319134e+01 0.000000e+00
      vertex 5.567200e+01 -6.433926e+01 0.000000e+00
    endloop
  endfacet
  facet normal 0.000000e+00 0.000000e+00 -1.000000e+00
    outer loop
      vertex -6.470499e+01 -5.430680e+01 0.000000e+00
      vertex 5.567200e+01 -6.433926e+01 0.000000e+00
      vertex 5.291100e+01 -6.492605e+01 0.000000e+00
    endloop
  endfacet
  facet normal 0.000000e+00 0.000000e+00 -1.000000e+00
    outer loop
      vertex -6.470499e+01 -5.430680e+01 0.000000e+00
      vertex 5.291100e+01 -6.492605e+01 0.000000e+00
      vertex 5.150000e+01 -6.492605e+01 0.000000e+00
    endloop
  endfacet
  facet normal 0.000000e+00 0.000000e+00 -1.000000e+00
    outer loop
      vertex -6.470499e+01 -5.430680e+01 0.000000e+00
      vertex 5.150000e+01 -6.492605e+01 0.000000e+00
      vertex 5.150000e+01 -6.500000e+01 0.000000e+00
    endloop
  endfacet
  facet normal 0.000000e+00 0.000000e+00 -1.000000e+00
    outer loop
      vertex -5.150000e+01 -6.492605e+01 0.000000e+00
      vertex 5.150000e+01 -6.500000e+01 0.000000e+00
      vertex -5.150000e+01 -6.500000e+01 0.000000e+00
    endloop
  endfacet
  facet normal 0.000000e+00 0.000000e+00 -1.000000e+00
    outer loop
      vertex -6.470499e+01 -5.430680e+01 0.000000e+00
      vertex 5.150000e+01 -6.500000e+01 0.000000e+00
      vertex -5.150000e+01 -6.492605e+01 0.000000e+00
    endloop
  endfacet
  facet normal 0.000000e+00 0.000000e+00 -1.000000e+00
    outer loop
      vertex -6.470499e+01 -5.430680e+01 0.000000e+00
      vertex -5.291110e+01 -6.492605e+01 0.000000e+00
      vertex -5.567173e+01 -6.433926e+01 0.000000e+00
    endloop
  endfacet
  facet normal 0.000000e+00 0.000000e+00 -1.000000e+00
    outer loop
      vertex -6.470499e+01 -5.430680e+01 0.000000e+00
      vertex -5.567173e+01 -6.433926e+01 0.000000e+00
      vertex -5.825000e+01 -6.319134e+01 0.000000e+00
    endloop
  endfacet
  facet normal 0.000000e+00 0.000000e+00 -1.000000e+00
    outer loop
      vertex -6.470499e+01 -5.430680e+01 0.000000e+00
      vertex -5.825000e+01 -6.319134e+01 0.000000e+00
      vertex -6.053326e+01 -6.153245e+01 0.000000e+00
    endloop
  endfacet
  facet normal 0.000000e+00 0.000000e+00 -1.000000e+00
    outer loop
      vertex -6.470499e+01 -5.430680e+01 0.000000e+00
      vertex -6.053326e+01 -6.153245e+01 0.000000e+00
      vertex -6.242173e+01 -5.943510e+01 0.000000e+00
    endloop
  endfacet
  facet normal 0.000000e+00 0.000000e+00 -1.000000e+00
    outer loop
      vertex -6.470499e+01 -5.430680e+01 0.000000e+00
      vertex -6.242173e+01 -5.943510e+01 0.000000e+00
      vertex -6.383286e+01 -5.699094e+01 0.000000e+00
    endloop
  endfacet
  facet normal -0.000000e+00 -0.000000e+00 -1.000000e+00
    outer loop
      vertex -5.291110e+01 -6.492605e+01 0.000000e+00
      vertex -6.470499e+01 -5.430680e+01 0.000000e+00
      vertex -5.150000e+01 -6.492605e+01 0.000000e+00
    endloop
  endfacet
  facet normal -9.945220e-01 1.045280e-01 0.000000e+00
    outer loop
      vertex -6.500000e+01 5.150000e+01 0.000000e+00
      vertex -6.500000e+01 5.150000e+01 1.200000e+01
      vertex -6.470499e+01 5.430700e+01 0.000000e+00
    endloop
  endfacet
  facet normal -9.945220e-01 1.045280e-01 0.000000e+00
    outer loop
      vertex -6.470499e+01 5.430700e+01 0.000000e+00
      vertex -6.500000e+01 5.150000e+01 1.200000e+01
      vertex -6.470499e+01 5.430700e+01 1.200000e+01
    endloop
  endfacet
  facet normal 0.000000e+00 0.000000e+00 1.000000e+00
    outer loop
      vertex -6.500000e+01 5.150000e+01 1.200000e+01
      vertex -6.500000e+01 -5.150000e+01 1.200000e+01
      vertex -6.470499e+01 -5.430680e+01 1.200000e+01
    endloop
  endfacet
  facet normal 0.000000e+00 0.000000e+00 1.000000e+00
    outer loop
      vertex -6.380000e+01 -5.150000e+01 1.200000e+01
      vertex -6.500000e+01 5.150000e+01 1.200000e+01
      vertex -6.383286e+01 -5.699094e+01 1.200000e+01
    endloop
  endfacet
  facet normal 0.000000e+00 0.000000e+00 1.000000e+00
    outer loop
      vertex -6.383286e+01 -5.699094e+01 1.200000e+01
      vertex -6.500000e+01 5.150000e+01 1.200000e+01
      vertex -6.470499e+01 -5.430680e+01 1.200000e+01
    endloop
  endfacet
  facet normal 0.000000e+00 0.000000e+00 1.000000e+00
    outer loop
      vertex -6.380000e+01 -5.999985e-01 1.200000e+01
      vertex -3.280000e+01 -5.999985e-01 1.200000e+01
      vertex -6.380000e+01 5.999985e-01 1.200000e+01
    endloop
  endfacet
  facet normal 0.000000e+00 0.000000e+00 1.000000e+00
    outer loop
      vertex 3.280000e+01 -6.380000e+01 1.200000e+01
      vertex 3.280000e+01 -5.999985e-01 1.200000e+01
      vertex 3.160000e+01 -5.999985e-01 1.200000e+01
    endloop
  endfacet
  facet normal 0.000000e+00 0.000000e+00 1.000000e+00
    outer loop
      vertex -3.160000e+01 -6.380000e+01 1.200000e+01
      vertex -3.160000e+01 -5.999985e-01 1.200000e+01
      vertex -3.280000e+01 -5.999985e-01 1.200000e+01
    endloop
  endfacet
  facet normal 0.000000e+00 0.000000e+00 1.000000e+00
    outer loop
      vertex 5.150000e+01 -6.500000e+01 1.200000e+01
      vertex -5.150000e+01 -6.492605e+01 1.200000e+01
      vertex -5.150000e+01 -6.500000e+01 1.200000e+01
    endloop
  endfacet
  facet normal 0.000000e+00 0.000000e+00 1.000000e+00
    outer loop
      vertex 6.380000e+01 5.150000e+01 1.200000e+01
      vertex 6.380000e+01 5.999985e-01 1.200000e+01
      vertex 6.500000e+01 5.150000e+01 1.200000e+01
    endloop
  endfacet
  facet normal 0.000000e+00 0.000000e+00 1.000000e+00
    outer loop
      vertex 6.380000e+01 5.999985e-01 1.200000e+01
      vertex 3.280000e+01 5.999985e-01 1.200000e+01
      vertex 3.280000e+01 -5.999985e-01 1.200000e+01
    endloop
  endfacet
  facet normal 0.000000e+00 0.000000e+00 1.000000e+00
    outer loop
      vertex 5.999985e-01 -6.380000e+01 1.200000e+01
      vertex 5.999985e-01 -5.999985e-01 1.200000e+01
      vertex -5.999985e-01 -5.999985e-01 1.200000e+01
    endloop
  endfacet
  facet normal 0.000000e+00 0.000000e+00 1.000000e+00
    outer loop
      vertex 3.280000e+01 6.380000e+01 1.200000e+01
      vertex 5.291100e+01 6.492599e+01 1.200000e+01
      vertex 5.150000e+01 6.492599e+01 1.200000e+01
    endloop
  endfacet
  facet normal 0.000000e+00 0.000000e+00 1.000000e+00
    outer loop
      vertex 6.380000e+01 -5.150000e+01 1.200000e+01
      vertex 5.825000e+01 -6.319134e+01 1.200000e+01
      vertex 6.053300e+01 -6.153245e+01 1.200000e+01
    endloop
  endfacet
  facet normal 0.000000e+00 0.000000e+00 1.000000e+00
    outer loop
      vertex 5.150000e+01 -6.380000e+01 1.200000e+01
      vertex 3.280000e+01 -6.380000e+01 1.200000e+01
      vertex 5.150000e+01 -6.492605e+01 1.200000e+01
    endloop
  endfacet
  facet normal 0.000000e+00 0.000000e+00 1.000000e+00
    outer loop
      vertex -5.999985e-01 5.999985e-01 1.200000e+01
      vertex -5.999985e-01 -5.999985e-01 1.200000e+01
      vertex 5.999985e-01 -5.999985e-01 1.200000e+01
    endloop
  endfacet
  facet normal 0.000000e+00 0.000000e+00 1.000000e+00
    outer loop
      vertex -5.999985e-01 6.380000e+01 1.200000e+01
      vertex -5.999985e-01 5.999985e-01 1.200000e+01
      vertex 5.999985e-01 5.999985e-01 1.200000e+01
    endloop
  endfacet
  facet normal 0.000000e+00 0.000000e+00 1.000000e+00
    outer loop
      vertex 6.380000e+01 -5.999985e-01 1.200000e+01
      vertex 6.380000e+01 -5.150000e+01 1.200000e+01
      vertex 6.500000e+01 -5.150000e+01 1.200000e+01
    endloop
  endfacet
  facet normal 0.000000e+00 0.000000e+00 1.000000e+00
    outer loop
      vertex 5.150000e+01 6.380000e+01 1.200000e+01
      vertex 6.380000e+01 5.150000e+01 1.200000e+01
      vertex 6.500000e+01 5.150000e+01 1.200000e+01
    endloop
  endfacet
  facet normal 0.000000e+00 0.000000e+00 1.000000e+00
    outer loop
      vertex 5.150000e+01 6.380000e+01 1.200000e+01
      vertex 6.500000e+01 5.150000e+01 1.200000e+01
      vertex 6.470500e+01 5.430700e+01 1.200000e+01
    endloop
  endfacet
  facet normal 0.000000e+00 0.000000e+00 1.000000e+00
    outer loop
      vertex -6.380000e+01 -5.999985e-01 1.200000e+01
      vertex -6.380000e+01 5.999985e-01 1.200000e+01
      vertex -6.500000e+01 5.150000e+01 1.200000e+01
    endloop
  endfacet
  facet normal 0.000000e+00 0.000000e+00 1.000000e+00
    outer loop
      vertex -5.150000e+01 6.500000e+01 1.200000e+01
      vertex -5.150000e+01 6.492599e+01 1.200000e+01
      vertex 5.150000e+01 6.500000e+01 1.200000e+01
    endloop
  endfacet
  facet normal 0.000000e+00 0.000000e+00 1.000000e+00
    outer loop
      vertex -3.280000e+01 -6.380000e+01 1.200000e+01
      vertex -5.150000e+01 -6.380000e+01 1.200000e+01
      vertex -5.150000e+01 -6.492605e+01 1.200000e+01
    endloop
  endfacet
  facet normal 0.000000e+00 0.000000e+00 1.000000e+00
    outer loop
      vertex -5.567173e+01 6.433900e+01 1.200000e+01
      vertex -6.500000e+01 5.150000e+01 1.200000e+01
      vertex -5.291110e+01 6.492599e+01 1.200000e+01
    endloop
  endfacet
  facet normal 0.000000e+00 0.000000e+00 1.000000e+00
    outer loop
      vertex -5.825000e+01 6.319099e+01 1.200000e+01
      vertex -6.500000e+01 5.150000e+01 1.200000e+01
      vertex -5.567173e+01 6.433900e+01 1.200000e+01
    endloop
  endfacet
  facet normal 0.000000e+00 0.000000e+00 1.000000e+00
    outer loop
      vertex -6.053326e+01 6.153200e+01 1.200000e+01
      vertex -6.500000e+01 5.150000e+01 1.200000e+01
      vertex -5.825000e+01 6.319099e+01 1.200000e+01
    endloop
  endfacet
  facet normal 0.000000e+00 0.000000e+00 1.000000e+00
    outer loop
      vertex -6.242173e+01 5.943500e+01 1.200000e+01
      vertex -6.500000e+01 5.150000e+01 1.200000e+01
      vertex -6.053326e+01 6.153200e+01 1.200000e+01
    endloop
  endfacet
  facet normal 0.000000e+00 0.000000e+00 1.000000e+00
    outer loop
      vertex -6.383286e+01 5.699100e+01 1.200000e+01
      vertex -6.500000e+01 5.150000e+01 1.200000e+01
      vertex -6.242173e+01 5.943500e+01 1.200000e+01
    endloop
  endfacet
  facet normal 0.000000e+00 0.000000e+00 1.000000e+00
    outer loop
      vertex -6.470499e+01 5.430700e+01 1.200000e+01
      vertex -6.500000e+01 5.150000e+01 1.200000e+01
      vertex -6.383286e+01 5.699100e+01 1.200000e+01
    endloop
  endfacet
  facet normal 0.000000e+00 0.000000e+00 1.000000e+00
    outer loop
      vertex -6.242173e+01 -5.943510e+01 1.200000e+01
      vertex -6.380000e+01 -5.150000e+01 1.200000e+01
      vertex -6.383286e+01 -5.699094e+01 1.200000e+01
    endloop
  endfacet
  facet normal 0.000000e+00 0.000000e+00 1.000000e+00
    outer loop
      vertex -6.380000e+01 -5.999985e-01 1.200000e+01
      vertex -6.500000e+01 5.150000e+01 1.200000e+01
      vertex -6.380000e+01 -5.150000e+01 1.200000e+01
    endloop
  endfacet
  facet normal 0.000000e+00 0.000000e+00 1.000000e+00
    outer loop
      vertex 6.380000e+01 -5.150000e+01 1.200000e+01
      vertex 6.242200e+01 -5.943510e+01 1.200000e+01
      vertex 6.383299e+01 -5.699094e+01 1.200000e+01
    endloop
  endfacet
  facet normal 0.000000e+00 0.000000e+00 1.000000e+00
    outer loop
      vertex -3.280000e+01 5.999985e-01 1.200000e+01
      vertex -6.380000e+01 5.999985e-01 1.200000e+01
      vertex -3.280000e+01 -5.999985e-01 1.200000e+01
    endloop
  endfacet
  facet normal 0.000000e+00 0.000000e+00 1.000000e+00
    outer loop
      vertex 5.150000e+01 -6.500000e+01 1.200000e+01
      vertex -3.280000e+01 -6.380000e+01 1.200000e+01
      vertex -5.150000e+01 -6.492605e+01 1.200000e+01
    endloop
  endfacet
  facet normal 0.000000e+00 0.000000e+00 1.000000e+00
    outer loop
      vertex -3.160000e+01 -6.380000e+01 1.200000e+01
      vertex -3.280000e+01 -5.999985e-01 1.200000e+01
      vertex -3.280000e+01 -6.380000e+01 1.200000e+01
    endloop
  endfacet
  facet normal 0.000000e+00 0.000000e+00 1.000000e+00
    outer loop
      vertex -6.380000e+01 5.150000e+01 1.200000e+01
      vertex -5.150000e+01 6.380000e+01 1.200000e+01
      vertex -6.500000e+01 5.150000e+01 1.200000e+01
    endloop
  endfacet
  facet normal 0.000000e+00 0.000000e+00 1.000000e+00
    outer loop
      vertex 6.380000e+01 -5.150000e+01 1.200000e+01
      vertex 6.053300e+01 -6.153245e+01 1.200000e+01
      vertex 6.242200e+01 -5.943510e+01 1.200000e+01
    endloop
  endfacet
  facet normal 0.000000e+00 0.000000e+00 1.000000e+00
    outer loop
      vertex 6.380000e+01 -5.150000e+01 1.200000e+01
      vertex 5.567200e+01 -6.433926e+01 1.200000e+01
      vertex 5.825000e+01 -6.319134e+01 1.200000e+01
    endloop
  endfacet
  facet normal 0.000000e+00 0.000000e+00 1.000000e+00
    outer loop
      vertex -5.150000e+01 6.492599e+01 1.200000e+01
      vertex -5.150000e+01 6.380000e+01 1.200000e+01
      vertex 5.150000e+01 6.500000e+01 1.200000e+01
    endloop
  endfacet
  facet normal 0.000000e+00 0.000000e+00 1.000000e+00
    outer loop
      vertex -5.150000e+01 6.492599e+01 1.200000e+01
      vertex -6.500000e+01 5.150000e+01 1.200000e+01
      vertex -5.150000e+01 6.380000e+01 1.200000e+01
    endloop
  endfacet
  facet normal 0.000000e+00 0.000000e+00 1.000000e+00
    outer loop
      vertex -5.150000e+01 6.380000e+01 1.200000e+01
      vertex -3.280000e+01 6.380000e+01 1.200000e+01
      vertex 5.150000e+01 6.500000e+01 1.200000e+01
    endloop
  endfacet
  facet normal 0.000000e+00 0.000000e+00 1.000000e+00
    outer loop
      vertex -3.160000e+01 -5.999985e-01 1.200000e+01
      vertex -3.280000e+01 5.999985e-01 1.200000e+01
      vertex -3.280000e+01 -5.999985e-01 1.200000e+01
    endloop
  endfacet
  facet normal 0.000000e+00 0.000000e+00 1.000000e+00
    outer loop
      vertex 5.150000e+01 -6.500000e+01 1.200000e+01
      vertex -3.160000e+01 -6.380000e+01 1.200000e+01
      vertex -3.280000e+01 -6.380000e+01 1.200000e+01
    endloop
  endfacet
  facet normal 0.000000e+00 0.000000e+00 1.000000e+00
    outer loop
      vertex 5.999985e-01 5.999985e-01 1.200000e+01
      vertex 5.999985e-01 6.380000e+01 1.200000e+01
      vertex -5.999985e-01 6.380000e+01 1.200000e+01
    endloop
  endfacet
  facet normal 0.000000e+00 0.000000e+00 1.000000e+00
    outer loop
      vertex 3.160000e+01 -5.999985e-01 1.200000e+01
      vertex 3.160000e+01 -6.380000e+01 1.200000e+01
      vertex 3.280000e+01 -6.380000e+01 1.200000e+01
    endloop
  endfacet
  facet normal 0.000000e+00 0.000000e+00 1.000000e+00
    outer loop
      vertex 5.999985e-01 -5.999985e-01 1.200000e+01
      vertex 3.160000e+01 -5.999985e-01 1.200000e+01
      vertex 5.999985e-01 5.999985e-01 1.200000e+01
    endloop
  endfacet
  facet normal 0.000000e+00 0.000000e+00 1.000000e+00
    outer loop
      vertex 3.280000e+01 6.380000e+01 1.200000e+01
      vertex 5.150000e+01 6.380000e+01 1.200000e+01
      vertex 5.567200e+01 6.433900e+01 1.200000e+01
    endloop
  endfacet
  facet normal 0.000000e+00 0.000000e+00 1.000000e+00
    outer loop
      vertex 5.150000e+01 -6.500000e+01 1.200000e+01
      vertex -5.999985e-01 -6.380000e+01 1.200000e+01
      vertex -3.160000e+01 -6.380000e+01 1.200000e+01
    endloop
  endfacet
  facet normal 0.000000e+00 0.000000e+00 1.000000e+00
    outer loop
      vertex -5.999985e-01 -5.999985e-01 1.200000e+01
      vertex -5.999985e-01 -6.380000e+01 1.200000e+01
      vertex 5.999985e-01 -6.380000e+01 1.200000e+01
    endloop
  endfacet
  facet normal 0.000000e+00 0.000000e+00 1.000000e+00
    outer loop
      vertex -3.280000e+01 6.380000e+01 1.200000e+01
      vertex -3.160000e+01 6.380000e+01 1.200000e+01
      vertex 5.150000e+01 6.500000e+01 1.200000e+01
    endloop
  endfacet
  facet normal 0.000000e+00 0.000000e+00 1.000000e+00
    outer loop
      vertex -3.160000e+01 6.380000e+01 1.200000e+01
      vertex -5.999985e-01 6.380000e+01 1.200000e+01
      vertex 5.150000e+01 6.500000e+01 1.200000e+01
    endloop
  endfacet
  facet normal 0.000000e+00 0.000000e+00 1.000000e+00
    outer loop
      vertex 5.150000e+01 6.380000e+01 1.200000e+01
      vertex 6.053300e+01 6.153200e+01 1.200000e+01
      vertex 5.825000e+01 6.319099e+01 1.200000e+01
    endloop
  endfacet
  facet normal 0.000000e+00 0.000000e+00 1.000000e+00
    outer loop
      vertex 3.280000e+01 6.380000e+01 1.200000e+01
      vertex 5.150000e+01 6.492599e+01 1.200000e+01
      vertex 5.150000e+01 6.500000e+01 1.200000e+01
    endloop
  endfacet
  facet normal 0.000000e+00 0.000000e+00 1.000000e+00
    outer loop
      vertex 5.150000e+01 -6.500000e+01 1.200000e+01
      vertex 5.999985e-01 -6.380000e+01 1.200000e+01
      vertex -5.999985e-01 -6.380000e+01 1.200000e+01
    endloop
  endfacet
  facet normal 0.000000e+00 0.000000e+00 1.000000e+00
    outer loop
      vertex 3.280000e+01 6.380000e+01 1.200000e+01
      vertex 5.567200e+01 6.433900e+01 1.200000e+01
      vertex 5.291100e+01 6.492599e+01 1.200000e+01
    endloop
  endfacet
  facet normal 0.000000e+00 0.000000e+00 1.000000e+00
    outer loop
      vertex 5.150000e+01 -6.500000e+01 1.200000e+01
      vertex 3.160000e+01 -6.380000e+01 1.200000e+01
      vertex 5.999985e-01 -6.380000e+01 1.200000e+01
    endloop
  endfacet
  facet normal 0.000000e+00 0.000000e+00 1.000000e+00
    outer loop
      vertex -3.160000e+01 -5.999985e-01 1.200000e+01
      vertex -5.999985e-01 -5.999985e-01 1.200000e+01
      vertex -3.160000e+01 5.999985e-01 1.200000e+01
    endloop
  endfacet
  facet normal 0.000000e+00 0.000000e+00 1.000000e+00
    outer loop
      vertex -5.999985e-01 6.380000e+01 1.200000e+01
      vertex 5.999985e-01 6.380000e+01 1.200000e+01
      vertex 5.150000e+01 6.500000e+01 1.200000e+01
    endloop
  endfacet
  facet normal 0.000000e+00 0.000000e+00 1.000000e+00
    outer loop
      vertex 5.150000e+01 6.380000e+01 1.200000e+01
      vertex 6.242200e+01 5.943500e+01 1.200000e+01
      vertex 6.053300e+01 6.153200e+01 1.200000e+01
    endloop
  endfacet
  facet normal 0.000000e+00 0.000000e+00 1.000000e+00
    outer loop
      vertex 5.999985e-01 6.380000e+01 1.200000e+01
      vertex 3.160000e+01 6.380000e+01 1.200000e+01
      vertex 5.150000e+01 6.500000e+01 1.200000e+01
    endloop
  endfacet
  facet normal 0.000000e+00 0.000000e+00 1.000000e+00
    outer loop
      vertex 5.150000e+01 6.380000e+01 1.200000e+01
      vertex 6.383299e+01 5.699100e+01 1.200000e+01
      vertex 6.242200e+01 5.943500e+01 1.200000e+01
    endloop
  endfacet
  facet normal 0.000000e+00 0.000000e+00 1.000000e+00
    outer loop
      vertex 5.150000e+01 -6.500000e+01 1.200000e+01
      vertex 3.280000e+01 -6.380000e+01 1.200000e+01
      vertex 3.160000e+01 -6.380000e+01 1.200000e+01
    endloop
  endfacet
  facet normal 0.000000e+00 0.000000e+00 1.000000e+00
    outer loop
      vertex -3.160000e+01 -5.999985e-01 1.200000e+01
      vertex -3.160000e+01 5.999985e-01 1.200000e+01
      vertex -3.280000e+01 5.999985e-01 1.200000e+01
    endloop
  endfacet
  facet normal 0.000000e+00 0.000000e+00 1.000000e+00
    outer loop
      vertex 6.380000e+01 -5.150000e+01 1.200000e+01
      vertex 6.383299e+01 -5.699094e+01 1.200000e+01
      vertex 6.470500e+01 -5.430680e+01 1.200000e+01
    endloop
  endfacet
  facet normal 0.000000e+00 0.000000e+00 1.000000e+00
    outer loop
      vertex 3.280000e+01 5.999985e-01 1.200000e+01
      vertex 3.160000e+01 -5.999985e-01 1.200000e+01
      vertex 3.280000e+01 -5.999985e-01 1.200000e+01
    endloop
  endfacet
  facet normal 0.000000e+00 0.000000e+00 1.000000e+00
    outer loop
      vertex 6.500000e+01 5.150000e+01 1.200000e+01
      vertex 6.380000e+01 -5.999985e-01 1.200000e+01
      vertex 6.500000e+01 -5.150000e+01 1.200000e+01
    endloop
  endfacet
  facet normal 0.000000e+00 0.000000e+00 1.000000e+00
    outer loop
      vertex 6.380000e+01 5.999985e-01 1.200000e+01
      vertex 3.280000e+01 -5.999985e-01 1.200000e+01
      vertex 6.380000e+01 -5.999985e-01 1.200000e+01
    endloop
  endfacet
  facet normal 0.000000e+00 0.000000e+00 1.000000e+00
    outer loop
      vertex 6.500000e+01 -5.150000e+01 1.200000e+01
      vertex 6.380000e+01 -5.150000e+01 1.200000e+01
      vertex 6.470500e+01 -5.430680e+01 1.200000e+01
    endloop
  endfacet
  facet normal 0.000000e+00 0.000000e+00 1.000000e+00
    outer loop
      vertex 5.999985e-01 -5.999985e-01 1.200000e+01
      vertex 5.999985e-01 5.999985e-01 1.200000e+01
      vertex -5.999985e-01 5.999985e-01 1.200000e+01
    endloop
  endfacet
  facet normal 0.000000e+00 0.000000e+00 1.000000e+00
    outer loop
      vertex 5.291100e+01 -6.492605e+01 1.200000e+01
      vertex 5.150000e+01 -6.380000e+01 1.200000e+01
      vertex 5.150000e+01 -6.492605e+01 1.200000e+01
    endloop
  endfacet
  facet normal 0.000000e+00 0.000000e+00 1.000000e+00
    outer loop
      vertex 3.160000e+01 6.380000e+01 1.200000e+01
      vertex 3.280000e+01 6.380000e+01 1.200000e+01
      vertex 5.150000e+01 6.500000e+01 1.200000e+01
    endloop
  endfacet
  facet normal 0.000000e+00 0.000000e+00 1.000000e+00
    outer loop
      vertex 5.150000e+01 6.380000e+01 1.200000e+01
      vertex 6.470500e+01 5.430700e+01 1.200000e+01
      vertex 6.383299e+01 5.699100e+01 1.200000e+01
    endloop
  endfacet
  facet normal 0.000000e+00 0.000000e+00 1.000000e+00
    outer loop
      vertex 5.567200e+01 6.433900e+01 1.200000e+01
      vertex 5.150000e+01 6.380000e+01 1.200000e+01
      vertex 5.825000e+01 6.319099e+01 1.200000e+01
    endloop
  endfacet
  facet normal 0.000000e+00 0.000000e+00 1.000000e+00
    outer loop
      vertex 6.500000e+01 5.150000e+01 1.200000e+01
      vertex 6.380000e+01 5.999985e-01 1.200000e+01
      vertex 6.380000e+01 -5.999985e-01 1.200000e+01
    endloop
  endfacet
  facet normal 0.000000e+00 0.000000e+00 1.000000e+00
    outer loop
      vertex -5.150000e+01 6.492599e+01 1.200000e+01
      vertex -5.291110e+01 6.492599e+01 1.200000e+01
      vertex -6.500000e+01 5.150000e+01 1.200000e+01
    endloop
  endfacet
  facet normal 0.000000e+00 0.000000e+00 1.000000e+00
    outer loop
      vertex -3.160000e+01 5.999985e-01 1.200000e+01
      vertex -3.160000e+01 6.380000e+01 1.200000e+01
      vertex -3.280000e+01 6.380000e+01 1.200000e+01
    endloop
  endfacet
  facet normal 0.000000e+00 0.000000e+00 1.000000e+00
    outer loop
      vertex -5.150000e+01 -6.380000e+01 1.200000e+01
      vertex -5.291110e+01 -6.492605e+01 1.200000e+01
      vertex -5.150000e+01 -6.492605e+01 1.200000e+01
    endloop
  endfacet
  facet normal 0.000000e+00 0.000000e+00 1.000000e+00
    outer loop
      vertex -5.150000e+01 -6.380000e+01 1.200000e+01
      vertex -5.567173e+01 -6.433926e+01 1.200000e+01
      vertex -5.291110e+01 -6.492605e+01 1.200000e+01
    endloop
  endfacet
  facet normal 0.000000e+00 0.000000e+00 1.000000e+00
    outer loop
      vertex -5.150000e+01 -6.380000e+01 1.200000e+01
      vertex -5.825000e+01 -6.319134e+01 1.200000e+01
      vertex -5.567173e+01 -6.433926e+01 1.200000e+01
    endloop
  endfacet
  facet normal 0.000000e+00 0.000000e+00 1.000000e+00
    outer loop
      vertex -5.150000e+01 -6.380000e+01 1.200000e+01
      vertex -6.053326e+01 -6.153245e+01 1.200000e+01
      vertex -5.825000e+01 -6.319134e+01 1.200000e+01
    endloop
  endfacet
  facet normal 0.000000e+00 0.000000e+00 1.000000e+00
    outer loop
      vertex -5.150000e+01 -6.380000e+01 1.200000e+01
      vertex -6.242173e+01 -5.943510e+01 1.200000e+01
      vertex -6.053326e+01 -6.153245e+01 1.200000e+01
    endloop
  endfacet
  facet normal 0.000000e+00 0.000000e+00 1.000000e+00
    outer loop
      vertex -5.150000e+01 -6.380000e+01 1.200000e+01
      vertex -6.380000e+01 -5.150000e+01 1.200000e+01
      vertex -6.242173e+01 -5.943510e+01 1.200000e+01
    endloop
  endfacet
  facet normal 0.000000e+00 0.000000e+00 1.000000e+00
    outer loop
      vertex 3.160000e+01 5.999985e-01 1.200000e+01
      vertex 5.999985e-01 5.999985e-01 1.200000e+01
      vertex 3.160000e+01 -5.999985e-01 1.200000e+01
    endloop
  endfacet
  facet normal 0.000000e+00 0.000000e+00 1.000000e+00
    outer loop
      vertex -5.999985e-01 5.999985e-01 1.200000e+01
      vertex -3.160000e+01 5.999985e-01 1.200000e+01
      vertex -5.999985e-01 -5.999985e-01 1.200000e+01
    endloop
  endfacet
  facet normal 0.000000e+00 0.000000e+00 1.000000e+00
    outer loop
      vertex 5.150000e+01 -6.492605e+01 1.200000e+01
      vertex 3.280000e+01 -6.380000e+01 1.200000e+01
      vertex 5.150000e+01 -6.500000e+01 1.200000e+01
    endloop
  endfacet
  facet normal 0.000000e+00 0.000000e+00 1.000000e+00
    outer loop
      vertex 3.280000e+01 5.999985e-01 1.200000e+01
      vertex 3.280000e+01 6.380000e+01 1.200000e+01
      vertex 3.160000e+01 6.380000e+01 1.200000e+01
    endloop
  endfacet
  facet normal 0.000000e+00 0.000000e+00 1.000000e+00
    outer loop
      vertex -6.380000e+01 5.999985e-01 1.200000e+01
      vertex -6.380000e+01 5.150000e+01 1.200000e+01
      vertex -6.500000e+01 5.150000e+01 1.200000e+01
    endloop
  endfacet
  facet normal 0.000000e+00 0.000000e+00 1.000000e+00
    outer loop
      vertex 6.380000e+01 -5.150000e+01 1.200000e+01
      vertex 5.291100e+01 -6.492605e+01 1.200000e+01
      vertex 5.567200e+01 -6.433926e+01 1.200000e+01
    endloop
  endfacet
  facet normal 0.000000e+00 0.000000e+00 1.000000e+00
    outer loop
      vertex 6.380000e+01 -5.150000e+01 1.200000e+01
      vertex 5.150000e+01 -6.380000e+01 1.200000e+01
      vertex 5.291100e+01 -6.492605e+01 1.200000e+01
    endloop
  endfacet
  facet normal 0.000000e+00 0.000000e+00 1.000000e+00
    outer loop
      vertex 3.280000e+01 5.999985e-01 1.200000e+01
      vertex 3.160000e+01 5.999985e-01 1.200000e+01
      vertex 3.160000e+01 -5.999985e-01 1.200000e+01
    endloop
  endfacet
  facet normal 0.000000e+00 0.000000e+00 1.000000e+00
    outer loop
      vertex 3.280000e+01 5.999985e-01 1.200000e+01
      vertex 3.160000e+01 6.380000e+01 1.200000e+01
      vertex 3.160000e+01 5.999985e-01 1.200000e+01
    endloop
  endfacet
  facet normal 0.000000e+00 0.000000e+00 1.000000e+00
    outer loop
      vertex -3.280000e+01 6.380000e+01 1.200000e+01
      vertex -3.280000e+01 5.999985e-01 1.200000e+01
      vertex -3.160000e+01 5.999985e-01 1.200000e+01
    endloop
  endfacet
  facet normal -9.510565e-01 -3.090169e-01 -0.000000e+00
    outer loop
      vertex -6.470499e+01 -5.430680e+01 0.000000e+00
      vertex -6.383286e+01 -5.699094e+01 0.000000e+00
      vertex -6.470499e+01 -5.430680e+01 1.200000e+01
    endloop
  endfacet
  facet normal -9.510565e-01 -3.090169e-01 0.000000e+00
    outer loop
      vertex -6.470499e+01 -5.430680e+01 1.200000e+01
      vertex -6.383286e+01 -5.699094e+01 0.000000e+00
      vertex -6.383286e+01 -5.699094e+01 1.200000e+01
    endloop
  endfacet
  facet normal -8.660253e-01 -5.000002e-01 -0.000000e+00
    outer loop
      vertex -6.383286e+01 -5.699094e+01 0.000000e+00
      vertex -6.242173e+01 -5.943510e+01 0.000000e+00
      vertex -6.383286e+01 -5.699094e+01 1.200000e+01
    endloop
  endfacet
  facet normal -8.660253e-01 -5.000002e-01 0.000000e+00
    outer loop
      vertex -6.383286e+01 -5.699094e+01 1.200000e+01
      vertex -6.242173e+01 -5.943510e+01 0.000000e+00
      vertex -6.242173e+01 -5.943510e+01 1.200000e+01
    endloop
  endfacet
  facet normal -7.431448e-01 -6.691307e-01 -0.000000e+00
    outer loop
      vertex -6.242173e+01 -5.943510e+01 0.000000e+00
      vertex -6.053326e+01 -6.153245e+01 0.000000e+00
      vertex -6.242173e+01 -5.943510e+01 1.200000e+01
    endloop
  endfacet
  facet normal -7.431448e-01 -6.691307e-01 0.000000e+00
    outer loop
      vertex -6.242173e+01 -5.943510e+01 1.200000e+01
      vertex -6.053326e+01 -6.153245e+01 0.000000e+00
      vertex -6.053326e+01 -6.153245e+01 1.200000e+01
    endloop
  endfacet
  facet normal -5.877851e-01 -8.090171e-01 0.000000e+00
    outer loop
      vertex -6.053326e+01 -6.153245e+01 1.200000e+01
      vertex -6.053326e+01 -6.153245e+01 0.000000e+00
      vertex -5.825000e+01 -6.319134e+01 0.000000e+00
    endloop
  endfacet
  facet normal -5.877851e-01 -8.090171e-01 0.000000e+00
    outer loop
      vertex -5.825000e+01 -6.319134e+01 1.200000e+01
      vertex -6.053326e+01 -6.153245e+01 1.200000e+01
      vertex -5.825000e+01 -6.319134e+01 0.000000e+00
    endloop
  endfacet
  facet normal -4.067371e-01 -9.135453e-01 0.000000e+00
    outer loop
      vertex -5.825000e+01 -6.319134e+01 1.200000e+01
      vertex -5.825000e+01 -6.319134e+01 0.000000e+00
      vertex -5.567173e+01 -6.433926e+01 0.000000e+00
    endloop
  endfacet
  facet normal -4.067371e-01 -9.135453e-01 0.000000e+00
    outer loop
      vertex -5.567173e+01 -6.433926e+01 1.200000e+01
      vertex -5.825000e+01 -6.319134e+01 1.200000e+01
      vertex -5.567173e+01 -6.433926e+01 0.000000e+00
    endloop
  endfacet
  facet normal -2.079119e-01 -9.781476e-01 0.000000e+00
    outer loop
      vertex -5.567173e+01 -6.433926e+01 1.200000e+01
      vertex -5.567173e+01 -6.433926e+01 0.000000e+00
      vertex -5.291110e+01 -6.492605e+01 0.000000e+00
    endloop
  endfacet
  facet normal -2.079119e-01 -9.781476e-01 0.000000e+00
    outer loop
      vertex -5.291110e+01 -6.492605e+01 1.200000e+01
      vertex -5.567173e+01 -6.433926e+01 1.200000e+01
      vertex -5.291110e+01 -6.492605e+01 0.000000e+00
    endloop
  endfacet
  facet normal 0.000000e+00 -1.000000e+00 0.000000e+00
    outer loop
      vertex -5.291110e+01 -6.492605e+01 1.200000e+01
      vertex -5.291110e+01 -6.492605e+01 0.000000e+00
      vertex -5.150000e+01 -6.492605e+01 0.000000e+00
    endloop
  endfacet
  facet normal 0.000000e+00 -1.000000e+00 0.000000e+00
    outer loop
      vertex -5.150000e+01 -6.492605e+01 1.200000e+01
      vertex -5.291110e+01 -6.492605e+01 1.200000e+01
      vertex -5.150000e+01 -6.492605e+01 0.000000e+00
    endloop
  endfacet
  facet normal -1.000000e+00 -0.000000e+00 -0.000000e+00
    outer loop
      vertex -5.150000e+01 -6.500000e+01 0.000000e+00
      vertex -5.150000e+01 -6.500000e+01 1.200000e+01
      vertex -5.150000e+01 -6.492605e+01 0.000000e+00
    endloop
  endfacet
  facet normal -1.000000e+00 0.000000e+00 0.000000e+00
    outer loop
      vertex -5.150000e+01 -6.492605e+01 0.000000e+00
      vertex -5.150000e+01 -6.500000e+01 1.200000e+01
      vertex -5.150000e+01 -6.492605e+01 1.200000e+01
    endloop
  endfacet
  facet normal 0.000000e+00 -1.000000e+00 0.000000e+00
    outer loop
      vertex -5.150000e+01 -6.500000e+01 1.200000e+01
      vertex -5.150000e+01 -6.500000e+01 0.000000e+00
      vertex 5.150000e+01 -6.500000e+01 0.000000e+00
    endloop
  endfacet
  facet normal 0.000000e+00 -1.000000e+00 0.000000e+00
    outer loop
      vertex 5.150000e+01 -6.500000e+01 1.200000e+01
      vertex -5.150000e+01 -6.500000e+01 1.200000e+01
      vertex 5.150000e+01 -6.500000e+01 0.000000e+00
    endloop
  endfacet
  facet normal 1.000000e+00 0.000000e+00 0.000000e+00
    outer loop
      vertex 5.150000e+01 -6.500000e+01 1.200000e+01
      vertex 5.150000e+01 -6.500000e+01 0.000000e+00
      vertex 5.150000e+01 -6.492605e+01 0.000000e+00
    endloop
  endfacet
  facet normal 1.000000e+00 0.000000e+00 0.000000e+00
    outer loop
      vertex 5.150000e+01 -6.492605e+01 1.200000e+01
      vertex 5.150000e+01 -6.500000e+01 1.200000e+01
      vertex 5.150000e+01 -6.492605e+01 0.000000e+00
    endloop
  endfacet
  facet normal 0.000000e+00 -1.000000e+00 0.000000e+00
    outer loop
      vertex 5.150000e+01 -6.492605e+01 1.200000e+01
      vertex 5.150000e+01 -6.492605e+01 0.000000e+00
      vertex 5.291100e+01 -6.492605e+01 0.000000e+00
    endloop
  endfacet
  facet normal 0.000000e+00 -1.000000e+00 0.000000e+00
    outer loop
      vertex 5.291100e+01 -6.492605e+01 1.200000e+01
      vertex 5.150000e+01 -6.492605e+01 1.200000e+01
      vertex 5.291100e+01 -6.492605e+01 0.000000e+00
    endloop
  endfacet
  facet normal 2.079119e-01 -9.781476e-01 0.000000e+00
    outer loop
      vertex 5.291100e+01 -6.492605e+01 1.200000e+01
      vertex 5.291100e+01 -6.492605e+01 0.000000e+00
      vertex 5.567200e+01 -6.433926e+01 0.000000e+00
    endloop
  endfacet
  facet normal 2.079119e-01 -9.781476e-01 0.000000e+00
    outer loop
      vertex 5.567200e+01 -6.433926e+01 1.200000e+01
      vertex 5.291100e+01 -6.492605e+01 1.200000e+01
      vertex 5.567200e+01 -6.433926e+01 0.000000e+00
    endloop
  endfacet
  facet normal 4.067371e-01 -9.135453e-01 0.000000e+00
    outer loop
      vertex 5.567200e+01 -6.433926e+01 1.200000e+01
      vertex 5.567200e+01 -6.433926e+01 0.000000e+00
      vertex 5.825000e+01 -6.319134e+01 0.000000e+00
    endloop
  endfacet
  facet normal 4.067371e-01 -9.135453e-01 0.000000e+00
    outer loop
      vertex 5.825000e+01 -6.319134e+01 1.200000e+01
      vertex 5.567200e+01 -6.433926e+01 1.200000e+01
      vertex 5.825000e+01 -6.319134e+01 0.000000e+00
    endloop
  endfacet
  facet normal 5.877851e-01 -8.090171e-01 0.000000e+00
    outer loop
      vertex 5.825000e+01 -6.319134e+01 1.200000e+01
      vertex 5.825000e+01 -6.319134e+01 0.000000e+00
      vertex 6.053300e+01 -6.153245e+01 0.000000e+00
    endloop
  endfacet
  facet normal 5.877851e-01 -8.090171e-01 0.000000e+00
    outer loop
      vertex 6.053300e+01 -6.153245e+01 1.200000e+01
      vertex 5.825000e+01 -6.319134e+01 1.200000e+01
      vertex 6.053300e+01 -6.153245e+01 0.000000e+00
    endloop
  endfacet
  facet normal 7.431448e-01 -6.691307e-01 0.000000e+00
    outer loop
      vertex 6.053300e+01 -6.153245e+01 1.200000e+01
      vertex 6.053300e+01 -6.153245e+01 0.000000e+00
      vertex 6.242200e+01 -5.943510e+01 0.000000e+00
    endloop
  endfacet
  facet normal 7.431448e-01 -6.691307e-01 0.000000e+00
    outer loop
      vertex 6.242200e+01 -5.943510e+01 1.200000e+01
      vertex 6.053300e+01 -6.153245e+01 1.200000e+01
      vertex 6.242200e+01 -5.943510e+01 0.000000e+00
    endloop
  endfacet
  facet normal 8.660253e-01 -5.000002e-01 0.000000e+00
    outer loop
      vertex 6.242200e+01 -5.943510e+01 1.200000e+01
      vertex 6.242200e+01 -5.943510e+01 0.000000e+00
      vertex 6.383299e+01 -5.699094e+01 0.000000e+00
    endloop
  endfacet
  facet normal 8.660253e-01 -5.000002e-01 0.000000e+00
    outer loop
      vertex 6.383299e+01 -5.699094e+01 1.200000e+01
      vertex 6.242200e+01 -5.943510e+01 1.200000e+01
      vertex 6.383299e+01 -5.699094e+01 0.000000e+00
    endloop
  endfacet
  facet normal 9.510565e-01 -3.090169e-01 0.000000e+00
    outer loop
      vertex 6.383299e+01 -5.699094e+01 1.200000e+01
      vertex 6.383299e+01 -5.699094e+01 0.000000e+00
      vertex 6.470500e+01 -5.430680e+01 0.000000e+00
    endloop
  endfacet
  facet normal 9.510565e-01 -3.090169e-01 0.000000e+00
    outer loop
      vertex 6.470500e+01 -5.430680e+01 1.200000e+01
      vertex 6.383299e+01 -5.699094e+01 1.200000e+01
      vertex 6.470500e+01 -5.430680e+01 0.000000e+00
    endloop
  endfacet
  facet normal 9.945220e-01 -1.045280e-01 0.000000e+00
    outer loop
      vertex 6.470500e+01 -5.430680e+01 1.200000e+01
      vertex 6.470500e+01 -5.430680e+01 0.000000e+00
      vertex 6.500000e+01 -5.150000e+01 0.000000e+00
    endloop
  endfacet
  facet normal 9.945220e-01 -1.045280e-01 0.000000e+00
    outer loop
      vertex 6.500000e+01 -5.150000e+01 1.200000e+01
      vertex 6.470500e+01 -5.430680e+01 1.200000e+01
      vertex 6.500000e+01 -5.150000e+01 0.000000e+00
    endloop
  endfacet
  facet normal 1.000000e+00 0.000000e+00 0.000000e+00
    outer loop
      vertex 6.500000e+01 -5.150000e+01 1.200000e+01
      vertex 6.500000e+01 -5.150000e+01 0.000000e+00
      vertex 6.500000e+01 5.150000e+01 0.000000e+00
    endloop
  endfacet
  facet normal 1.000000e+00 0.000000e+00 0.000000e+00
    outer loop
      vertex 6.500000e+01 5.150000e+01 1.200000e+01
      vertex 6.500000e+01 -5.150000e+01 1.200000e+01
      vertex 6.500000e+01 5.150000e+01 0.000000e+00
    endloop
  endfacet
  facet normal 9.945220e-01 1.045280e-01 0.000000e+00
    outer loop
      vertex 6.500000e+01 5.150000e+01 0.000000e+00
      vertex 6.470500e+01 5.430700e+01 0.000000e+00
      vertex 6.470500e+01 5.430700e+01 1.200000e+01
    endloop
  endfacet
  facet normal 9.945220e-01 1.045280e-01 0.000000e+00
    outer loop
      vertex 6.500000e+01 5.150000e+01 1.200000e+01
      vertex 6.500000e+01 5.150000e+01 0.000000e+00
      vertex 6.470500e+01 5.430700e+01 1.200000e+01
    endloop
  endfacet
  facet normal 9.510565e-01 3.090169e-01 0.000000e+00
    outer loop
      vertex 6.470500e+01 5.430700e+01 0.000000e+00
      vertex 6.383299e+01 5.699100e+01 0.000000e+00
      vertex 6.383299e+01 5.699100e+01 1.200000e+01
    endloop
  endfacet
  facet normal 9.510565e-01 3.090169e-01 0.000000e+00
    outer loop
      vertex 6.470500e+01 5.430700e+01 1.200000e+01
      vertex 6.470500e+01 5.430700e+01 0.000000e+00
      vertex 6.383299e+01 5.699100e+01 1.200000e+01
    endloop
  endfacet
  facet normal 8.660253e-01 5.000002e-01 0.000000e+00
    outer loop
      vertex 6.383299e+01 5.699100e+01 0.000000e+00
      vertex 6.242200e+01 5.943500e+01 0.000000e+00
      vertex 6.242200e+01 5.943500e+01 1.200000e+01
    endloop
  endfacet
  facet normal 8.660253e-01 5.000002e-01 0.000000e+00
    outer loop
      vertex 6.383299e+01 5.699100e+01 1.200000e+01
      vertex 6.383299e+01 5.699100e+01 0.000000e+00
      vertex 6.242200e+01 5.943500e+01 1.200000e+01
    endloop
  endfacet
  facet normal 7.431448e-01 6.691307e-01 0.000000e+00
    outer loop
      vertex 6.242200e+01 5.943500e+01 0.000000e+00
      vertex 6.053300e+01 6.153200e+01 0.000000e+00
      vertex 6.053300e+01 6.153200e+01 1.200000e+01
    endloop
  endfacet
  facet normal 7.431448e-01 6.691307e-01 0.000000e+00
    outer loop
      vertex 6.242200e+01 5.943500e+01 1.200000e+01
      vertex 6.242200e+01 5.943500e+01 0.000000e+00
      vertex 6.053300e+01 6.153200e+01 1.200000e+01
    endloop
  endfacet
  facet normal 5.877851e-01 8.090171e-01 0.000000e+00
    outer loop
      vertex 5.825000e+01 6.319099e+01 0.000000e+00
      vertex 5.825000e+01 6.319099e+01 1.200000e+01
      vertex 6.053300e+01 6.153200e+01 0.000000e+00
    endloop
  endfacet
  facet normal 5.877851e-01 8.090171e-01 0.000000e+00
    outer loop
      vertex 6.053300e+01 6.153200e+01 0.000000e+00
      vertex 5.825000e+01 6.319099e+01 1.200000e+01
      vertex 6.053300e+01 6.153200e+01 1.200000e+01
    endloop
  endfacet
  facet normal 4.067371e-01 9.135453e-01 0.000000e+00
    outer loop
      vertex 5.567200e+01 6.433900e+01 0.000000e+00
      vertex 5.567200e+01 6.433900e+01 1.200000e+01
      vertex 5.825000e+01 6.319099e+01 0.000000e+00
    endloop
  endfacet
  facet normal 4.067371e-01 9.135453e-01 0.000000e+00
    outer loop
      vertex 5.825000e+01 6.319099e+01 0.000000e+00
      vertex 5.567200e+01 6.433900e+01 1.200000e+01
      vertex 5.825000e+01 6.319099e+01 1.200000e+01
    endloop
  endfacet
  facet normal 2.079119e-01 9.781476e-01 0.000000e+00
    outer loop
      vertex 5.291100e+01 6.492599e+01 0.000000e+00
      vertex 5.291100e+01 6.492599e+01 1.200000e+01
      vertex 5.567200e+01 6.433900e+01 0.000000e+00
    endloop
  endfacet
  facet normal 2.079119e-01 9.781476e-01 0.000000e+00
    outer loop
      vertex 5.567200e+01 6.433900e+01 0.000000e+00
      vertex 5.291100e+01 6.492599e+01 1.200000e+01
      vertex 5.567200e+01 6.433900e+01 1.200000e+01
    endloop
  endfacet
  facet normal 0.000000e+00 1.000000e+00 0.000000e+00
    outer loop
      vertex 5.150000e+01 6.492599e+01 0.000000e+00
      vertex 5.150000e+01 6.492599e+01 1.200000e+01
      vertex 5.291100e+01 6.492599e+01 0.000000e+00
    endloop
  endfacet
  facet normal 0.000000e+00 1.000000e+00 0.000000e+00
    outer loop
      vertex 5.291100e+01 6.492599e+01 0.000000e+00
      vertex 5.150000e+01 6.492599e+01 1.200000e+01
      vertex 5.291100e+01 6.492599e+01 1.200000e+01
    endloop
  endfacet
  facet normal 1.000000e+00 0.000000e+00 0.000000e+00
    outer loop
      vertex 5.150000e+01 6.492599e+01 1.200000e+01
      vertex 5.150000e+01 6.492599e+01 0.000000e+00
      vertex 5.150000e+01 6.500000e+01 0.000000e+00
    endloop
  endfacet
  facet normal 1.000000e+00 0.000000e+00 0.000000e+00
    outer loop
      vertex 5.150000e+01 6.500000e+01 1.200000e+01
      vertex 5.150000e+01 6.492599e+01 1.200000e+01
      vertex 5.150000e+01 6.500000e+01 0.000000e+00
    endloop
  endfacet
  facet normal 0.000000e+00 1.000000e+00 0.000000e+00
    outer loop
      vertex -5.150000e+01 6.500000e+01 0.000000e+00
      vertex -5.150000e+01 6.500000e+01 1.200000e+01
      vertex 5.150000e+01 6.500000e+01 0.000000e+00
    endloop
  endfacet
  facet normal 0.000000e+00 1.000000e+00 0.000000e+00
    outer loop
      vertex 5.150000e+01 6.500000e+01 0.000000e+00
      vertex -5.150000e+01 6.500000e+01 1.200000e+01
      vertex 5.150000e+01 6.500000e+01 1.200000e+01
    endloop
  endfacet
  facet normal -1.000000e+00 -0.000000e+00 -0.000000e+00
    outer loop
      vertex -5.150000e+01 6.492599e+01 0.000000e+00
      vertex -5.150000e+01 6.492599e+01 1.200000e+01
      vertex -5.150000e+01 6.500000e+01 0.000000e+00
    endloop
  endfacet
  facet normal -1.000000e+00 0.000000e+00 0.000000e+00
    outer loop
      vertex -5.150000e+01 6.500000e+01 0.000000e+00
      vertex -5.150000e+01 6.492599e+01 1.200000e+01
      vertex -5.150000e+01 6.500000e+01 1.200000e+01
    endloop
  endfacet
  facet normal 0.000000e+00 1.000000e+00 0.000000e+00
    outer loop
      vertex -5.291110e+01 6.492599e+01 0.000000e+00
      vertex -5.291110e+01 6.492599e+01 1.200000e+01
      vertex -5.150000e+01 6.492599e+01 0.000000e+00
    endloop
  endfacet
  facet normal 0.000000e+00 1.000000e+00 0.000000e+00
    outer loop
      vertex -5.150000e+01 6.492599e+01 0.000000e+00
      vertex -5.291110e+01 6.492599e+01 1.200000e+01
      vertex -5.150000e+01 6.492599e+01 1.200000e+01
    endloop
  endfacet
  facet normal -2.079119e-01 9.781476e-01 0.000000e+00
    outer loop
      vertex -5.567173e+01 6.433900e+01 0.000000e+00
      vertex -5.567173e+01 6.433900e+01 1.200000e+01
      vertex -5.291110e+01 6.492599e+01 0.000000e+00
    endloop
  endfacet
  facet normal -2.079119e-01 9.781476e-01 0.000000e+00
    outer loop
      vertex -5.291110e+01 6.492599e+01 0.000000e+00
      vertex -5.567173e+01 6.433900e+01 1.200000e+01
      vertex -5.291110e+01 6.492599e+01 1.200000e+01
    endloop
  endfacet
  facet normal -4.067371e-01 9.135453e-01 0.000000e+00
    outer loop
      vertex -5.825000e+01 6.319099e+01 0.000000e+00
      vertex -5.825000e+01 6.319099e+01 1.200000e+01
      vertex -5.567173e+01 6.433900e+01 0.000000e+00
    endloop
  endfacet
  facet normal -4.067371e-01 9.135453e-01 0.000000e+00
    outer loop
      vertex -5.567173e+01 6.433900e+01 0.000000e+00
      vertex -5.825000e+01 6.319099e+01 1.200000e+01
      vertex -5.567173e+01 6.433900e+01 1.200000e+01
    endloop
  endfacet
  facet normal -5.877851e-01 8.090171e-01 0.000000e+00
    outer loop
      vertex -6.053326e+01 6.153200e+01 0.000000e+00
      vertex -6.053326e+01 6.153200e+01 1.200000e+01
      vertex -5.825000e+01 6.319099e+01 0.000000e+00
    endloop
  endfacet
  facet normal -5.877851e-01 8.090171e-01 0.000000e+00
    outer loop
      vertex -5.825000e+01 6.319099e+01 0.000000e+00
      vertex -6.053326e+01 6.153200e+01 1.200000e+01
      vertex -5.825000e+01 6.319099e+01 1.200000e+01
    endloop
  endfacet
  facet normal -7.431448e-01 6.691307e-01 0.000000e+00
    outer loop
      vertex -6.242173e+01 5.943500e+01 0.000000e+00
      vertex -6.242173e+01 5.943500e+01 1.200000e+01
      vertex -6.053326e+01 6.153200e+01 0.000000e+00
    endloop
  endfacet
  facet normal -7.431448e-01 6.691307e-01 0.000000e+00
    outer loop
      vertex -6.053326e+01 6.153200e+01 0.000000e+00
      vertex -6.242173e+01 5.943500e+01 1.200000e+01
      vertex -6.053326e+01 6.153200e+01 1.200000e+01
    endloop
  endfacet
  facet normal -8.660253e-01 5.000002e-01 0.000000e+00
    outer loop
      vertex -6.383286e+01 5.699100e+01 0.000000e+00
      vertex -6.383286e+01 5.699100e+01 1.200000e+01
      vertex -6.242173e+01 5.943500e+01 0.000000e+00
    endloop
  endfacet
  facet normal -8.660253e-01 5.000002e-01 0.000000e+00
    outer loop
      vertex -6.242173e+01 5.943500e+01 0.000000e+00
      vertex -6.383286e+01 5.699100e+01 1.200000e+01
      vertex -6.242173e+01 5.943500e+01 1.200000e+01
    endloop
  endfacet
  facet normal -9.510565e-01 3.090169e-01 0.000000e+00
    outer loop
      vertex -6.470499e+01 5.430700e+01 0.000000e+00
      vertex -6.470499e+01 5.430700e+01 1.200000e+01
      vertex -6.383286e+01 5.699100e+01 0.000000e+00
    endloop
  endfacet
  facet normal -9.510565e-01 3.090169e-01 0.000000e+00
    outer loop
      vertex -6.383286e+01 5.699100e+01 0.000000e+00
      vertex -6.470499e+01 5.430700e+01 1.200000e+01
      vertex -6.383286e+01 5.699100e+01 1.200000e+01
    endloop
  endfacet
  facet normal 7.071068e-01 7.071068e-01 0.000000e+00
    outer loop
      vertex -5.150000e+01 -6.380000e+01 1.200000e+00
      vertex -6.380000e+01 -5.150000e+01 1.200000e+00
      vertex -6.380000e+01 -5.150000e+01 1.200000e+01
    endloop
  endfacet
  facet normal 7.071068e-01 7.071068e-01 0.000000e+00
    outer loop
      vertex -5.150000e+01 -6.380000e+01 1.200000e+01
      vertex -5.150000e+01 -6.380000e+01 1.200000e+00
      vertex -6.380000e+01 -5.150000e+01 1.200000e+01
    endloop
  endfacet
  facet normal 1.000000e+00 0.000000e+00 0.000000e+00
    outer loop
      vertex -6.380000e+01 -5.999985e-01 1.200000e+00
      vertex -6.380000e+01 -5.999985e-01 1.200000e+01
      vertex -6.380000e+01 -5.150000e+01 1.200000e+01
    endloop
  endfacet
  facet normal 1.000000e+00 0.000000e+00 0.000000e+00
    outer loop
      vertex -6.380000e+01 -5.150000e+01 1.200000e+00
      vertex -6.380000e+01 -5.999985e-01 1.200000e+00
      vertex -6.380000e+01 -5.150000e+01 1.200000e+01
    endloop
  endfacet
  facet normal 0.000000e+00 1.000000e+00 0.000000e+00
    outer loop
      vertex -3.280000e+01 -6.380000e+01 1.200000e+01
      vertex -3.280000e+01 -6.380000e+01 1.200000e+00
      vertex -5.150000e+01 -6.380000e+01 1.200000e+01
    endloop
  endfacet
  facet normal 0.000000e+00 1.000000e+00 0.000000e+00
    outer loop
      vertex -5.150000e+01 -6.380000e+01 1.200000e+01
      vertex -3.280000e+01 -6.380000e+01 1.200000e+00
      vertex -5.150000e+01 -6.380000e+01 1.200000e+00
    endloop
  endfacet
  facet normal -1.000000e+00 0.000000e+00 0.000000e+00
    outer loop
      vertex -3.280000e+01 -5.999985e-01 1.200000e+01
      vertex -3.280000e+01 -5.999985e-01 1.200000e+00
      vertex -3.280000e+01 -6.380000e+01 1.200000e+01
    endloop
  endfacet
  facet normal -1.000000e+00 0.000000e+00 0.000000e+00
    outer loop
      vertex -3.280000e+01 -6.380000e+01 1.200000e+01
      vertex -3.280000e+01 -5.999985e-01 1.200000e+00
      vertex -3.280000e+01 -6.380000e+01 1.200000e+00
    endloop
  endfacet
  facet normal 0.000000e+00 -1.000000e+00 0.000000e+00
    outer loop
      vertex -3.280000e+01 -5.999985e-01 1.200000e+00
      vertex -3.280000e+01 -5.999985e-01 1.200000e+01
      vertex -6.380000e+01 -5.999985e-01 1.200000e+01
    endloop
  endfacet
  facet normal -0.000000e+00 -1.000000e+00 -0.000000e+00
    outer loop
      vertex -6.380000e+01 -5.999985e-01 1.200000e+00
      vertex -3.280000e+01 -5.999985e-01 1.200000e+00
      vertex -6.380000e+01 -5.999985e-01 1.200000e+01
    endloop
  endfacet
  facet normal 1.000000e+00 0.000000e+00 0.000000e+00
    outer loop
      vertex -6.380000e+01 5.150000e+01 1.200000e+00
      vertex -6.380000e+01 5.150000e+01 1.200000e+01
      vertex -6.380000e+01 5.999985e-01 1.200000e+01
    endloop
  endfacet
  facet normal 1.000000e+00 0.000000e+00 0.000000e+00
    outer loop
      vertex -6.380000e+01 5.999985e-01 1.200000e+00
      vertex -6.380000e+01 5.150000e+01 1.200000e+00
      vertex -6.380000e+01 5.999985e-01 1.200000e+01
    endloop
  endfacet
  facet normal 0.000000e+00 1.000000e+00 0.000000e+00
    outer loop
      vertex -3.280000e+01 5.999985e-01 1.200000e+01
      vertex -3.280000e+01 5.999985e-01 1.200000e+00
      vertex -6.380000e+01 5.999985e-01 1.200000e+01
    endloop
  endfacet
  facet normal 0.000000e+00 1.000000e+00 0.000000e+00
    outer loop
      vertex -6.380000e+01 5.999985e-01 1.200000e+01
      vertex -3.280000e+01 5.999985e-01 1.200000e+00
      vertex -6.380000e+01 5.999985e-01 1.200000e+00
    endloop
  endfacet
  facet normal -1.000000e+00 0.000000e+00 0.000000e+00
    outer loop
      vertex -3.280000e+01 6.380000e+01 1.200000e+01
      vertex -3.280000e+01 6.380000e+01 1.200000e+00
      vertex -3.280000e+01 5.999985e-01 1.200000e+01
    endloop
  endfacet
  facet normal -1.000000e+00 0.000000e+00 0.000000e+00
    outer loop
      vertex -3.280000e+01 5.999985e-01 1.200000e+01
      vertex -3.280000e+01 6.380000e+01 1.200000e+00
      vertex -3.280000e+01 5.999985e-01 1.200000e+00
    endloop
  endfacet
  facet normal 0.000000e+00 -1.000000e+00 0.000000e+00
    outer loop
      vertex -3.280000e+01 6.380000e+01 1.200000e+00
      vertex -3.280000e+01 6.380000e+01 1.200000e+01
      vertex -5.150000e+01 6.380000e+01 1.200000e+01
    endloop
  endfacet
  facet normal -0.000000e+00 -1.000000e+00 -0.000000e+00
    outer loop
      vertex -5.150000e+01 6.380000e+01 1.200000e+00
      vertex -3.280000e+01 6.380000e+01 1.200000e+00
      vertex -5.150000e+01 6.380000e+01 1.200000e+01
    endloop
  endfacet
  facet normal 7.071068e-01 -7.071068e-01 0.000000e+00
    outer loop
      vertex -6.380000e+01 5.150000e+01 1.200000e+01
      vertex -6.380000e+01 5.150000e+01 1.200000e+00
      vertex -5.150000e+01 6.380000e+01 1.200000e+00
    endloop
  endfacet
  facet normal 7.071068e-01 -7.071068e-01 0.000000e+00
    outer loop
      vertex -5.150000e+01 6.380000e+01 1.200000e+01
      vertex -6.380000e+01 5.150000e+01 1.200000e+01
      vertex -5.150000e+01 6.380000e+01 1.200000e+00
    endloop
  endfacet
  facet normal 1.000000e+00 0.000000e+00 0.000000e+00
    outer loop
      vertex -3.160000e+01 -5.999985e-01 1.200000e+00
      vertex -3.160000e+01 -5.999985e-01 1.200000e+01
      vertex -3.160000e+01 -6.380000e+01 1.200000e+01
    endloop
  endfacet
  facet normal 1.000000e+00 0.000000e+00 0.000000e+00
    outer loop
      vertex -3.160000e+01 -6.380000e+01 1.200000e+00
      vertex -3.160000e+01 -5.999985e-01 1.200000e+00
      vertex -3.160000e+01 -6.380000e+01 1.200000e+01
    endloop
  endfacet
  facet normal 0.000000e+00 1.000000e+00 0.000000e+00
    outer loop
      vertex -5.999985e-01 -6.380000e+01 1.200000e+01
      vertex -5.999985e-01 -6.380000e+01 1.200000e+00
      vertex -3.160000e+01 -6.380000e+01 1.200000e+01
    endloop
  endfacet
  facet normal 0.000000e+00 1.000000e+00 0.000000e+00
    outer loop
      vertex -3.160000e+01 -6.380000e+01 1.200000e+01
      vertex -5.999985e-01 -6.380000e+01 1.200000e+00
      vertex -3.160000e+01 -6.380000e+01 1.200000e+00
    endloop
  endfacet
  facet normal -1.000000e+00 0.000000e+00 0.000000e+00
    outer loop
      vertex -5.999985e-01 -5.999985e-01 1.200000e+01
      vertex -5.999985e-01 -5.999985e-01 1.200000e+00
      vertex -5.999985e-01 -6.380000e+01 1.200000e+01
    endloop
  endfacet
  facet normal -1.000000e+00 0.000000e+00 0.000000e+00
    outer loop
      vertex -5.999985e-01 -6.380000e+01 1.200000e+01
      vertex -5.999985e-01 -5.999985e-01 1.200000e+00
      vertex -5.999985e-01 -6.380000e+01 1.200000e+00
    endloop
  endfacet
  facet normal 0.000000e+00 -1.000000e+00 0.000000e+00
    outer loop
      vertex -5.999985e-01 -5.999985e-01 1.200000e+00
      vertex -5.999985e-01 -5.999985e-01 1.200000e+01
      vertex -3.160000e+01 -5.999985e-01 1.200000e+01
    endloop
  endfacet
  facet normal -0.000000e+00 -1.000000e+00 -0.000000e+00
    outer loop
      vertex -3.160000e+01 -5.999985e-01 1.200000e+00
      vertex -5.999985e-01 -5.999985e-01 1.200000e+00
      vertex -3.160000e+01 -5.999985e-01 1.200000e+01
    endloop
  endfacet
  facet normal 1.000000e+00 0.000000e+00 0.000000e+00
    outer loop
      vertex -3.160000e+01 6.380000e+01 1.200000e+00
      vertex -3.160000e+01 6.380000e+01 1.200000e+01
      vertex -3.160000e+01 5.999985e-01 1.200000e+01
    endloop
  endfacet
  facet normal 1.000000e+00 0.000000e+00 0.000000e+00
    outer loop
      vertex -3.160000e+01 5.999985e-01 1.200000e+00
      vertex -3.160000e+01 6.380000e+01 1.200000e+00
      vertex -3.160000e+01 5.999985e-01 1.200000e+01
    endloop
  endfacet
  facet normal 0.000000e+00 1.000000e+00 0.000000e+00
    outer loop
      vertex -5.999985e-01 5.999985e-01 1.200000e+01
      vertex -5.999985e-01 5.999985e-01 1.200000e+00
      vertex -3.160000e+01 5.999985e-01 1.200000e+01
    endloop
  endfacet
  facet normal 0.000000e+00 1.000000e+00 0.000000e+00
    outer loop
      vertex -3.160000e+01 5.999985e-01 1.200000e+01
      vertex -5.999985e-01 5.999985e-01 1.200000e+00
      vertex -3.160000e+01 5.999985e-01 1.200000e+00
    endloop
  endfacet
  facet normal -1.000000e+00 0.000000e+00 0.000000e+00
    outer loop
      vertex -5.999985e-01 6.380000e+01 1.200000e+01
      vertex -5.999985e-01 6.380000e+01 1.200000e+00
      vertex -5.999985e-01 5.999985e-01 1.200000e+01
    endloop
  endfacet
  facet normal -1.000000e+00 0.000000e+00 0.000000e+00
    outer loop
      vertex -5.999985e-01 5.999985e-01 1.200000e+01
      vertex -5.999985e-01 6.380000e+01 1.200000e+00
      vertex -5.999985e-01 5.999985e-01 1.200000e+00
    endloop
  endfacet
  facet normal 0.000000e+00 -1.000000e+00 0.000000e+00
    outer loop
      vertex -5.999985e-01 6.380000e+01 1.200000e+00
      vertex -5.999985e-01 6.380000e+01 1.200000e+01
      vertex -3.160000e+01 6.380000e+01 1.200000e+01
    endloop
  endfacet
  facet normal -0.000000e+00 -1.000000e+00 -0.000000e+00
    outer loop
      vertex -3.160000e+01 6.380000e+01 1.200000e+00
      vertex -5.999985e-01 6.380000e+01 1.200000e+00
      vertex -3.160000e+01 6.380000e+01 1.200000e+01
    endloop
  endfacet
  facet normal 1.000000e+00 0.000000e+00 0.000000e+00
    outer loop
      vertex 5.999985e-01 -5.999985e-01 1.200000e+00
      vertex 5.999985e-01 -5.999985e-01 1.200000e+01
      vertex 5.999985e-01 -6.380000e+01 1.200000e+01
    endloop
  endfacet
  facet normal 1.000000e+00 0.000000e+00 0.000000e+00
    outer loop
      vertex 5.999985e-01 -6.380000e+01 1.200000e+00
      vertex 5.999985e-01 -5.999985e-01 1.200000e+00
      vertex 5.999985e-01 -6.380000e+01 1.200000e+01
    endloop
  endfacet
  facet normal 0.000000e+00 1.000000e+00 0.000000e+00
    outer loop
      vertex 3.160000e+01 -6.380000e+01 1.200000e+01
      vertex 3.160000e+01 -6.380000e+01 1.200000e+00
      vertex 5.999985e-01 -6.380000e+01 1.200000e+01
    endloop
  endfacet
  facet normal 0.000000e+00 1.000000e+00 0.000000e+00
    outer loop
      vertex 5.999985e-01 -6.380000e+01 1.200000e+01
      vertex 3.160000e+01 -6.380000e+01 1.200000e+00
      vertex 5.999985e-01 -6.380000e+01 1.200000e+00
    endloop
  endfacet
  facet normal -1.000000e+00 0.000000e+00 0.000000e+00
    outer loop
      vertex 3.160000e+01 -5.999985e-01 1.200000e+01
      vertex 3.160000e+01 -5.999985e-01 1.200000e+00
      vertex 3.160000e+01 -6.380000e+01 1.200000e+01
    endloop
  endfacet
  facet normal -1.000000e+00 0.000000e+00 0.000000e+00
    outer loop
      vertex 3.160000e+01 -6.380000e+01 1.200000e+01
      vertex 3.160000e+01 -5.999985e-01 1.200000e+00
      vertex 3.160000e+01 -6.380000e+01 1.200000e+00
    endloop
  endfacet
  facet normal 0.000000e+00 -1.000000e+00 0.000000e+00
    outer loop
      vertex 3.160000e+01 -5.999985e-01 1.200000e+00
      vertex 3.160000e+01 -5.999985e-01 1.200000e+01
      vertex 5.999985e-01 -5.999985e-01 1.200000e+01
    endloop
  endfacet
  facet normal -0.000000e+00 -1.000000e+00 -0.000000e+00
    outer loop
      vertex 5.999985e-01 -5.999985e-01 1.200000e+00
      vertex 3.160000e+01 -5.999985e-01 1.200000e+00
      vertex 5.999985e-01 -5.999985e-01 1.200000e+01
    endloop
  endfacet
  facet normal 1.000000e+00 0.000000e+00 0.000000e+00
    outer loop
      vertex 5.999985e-01 6.380000e+01 1.200000e+00
      vertex 5.999985e-01 6.380000e+01 1.200000e+01
      vertex 5.999985e-01 5.999985e-01 1.200000e+01
    endloop
  endfacet
  facet normal 1.000000e+00 0.000000e+00 0.000000e+00
    outer loop
      vertex 5.999985e-01 5.999985e-01 1.200000e+00
      vertex 5.999985e-01 6.380000e+01 1.200000e+00
      vertex 5.999985e-01 5.999985e-01 1.200000e+01
    endloop
  endfacet
  facet normal 0.000000e+00 1.000000e+00 0.000000e+00
    outer loop
      vertex 3.160000e+01 5.999985e-01 1.200000e+01
      vertex 3.160000e+01 5.999985e-01 1.200000e+00
      vertex 5.999985e-01 5.999985e-01 1.200000e+01
    endloop
  endfacet
  facet normal 0.000000e+00 1.000000e+00 0.000000e+00
    outer loop
      vertex 5.999985e-01 5.999985e-01 1.200000e+01
      vertex 3.160000e+01 5.999985e-01 1.200000e+00
      vertex 5.999985e-01 5.999985e-01 1.200000e+00
    endloop
  endfacet
  facet normal -1.000000e+00 0.000000e+00 0.000000e+00
    outer loop
      vertex 3.160000e+01 6.380000e+01 1.200000e+01
      vertex 3.160000e+01 6.380000e+01 1.200000e+00
      vertex 3.160000e+01 5.999985e-01 1.200000e+01
    endloop
  endfacet
  facet normal -1.000000e+00 0.000000e+00 0.000000e+00
    outer loop
      vertex 3.160000e+01 5.999985e-01 1.200000e+01
      vertex 3.160000e+01 6.380000e+01 1.200000e+00
      vertex 3.160000e+01 5.999985e-01 1.200000e+00
    endloop
  endfacet
  facet normal 0.000000e+00 -1.000000e+00 0.000000e+00
    outer loop
      vertex 3.160000e+01 6.380000e+01 1.200000e+00
      vertex 3.160000e+01 6.380000e+01 1.200000e+01
      vertex 5.999985e-01 6.380000e+01 1.200000e+01
    endloop
  endfacet
  facet normal -0.000000e+00 -1.000000e+00 -0.000000e+00
    outer loop
      vertex 5.999985e-01 6.380000e+01 1.200000e+00
      vertex 3.160000e+01 6.380000e+01 1.200000e+00
      vertex 5.999985e-01 6.380000e+01 1.200000e+01
    endloop
  endfacet
  facet normal 1.000000e+00 0.000000e+00 0.000000e+00
    outer loop
      vertex 3.280000e+01 -5.999985e-01 1.200000e+00
      vertex 3.280000e+01 -5.999985e-01 1.200000e+01
      vertex 3.280000e+01 -6.380000e+01 1.200000e+01
    endloop
  endfacet
  facet normal 1.000000e+00 0.000000e+00 0.000000e+00
    outer loop
      vertex 3.280000e+01 -6.380000e+01 1.200000e+00
      vertex 3.280000e+01 -5.999985e-01 1.200000e+00
      vertex 3.280000e+01 -6.380000e+01 1.200000e+01
    endloop
  endfacet
  facet normal 0.000000e+00 1.000000e+00 0.000000e+00
    outer loop
      vertex 5.150000e+01 -6.380000e+01 1.200000e+01
      vertex 5.150000e+01 -6.380000e+01 1.200000e+00
      vertex 3.280000e+01 -6.380000e+01 1.200000e+01
    endloop
  endfacet
  facet normal 0.000000e+00 1.000000e+00 0.000000e+00
    outer loop
      vertex 3.280000e+01 -6.380000e+01 1.200000e+01
      vertex 5.150000e+01 -6.380000e+01 1.200000e+00
      vertex 3.280000e+01 -6.380000e+01 1.200000e+00
    endloop
  endfacet
  facet normal -7.071068e-01 7.071068e-01 0.000000e+00
    outer loop
      vertex 5.150000e+01 -6.380000e+01 1.200000e+00
      vertex 5.150000e+01 -6.380000e+01 1.200000e+01
      vertex 6.380000e+01 -5.150000e+01 1.200000e+00
    endloop
  endfacet
  facet normal -7.071068e-01 7.071068e-01 0.000000e+00
    outer loop
      vertex 6.380000e+01 -5.150000e+01 1.200000e+00
      vertex 5.150000e+01 -6.380000e+01 1.200000e+01
      vertex 6.380000e+01 -5.150000e+01 1.200000e+01
    endloop
  endfacet
  facet normal -1.000000e+00 0.000000e+00 0.000000e+00
    outer loop
      vertex 6.380000e+01 -5.999985e-01 1.200000e+01
      vertex 6.380000e+01 -5.999985e-01 1.200000e+00
      vertex 6.380000e+01 -5.150000e+01 1.200000e+01
    endloop
  endfacet
  facet normal -1.000000e+00 0.000000e+00 0.000000e+00
    outer loop
      vertex 6.380000e+01 -5.150000e+01 1.200000e+01
      vertex 6.380000e+01 -5.999985e-01 1.200000e+00
      vertex 6.380000e+01 -5.150000e+01 1.200000e+00
    endloop
  endfacet
  facet normal 0.000000e+00 -1.000000e+00 0.000000e+00
    outer loop
      vertex 6.380000e+01 -5.999985e-01 1.200000e+00
      vertex 6.380000e+01 -5.999985e-01 1.200000e+01
      vertex 3.280000e+01 -5.999985e-01 1.200000e+01
    endloop
  endfacet
  facet normal -0.000000e+00 -1.000000e+00 -0.000000e+00
    outer loop
      vertex 3.280000e+01 -5.999985e-01 1.200000e+00
      vertex 6.380000e+01 -5.999985e-01 1.200000e+00
      vertex 3.280000e+01 -5.999985e-01 1.200000e+01
    endloop
  endfacet
  facet normal 1.000000e+00 0.000000e+00 0.000000e+00
    outer loop
      vertex 3.280000e+01 6.380000e+01 1.200000e+00
      vertex 3.280000e+01 6.380000e+01 1.200000e+01
      vertex 3.280000e+01 5.999985e-01 1.200000e+01
    endloop
  endfacet
  facet normal 1.000000e+00 0.000000e+00 0.000000e+00
    outer loop
      vertex 3.280000e+01 5.999985e-01 1.200000e+00
      vertex 3.280000e+01 6.380000e+01 1.200000e+00
      vertex 3.280000e+01 5.999985e-01 1.200000e+01
    endloop
  endfacet
  facet normal 0.000000e+00 1.000000e+00 0.000000e+00
    outer loop
      vertex 6.380000e+01 5.999985e-01 1.200000e+01
      vertex 6.380000e+01 5.999985e-01 1.200000e+00
      vertex 3.280000e+01 5.999985e-01 1.200000e+01
    endloop
  endfacet
  facet normal 0.000000e+00 1.000000e+00 0.000000e+00
    outer loop
      vertex 3.280000e+01 5.999985e-01 1.200000e+01
      vertex 6.380000e+01 5.999985e-01 1.200000e+00
      vertex 3.280000e+01 5.999985e-01 1.200000e+00
    endloop
  endfacet
  facet normal -1.000000e+00 0.000000e+00 0.000000e+00
    outer loop
      vertex 6.380000e+01 5.150000e+01 1.200000e+01
      vertex 6.380000e+01 5.150000e+01 1.200000e+00
      vertex 6.380000e+01 5.999985e-01 1.200000e+01
    endloop
  endfacet
  facet normal -1.000000e+00 0.000000e+00 0.000000e+00
    outer loop
      vertex 6.380000e+01 5.999985e-01 1.200000e+01
      vertex 6.380000e+01 5.150000e+01 1.200000e+00
      vertex 6.380000e+01 5.999985e-01 1.200000e+00
    endloop
  endfacet
  facet normal -7.071068e-01 -7.071068e-01 -0.000000e+00
    outer loop
      vertex 5.150000e+01 6.380000e+01 1.200000e+00
      vertex 6.380000e+01 5.150000e+01 1.200000e+00
      vertex 5.150000e+01 6.380000e+01 1.200000e+01
    endloop
  endfacet
  facet normal -7.071068e-01 -7.071068e-01 0.000000e+00
    outer loop
      vertex 5.150000e+01 6.380000e+01 1.200000e+01
      vertex 6.380000e+01 5.150000e+01 1.200000e+00
      vertex 6.380000e+01 5.150000e+01 1.200000e+01
    endloop
  endfacet
  facet normal 0.000000e+00 -1.000000e+00 0.000000e+00
    outer loop
      vertex 5.150000e+01 6.380000e+01 1.200000e+00
      vertex 5.150000e+01 6.380000e+01 1.200000e+01
      vertex 3.280000e+01 6.380000e+01 1.200000e+01
    endloop
  endfacet
  facet normal -0.000000e+00 -1.000000e+00 -0.000000e+00
    outer loop
      vertex 3.280000e+01 6.380000e+01 1.200000e+00
      vertex 5.150000e+01 6.380000e+01 1.200000e+00
      vertex 3.280000e+01 6.380000e+01 1.200000e+01
    endloop
  endfacet
  facet normal 0.000000e+00 0.000000e+00 1.000000e+00
    outer loop
      vertex -5.150000e+01 -6.380000e+01 1.200000e+00
      vertex -3.280000e+01 -6.380000e+01 1.200000e+00
      vertex -3.280000e+01 -5.999985e-01 1.200000e+00
    endloop
  endfacet
  facet normal 0.000000e+00 0.000000e+00 1.000000e+00
    outer loop
      vertex -6.380000e+01 -5.150000e+01 1.200000e+00
      vertex -5.150000e+01 -6.380000e+01 1.200000e+00
      vertex -6.380000e+01 -5.999985e-01 1.200000e+00
    endloop
  endfacet
  facet normal 0.000000e+00 0.000000e+00 1.000000e+00
    outer loop
      vertex -6.380000e+01 -5.999985e-01 1.200000e+00
      vertex -5.150000e+01 -6.380000e+01 1.200000e+00
      vertex -3.280000e+01 -5.999985e-01 1.200000e+00
    endloop
  endfacet
  facet normal 0.000000e+00 0.000000e+00 1.000000e+00
    outer loop
      vertex -3.280000e+01 5.999985e-01 1.200000e+00
      vertex -3.280000e+01 6.380000e+01 1.200000e+00
      vertex -5.150000e+01 6.380000e+01 1.200000e+00
    endloop
  endfacet
  facet normal 0.000000e+00 0.000000e+00 1.000000e+00
    outer loop
      vertex -6.380000e+01 5.999985e-01 1.200000e+00
      vertex -3.280000e+01 5.999985e-01 1.200000e+00
      vertex -6.380000e+01 5.150000e+01 1.200000e+00
    endloop
  endfacet
  facet normal 0.000000e+00 0.000000e+00 1.000000e+00
    outer loop
      vertex -6.380000e+01 5.150000e+01 1.200000e+00
      vertex -3.280000e+01 5.999985e-01 1.200000e+00
      vertex -5.150000e+01 6.380000e+01 1.200000e+00
    endloop
  endfacet
  facet normal 0.000000e+00 0.000000e+00 1.000000e+00
    outer loop
      vertex -5.999985e-01 -6.380000e+01 1.200000e+00
      vertex -5.999985e-01 -5.999985e-01 1.200000e+00
      vertex -3.160000e+01 -5.999985e-01 1.200000e+00
    endloop
  endfacet
  facet normal 0.000000e+00 0.000000e+00 1.000000e+00
    outer loop
      vertex -3.160000e+01 -6.380000e+01 1.200000e+00
      vertex -5.999985e-01 -6.380000e+01 1.200000e+00
      vertex -3.160000e+01 -5.999985e-01 1.200000e+00
    endloop
  endfacet
  facet normal 0.000000e+00 0.000000e+00 1.000000e+00
    outer loop
      vertex -5.999985e-01 5.999985e-01 1.200000e+00
      vertex -5.999985e-01 6.380000e+01 1.200000e+00
      vertex -3.160000e+01 6.380000e+01 1.200000e+00
    endloop
  endfacet
  facet normal 0.000000e+00 0.000000e+00 1.000000e+00
    outer loop
      vertex -3.160000e+01 5.999985e-01 1.200000e+00
      vertex -5.999985e-01 5.999985e-01 1.200000e+00
      vertex -3.160000e+01 6.380000e+01 1.200000e+00
    endloop
  endfacet
  facet normal 0.000000e+00 0.000000e+00 1.000000e+00
    outer loop
      vertex 3.160000e+01 -6.380000e+01 1.200000e+00
      vertex 3.160000e+01 -5.999985e-01 1.200000e+00
      vertex 5.999985e-01 -5.999985e-01 1.200000e+00
    endloop
  endfacet
  facet normal 0.000000e+00 0.000000e+00 1.000000e+00
    outer loop
      vertex 5.999985e-01 -6.380000e+01 1.200000e+00
      vertex 3.160000e+01 -6.380000e+01 1.200000e+00
      vertex 5.999985e-01 -5.999985e-01 1.200000e+00
    endloop
  endfacet
  facet normal 0.000000e+00 0.000000e+00 1.000000e+00
    outer loop
      vertex 3.160000e+01 5.999985e-01 1.200000e+00
      vertex 3.160000e+01 6.380000e+01 1.200000e+00
      vertex 5.999985e-01 6.380000e+01 1.200000e+00
    endloop
  endfacet
  facet normal 0.000000e+00 0.000000e+00 1.000000e+00
    outer loop
      vertex 5.999985e-01 5.999985e-01 1.200000e+00
      vertex 3.160000e+01 5.999985e-01 1.200000e+00
      vertex 5.999985e-01 6.380000e+01 1.200000e+00
    endloop
  endfacet
  facet normal 0.000000e+00 0.000000e+00 1.000000e+00
    outer loop
      vertex 5.150000e+01 -6.380000e+01 1.200000e+00
      vertex 6.380000e+01 -5.150000e+01 1.200000e+00
      vertex 6.380000e+01 -5.999985e-01 1.200000e+00
    endloop
  endfacet
  facet normal 0.000000e+00 0.000000e+00 1.000000e+00
    outer loop
      vertex 3.280000e+01 -6.380000e+01 1.200000e+00
      vertex 5.150000e+01 -6.380000e+01 1.200000e+00
      vertex 3.280000e+01 -5.999985e-01 1.200000e+00
    endloop
  endfacet
  facet normal 0.000000e+00 0.000000e+00 1.000000e+00
    outer loop
      vertex 3.280000e+01 -5.999985e-01 1.200000e+00
      vertex 5.150000e+01 -6.380000e+01 1.200000e+00
      vertex 6.380000e+01 -5.999985e-01 1.200000e+00
    endloop
  endfacet
  facet normal 0.000000e+00 0.000000e+00 1.000000e+00
    outer loop
      vertex 6.380000e+01 5.999985e-01 1.200000e+00
      vertex 6.380000e+01 5.150000e+01 1.200000e+00
      vertex 5.150000e+01 6.380000e+01 1.200000e+00
    endloop
  endfacet
  facet normal 0.000000e+00 0.000000e+00 1.000000e+00
    outer loop
      vertex 3.280000e+01 5.999985e-01 1.200000e+00
      vertex 6.380000e+01 5.999985e-01 1.200000e+00
      vertex 3.280000e+01 6.380000e+01 1.200000e+00
    endloop
  endfacet
  facet normal 0.000000e+00 0.000000e+00 1.000000e+00
    outer loop
      vertex 3.280000e+01 6.380000e+01 1.200000e+00
      vertex 6.380000e+01 5.999985e-01 1.200000e+00
      vertex 5.150000e+01 6.380000e+01 1.200000e+00
    endloop
  endfacet
endsolid Default
